<?xml version="1.0" encoding="utf-8"?>
<!-- Generator: Adobe Illustrator 20.1.0, SVG Export Plug-In . SVG Version: 6.00 Build 0)  -->
<svg version="1.1" id="Layer_GR" xmlns="http://www.w3.org/2000/svg" xmlns:xlink="http://www.w3.org/1999/xlink" x="0px" y="0px"
	 viewBox="0 0 1366 734.1" style="enable-background:new 0 0 1366 734.1;" xml:space="preserve">
<style type="text/css">
	.st0{fill:#F25551;}
	.st1{display:none;fill:#FEEA39;}
</style>
<path class="st0" d="M579.5,359.1c-0.3-12.4-1-24.8,0.2-37.2c0.1-1-0.9-2.7,1.1-2.5c1.2,0.1,2.3,0.8,2.3,2.6
	c-0.1,3.3,0.2,6.6,0.3,9.9c1.6,2.4,1.9,5.2,2.1,8c0.6,9.8,0,19.7,1,29.6c-0.1,16-0.2,32.1,0,48.1c0,4.8,0,9.6,0,14.4
	c0,1.8,0,3.7-1.2,5.2c-0.7,1.9,1.7,5.6-1.6,5.5c-2.7-0.1-1.4-3.8-1.5-5.8c-0.3-7.2-0.2-14.5-0.3-21.7c-1.7-2-1.1-4.4-1.2-6.7
	c-0.3-7.1,0.7-14.2-0.6-21.2C580,378,577.5,368.6,579.5,359.1z"/>
<path class="st0" d="M586.3,321.9c1.6,0.4,2.2,0.9,2.4,3.2c0.7,11-0.2,22.1,1.5,33.1c1.7,2,1.3,4.4,1.3,6.7c0,14.8,0.1,29.6,0,44.4
	c0,6.1-0.4,12.3,0.9,18.4c0.9,4.3-0.8,8.5-0.4,12.8c-0.6,1.1,1,3.4-1.7,3.3c-1.8-0.1-3.3-0.7-3.2-2.9c0-1.2-0.1-2.3-0.1-3.5
	c-1.6-4.5-0.5-9.2-0.8-13.8c-0.3-5.1,0.4-10.3-0.4-15.4c-0.2-11.5-0.5-23,0.2-34.5c0.1-1.5-0.4-2.9-0.3-4.4c-0.8-11,0.4-22.1-1.1-33
	c-0.6-4.4,0.2-8.9,0.3-13.3C584.9,322.2,585.6,321.9,586.3,321.9z"/>
<path class="st0" d="M598,438.5c-1.1,1.7,2.5,5.3-1.8,5.6c-4.1,0.3-2.3-3.4-2.9-5.4c-0.1-0.5-0.2-1-0.3-1.4
	c-1.2-5.5-1.6-11.2-1.7-16.8c-0.4-19.1,0.5-38.3-0.6-57.4c-0.1-1.7,0.4-3.3,0.7-4.9c-0.3-10.3-0.6-20.6-0.7-30.9c0-1-0.9-3,1.3-3
	c1.7,0,2,1.5,2.1,2.9c0.1,4.3,0.2,8.6,0.3,13c2.2,4.3,2,9.1,2,13.6c0,13.5,0.9,26.9,1.2,40.4C596.9,408.9,598.7,423.7,598,438.5z"/>
<path class="st0" d="M600.3,338.9c-0.1-2.6-0.3-5.3-0.3-7.9c0-1.2-0.5-3,1.4-3.1c1.6-0.1,2.7,0.9,2.7,2.8c0,3.5,0.1,6.9,0.2,10.4
	c0.5,1.1,1.1,2.1,1.2,3.4c2.6,19.8,1.9,39.8,3.2,59.6c0.2,3.3,0.7,6.6,1.5,9.8c0.4,1.5,0.4,3,0.3,4.5c-1,3.9-1.1,7.7-0.2,11.6
	c0.9,4,0.4,8.1-0.7,12.1c-0.8,0.8,0.7,3-1.7,2.9c-1.4-0.1-1.6-1.4-1.7-2.6c-0.4-3.7-0.7-7.5-1.1-11.2c-1.7-3.5-2.3-7.3-2.2-11.1
	c0.3-11.2-1.7-22.2-1.1-33.4c0.1-1.2-0.2-2.3-0.6-3.4c-1-6.9,0.2-13.9-0.8-20.9C599.5,354.6,599.8,346.8,600.3,338.9z"/>
<path class="st0" d="M574.2,316.9c4.7,0.8,3.8,4.7,3.6,7.5c-0.9,11.6-0.8,23.2,0.5,34.7c1.7,5.5,0.7,11.2,1.4,16.7
	c0.9,6.7,1.6,13.5,1.4,20.3c0,8.1,0.1,16.1-0.5,24.2c-0.1,1.6-0.5,3.3,0.4,4.8c-0.5,4.7-0.8,9.4-0.8,14.2c0,0.9,1.2,3.3-1.6,3.2
	c-2-0.1-2.9-0.5-3.1-3.1c-0.3-3.1,0.4-6.3-0.3-9.4c0-0.2-0.1-0.4,0-0.5c5.5-3.4,1.3-8.5,1.9-12.7c0.7-4.7,0.1-9.6-0.1-14.4
	c-1.2-24.4-2.6-48.8-3.8-73.2c-0.2-3.6-0.9-7.3,0.6-10.9C573.7,317.9,573.7,317.4,574.2,316.9z"/>
<path class="st0" d="M609.2,418c0-1.1,0-2.2,0.1-3.2c-1.9-19.5-1.9-39.2-2.9-58.8c0.2-0.9,0.5-1.8,1.7-1.7c5.7,25.1,6.3,50.7,7,76.2
	c0.1,3.4,3.1,5.8,2.9,9.3c-0.1,1.8,0.8,3.7-0.2,5.6c-2.6-1-0.8-3.5-2.3-4.7c-2.2,0.9,1,4.7-2.2,4.4c-2.6-0.2-1.7-3-2.2-4.8
	c-1.6-6.4-2.1-12.9-1.7-19.4C609.5,419.8,610,418.9,609.2,418z"/>
<path class="st0" d="M604.2,435.3c0.1,2.3,0.1,4.6,0.3,6.9c0.1,1.2,0.4,2.4-1.3,2.6c-1.3,0.1-2.8,0.1-3.1-1.6
	c-0.4-2.6-0.7-5.2-1-7.9c-1.7-5.4-1.7-11-1.9-16.6c-0.4-11.2,0.5-22.5-0.5-33.7c-1.4-12.5-0.1-25.1-1.4-37.6c-0.7-7,0-14.1,0.8-21.2
	c3.7,2.8,1.2,7.3,2.8,10.7c0.6,1.3,0.3,2.9,0.4,4.4c1.3,1.8,0.7,3.9,0.9,5.9c0.1,5.1-0.2,10.3,0.4,15.4c0.3,0.5,0.5,1,0.5,1.6
	c0.2,4.8,0,9.6,0.1,14.5c0.3,4-0.7,8,0.9,11.9c0.2,1.4,0.1,2.8,0.1,4.2c0.3,10.6,0.6,21.3,2,31.8
	C604.5,429.4,602.8,432.3,604.2,435.3z"/>
<path class="st0" d="M549,438.2c0.1-2.8-0.3-5.7,0.4-8.4c0.4-1.4-1.5-4.6,2.5-4.6c3.6,0,3.3,2.4,3.4,4.5c0.1,2.8,0,5.6,0,8.4
	C553.2,442,551.1,440.3,549,438.2z"/>
<path class="st0" d="M539.2,424.1c0.2,0.2,0.5,0.3,0.8,0.2c0.2,3.6,0.7,7.2,0.7,10.9c0,1.4,0.9,3.8-2.3,3.8c-2.7,0-3.4-1.1-3.4-3.5
	c0.1-2.5,0.1-4.9-0.1-7.4C534.7,424.9,535.9,423.4,539.2,424.1z"/>
<path class="st0" d="M542.2,425.3c4.9-1,5.8,1.7,5.3,5.7c-0.2,1.5-0.5,3-0.2,4.4c1,4.1-1.1,4.4-4.1,3.9
	C541.5,434.7,542,430,542.2,425.3z"/>
<path class="st0" d="M574.2,435.5c0,1.3,0.1,2.6,0,3.9c-0.1,1.1,0.8,2.8-1.5,2.7c-1.5-0.1-3.2-0.1-3.2-2.1
	c-0.1-3.6-0.1-7.2,0.1-10.8c0-0.9,0.3-2.4,2-2.3c1.3,0.1,2.2,0.8,2.3,2.2C573.9,431.2,574,433.4,574.2,435.5z"/>
<path class="st0" d="M556.3,438.2c0.2-3.1-0.1-6.2,0.7-9.2c0.3-1.3-0.4-3,2.1-2.9c2.6,0.1,1.7,2,1.8,3.2c0.3,3.3,0.3,6.6,0.5,9.9
	c-0.2,1.6-1.2,1.9-2.7,1.7C557,440.8,556.2,440,556.3,438.2z"/>
<path class="st0" d="M563.1,438.2c0.1-4,0.1-8,0.2-12c3.4-0.3,4.8,1.2,4.4,4.6c-0.3,2.3,0,4.6-0.2,6.9c-0.1,1.2,1.2,3.1-1.2,3.6
	S563.2,440.3,563.1,438.2z"/>
<path class="st0" d="M608,354.3c-0.3,0.4-0.6,0.7-1,1.1c-2.5-1.3-1.4-3.7-1.8-5.7c-0.3-1.8,0.2-3.7-0.9-5.3c0-1.1,0-2.2-0.1-3.3
	c0.7,0.3,1.9,0.9,1.5-0.6c-0.5-2.6,0.4-5.2-0.5-7.8c-0.4-1-0.5-2.7,0.9-3c1.1-0.2,2.6,0.2,3.7,0.8c1.5,0.9,0.2,2.1-0.4,2.9
	C605.3,340.2,607.6,347.3,608,354.3z"/>
<path class="st0" d="M532.8,438c-1-4.9-2.9-9.6-0.9-15.9C534.3,428.1,532.9,433.1,532.8,438z"/>
<path class="st0" d="M620.2,379.2c-2.1-12.4-3.4-24.8-3-37.4c0.1-2.4,0.7-4.3,2.3-6.1c1.6,6-1.3,11.9,0.6,17.6
	c1.7,8.4,2.7,16.9,1.6,25.4C621.4,379.3,620.9,379.5,620.2,379.2z"/>
<path class="st0" d="M763.6,457.5c-0.1,0.3-0.2,0.5-0.3,0.8c-4.1,1.9-4-1.6-4.3-3.7c-0.7-5.1-0.1-10.3-0.2-15.4
	c0-2.3,0.3-4.6-0.3-6.3c0.9,7.4-0.6,15.4,0.5,23.3c0.1,1-0.2,2.1-1.3,2.4c-1,0.4-1.9-0.2-2.6-1c-0.8-0.9-1-2.1-1.1-3.2
	c0.1-10.3-0.5-20.7,0.1-31c3.5-1.4,6.5-0.9,9,2c2.1,9.1,1.7,18.3,1.6,27.5C764.8,454.5,764.2,456,763.6,457.5z"/>
<path class="st0" d="M774.4,453.4c-0.1,1.3-0.1,2.6-0.2,3.8c-0.1,0.9,0,2-1.3,2.2c-1.5,0.2-2.5-0.2-2.7-1.9
	c-0.9-1.3-1.2-2.7-1.2-4.2c0.1-8.5-0.5-16.9,0.3-25.4c1.1-2.5,2.6-2.4,4.4-0.7C775.1,435.9,777.3,444.6,774.4,453.4z"/>
<path class="st0" d="M768.6,457.6c-0.4,0.8-0.6,2-1.8,1.6c-1.3-0.4-1.3-1.6-1.5-2.7c-2-3.3-0.7-6.8-0.7-10.2
	c0-6.9-0.9-13.7-0.7-20.6c3.1-2.1,4.6-0.6,5.4,2.4c0.2,8.4,0.3,16.8,0.1,25.2C769.4,454.7,769.5,456.2,768.6,457.6z"/>
<path class="st0" d="M778.5,438.6c0.1,1.3-2.8,0.5-1.7,2.8c2.4,4.7,1.4,10,1.6,15c0,1.1,0.6,3.1-1.4,3.1c-1.8,0-1.3-1.9-1.5-3.1
	c-0.1-1-0.2-2-0.2-3c-0.8-7.6-0.3-15.3-0.9-22.9c0.4-2.6,1.7-3.4,4.2-2.3C780.6,431.7,780,435.2,778.5,438.6z"/>
<path class="st0" d="M779.1,439.2c0-3.4-0.1-6.7-0.1-10.1c1.7,1.7,1.7,1.7,0.8,5.6c1.8-2.1-0.5-5.9,3.2-6.7c2.2,2.8-0.1,6.1,1.2,9
	c-0.4,1.3,0.5,3.2-1.3,3.8c-1.9,0.6-1.5-1.4-2.2-2.3C780.1,437.5,779.6,438.8,779.1,439.2z"/>
<path class="st0" d="M781.4,460.6c-1.1-3.4-0.7-6.1-0.8-8.9c0-0.8,0.2-1.8,1.3-1.7c0.4,0,1.1,0.6,1.1,0.8
	C782.8,454,784.2,457.3,781.4,460.6z"/>
<path class="st0" d="M780.8,442.3c2.8,1.9,2.4,3.7,2,5.4c-0.1,0.3-1.5,0.7-1.7,0.5C779.9,446.6,781.1,444.9,780.8,442.3z"/>
<path class="st0" d="M781.9,425.2c-1.5-1.2-0.6-2.8-0.9-4.2c1.6-5.5,0.1-11.2,1.7-16.7C782.6,411.2,784.2,418.3,781.9,425.2z"/>
<path class="st0" d="M735.4,420.5c4.4-1.7,2.6,2.9,4.1,4.3c1.3-0.9-0.4-3.8,2.2-3.4c2.3,0.3,2.2,2.5,2.7,4.1
	c1.1,7,1.4,14.1,1.6,21.3c-0.2,0.5-0.5,0.8-0.9,1c-2.5-0.6-2.4-3.3-4-4.7c-3.1-3.9-0.4-8.2-1-11.2c0.2,3.3-2.5,7.9,1.4,11.8
	c0.7,3,5.1,4.7,2.8,8.6l-0.5,0.2l-0.5-0.1c-3.8-1.9-4.4-6.2-6.6-9.2c-0.9-1.3-1.5-2.7-3.1-3.3c-2-0.7-1.8-3.5-4-4.1
	c-1.5-1-2.1-2.8-3.3-4.1c0-0.2-0.1-0.3-0.1-0.5c0.1-1.3,1.1-1.5,2.1-1.3c2.8,0.8-0.4-1.1,0.5-1.1c-0.2-1-0.2-1.9,0.6-2.6
	c2.7-0.8,3.4,1.6,4.8,3.1C733.9,426.1,734,423.2,735.4,420.5z"/>
<path class="st0" d="M750.4,423.4c2.1-0.5,2.6-0.1,2.6,2.4c-0.1,9.1,0.3,18.2,0.6,27.3c0,1.1,0.4,2.2,0.7,3.3
	c-2.7,1.9-4.6,1.8-4.9-2.1c-0.9-1-1.5-2.3-1.2-3.6c1.7-8.7-0.3-17.7,1.9-26.4C750.2,424,750.3,423.7,750.4,423.4z"/>
<path class="st0" d="M746.5,453.3c0.4-2.1-0.8-4-1-6l-0.1,0.1c1-4.8-0.6-9.5-0.6-14.2c0-2.6-0.9-5.3,0.6-7.8
	c0.5-1.1-0.8-3.7,1.5-3.3c3.2,0.5,0.8,3.5,1.6,5.2c-0.1,7.3-0.2,14.6-0.4,21.9C748.1,450.7,749.1,452.8,746.5,453.3z"/>
<path class="st0" d="M735.4,420.5c0,3.8,0,7.6,0,11.7c-3.3-1.2-2.3-5.8-5.9-5.7c-1-1.1-2.4-1.6-3.7-2.1c-0.4-0.2-0.8-0.4-1.2-0.6
	c-0.7-0.7-2.1-1.2-1.2-2.6c1.1-0.8,2.3-0.7,3.6-0.5c0.6,0.1,1-0.4,0.3-0.3c-0.1,0-0.2-0.2-0.2-0.4c0.3-1.1,1.3-0.9,2-1.3
	C731.5,418.4,733,421.2,735.4,420.5z"/>
<path class="st0" d="M729.2,418.7c-0.6,0.6-1.2,1.1-1.8,1.7c-1.3,0.8-2.5,1-3.7-0.1c-2.1-0.5-4.1-0.9-6.2-1.4
	C721.3,416.4,725.2,418.7,729.2,418.7z"/>
<path class="st0" d="M701.6,413.1c-1.1,1.1,0.5,3.4-2.2,3.4c-2.1,0-2.4-1.2-2.4-2.8c0-1.4-0.2-2.8,1.9-2.4
	C700.2,411.5,701.5,411.5,701.6,413.1z"/>
<path class="st0" d="M705.6,413.1c1.4,0.4,1,1.5,1,2.4c0,1.4-0.5,2.2-2,1.9c-0.9-0.2-2.3-0.3-1.4-1.7
	C703.8,414.8,703.9,413.1,705.6,413.1z"/>
<path class="st0" d="M704.2,438.2c-1.1-0.4-0.6-2.4-3.4-2.4c2.1,1.8,0.1,4.8,3.8,5.7c0.9,0.2,1.5,2,0,3.3c-1.2,1-2.2,2.4-3.3,3.6
	c-2.6,0.6-4.1,3-6.7,4.8c-0.3-2.7-0.5-4.6-0.8-6.6c-0.9,1.3,0.1,3.1-1.3,4.1c-3.5-4.7-0.9-9.9-1.2-14.9c-0.1-2.4-1.7-5.7,1.8-7.5
	c1.3,1.6,4.3,1.8,4,4.8c-0.1,0.7,0.3,0.7,2.3-0.8c0.2-0.5,1.7,0.8,1.1-1c-0.7-2.3-1.1-4.9,0.8-7c1.7,1.3-0.1,4,2,5.1
	C705.6,432,706.4,434.9,704.2,438.2z"/>
<path class="st0" d="M693.1,428.2c-0.7,7.4-1.2,14.9-0.6,22.4c-0.6,2.6-1.8,2-3.1,0.6c-2.1-2.6-1.9-5.3-0.2-8
	c0.4-5.9,0.9-11.7,0.2-17.6c-0.2-1.3,0.3-1.3,1.2-1.3l-0.1-0.1C691.4,425.5,692.8,426.5,693.1,428.2z"/>
<path class="st0" d="M707.3,446.4c1.1-1.6,2-1.2,2.9,0.2c0.7,1.2,1.2,2.8,2.9,3.1c3.5,2.6,3.6,3.1,1.1,5.3
	C707.4,455.7,707.4,450.9,707.3,446.4z"/>
<path class="st0" d="M702.8,449.2c1-0.9,2-1.8,3-2.7c0.6,2.6,0.7,5.1-1,7.5C703.3,452.7,703.2,450.9,702.8,449.2z"/>
<path class="st0" d="M690.4,424.2L690.4,424.2c-0.1-0.7-0.2-1.4-0.4-2c5.7-2.1,7-0.9,5.9,5.7C694.1,426.5,693.8,422.9,690.4,424.2z"
	/>
<path class="st0" d="M721.4,458.3c0.4-1.2-0.5-2-0.9-3c1.2-2.2,0.3-4.5,0.6-6.8c0.2-1.8,0.3-3.7,2-4.8c0.6-0.7,1.2-1.5,2.1-2.6
	c-0.5,6.7-0.3,13,0.1,19.4C723.7,460.4,722.7,459,721.4,458.3z"/>
<path class="st0" d="M726.3,439.4c0-1.6,0-3.3,0-4.9c5,2.5,1.8,7.4,3.6,10.8c0.2-0.7,0.5-1.7,0.9-3c4.1,3.9,3.7,8.3,2.4,12.8
	c-0.7,2.5-3.1,0.8-4.7,1.3c-1.8,0.5-2.1-0.9-2.1-2.5C726.4,449,726.3,444.2,726.3,439.4z"/>
<path class="st0" d="M723.2,443.7c-0.9,2.7-0.5,5.4-0.7,8.1c-0.1,1.3,0.8,3.5-1.9,3.5c-0.2-0.2-0.3-0.5-0.4-0.7
	c-1.5-5.9-2.4-11.7,1.1-17.3c-1.1-1.5-0.8-2.7,1-3.5c2.2-1,1.2,1.4,2.1,1.8c0,0.5,0,1.1,0.1,1.6
	C722.8,439.2,721.4,441.1,723.2,443.7z"/>
<path class="st0" d="M735.6,444.4c4.4,3.5,4.8,5.5,1.8,9C737.1,450.3,734.7,447.7,735.6,444.4z"/>
<path class="st0" d="M704.2,438.2c0.4-3.1-0.7-6-1-9c0.2-2.3-1.3-6.2,1.5-6.3c3-0.1,1,3.8,1.5,5.8c0.1,0.6,0.2,1.2,0.4,2.2
	c2.1-1.8,1.4-3.9,1.7-5.7c0.2-1.1,0.3-2,1.7-2s1.4,1.1,1.4,2.1c0,4.3,0.2,8.7-0.2,13C710.8,442.2,709.3,442.2,704.2,438.2z"/>
<path class="st0" d="M716.4,435.9c0-3.4-0.1-6.3,0.1-9.3c0.1-1.2,0.9-2.1,2.3-2.1c1.8,0,1.6,1.3,1.7,2.4
	C720.7,430.3,721.3,433.9,716.4,435.9z"/>
<path class="st0" d="M719.4,453.5c-1.9-0.2-2.8-1.3-3-3.1c-2.5-4-1.8-7.9,0.1-11.9c1-0.2,1.9-2.9,3.1-0.2
	C719.1,443.3,719.7,448.4,719.4,453.5z"/>
<path class="st0" d="M701.2,424.1c-0.1,3.1-0.5,6.2,0.7,9.2c-1.3,0.5-1.7-0.9-2.6-1.1c-3-2.6-0.3-6-1-8.9c-0.2-0.6,0.6-1.1,1.3-1.1
	C701.1,422.1,701.2,423.1,701.2,424.1z"/>
<path class="st0" d="M713.9,424c2,1.4,2.2,2.8,1.4,4.2c-1.3,2.4-0.7,4.8-0.7,7.2c0,1.2,0.4,2.7-1.2,2.6c-1.8,0-0.9-1.8-0.9-2.8
	C712.4,431.6,712,427.8,713.9,424z"/>
<path class="st0" d="M714.4,440.4c-0.2,2.6,0.9,5.4-0.9,7.9C711.6,445.4,710.6,442.6,714.4,440.4z"/>
<path class="st0" d="M723.5,425.3c1.9,1.5,1.6,3.4-1,6.3C721.8,429.3,721.8,427.2,723.5,425.3z"/>
<path class="st1" d="M534,419.2c-2.4-0.5-3.5-1.8-3.6-4.5c-1-28.1-3.8-56.1-4.6-84.2c-0.2-7.6-1.3-15.2-1.3-22.8
	c0-3.3,1.3-3.2,3.5-2.3c11.5,4.4,22.9,8.9,34.4,13c2.9,1,3.3,2.9,3.4,5.2c0.3,7.3,0.5,14.6,0.8,21.9c0.1,2.5,0.5,4.9,0.8,7.4
	c3.9,3.8,2.3,8.9,2.8,13.3c1.8,16.5,3.3,33,3.4,49.6c0,6.6-0.3,7.3-7,7.2C555.4,422.9,544.6,422.1,534,419.2z"/>
<path class="st1" d="M780.7,394.2c0.2,7-2.2,14.1,0.2,21.1c0.7,2.1-1.6,3.6-0.9,5.6c1.1,1.6,0.2,2.6-1,3.6
	c-4.6,1.7-8.7-1.4-13.1-1.3c-5.7-1.1-11.1-3.7-17-4.3c-1.2-0.1-2.1-0.7-2.6-1.9c-0.5-12.7-0.6-25.5-0.7-38.2c0-4,1.5-5.2,5.8-4.1
	c7.2,1.9,14.2,4.5,21.3,6.6c2.2,0.6,4.4,1.6,6.8,1c0.6,0,1.1,0.2,1.6,0.6c0.8,0.5,2.3,1.3,1.5,2.1
	C779.6,387.7,780.9,391.1,780.7,394.2z"/>
<path class="st1" d="M702,359.5c5.5,2.3,10.9,4.8,16.6,6.6c3,1,3.9,2.4,3.9,5.3c0,2.8,0.4,5.6,0.7,8.4c0.3,8.4,0.6,16.8,0.8,25.2
	c0.2,6.4-0.3,6.8-6.7,5.4s-12.9-2.9-19.3-4.4c-1.9-0.4-3.9-0.8-5.8-1.2c-1.4-0.3-2.6-0.8-2.6-2.4c-0.3-5.7-1.1-11.4-0.7-17.2
	c-1.1-5.4,0.5-11-0.9-16.4c-0.2-0.2-0.3-0.5-0.1-0.8c-0.9-4-0.5-8,0.1-12.1C692.9,356.3,697,360,702,359.5z"/>
<path class="st1" d="M741.1,382c-0.7,9.3-1,18.7-0.1,28c-1.1,1.8,2.2,5.9-3,5.7c-7.4-0.3-8.4-0.8-8-6.2c0.9-12.3-1.5-24.5-0.8-36.9
	c0.2-3.2,1.1-2.9,3.5-2.5C739.7,371.2,740.7,376.3,741.1,382z"/>
</svg>
