<?xml version="1.0" encoding="utf-8"?>
<!-- Generator: Adobe Illustrator 20.1.0, SVG Export Plug-In . SVG Version: 6.00 Build 0)  -->
<svg version="1.1" id="Layer_5" xmlns="http://www.w3.org/2000/svg" xmlns:xlink="http://www.w3.org/1999/xlink" x="0px" y="0px"
	 viewBox="0 0 1366 734.1" style="enable-background:new 0 0 1366 734.1;" xml:space="preserve">
<style type="text/css">
	.st0{fill:#F25551;}
</style>
<path class="st0" d="M781.9,491c-2.7-0.1-2.2,2.2-2.4,3.8c-0.8,6.1-0.7,6.2-6.6,5.7c-3-4.5-5.8-9-8.8-13.4c-0.1-0.2-0.2-0.3-0.3-0.5
	c-0.8-3.2-2.7-5.9-4.8-8.6c0,0.1,0,0.1-0.1,0.2c0-0.1,0-0.1,0-0.2c-0.9-1.9-4.3-3.6-0.2-5.7c-1.1-2-1.8-4.2-3.8-5.6
	c0.1,0,0.1-0.1,0.2-0.1c-1-2.1-2-4.2-2.9-6.4c4.1,0.2,8.3,0.4,12.4,0.7c0.6,0.6,1.3,1,2,1.4c1.3,0.6,2.6,0.7,3.9,0.8
	c5.9,0.3,7.1-0.5,7.4,7.5c0.2,4.6,0.7,9.2,1.1,13.8c0.1,0.8,0.3,1.8,1,2.2c0.1,0.1,0.3,0.1,0.5,0.1c0.9,0.1,1.3-0.4,1.5-1.1
	C781.9,487.4,781.8,489.2,781.9,491z M775.8,500.3c0.4-0.3,0.7-0.5,1.1-0.7c-2.3-3.8-3.5-8.2-7.8-10.8
	C771.4,492.6,773.6,496.4,775.8,500.3z"/>
<path class="st0" d="M778.9,466.3c0,6.7,1.9,13.3,1.2,20.1l-0.1,0.2c-0.7-0.4-0.9-1.4-1-2.2c-0.4-4.6-0.9-9.2-1.1-13.8
	c-0.3-8-1.5-7.2-7.4-7.5c-1.3-0.1-2.6-0.2-3.9-0.8c-0.7-0.4-1.4-0.8-2-1.4c0.3,0,0.5,0,0.8,0c0.2,0,0.3,0.1,0.5,0.1
	c3.1,0.4,6.2,1.2,9.3,1.1C778.6,462.1,778.9,463.5,778.9,466.3z"/>
<path class="st0" d="M772.5,500.6c-0.4,0.1-0.7,0.3-1,0.4c-1.5-1.7-4-1.9-5.8-3.3c-0.3-0.1-0.6-0.2-1-0.2
	c-0.8-5.6-4.3-10.4-5.4-16.1c1.7,1.1,2.2,3,3.1,4.4c0.2,0.6,0.5,1.1,0.7,1.7c1.6,2.7,3.4,5.2,5.1,7.9
	C769.3,497.3,769.9,499.8,772.5,500.6z"/>
<path class="st0" d="M762.9,497.3c0,0.5-0.4,0.9-1.1,1c-0.1-0.1-0.1-0.1-0.2-0.2c0,0,0,0,0,0c-0.2-0.6-0.3-1.1-0.5-1.7
	c0.3,0.1,0.5,0.3,0.8,0.4C762.2,497.1,762.5,497.2,762.9,497.3z"/>
<path class="st0" d="M757.4,484c-0.1,3,2.3,6-1.1,7.9c0,0-0.1,0-0.1-0.1c1.6-2.7,0.3-5.7,1.2-9.6c2,5.5,3.8,10.1,5.4,14.7
	c0,0.1,0.1,0.3,0.1,0.4c-0.4-0.1-0.7-0.2-1-0.4c-0.3-0.1-0.6-0.3-0.8-0.4C759.8,492.5,758.2,488.6,757.4,484z"/>
<path class="st0" d="M761.1,496.5c0.2,0.6,0.4,1.1,0.5,1.7c-2.1-1.8-5.9-2-5.5-6.1c0,0,0,0,0,0c0.1,0,0.1-0.1,0.2-0.1
	C757.8,493.5,759.2,495.3,761.1,496.5z"/>
<path class="st0" d="M757.4,484c0.8,4.6,2.4,8.5,3.7,12.4c-1.9-1.2-3.3-2.9-4.8-4.6C759.7,490,757.3,487,757.4,484z"/>
<path class="st0" d="M754.8,476.2c-0.4,0.6-0.6,1.3-0.8,1.9c0-0.1-0.1-0.1-0.2-0.2c-0.7-0.6-1.5-1.6-2.5-1.2
	c-1.2,0.6-0.3,1.7-0.1,2.5c0.4,1.6,1.1,3,1.2,4.7c0,0.1,0,0.1,0,0.1c-0.1,0-0.2,0-0.4,0v0c-1.6-3-2.3-6.3-3.1-10.2
	C751.3,474.8,753.1,475.5,754.8,476.2z"/>
<path class="st0" d="M753.8,477.9c0.1,0.1,0.1,0.1,0.2,0.2c-1,3.1,0,6.4,0.3,9.6c-0.8-1.1,0-3.3-1.9-3.7c0,0,0-0.1,0-0.1
	c-0.1-1.7-0.8-3.1-1.2-4.7c-0.2-0.8-1.1-1.9,0.1-2.5C752.3,476.3,753.1,477.3,753.8,477.9z"/>
<path class="st0" d="M752,464.6c-0.1,0-0.2,0.1-0.2,0.1c0,0-0.1,0-0.2,0c-0.3,0-0.5,0.1-0.7,0.3c-1.7-3.1-4.4-3.7-7.4-3
	c1.8-2.7,4.3,0.7,6.3-0.4c0,0,0.1,0,0.2,0C750.1,462.8,750.9,463.8,752,464.6z"/>
<path class="st0" d="M751,466.1c1.2,2.4,2.4,4.9,3.8,7.5c-4.1-0.5-6.7-2.1-5.9-6.6c0.1,0,0.2,0,0.3,0c1.1,1.5,0.8,3.8,2.9,4.9
	c-0.7-1.7-2.1-3.1-2.1-5.1C750.4,466.6,750.7,466.4,751,466.1z"/>
<path class="st0" d="M750.9,465C750.8,465,750.8,465,750.9,465c-2.2-1.7-4.9-2.1-7.5-2.8c0-0.1,0-0.1,0.1-0.1
	C746.5,461.3,749.2,461.8,750.9,465z"/>
<path class="st0" d="M750.6,461.3c0.8,0.9,1.1,2.1,1.4,3.3c-1.1-0.8-1.9-1.8-2-3C750.2,461.5,750.4,461.4,750.6,461.3z"/>
<path class="st0" d="M752.1,471.9c-2.1-1.1-1.8-3.4-2.9-4.9c0.3,0,0.5-0.1,0.8-0.2C750,468.8,751.4,470.2,752.1,471.9z"/>
<path class="st0" d="M750.1,465.9c-0.1,0.2-0.1,0.4-0.1,0.7c0,0.1,0,0.1,0,0.2c-0.2,0.1-0.5,0.2-0.8,0.2c-0.1-0.1-0.1-0.2-0.2-0.3
	C749.3,466.2,749.7,465.9,750.1,465.9z"/>
<path class="st0" d="M750,461.6c0,0-0.1,0-0.2,0c-2,1-4.6-2.3-6.3,0.4c-0.1,0-0.2,0.1-0.3,0.1c-0.1,0-0.2-0.1-0.2-0.1
	c-0.8-1.4-2.3-3.2,1.1-2.6c2,0.3,3.9,0.8,5.9,1.2C749.9,460.9,749.9,461.3,750,461.6z"/>
<path class="st0" d="M746.7,478.6c-0.2-1.9-0.5-4-1.2-6.1c0.1,0,0.2-0.1,0.4-0.2c0,0,0-0.1,0.1-0.1c0,0,0,0,0,0
	c1.9,3.8,2.2,7.9,1.6,12.2c-1.3-3.9-3.1-7.8-2.4-12.1C745.8,474.5,746.4,476.7,746.7,478.6z M746.7,478.7c0.1,1.2,0.2,2.2,0.3,3.1
	C747,480.9,746.9,479.8,746.7,478.7z"/>
<path class="st0" d="M743.3,472c0.4,2.9,0.8,5.8,1.3,9.3c-4.8-3.3-6-8.8-10.5-11.2c0,0,0,0,0.1,0c4.8,0.8,5.7,5.7,8.6,8.1
	c0.1-1.8-1.8-4.1,0.1-6.1C743,472,743.1,472,743.3,472C743.2,472,743.3,472,743.3,472z"/>
<path class="st0" d="M743.1,471.8c-0.1,0.1-0.1,0.1-0.2,0.2c-3.1,0-5.5-3.1-8.7-2c-0.1,0-0.1,0-0.2,0c-0.3-0.7-0.7-1.4-1.4-3.1
	C736.4,469.1,740.3,469.1,743.1,471.8z"/>
<path class="st0" d="M742.9,472c-1.9,2,0,4.3-0.1,6.1c-3-2.4-3.8-7.3-8.6-8.1C737.4,469,739.8,472,742.9,472z"/>
<path class="st0" d="M739.1,458.9c1.1,1,2.5,2,1.6,3.9c-0.1-0.1-0.3-0.2-0.4-0.2c-0.7-1-1.2-2.1-1.8-3.2
	C738.7,459.2,738.9,459.1,739.1,458.9z"/>
<path class="st0" d="M740.3,462.6c0.1,0.1,0.2,0.2,0.3,0.3c-3.3,0.1-6.5,0.2-9.8,0.5c-1.9,0-3.1-0.8-4-2.3c0.5-0.1,0.9-0.3,1.4-0.3
	c0,0,0.1,0,0.1,0C732.1,462.8,736.5,460.7,740.3,462.6z"/>
<path class="st0" d="M738.5,459.4c0.6,1.1,1.1,2.2,1.8,3.2c-3.8-1.8-8.2,0.2-12-1.8c0,0-0.1,0-0.1,0
	C731.6,460.2,735.2,461.3,738.5,459.4z"/>
<path class="st0" d="M738.3,459c0.1,0.1,0.1,0.2,0.2,0.4c-3.3,1.9-6.9,0.9-10.3,1.4c-0.5-0.2-0.8-0.3-1.3-0.5
	c0.4-1.2,1.5-1.3,2.9-1.3c2.8,0,5.6-0.1,8.4-0.2C738.3,458.9,738.3,458.9,738.3,459z"/>
<path class="st0" d="M721.9,460.1c0.1,1,3,2.7-0.7,2.7c-0.1,0-0.2,0-0.3,0c0.1,0,0.2-0.1,0.3-0.1c-0.4-0.3-0.8-0.5-1.3-0.6
	c1.1-0.3,1.4-1.2,1.6-2.2c0,0,0-0.1,0.1-0.2C721.7,459.9,721.8,460,721.9,460.1C721.9,460.2,721.9,460.1,721.9,460.1z"/>
<path class="st0" d="M721.6,459.7c0,0.1,0,0.1-0.1,0.2c-0.2,1-0.5,1.8-1.6,2.2c-1.3-0.4-2.7-0.2-4-0.3c-8.4-0.6-16.8,0.7-25.3-0.9
	c0-0.3,0-0.6,0-0.8c0-0.1,0-0.2-0.1-0.2v0c4.5-2.1,9.2-3.6,14.3-2.1c3.2,0.8,6.5,1.3,9.7-0.1c0.3-0.2,0.4-0.4,0.6-0.6
	C717.6,457.1,719.9,457.7,721.6,459.7z"/>
<path class="st0" d="M715.1,457.1C715.1,457.1,715.1,457.1,715.1,457.1c-0.1,0.2-0.2,0.4-0.5,0.6c-3.2,1.4-6.5,0.9-9.7,0.1
	c-5.1-1.5-9.8,0-14.3,2.1c0-0.1-0.1-0.2-0.1-0.3c3.7-4.6,8.7-4.2,13.8-3.2C707.9,457.1,711.4,457.1,715.1,457.1
	C715,457.1,715.1,457.1,715.1,457.1z"/>
<path class="st0" d="M692.6,455.2c-1,1.1-2,2.3-3,3.4c-0.2,0-0.4-0.1-0.7-0.2c0-0.8,1.1-1.4,0.9-2.3c-1.5-0.4-1.7,1.1-2.5,1.8
	c-0.2-0.1-0.3-0.1-0.5-0.1C686.8,453.6,689.4,454,692.6,455.2z"/>
<path class="st0" d="M689.8,456.1c0.2,0.9-0.9,1.5-0.9,2.3c-0.5-0.2-1.1-0.4-1.6-0.6C688.1,457.2,688.3,455.8,689.8,456.1z"/>
<path class="st0" d="M689.2,459C689.1,459.1,689.1,459.1,689.2,459c-1.4,1.3-1.9,0.4-2.3-0.9c0,0,0.1,0,0.1,0
	c0.1-0.1,0.3-0.1,0.4-0.2c0.5,0.2,1.1,0.4,1.6,0.6C688.9,458.6,689,458.8,689.2,459z"/>
<path class="st0" d="M648.6,513.1c0.1,3.4-1,3.9-3.9,3.6c-4.4-0.4-8.8-1.4-13.2-0.5c-0.6-0.5-1.3-0.8-1.9-1
	c-3.2-0.1-3.6-2.4-3.9-4.8c-1-7.9,0.2-15.9-1.1-23.8c-0.4-2.4,0.9-2.7,3.2-2.9c3.3-0.3,7,0.9,9.6-2.3c1.6,0,3.3,0.1,4.8-0.2
	c3.1-0.6,4.5,0.9,4.4,3.7C646.2,494.3,648.3,503.6,648.6,513.1z"/>
<path class="st0" d="M637.2,481.4c0.1,0,0.1,0,0.2,0c-2.6,3.2-6.3,2-9.6,2.3c-2.3,0.2-3.6,0.5-3.2,2.9c1.3,7.9,0.1,15.9,1.1,23.8
	c0.3,2.4,0.7,4.7,3.9,4.8c0.7,0.1,1.4,0.5,1.9,1c-0.4,0.1-0.8,0.1-1.2,0.3c-0.1,0-0.3-0.1-0.4-0.1c-3.4,0.6-5.3,0.5-5.2-4.4
	c0.1-10.1-0.9-20.3-1.5-30.7c5,2.5,9.4,0.8,13.9-0.1C637.1,481.2,637.2,481.3,637.2,481.4z"/>
<path class="st0" d="M634.4,469.6c0.1,0.1,0.1,0.3,0.2,0.4c-1.2,0.4-2.6-0.2-3.6,1c0,0,0,0-0.1,0c-2.3-0.2-4.6,0.1-6.9,0.9
	c0,0,0,0,0-0.1c-1.4-2.7-0.1-5.5,0-8.2c0.1-3.1-1.5-4.3-4-4.4c-8-0.4-16.1-0.7-24.1-1c0,0,0,0-0.1,0c0-0.1,0-0.2,0.1-0.3
	c-1.7-1.8-4-1.2-6.1-1.5c-3.1-0.4-6.2-0.4-6.7-4.9c0-0.1,0-0.2,0-0.2h0c-0.3-1.6-1.4-2.2-2.8-2.3l0.1-2.1c1,0.1,2.1,0.1,3.1,0.2
	c9.9,0.6,19.7,2.9,29.7,2.4c3.1-0.1,4.7,1.7,6,4.3c2.9,5.6,7.5,8.4,13.8,8.3C631.1,464.9,630.1,467.6,634.4,469.6z"/>
<path class="st0" d="M620,451.3c1.9,6.5,6.9,9.8,13.9,9.7c-0.3,0.4-0.6,0.7-0.8,1.1c-6.2,0.1-10.9-2.7-13.8-8.3
	c-1.3-2.6-2.9-4.4-6-4.3c-10,0.5-19.8-1.8-29.7-2.4c-1-0.1-2.1-0.1-3.1-0.2c-9.9-0.7-19.8-1.5-29.6-3c-1.8-0.3-3.7-0.3-5.3-1.2
	c-0.1-0.3-0.2-0.5-0.3-0.7c18.7,1.7,37.3,3.3,56,5.2c4.8,0.5,9.5,1,14.4,1C617.8,448.2,619.3,448.8,620,451.3z"/>
<path class="st0" d="M583.2,451.3l-0.4,0.1c-0.3-1.3-2-1.1-3.4-0.7c-9.6,2.8-19.5,3.8-29.4,4.8c-4.1,0.4-8.2,1-12.3,1.7
	c-2.8,0.5-3.6-0.7-3.5-3.3c0.1-1.7,0.3-3.4-0.2-4.9c-1.5-4.6-1.4-8,4.8-7.7c0.3,0.1,0.6,0.2,0.9,0.3c0.8,0.3,1.7,0.4,2.6,0.4
	c-0.9,0.3-1.9,0.3-2.8,0.5c-1.5,0.7-4.3-0.1-4.5,2.2c-0.3,3.2-0.3,6.7,1.2,9.7c0.8,1.5,2.7,0.9,4.1,0.7c12.6-1.7,25.5-1.7,37.8-5.7
	c0.8-0.2,1.6-0.4,2.4-0.3C581.7,449,582.9,449.7,583.2,451.3z"/>
<path class="st0" d="M580.5,446.9l-0.1,2.1c-0.8,0-1.6,0.1-2.4,0.3c-12.3,4-25.2,4-37.8,5.7c-1.4,0.2-3.3,0.8-4.1-0.7
	c-1.5-3-1.5-6.5-1.2-9.7c0.2-2.3,3-1.5,4.5-2.2c0.9-0.2,2-0.2,2.8-0.5c0.9,0,1.7,0,2.6,0c0.1,0,0.1,0.1,0.2,0.1c0.1,0,0.2,0,0.3,0
	c0.1,0.2,0.1,0.4,0.3,0.7c1.6,0.9,3.5,0.9,5.3,1.2C560.7,445.4,570.6,446.2,580.5,446.9z"/>
</svg>
