<?xml version="1.0" encoding="utf-8"?>
<!-- Generator: Adobe Illustrator 20.1.0, SVG Export Plug-In . SVG Version: 6.00 Build 0)  -->
<svg version="1.1" id="Layer_9" xmlns="http://www.w3.org/2000/svg" xmlns:xlink="http://www.w3.org/1999/xlink" x="0px" y="0px"
	 viewBox="0 0 1366 734.1" style="enable-background:new 0 0 1366 734.1;" xml:space="preserve">
<style type="text/css">
	.st0{fill:#FEEA39;}
</style>
<path class="st0" d="M407.5,93.3c7.1,3.7,12.9,8.1,19.1,11.8c5.1,3,6.7,7,7.1,12.4c0.9,11.4,2,22.8,3.1,34.2
	c0.3,3.4-0.9,3.9-3.6,2.3c-7.2-4.1-14.4-8.1-21.5-12.3c-2-1.2-3.8-2.7-3.7-5.5C408.7,122.1,408.6,108,407.5,93.3z"/>
<path class="st0" d="M457.1,477.8c0-3.8,0-7.5-0.1-11.3c-0.1-7-0.1-7,6.7-7.3c8.9-1.4,17.6-0.2,26.3,1.6c6.6,0.2,13.3,0.8,19.9,0.4
	c5-0.3,6.2,1.6,6.4,6c0.3,8.6,1.2,17.2,1.4,25.9c0.4,21.8,3.5,43.4,4.3,65.2c0,1.2,0.1,2.3,0.1,3.5c0.7,7.1,0.7,7.2-6.2,8.1
	c-9.8,1.2-19.9,1.6-29.6,1.1c-6.1-0.3-11.4,1.8-17.2,1.8c-7.2,0-7.2,0.4-7.9-6.6c-1.9-7.8-1.4-15.8-2.2-23.6
	c-0.7-7.1-0.8-14.2-1.2-21.3c-1.6-1.8-1.2-4.1-1.2-6.2c0.1-10.2-0.5-20.5,0.8-30.7C457.7,482.1,457.9,479.9,457.1,477.8z"/>
<path class="st0" d="M217.7,137.4c-5.8,2.1-17.3,6.9-22.4,9.2c-2.3,1-3-0.1-3.4-2c-0.3-1.6-0.2-3.3-0.2-5
	c-0.1-16.9,0.2-33.8-0.2-50.7c2.3-3.8,6.3-4.5,9.9-4c2.9,0.3,5.9,0.7,8.9,0.8c3.6,0.2,5,1.8,5.4,5.6c1.3,13.6,1,27.3,2,37.9V137.4z"
	/>
<path class="st0" d="M260,146c2.7,3.1,5.5,6.2,9.1,10.3c-8.9-0.4-17-0.8-25.1-1.1c-1.9-0.1-2.9-0.7-3-2.9
	c-0.3-19.9-1.4-39.7-0.2-59.6c0.1-1.5-0.8-3.9,2.5-3.6s2.3,2.4,2.3,4.3c-0.2,8.9-0.3,17.8-0.5,26.7c-3,8.7,2.2,13.9,8,18.9
	C256,140.8,258.6,142.8,260,146z"/>
<path class="st0" d="M235,149.7c-1.2,5-4.9,4.7-8.9,4.5c-7.2-0.3-14.4-0.1-21.8-0.5c4.2-3.1,9.2-4,13.9-5.6c2.5-0.8,5.2-1.3,7.6-2.4
	c1.4-0.6,3.1-1.2,2.4-3.9c-3.2-12.3-2.6-24.9-3-37.5c-0.1-3.6-0.3-7.3-0.3-10.9c0-6.3,2.3-7.4,8.2-4.3c2.1,7.7,0.9,15.5,0.7,23.2
	c1,10-0.1,20.2,1.3,30.2C235.2,144.8,235.8,147.3,235,149.7z"/>
<path class="st0" d="M273.8,148.2c-6.5-7.6-13.3-13.3-18.3-20.7c-1.8-2.6-1-5.9-1-8.8c0-8.1,0.3-16.2,0.6-24.3
	c0.2-5.2,3.7-7.2,7.7-3.8c5.6,4.7,11.3,9.3,10.4,18.4C272,121.5,272.6,134.1,273.8,148.2z"/>
<path class="st0" d="M462,353.7c2.6,6,1.5,8.1-4.3,8.7c-21.2,2.1-42.3,2.7-63.6,0.8c-6.6-0.6-13.3-0.4-20-0.3
	c-3.8,0-5.2-1.4-5.4-5.2c-1.1-17.2-2.4-34.5-3.7-51.7c-0.9-11.7-1.9-23.4-1.7-35.3c3.3,13.7,6.6,27.4,9.8,41.2
	c3.4,9.2,5.9,18.6,6.9,28.4c0.2,1.7,0.6,3.3,1,4.9c0.5,2.1,1.6,2.9,3.9,2.6c10-0.9,19.8,0.7,29.7,1.3c6.9,0.5,13.9,1,20.8,1.5
	C444.3,351.3,453.3,351.4,462,353.7z"/>
<path class="st0" d="M212,355.8c25.2,2.3,50.5,0.8,75.7,1.3c1.3,0,3.9-1.6,4.1,0.9c0.2,2.7-2.6,1.3-3.8,1.3
	c-19.7,0.8-39.4,1.1-59.1-0.1c-7.6-0.4-15.2-0.3-22.8,0.1c-3.8,0.2-4.9-1.6-5.1-4.9c-0.3-3.8-0.7-7.6-1.1-11.4
	c-1.6-6.5-1.5-13.2-1.3-19.7c0.2-7.3-0.5-14.5,0-21.8c0.1-1.1-0.4-2.3,0.6-3.5c1.9,0.2,1.9,1.9,2.2,3.2c2.3,9.9,2.7,20,4,30
	c0.9,7,1,14.1,1.6,21.2C207.3,356.6,210.9,353.9,212,355.8z"/>
<path class="st0" d="M324,471.1c2,17.8,1.9,35.8,3.1,53.6c0.8,11.4,1.7,22.8,2.8,34.2c0.3,3.3-0.8,5-4.2,5
	c-17.3-0.1-34.3,2.4-51.5,4.2c-3.5,0.4-4.5-0.4-4.8-4.4c-1.3-23-1.6-46.1-2.3-69.1c-0.2-6-0.5-12-1.2-17.9c-0.4-3.5,0.9-4.8,4.1-5
	c4.3-2.2,9-1.7,13.6-2C297,469.3,310.5,469.1,324,471.1z"/>
<path class="st0" d="M390.2,494c0.3,6.7,0.6,13.4,0.9,20.1c0,1.5-0.3,3-0.1,4.5c0.3,2.6-1,3.2-3.3,3.7c-8.8,2.1-17.9,1.2-26.8,2.3
	c-1.5,0.2-2-0.3-2.6-1.6c-0.9-2-1.5-4.1-1.4-6.3c0.4-15.8,0.7-31.6-0.7-47.3c-0.3-3.5,0.4-4.5,4.5-4.6c8.3-0.2,16.6-0.8,24.9-0.9
	c2.6,0,3.2,0.6,3.3,3.3C389.1,476.1,389.7,485,390.2,494z"/>
<path class="st0" d="M187.2,480.1c5.6-0.4,11.3-0.7,16.9-1.2c2-0.2,2.8,0.2,3.2,2.4c1.6,11.1,2,22.2,2,33.3c0,2.3-0.8,3.2-3,3.5
	c-3.9,0.5-7.8,1.7-11.8,1.6c-8.2-0.1-16.2,1.5-24.3,1.9c-4,0.2-5.1-1.1-5.6-4.7c-1.4-11.7-0.9-23.4-0.5-35
	C171.6,480.4,179.3,479,187.2,480.1z"/>
<path class="st0" d="M371.6,258.9c7.6,0,14.9-0.3,22.2,0.1c16.4,0.8,32.9,1.4,49.3,1.1c5.1-0.1,7.2,1.9,8.2,6.8
	c2.1,10.3,4.6,20.4,7.3,30.5c1.2,4.4,1.7,8.9,1.9,13.4c0.4,8.1,1,16.2,1.5,24.3c0.1,2.2,0,3.8-3.2,3.4c-13.4-1.5-26.9,0.1-40.4-0.9
	c-7.4-0.6-14.9,0.5-22.3-0.6c-2.6-0.4-3.7-1.2-4.4-4.2c-2.4-10.5-5.6-20.8-8.3-31.2C379.8,287.2,376,272.8,371.6,258.9z"/>
<path class="st0" d="M233.4,259.2c14.3,0.1,28.5,0.3,42.8,0.2c2.8,0,3.7,0.6,4,3.4c2.3,24.3,5.4,48.4,9.5,72.4c1.1,6.6,1,6.6-5.7,7
	c-4.3,0.3-8.6,0.6-12.9,0.9c-16.1,1.2-32.1,0.4-48.2,0.7c-4.3,0.1-5.9-1.6-6.6-5.9c-4.1-24.8-6.5-49.7-8.1-74.7
	c-0.3-4.2,1.1-4.4,4.5-4.1C219.5,259.7,226.5,260.6,233.4,259.2z"/>
<path class="st0" d="M387.2,112c-0.1,6.1,0.7,12.1,1.7,18.1c0,3.6,0,7.2,0.1,10.9c0.1,2.1-0.1,3.7-2.6,4.5c-6.9,2-13.7,4.4-20.6,6.5
	c-1.1,0.3-2.9,1.5-3.7-0.8c1.9-2,0.6-4.5,1.1-6.7c0.3-1.2-0.2-1.4-1.1-1.3c0-1.7,0-3.4,0-5c2.2-7.6,1-15.3,1.3-23
	c0-0.8-0.3-1.6-0.4-2.5c-0.8-7.3,0.2-8.5,7.4-8.5c4.1,0,8.2,0,12.1,0c-6.9-0.6-14.1,1.2-21.2-1.1c-1.3-1.1-1-1.8,0.6-2.3
	c7.6-2.9,15.3-3.4,23.1-1.7c0.4-0.5,0.8-0.5,1.2,0.1C386.4,103.3,386.8,107.6,387.2,112z"/>
<path class="st0" d="M373.2,158.1c5.1-1.4,10.3-2.1,15.2-3.7c1.8-0.6,1.9,0.6,2,1.8c0.2,2,0.1,3.7-2.5,3.8
	C382.9,160.1,378.1,159.6,373.2,158.1z"/>
<polygon class="st0" points="399.1,160.2 428.3,160.2 422.4,156.1 402,145.7 401.9,103.8 399.1,103.8 398.5,129.9 397.6,140.6 
	398.1,146.9 "/>
</svg>
