<?xml version="1.0" encoding="utf-8"?>
<!-- Generator: Adobe Illustrator 20.1.0, SVG Export Plug-In . SVG Version: 6.00 Build 0)  -->
<svg version="1.1" id="Layer_6" xmlns="http://www.w3.org/2000/svg" xmlns:xlink="http://www.w3.org/1999/xlink" x="0px" y="0px"
	 viewBox="0 0 1366 734.1" style="enable-background:new 0 0 1366 734.1;" xml:space="preserve">
<style type="text/css">
	.st0{fill:#FEEA39;}
</style>
<path class="st0" d="M619.1,519.9c0,0.4,0,0.7,0,1c0,0.5-0.1,1-0.1,1.5c0,2.1,0.8,5.3-0.2,6c-2.1,1.5-5.2,2-8,2
	c-4.5,0-9.8,1.5-13.2-0.4c-3.7-2.1-2.2-8.1-2.9-12.4c-2.5-16.2-2-32.8-4.8-49c-0.6-3.6,0.7-5.2,4.9-4.4c5.5,1,11.2,1.3,16.8,1.9
	c1.5,0.2,3.1,0,3.1,2.2C614.6,485.6,618.1,502.6,619.1,519.9z"/>
<path class="st0" d="M572.9,509.8c0.3,1.2,0.4,2.3-1.5,2.3c-2,0-2-1.4-2.1-2.7c-0.6-7.8-1.5-15.5-1.5-23.3c0-6.3-2.2-12.3-1.2-18.6
	c0.2-1.2-0.9-3.3,1.7-3.3c2.2,0,2.1,2,2.2,3.3c0.5,6.7,0.8,13.3,1.2,21.9C572.4,494.8,571.2,502.4,572.9,509.8z"/>
<path class="st0" d="M557.3,517c5.3,0.1,5.3,1.9,4.4,3.6c-0.6,1.1-1.5,2.1-1.7,2.7c-1.4,4-5.6,2.3-8.7,2.7c-2.3,0.3-2.1-2.2-2.2-3.7
	c-0.5-15.4-1.9-30.7-3.1-46.1c-0.3-3.4,6.6-9.2,9.9-8.3c1.8,0.5,1.1,2.2,1.2,3.3c0.7,8.8,1.3,17.7,1.9,26.5c0.2,3,0.4,6.1,0.6,9.1
	c0.1,1.5-0.1,3.1,0.5,4.4C561.4,513.9,561.7,515.9,557.3,517z"/>
</svg>
