<?xml version="1.0" encoding="utf-8"?>
<!-- Generator: Adobe Illustrator 20.1.0, SVG Export Plug-In . SVG Version: 6.00 Build 0)  -->
<svg version="1.1" id="blue-background" xmlns="http://www.w3.org/2000/svg" xmlns:xlink="http://www.w3.org/1999/xlink" x="0px" y="0px"
	 viewBox="0 0 1366 734.1" style="enable-background:new 0 0 1366 734.1;" xml:space="preserve">
<style type="text/css">
	.st0{fill:#3EA6DD;}
</style>
<path class="st0" d="M1268.7,475.7c-0.2,13.8,0.2,27.7,0.1,41.6c0,0.2,0,0.3,0,0.5c-1.5-0.4-0.6,1.3-0.8,2.2c-0.1,0-0.1,0.1-0.2,0.1
	c-0.3-0.1-0.7-0.2-0.9-0.3c0.1-1.2,0.2-2.6,0.3-3.8c0.2-0.5,0.4-1.1,0.4-1.6c0.9-3.9,0.4-7.9-0.2-11.9c0-1,0-2.1,0-3.1c0,0,0,0,0,0
	c0-9.3,0.4-18.5,0.2-27.8c-0.1-2,0.1-4.1-0.9-5.9c0.2,0,0.3,0.1,0.5,0.1c0.8,0.1,1.4,0,2-0.3
	C1268.3,468.8,1268.5,472.3,1268.7,475.7z"/>
<path class="st0" d="M1267.9,460C1267.9,460,1267.9,460,1267.9,460c-0.3,0.5-0.6,0.9-0.9,1.3c-0.6,0.2-1.2,0.2-1.9,0.3
	c0.7,0,1.4-0.1,1.9-0.3c-1.9,2.1-3.8,2.1-6.3,0.4C1262.9,460.1,1265.7,461.5,1267.9,460z"/>
<path class="st0" d="M1267.9,520.1c0,0.1,0,0.1,0,0.2c-1.2,1.3-0.9,4.2-3.5,3.8c1.6-0.6,3.3-1.2,0.7-3.3c0.2-0.2,0.4-0.1,0.6-0.1
	c0.5-0.1,0.9-0.2,1.2-0.7c0,0,0,0,0,0c0.1,0.1,0.3,0.2,0.4,0.2C1267.5,520.2,1267.7,520.2,1267.9,520.1
	C1267.9,520.1,1267.9,520.1,1267.9,520.1z"/>
<path class="st0" d="M1266.9,520C1266.9,520,1266.9,520,1266.9,520c-0.3,0.5-0.7,0.6-1.2,0.7c-0.2,0-0.4-0.1-0.6,0.1
	c2.6,2.1,0.9,2.7-0.7,3.3c2.6,0.4,2.3-2.5,3.5-3.8c0,3.5-1.2,5-4.6,4.4c-1.3-0.2-3-0.7-5.1-1.5c3.3-0.2,5.6-0.4,7.9-0.6
	c-0.7-2.7-3.4-0.6-4.5-2.1c1.6-1,3.3-0.5,5.1-0.7c0,0,0,0,0,0C1266.8,519.9,1266.8,519.9,1266.9,520z"/>
<path class="st0" d="M1258.9,464.1c0.1,0.8,0.3,1.5,0.9,2c-1.5,1.4-1.3,3.3-1.3,5.1c0.1,2.8,0.7,5.7-0.3,8.6c0.1-4.5-0.2-9,0.2-13.5
	c0-0.4-0.1-0.8-0.3-1.2c0.1,0,0.1,0,0.2,0c0.3-0.4,0.4-0.8,0.4-1.3c0,0,0-0.1,0-0.1C1258.8,463.8,1258.9,464,1258.9,464.1
	C1258.9,464.1,1258.9,464.1,1258.9,464.1z"/>
<path class="st0" d="M1258.8,463.6c0,0.1,0,0.1,0,0.1c0,0.5-0.1,0.9-0.4,1.3c-0.1,0-0.2,0-0.2,0c-0.1-0.1-0.2-0.2-0.3-0.3
	c0,0-0.1,0-0.1,0c0.2-0.7,0.3-1.4,0.6-2.6c0,0.1,0.1,0.3,0.1,0.4c-0.1,0-0.4,0.5,0.1,0.4l0,0
	C1258.7,463.2,1258.7,463.4,1258.8,463.6z"/>
<path class="st0" d="M1258.2,465.1c0.2,0.3,0.3,0.7,0.3,1.2c-0.4,4.5-0.1,9-0.2,13.5v0c-0.1,0.1-0.3,0.3-0.4,0.4
	c-0.1-4.6-0.1-9.3-0.1-13.9c-0.1,0.2-0.1,0.3-0.1,0.5c0-0.2,0-0.3,0-0.5c0-0.4,0.1-0.8,0.1-1.1
	C1257.9,465.2,1258,465.1,1258.2,465.1z"/>
<path class="st0" d="M1257.9,480.2c-0.1,0.1-0.1,0.1-0.2,0.2c-0.5-4.5-0.4-9.1-0.1-13.6c0-0.2,0.1-0.3,0.1-0.5
	C1257.8,470.9,1257.8,475.6,1257.9,480.2z"/>
<path class="st0" d="M1255.8,501.3c1.3,2.8,1.7,5.6,1.6,8.4c-0.1-1.1-0.5-2.2-1.2-3.2c-0.1-0.6-0.2-1.2-0.3-1.8
	C1256.3,503.6,1256.1,502.5,1255.8,501.3z"/>
<path class="st0" d="M1257.4,509.6c-0.1,3.1-0.7,6.1-1.3,9.2c0.6-4.1,0.7-8.2,0.1-12.4C1256.9,507.5,1257.2,508.5,1257.4,509.6z"/>
<path class="st0" d="M1256.2,506.4c0.6,4.1,0.5,8.2-0.1,12.4c-1.1-4.2,0.9-8.6-1.1-12.7c0,0,0-0.1,0-0.1c0.1-0.1,0.1-0.1,0.2-0.2
	c0.2,0,0.4,0,0.6,0.1C1255.9,506.1,1256.1,506.3,1256.2,506.4z"/>
<path class="st0" d="M1257.3,523.7c-1.5,0.2-2.8,0.4-3.8,0.3c0,0,0,0-0.1,0c-0.2,0-0.4,0-0.6-0.1c0,0,0,0-0.1,0
	c-1.3-0.3-1.9-1.4-1.1-3.9c0.2-0.8,1-1.8,2.1-1.7c0.7,0.2,1,0.7,1,1.3c0,0.2,0,0.4-0.1,0.7C1254.3,521.9,1255.2,522.7,1257.3,523.7z
	"/>
<path class="st0" d="M1251,501.5c0.1,2,0,3.9-0.2,5.9c-0.1,0.3-0.3,0.6-0.5,0.9c-1.5,2.4-1.9,2.3-1.1,6c-0.1,0.2-0.1,0.4-0.2,0.6
	c-1.2-1.3-1.6-2.5-1.6-3.9c0-2.1,0.9-4.2,0.7-6.3c1.6,0.7,0.2,2.7,1.8,3.3c0-2.7,0-5.3,0-8c0.2,0.1,0.4,0.2,0.6,0.2
	C1250.7,500.6,1250.9,501.1,1251,501.5L1251,501.5z"/>
<path class="st0" d="M1250.3,508.3c0.2-0.3,0.4-0.6,0.5-0.9c-0.3,2.3-0.8,4.6-1.6,6.9C1248.4,510.6,1248.8,510.6,1250.3,508.3z"/>
<path class="st0" d="M1250.4,499.8c0,0.1,0.1,0.1,0.1,0.2c-0.2,0-0.3,0-0.5,0c-1.3,0.5-1.8,0.2-1.9-0.4c0-0.4,0.1-0.9,0.1-1.3
	c0-0.1,0.1-0.2,0.1-0.3c1.7-10,0.5-20.2,0.8-30.2c0.2,0.3,0.4,0.6,0.6,0.8c1.5,8.6,1.1,17.3,0.1,26
	C1249.5,496.4,1249.2,498.2,1250.4,499.8z"/>
<path class="st0" d="M1062,508.9c0.1,0.3-0.3,1.3-0.4,1.3c-2.2-0.1-3.6-1.5-6-3.4C1058.6,507.1,1060.9,506.4,1062,508.9z"/>
<path class="st0" d="M820,403.3c0.4,11.9-2,23.6-0.9,35.5c-0.4,0-0.9,0-1.3,0c0-4.3,0-8.5,0-12.8c0,0,0-0.1,0-0.1
	c0-1,0.1-1.9,0.1-2.9c0,0.9,0.1,1.9,0.4,2.8c0,2.8,0.1,5.5,0.2,8.2c0,1.2,0,2.3,0,3.4c0.2-0.5,0-1.7,0-2.8c0-0.2,0-0.4,0-0.6
	c0-2.6,0-5.4-0.2-8.2c0,0,0,0,0-0.1c0-6.8,0.3-13.6,0.4-20.3c0.1-3.7-1.4-5.4-4.8-6.2c-4.4-1-8.9-0.9-13.3-2c0-0.1-0.1-0.2-0.1-0.2
	c-0.3-0.4-0.8-0.6-1.3-0.7c6.7-0.4,13,0.7,19.2,2.8C820.8,400,819.9,401.9,820,403.3z"/>
<path class="st0" d="M818.9,331.9c0.1,3.5,0.6,6.9-0.6,10.3c0,0-0.1-0.1-0.1-0.1c-0.1-1.4-0.3-2.8-0.5-4.1c-0.3,5-1.4,10,0.2,14.9
	c0-0.2,0-0.3,0-0.5c0,0.2,0.1,0.3,0.1,0.5c-0.1,0.4-0.1,0.8-0.1,1.2c-1.8-0.6-1.8-3.4-4-3.4c0,0,0,0,0-0.1
	c0.3-6.8,0.6-13.6,0.9-20.4c0,0,0.1,0,0.1,0c1.1,0.9,2,2.4,3.9,1.8C818.8,332,818.8,331.9,818.9,331.9
	C818.9,331.9,818.9,331.9,818.9,331.9z"/>
<path class="st0" d="M813.9,399.3c3.4,0.8,4.9,2.5,4.8,6.2c-0.1,6.8-0.4,13.5-0.4,20.3c-0.3-0.9-0.4-1.9-0.4-2.8c0,0,0-0.1,0-0.1
	c0-1.2,0.1-2.4,0.1-3.5c0.1-1.9,0.5-3.9,0.2-5.8c0-1.2,0.1-2.3,0.1-3.5c0.1-2.6,0.9-5.4-0.2-7.8c-1.1-2.3-3.1-1.6-5.1-1.4
	c-0.8-0.3-1.7-0.4-2.6-0.4c-2.7-1.1-6.5-2.8-7.7-1.7c-1.7,1.5,0,3.4,0.9,5.5c-0.1,0.8-0.1,1.6-0.4,2.2c-1,9.6-0.2,19.2-0.6,28.8
	c-0.1-0.2-0.2-0.4-0.3-0.6c-0.2-0.2-0.4-0.3-0.6-0.3c-0.5-8.6-1-17.1-1.5-25.6c0.6-0.5,0.9-1.3,1.1-2.1c0.1-3.1,0.7-6.3-0.8-9.4
	C805,398.4,809.5,398.3,813.9,399.3z"/>
<path class="st0" d="M818.3,425.9c0.2,2.8,0.2,5.5,0.2,8.2C818.3,431.3,818.3,428.6,818.3,425.9
	C818.3,425.9,818.3,425.9,818.3,425.9z"/>
<path class="st0" d="M817.9,354.1c-3.9,2.3-1.9-3-3.9-3.1c0-0.1,0-0.2-0.1-0.3C816.1,350.7,816.1,353.5,817.9,354.1z"/>
<path class="st0" d="M814.1,326c1,0.9,2.8,0.9,3.3,2.7c-3.9-0.7-7.4-2.2-10.8-4.1c1.9-0.1,3.5,1,5.3,1.4c0.3,0.1,0.5,0.3,0.8,0.4
	c1,0.4,1.1,0.5,1.3-0.3C814,326,814.1,326,814.1,326z"/>
<path class="st0" d="M814,325.9c0,0.1,0,0.1,0,0.2c-0.7,0.2-1.4,0.1-2.1,0c-1.9-0.9-3.7-2.2-5.9-2
	C809.2,322.4,811.3,325.6,814,325.9z"/>
<path class="st0" d="M815.8,357c-1-0.1-1.9-0.3-2.8-0.5c0,0,0,0,0,0c-4.2-1.9-7.8-3-11-5C806.6,353.4,811.2,355.2,815.8,357z"/>
<path class="st0" d="M814,326.1c-0.2,0.8-0.2,0.7-1.3,0.3c-0.3-0.1-0.5-0.2-0.8-0.4C812.6,326.2,813.3,326.2,814,326.1z"/>
<path class="st0" d="M813.1,484.2c0,2.4,0.1,4.3,0,6.2c-0.1,1.2-0.2,2.3-0.4,3.5c-0.1-0.5-0.1-1-0.2-1.5c-0.2-2.3-0.3-4.5,0.3-6.7
	c-1.4,1,1,4.6-2.3,4.6c0-0.3-0.1-0.6-0.2-0.8c0,0,0,0,0-0.1C812.4,488.6,810.8,485.8,813.1,484.2z"/>
<path class="st0" d="M812.5,492.4c0.1,0.7,0,1.5,0,2.2c-0.1,0.4-0.2,0.7-0.4,1.1c-0.2-1.4-0.4-2.7-0.7-4.6c-0.9,2.2,0.7,4.4-1.2,5.8
	c0.5-1.8,0.5-3.6,0.4-5.4c0.2-0.3,0.5-0.6,0.9-0.8C812.1,491.2,812.4,491.8,812.5,492.4z"/>
<path class="st0" d="M812.8,485.7c-0.6,2.2-0.5,4.4-0.3,6.7c-0.1-0.6-0.3-1.1-1-1.7c-0.4,0.2-0.7,0.5-0.9,0.8c0-0.4-0.1-0.8-0.1-1.2
	C813.8,490.3,811.4,486.7,812.8,485.7z"/>
<path class="st0" d="M812.6,443.9c-6.1-0.2-11.1,0.9-16-1c1.2-0.2,2.3-0.2,3.5-0.1c0,0,0,0,0,0c1,0.2,2,0.4,3,0.5c0,0,0,0,0,0
	c2.2,0.4,4.4,0.7,6.6,0c0.4,0.1,0.4-0.1,0.3-0.3C810.9,443.2,811.7,443.5,812.6,443.9z"/>
<path class="st0" d="M810.1,443c0.1,0.2,0.1,0.4-0.3,0.3c-2.2,0.7-4.4,0.4-6.6,0c2.1,0.2,4.3,0.1,6.4-0.1c0.2-0.1,0.3-0.1,0.3-0.2
	c0,0,0,0,0,0C810,443,810,443,810.1,443z"/>
<path class="st0" d="M809.9,443C809.9,443,809.9,443,809.9,443c0,0.1-0.1,0.1-0.3,0.2c-2.1,0.3-4.3,0.3-6.4,0.1c0,0,0,0,0,0
	c-1-0.2-2-0.4-3-0.5c0,0,0,0,0,0c-0.6-0.1-1.2-0.3-1.8-0.5c-0.2-0.1-0.3-0.1-0.5-0.2c0.1-0.1,0.2-0.2,0.3-0.4
	c2.3,0.3,4.5,0.5,6.7,0.8C806.3,442.8,808,442.6,809.9,443z"/>
<path class="st0" d="M812.9,356.5c-4.3-0.8-8.4-2.1-11.7-5.3c0.1,0,0.2,0.1,0.3,0.1C804.7,353.5,808.3,354.8,812.9,356.5z"/>
<path class="st0" d="M806.2,440.1c1.9,0.3,4-0.6,5.9,1.8c-4-0.9-7.9,0-11.3-2c0,0,0-0.1,0-0.1c0.1,0,0.2,0,0.3,0
	c0.2-0.2,0.4-0.3,0.6-0.5c1.8,0.8,3.5,1.6,5.1,1.1c-1.8,0.1-3.9,0-4.2-2.4c0.4-0.8,0.5-1.7,0-2.7c0.4-9.6-0.4-19.2,0.6-28.8
	c0.3-0.6,0.3-1.4,0.4-2.2c0.3,0.6,0.5,1.3,0.5,1.9c0,0.2,0,0.4-0.1,0.6c0,0,0,0.1,0,0.1c-0.1,10.2,0,20.3-0.3,30.4
	C803.7,439.7,804.7,439.8,806.2,440.1z"/>
<path class="st0" d="M812.9,356.5c-4.6-1.7-8.2-3-11.4-5.2c0.1,0.1,0.3,0.1,0.4,0.2C805.1,353.5,808.7,354.7,812.9,356.5z"/>
<path class="st0" d="M811.9,326c-1.8-0.4-3.4-1.5-5.3-1.4c-0.3-0.2-0.6-0.3-0.9-0.5c0.1,0,0.1-0.1,0.2-0.1
	C808.2,323.9,810,325.1,811.9,326z"/>
<path class="st0" d="M805,498c1.4,3.7-1.7,1.6-2.7,1.9c-1.4,0.4-2.6,0.6-2.8-1.9c-0.3-3.3-1.5-6.5-2.4-9.8c0,0,0,0,0.1-0.1
	c0,0.1,0,0.1,0,0.1c0.4-0.1,0.7-0.2,1-0.4c0.4,2.9,1.8,5.7,2.3,8.7c0.6,3.4,1.8,3,3.3,1C804.1,497.8,804.5,497.9,805,498z"/>
<path class="st0" d="M803.7,326.6c0.3,1.1,0.8,2.1,0.6,3.2c0,6.3-0.9,12.5-2.2,18.6c-0.2,0-0.3,0-0.5,0.1c-1.1,0.5-1.3,1.3-0.7,2.2
	c-0.4-0.5-0.8-1.1-1.7-0.4c-0.1-0.4-0.1-0.8-0.2-1.2c3.6-0.7,3.1-3.7,3.2-6.2C802.5,337.5,802.6,332,803.7,326.6z"/>
<path class="st0" d="M803.7,321.9c2.1,0.3,0.2,1.2,0,1.9c-0.5,1-0.3,1.9,0,2.8c-1.1,5.4-1.2,10.8-1.5,16.3c-0.1,2.5,0.4,5.5-3.2,6.2
	c3.4-5,1.5-10.9,2.5-16.3c0.5-2.7,0.3-5.6,0.6-8.4C802.2,323.4,802,321.6,803.7,321.9z"/>
<path class="st0" d="M799,479.5c4.4-0.8,8.6-0.3,12.6,2.1C807.3,481.2,803.2,480.2,799,479.5z"/>
<path class="st0" d="M802.1,348.4c0,0.2-0.1,0.4-0.1,0.6c-0.3,0.6-0.6,1.3-0.9,1.9c0,0-0.1-0.1-0.1-0.1c0,0,0-0.1-0.1-0.1
	c-0.5-1-0.3-1.7,0.7-2.2C801.8,348.5,801.9,348.5,802.1,348.4z"/>
<path class="st0" d="M802,351.5c-0.1-0.1-0.3-0.1-0.4-0.2c-0.1-0.1-0.2-0.1-0.2-0.1c-0.1-0.1-0.1-0.1-0.2-0.2l0,0c0,0,0,0,0,0
	c0,0,0,0,0,0s0,0,0,0C801.4,351.1,801.7,351.3,802,351.5z"/>
<path class="st0" d="M801.5,351.4c-0.1,0-0.2-0.1-0.3-0.1c-0.1-0.1-0.1-0.1-0.2-0.2l0,0c0.1,0.1,0.1,0.1,0.2,0.2
	C801.4,351.3,801.5,351.3,801.5,351.4z"/>
<path class="st0" d="M801.3,351.2c-0.1,0-0.2-0.1-0.3-0.1l0.1-0.1c0,0,0,0,0,0c0,0,0,0,0,0.1l0-0.1
	C801.1,351.1,801.2,351.2,801.3,351.2z"/>
<path class="st0" d="M801.1,351C801,351,801,351,801.1,351c-0.6-0.2-1.3-0.4-1.9-0.7c0.9-0.7,1.3-0.1,1.7,0.4c0,0,0,0,0,0.1
	c0,0,0,0,0,0C801,350.9,801,350.9,801.1,351z"/>
<path class="st0" d="M799,396.4c-0.9-0.1-1.8,0-2.6-0.3c-0.5-0.2-0.9-0.5-1.2-1.2C796.4,395.5,798.2,394.5,799,396.4z"/>
<path class="st0" d="M748.9,331.3c0,0.8,0.2,1.7,0.1,2.5c-0.1,1-0.8,1.4-1.7,1.3c-0.5-0.1-0.8-0.2-0.9-0.4c1.5,0.1,2.3-0.8,2.3-3.1
	c-0.1-3.8-0.1-7.5-0.1-11.2C748.7,324,748.8,327.7,748.9,331.3z"/>
<path class="st0" d="M748.7,331.6c0.1,2.4-0.8,3.3-2.3,3.1c-0.2-0.3,0.4-0.8,0.6-1.3c0.6-1.9-0.6-2.3-2-2.5c0-0.1,0-0.2,0-0.3
	c0.2-0.2,0.3-0.5,0.5-0.7c0.2,0.1,0.3,0.1,0.5,0.2c0.4-1,1.8,3.3,1.6-0.3c-0.3-5.3-0.9-10.6-1.1-15.9c0-2.4,0-4.8,0-7.2
	c0-0.9,0.1-1.8,0.2-2.7c0.2-1.9,0.3-3.6,0.2-5.3c0.1-0.9,0.2-1.8,0.3-2.7c0.3-2.1-0.7-3.4-2.4-4.3c-1.5-2.3-4-4-7.9-5
	c-1.5-0.4-3-1.5-3.2-3.4c0.2-0.1,0.4-0.1,0.7-0.2c3,2.5,6.5,4.4,10.1,5.9c2.9,1.1,3.9,2.7,3.8,6.3c-0.1,2.3-0.1,4.6-0.1,6.8v0
	c-0.4,3.5-0.4,7,0,10.5c0.1,1.3,0.2,2.7,0.3,4c0,0,0,0,0,0.1c0,1.1,0.1,2.2,0.1,3.3c0,0.1,0,0.2,0,0.3
	C748.6,324.1,748.6,327.9,748.7,331.6z"/>
<path class="st0" d="M747.6,329.9c0.2,3.6-1.2-0.7-1.6,0.3c-0.2-0.1-0.3-0.1-0.5-0.2c0.7-1.2,0.9-2.4,1-3.7c0.1,0.3,0.4,0.6,0.6,0.9
	c0-0.3,0-0.6-0.1-0.8v0c0,0,0,0,0,0c0,0,0,0,0,0c-0.2-2.9-0.4-5.8-0.5-8.6c0-1.2,0-2.5,0-3.7C746.7,319.3,747.3,324.6,747.6,329.9z"
	/>
<path class="st0" d="M744.8,291.8c-0.4-0.2-0.7-0.4-1.1-0.5c-0.7-0.3-1.3-0.5-1.9-0.8c-1-0.7-2.1-1.2-3.2-1.5c0,0,0,0,0,0
	c-2.1-1.1-4.1-2.4-5.9-4.1c0.1-0.4,0.3-0.8,0.3-1.2c0.3-0.2,0.6-0.5,0.9-0.7c0.1,0,0.1,0,0.2,0l-0.1-0.1h0c0.1,0.1,0.2,0.2,0.4,0.3
	c-0.3,0-0.5,0.1-0.7,0.2c0.2,1.9,1.7,3,3.2,3.4C740.8,287.8,743.3,289.5,744.8,291.8z"/>
<path class="st0" d="M729.9,325.9c4.9,2.5,10.5,3.6,14.5,7.9C739.4,331.5,733.6,330.7,729.9,325.9z"/>
<path class="st0" d="M733.9,283c-0.3,0.3-0.6,0.5-0.9,0.7c0-0.2,0-0.3-0.1-0.5c0,0,0,0,0.1-0.1C733.3,283.1,733.6,283.1,733.9,283z"
	/>
<path class="st0" d="M733.2,321.8c0,0.1,0,0.2,0,0.3c-0.4,0.8,0.2,2.3-1.5,1.9c-0.9-0.2-1.3-0.6-1.5-1.1v0c0-1.1-0.1-2.3-0.3-3.4
	c-0.2-4.5-0.4-8.9-0.5-13.4c0-2.5,0.1-5.1,0-7.7c0-0.1,0-0.1,0-0.2c0.1-4.2-0.2-8.3-0.4-12.4c-0.2-3.4,0.8-4.7,4-2.6c0,0,0,0,0,0.1
	c-0.4,0.3-0.6,0.6-1,0.8h0c0,0,0,0-0.1,0c-0.8,0.3-1.3,0.7-1.3,1.1c-0.3,0.5-0.4,1.1-0.4,1.9c0.5,11-0.4,22.1,1.1,33
	c0.1,1,0.2,2,1.7,1.7C733.1,321.8,733.1,321.8,733.2,321.8z"/>
<path class="st0" d="M733.2,321.8c-0.1,0-0.1,0-0.2,0c-1.5,0.3-1.6-0.7-1.7-1.7c-1.5-10.9-0.6-22-1.1-33c0-0.8,0.1-1.4,0.4-1.9
	c0,0.4,0.3,0.9,0.8,1.4c1.5,1.2,1.8,2.7,1.6,4.4C733.1,301.3,733.1,311.5,733.2,321.8z"/>
<path class="st0" d="M733,283.8c0,0.4-0.2,0.8-0.3,1.2c-0.3-0.3-0.5-0.6-0.8-0.9h0C732.2,284,732.6,283.9,733,283.8
	C733,283.8,733,283.8,733,283.8z"/>
<path class="st0" d="M733,283.8C733,283.8,733,283.8,733,283.8c-0.4,0.1-0.8,0.2-1.1,0.3c0.4-0.3,0.7-0.6,1-0.8
	C733,283.4,733,283.6,733,283.8z"/>
<path class="st0" d="M729.8,319.5c0.2,1.1,0.4,2.3,0.3,3.4c-0.1-0.4-0.2-0.8-0.3-1.4C729.9,320.8,729.9,320.1,729.8,319.5z"/>
<path class="st0" d="M595.2,461.7c-0.3,0-0.6-0.1-0.9-0.1c-0.8-0.1-1.6-0.5-2.2-1.4c0.8-0.1,1.8-0.1,2.5-0.5
	c7.3,1,14.8,0.4,22.2,1.3c3.2,0.4,4.7,1,4.7,4.8c0.2,18.9,0.9,37.8,1.4,56.7c0,2,0.5,4.2-0.4,6.2c-2.3-0.8-1.8-2.8-1.7-4.3
	c0.5-11.9-2.7-23.4-3.2-35.1c-0.3-7.7-1.8-15.5,0.1-23.2c0.3-1.4-0.1-1.9-1.2-1.9c-9.7,0.3-19.1-1.4-29.1-2.6c0-0.1,0.1-0.1,0.1-0.2
	c0.8-0.4,2.3-0.3,4.9,0c0.6,0.1,1.3,0.1,1.9,0.2C594.7,461.6,594.9,461.6,595.2,461.7z M595.3,461.7c5.9,0.6,11.7,1.2,17.6,1.2
	c5.2,0,5.9,0.8,5.6,5.8c-1,15.1,1.6,29.9,3.2,44.8c0.3,2.7,0.2,5.5,0.4,8.3c-0.5-18.3-2.1-36.7-2.1-55c0-3-1.5-3.9-4.3-4.2
	c-6-0.5-11.9-1.1-17.9-1C597,461.6,596.1,461.7,595.3,461.7z"/>
<path class="st0" d="M622.1,521.8c-0.2-2.7-0.1-5.6-0.4-8.3c-1.6-14.9-4.2-29.7-3.2-44.8c0.3-5-0.4-5.8-5.6-5.8
	c-5.9,0-11.7-0.7-17.6-1.2c0.8,0,1.7-0.1,2.5-0.1c6-0.1,11.9,0.5,17.9,1c2.8,0.3,4.3,1.2,4.3,4.2C620,485.1,621.6,503.5,622.1,521.8
	z"/>
<path class="st0" d="M609.6,296.7c0.3,6.1,0.6,12.2,0.9,18.3c-2.6-5.9-2-12.1-2.5-18.2C608.5,296.8,609.1,296.8,609.6,296.7z"/>
<path class="st0" d="M608.6,293.6c0,2.3-1.5,0.6-2.4,0.8c-5,1.1-9.9,2.6-15,2.7c-1.5,0-1,1.7-1.8,2.5c-1-2.6-0.6-4.2,2.4-4.7
	c4.8-0.9,9.6-1.9,14.4-2.9C607.5,291.7,608.6,292,608.6,293.6z"/>
<path class="st0" d="M605.9,567.1c0,0.1,0,0.1,0,0.2c-0.2,0.1-0.5,0.2-0.7,0.2c-10,3.3-9.7,3.3-10.7-7c-1.9-18.9-4.1-37.8-6.2-56.7
	c0,0,0,0,0,0c1,0.4,1.5,1.1,1.7,1.9c0,0.6,0.1,1.2,0.1,1.8c0,0.3,0,0.7,0,1c0.6,18.3,4.1,36.4,5.3,54.6c0.2,3.2,1.8,4.4,4.9,3.9
	c1.6-0.3,3.2-0.9,4.9-0.6c0.3,0.1,0.5,0.2,0.7,0.4C605.9,566.9,605.9,567,605.9,567.1z"/>
<path class="st0" d="M605.9,564.7c0,0.7,0,1.4,0,2.1c-0.2-0.2-0.4-0.3-0.7-0.4c-1.7-0.3-3.3,0.3-4.9,0.6c-3.1,0.5-4.7-0.7-4.9-3.9
	c-1.2-18.2-4.7-36.3-5.3-54.6c0-0.3,0-0.7,0-1c0.7,8.6,2.5,17.3,3.4,25.9c0.3,2.2,0.7,4.7,3,5.1c0.2,0.1,0.5,0.1,0.7,0.1
	c3.9,0,3.7,2.2,3.5,4.9c-0.1,1.2,0.1,2.4,0.4,3.5c0.3,0.8,0.6,1.7,1.1,2.4c0,3.9,0.8,7.7,1.8,11.5
	C604.3,562.2,603.3,564.4,605.9,564.7z"/>
<path class="st0" d="M597.3,533.6c4.3-1.9,8.8-0.7,13.2-0.6C606.1,533.8,601.8,534.6,597.3,533.6z"/>
<path class="st0" d="M602.3,536.7c1.2,1.1,0.9,2.5,0.1,4c-1,2-0.2,4.2-0.1,6.3c0,0-0.1,0-0.1-0.1c0,0.8-0.1,1.7,0,2.5
	c-0.5-0.7-0.7-1.6-1.1-2.4c-0.3-1.1-0.5-2.3-0.4-3.5c0.2-2.7,0.4-4.9-3.5-4.9c-0.3,0-0.5,0-0.7-0.1l0.1-0.3c0.5,0.1,1.2-0.2,2.2-0.9
	C599.6,536.6,601.1,535.6,602.3,536.7z"/>
<path class="st0" d="M596.5,538.2l-0.1,0.3c-2.3-0.4-2.7-2.9-3-5.1c-0.9-8.6-2.7-17.3-3.4-25.9c0-0.6,0-1.3-0.1-1.8
	c-0.1-1.2-0.1-2.3-0.2-3.5c-0.2-8.4-1.1-16.7-1.9-25c-0.3-4-0.5-7.9-0.9-11.9c-0.1-1.2-0.1-2.1,0.2-2.9c3.7,18.5,3.5,37.2,5.8,55.5
	c0.8,5.9,1.6,11.8,2.3,17.7C595.5,537.1,595.8,538.1,596.5,538.2z"/>
<path class="st0" d="M594.7,459.7c-0.8,0.3-1.7,0.3-2.5,0.5c-0.2-0.2-0.3-0.5-0.4-0.8c0.1,0,0.3-0.1,0.4-0.1
	C593,459.5,593.8,459.6,594.7,459.7z"/>
<path class="st0" d="M594.4,461.6c-0.6-0.1-1.3-0.1-1.9-0.2c-2.6-0.2-4.1-0.4-4.9,0c0.8-1.1,2.2-1.5,4.4-1.2c0,0,0.1,0,0.1,0
	C592.8,461,593.5,461.4,594.4,461.6z"/>
<path class="st0" d="M592.1,460.2c0,0-0.1,0-0.1,0c-2.2-0.3-3.7,0.1-4.4,1.2c-0.1,0.1-0.2,0.1-0.3,0.2c-0.1,0-0.2,0-0.3,0
	c0,0.1,0,0.2,0.1,0.4c-0.4,0.7-0.4,2.1-0.2,4.5c0.3,3.6,0.7,7.1,1,10.7c0.2,3.6,0.5,7.3,1,10.9c0.2,1.8,0.2,3.6-0.2,5.5
	c-0.3,0.8-0.5,1.7-0.7,2.5c0-0.1,0-0.2,0-0.3c0.1-0.6,0.1-1.1,0-1.7c-0.6-9.4-1.2-18.8-1.9-28.1c-0.7-6.7-0.8-6.7,5.6-6.8
	c0.1,0,0.3,0,0.4,0.1c-0.1,0-0.3,0.1-0.4,0.1C591.8,459.7,592,460,592.1,460.2z"/>
<path class="st0" d="M589.3,301.9c1.6,2.4,1.9,5,1.5,9.2C588.6,307.5,588.8,304.8,589.3,301.9z"/>
<path class="st0" d="M589.8,502.2c0,1.2,0.1,2.3,0.2,3.5c-0.2-0.8-0.7-1.5-1.7-1.9c0,0,0,0-0.1-0.1c-0.1-2.5-0.2-5.1-0.2-7.6v0
	c0.3-0.8,0.4-1.7,0.7-2.5c0.4-1.9,0.4-3.7,0.2-5.5c-0.5-3.6-0.8-7.3-1-10.9C588.7,485.5,589.6,493.8,589.8,502.2z"/>
<path class="st0" d="M587,465.3c0.4,4,0.6,7.9,0.9,11.9c-0.3-3.6-0.7-7.1-1-10.7c-0.2-2.4-0.3-3.8,0.2-4.5c0,0.1,0.1,0.3,0.1,0.4
	C586.9,463.1,586.9,464.1,587,465.3z"/>
<path class="st0" d="M569.1,520.5c0.7,3.3-1.6,3.7-3.9,4.3c-3.6,0.9-2.3-1.9-3.2-4.1c6.1,2.5,5-1.2,4.7-4.3c-0.3-1.5-0.5-3-0.6-4.4
	c0.3,0.5,0.6,0.5,1.1,0.1C567.8,514.9,568.5,517.7,569.1,520.5z"/>
<path class="st0" d="M567.9,508.9c0.1,1.1,0.5,2.3-0.7,3.2c-0.4,0-0.7-0.1-1.1-0.1c0-0.2,0-0.4-0.1-0.5c-4.4-4-5.6-8.9-5.9-13.9
	s0.2-10.3-0.8-15.1c-1.1-5.6,0.6-11.5-1.1-17.1c4.6-1.8,6.5-0.2,6.8,4.9C565.7,483.2,566.9,496,567.9,508.9z"/>
<path class="st0" d="M567.2,512.1c-0.5,0.4-0.8,0.4-1.1-0.1C566.5,512,566.8,512.1,567.2,512.1z"/>
<path class="st0" d="M547.1,521.8c0,1.4,0.4,3-0.8,4.2c-1.1,1.1-2.5,1-3.8,0.7c-2.1-0.4-1.1-2.5-1.7-3.7c-0.1-3.1-0.6-6.3-0.1-9.4
	c0.9-5.4-3.7-10.3-1-15.7c0.3-0.6,0.3-1.9-0.9-1.7c-0.6,0.1-1.1,1.1-1.7,1.6c1.5-8.1,1.5-16.2,1-24.3c0-0.3,0.1-0.7,0-1
	c-3.1-6.9,2.1-5.5,5.7-5.7c3.1-0.2,6.2-0.5,9.4-0.6c-2.8,1.1-4.9,4.4-8.6,2.9c-0.3,1.6-4,1.2-1.9,4.8c2.7,4.5,2.1,10.3,2.5,15.6
	C546.1,500.2,547,511,547.1,521.8z"/>
<path class="st0" d="M540.1,523L540.1,523c-1.7,0.2-1.4-0.8-1.5-1.8c-0.5-5,0.5-10.1-0.7-15c0-0.2,0-0.3,0-0.5
	c2.2,4.8,0.3,10.1,1.6,15.1C539.7,521.5,539.3,522.4,540.1,523z"/>
<path class="st0" d="M540,523L540,523c-0.3,1.3,0.9,3-1.5,4.6c-1.6-7.3-0.2-14.5-0.6-21.4c1.2,4.9,0.2,10,0.7,15
	C538.7,522.2,538.4,523.2,540,523z"/>
<path class="st0" d="M479.4,341.4c1.9,7.3,1.3,8.1-6.2,7.4c-16.7-1.5-33.3-2.4-50.1-2.9c-0.4-0.2-0.8-0.7-1.2-0.7
	c-11.4-0.6-22.8-0.6-34.1-2.3c-0.6-0.1-1,0-1.3,0.2l-0.3-0.9c0.6-0.2,1.2-0.4,1.8-0.6c-1.5-4.6-2.9-9.2-4.4-13.7
	c-6.5-20.3-11.8-40.8-17.2-61.4c-0.5-1.9-0.4-4.2-2.4-5.4c0,0,0-0.1,0.1-0.1c0-2.7-0.2-5.2-1.8-7.6c-2.2-3.2-0.2-3.5,2.5-3.3
	c17.3,0.9,34.5,1.9,51.8,2.6c11.8,0.5,23.6,0.9,35.4,0.7c4.7-0.1,6,2.2,6.9,5.9c2.2,9.2,4.4,18.4,6.7,27.5c4.5,18,9.1,36,13.6,54
	C479.2,341.1,479.3,341.2,479.4,341.4z M470.8,341.3c3.2,0.5,3.4-0.5,2.4-3.1c-2.1-5.9-4.1-11.8-6.1-17.8
	c-6.4-19.1-10.2-38.8-14.8-58.3c-0.6-2.8-1.7-4.3-4.9-4.2c-24.3,0.9-48.5-0.7-72.7-1.4c-5.3-0.3-6,0.9-4.2,7c8,24,14.4,48.5,20,73.2
	c0.4,1.5,0.5,2.2,2.3,2.3c11.6,0.4,23.2,0.5,34.8,0.8C442,340.1,456.5,339.3,470.8,341.3z"/>
<path class="st0" d="M477.5,350.6c-5.7,4.6-11.7-0.3-17.5,1.6c-1.5-1.9-3.5-1.6-5.5-1.7c-9.7-0.5-19.5-1.4-29.2-2.2
	c-10.3-0.8-20.7-1.6-31.1-2.6c-2.3-0.3-4.7-0.6-7,0.3c0.1-0.1,0.2-0.2,0.3-0.3c0.2-0.2,0.4-0.4,0.6-0.5c10.3,0.5,20.6,1,30.8,1.6
	c0,0,0,0,0,0C438.5,348.1,458,349.3,477.5,350.6z"/>
<path class="st0" d="M471.1,368.4c0.1,3-2.9,2.6-4.3,2.8c-9.6,1.4-19.3-0.2-28.9-0.2c-5.6,0-11.3-0.1-16.9-0.3
	c-6.3-0.2-12.5-0.5-18.8-0.7c-7.4-0.3-14.8,0.5-22.4-0.5c-5.4-0.7-11.2-0.4-16.7-1.5c-1.1-0.2-1.7,0.2-1.6-1.3
	c0.8-12.7-1.7-25.1-2.6-37.7c-0.7-11.4-1.3-22.7-2-33.9c0,0,0-0.1,0-0.1v0c0,0,0,0,0,0c1.2,0.9,1.4,2.3,1.4,3.5
	c0.3,21.3,4.3,42.4,5,63.7c0.1,3,1.2,5,4.2,5c0.6,0,1.1,0,1.7,0c8.2,0.2,16.4,0.9,24.6,0.8c9.4-0.2,19-0.3,28.4,0.6
	c8,0.8,16,0.6,24,0.7c5.8,0.1,11.5,1.9,17.4,0c6.3-2,8-6.5,4.1-12.5c-0.3,0.1-0.6,0.4-0.5,0.7c0.3,4,0.5,6.1-0.5,7.1
	c0.4-2.4-1.1-4.5-1.2-6.8c-0.1-1.2-1.4-3.2,1.2-3.5c2-0.3,3.7,0.2,3.8,2.7C470.7,360.8,471,364.6,471.1,368.4z"/>
<path class="st0" d="M470.7,336.7c0.7,2.2-1.3,2.2-2.3,2.1c-1.6-0.2-4.2,1.4-4.4-2.1c-0.5-7.2-1.1-14.3-1.6-21.4
	c0.3-0.1,0.6-0.1,0.9-0.2C465.8,322.3,468.3,329.5,470.7,336.7z"/>
<path class="st0" d="M467.7,356.8c3.9,6,2.2,10.5-4.1,12.5c-5.9,1.9-11.6,0.1-17.4,0c-8-0.1-16,0.1-24-0.7c-9.4-0.9-19-0.8-28.4-0.6
	c-8.2,0.1-16.4-0.6-24.6-0.8l0-0.6c0.2,0,0.3,0,0.5,0c12.6-0.7,25.3-0.2,37.9,0.5c17.5,1,34.9-0.7,52.4-1.2c2.9-0.1,4.7-0.2,5.8-0.7
	c0.2,0.1,0.4,0.2,0.7,0.3c0.1-0.3,0.2-0.6,0.2-0.9c1-1,0.8-3.1,0.5-7.1C467.1,357.2,467.4,356.9,467.7,356.8z"/>
<path class="st0" d="M459.5,247.1c3.3,0.2,5.5,1.2,5,5.4c-0.6,5-0.3,9.9-0.3,14.9h-0.1c-0.1-0.6-0.2-1.2-0.4-1.9
	c-0.8-4.1-1.3-8.3-1.3-12.4c0-2.8-1.6-4.2-4.2-4.7c-2.3-0.4-4.6-0.9-6.9-0.8c-13.6,0.2-27.2-1.6-40.9-0.7
	c-9.2,0.5-18.6-0.4-27.9-0.4c-4.9-0.1-9.8,0.6-14.7,0.8c-2.3-0.2-4.5-0.3-6.8-0.4c-0.5,0-1,0-1.4,0.1c-2.7-0.4-3.8,1.3-3.6,4
	c0.4,5.2,0.4,10.3,0.5,15.5c0.1,2.3,0.3,4.7-0.8,6.9c-0.2,0.3-0.4,0.5-0.6,0.6c-0.1,0-0.1-0.1-0.2-0.1c-0.2-8.3-0.3-16.5-0.6-24.7
	c-0.1-2.6,0.4-3.5,3.1-3.5c24.1,0,48.2-0.2,72.2-0.1C439.6,245.7,449.5,246.5,459.5,247.1z"/>
<path class="st0" d="M464.2,267.4c0,1.7,0,3.3-0.1,5c-1.3-5.7-2.9-11.4-3.9-17.2c-0.5-2.5-0.9-3.5-3.9-3.5
	c-28.9-0.7-57.8-1.6-86.7-2.6c-3-0.1-5.9-1-8.9-1.2c-1-0.1-2-0.3-2.4,0.2l-0.5,0c0.4-0.5,0.9-0.9,1.7-1.1c0,0,0,0,0,0
	c2.7,0.4,5.5,0.4,8.2,0.3c0.9,0.1,1.8,0.1,2.7,0.2c28.3,1.7,56.6,1.3,84.8,2.7c3.5,0.2,5.6,1.4,6.3,5c0.7,3.5,1.4,6.9,2.1,10.3
	c0.1,0.6,0.3,1.2,0.4,1.9H464.2z"/>
<path class="st0" d="M462.4,253.1c0,4.2,0.5,8.4,1.3,12.4c-0.7-3.5-1.4-6.9-2.1-10.3c-0.7-3.6-2.8-4.8-6.3-5
	c-28.2-1.4-56.5-1-84.8-2.7c-0.9-0.1-1.8-0.1-2.7-0.2c4.9-0.2,9.8-0.9,14.7-0.8c9.3,0,18.7,0.9,27.9,0.4c13.7-0.9,27.3,0.9,40.9,0.7
	c2.3-0.1,4.6,0.4,6.9,0.8C460.8,248.9,462.4,250.3,462.4,253.1z"/>
<path class="st0" d="M452,365c4.6-0.4,9.3-1.6,13.8,0.2c-1.1,0.5-2.9,0.6-5.8,0.7c-17.5,0.5-34.9,2.2-52.4,1.2
	c-12.6-0.7-25.3-1.2-37.9-0.5c-0.2,0-0.3,0-0.5,0c-0.4,0-0.9,0-1.2-0.1l0.1-0.4c0.3,0.1,0.6,0.1,1,0c9.7-3,19.4-1,29.1-0.6
	C416.2,366.3,434.1,366.4,452,365z"/>
<path class="st0" d="M460,352.2c-21.2-1.7-42.4-3.4-63.6-5.1c-3.2-0.3-6.5-0.3-9.7-0.4c0.2-0.2,0.4-0.4,0.6-0.7
	c2.3-0.9,4.7-0.6,7-0.3c10.4,1,20.8,1.8,31.1,2.6c9.7,0.8,19.5,1.7,29.2,2.2C456.5,350.6,458.5,350.3,460,352.2z"/>
<path class="st0" d="M437.7,105.3c1.5,17.1,4.5,34.1,3.8,51.4c-0.2,5.2-1.6,4.7-5,3.2c-1-0.4-2-0.9-2.9-1.3l0.3-0.7
	c1.5,0.7,3.1,0.9,4.7-0.2c2.1-1.5,1.8-3.7,1.7-5.9c-0.1-0.9-0.3-1.7-0.4-2.5c-1.4-12.8-3.6-25.6-3-38.3c0.3-6.2-1.7-8.8-6.5-10.9
	c-0.5-0.2-1.2-0.3-1.5-0.9c3.6,0.4,7.2,0.3,10.8,0.3v1.1C437.4,102.2,437.5,103.6,437.7,105.3z"/>
<path class="st0" d="M401.8,121.7c0,0.1,0,0.2,0,0.2c0.7,7.1-0.4,14.5,1.5,21.5c0.4-9.7,0.7-19.5,0.2-29.2c-0.1-1.4,0.1-2.8,0.3-4.1
	c1.7-2.2,0.3-5.1,0.9-7.7c0-0.2,0-0.3,0-0.4c0.2,7.1,1.5,14.1,1.2,21.1c-0.2,4.3-1.1,8.5-1,12.9c0.1,3.8,1.5,6.3,4.9,7.9
	c4.5,2.1,8.9,4.6,13,7.4c3.1,2.2,6.5,4,9.8,5.9c0.4,0.3,0.9,0.5,1.4,0.7l-0.3,0.7c-8.2-3.8-16.2-8-24-12.7c-2.8-1.6-4.9-1.9-7.9,0"
	/>
<path class="st0" d="M418.2,96.8c6.1,1.5,9.9,6.6,15.1,9.6c-5.7-2.1-10.8-5.4-15.4-9.2c0.1-0.2,0.3-0.3,0.3-0.3c0,0,0,0,0,0
	C418.1,96.8,418.2,96.8,418.2,96.8z"/>
<path class="st0" d="M418.1,96.9c-0.1,0.1-0.2,0.2-0.3,0.3c0,0,0,0,0,0c0,0,0,0,0,0.1c-5.5-1.5-8.5-7.1-14-8.7
	c-0.8-0.2-0.8-1.1-0.6-1.6c0.4-1,1.2-1.1,1.9-0.4C409.2,90.4,415,91.9,418.1,96.9z"/>
<path class="st0" d="M408.1,559.2C408.1,559.2,408.1,559.2,408.1,559.2C408.1,559.2,408.1,559.2,408.1,559.2c-0.7,0.6-1.1,1.3-1.3,2
	c-0.3-1.9-0.9-3.7-2.3-5.4c-1.1,0.6-1.4,1.4-1.5,2.3c0.4-4.4,0.7-8.8,0.1-13.2c-1.7-13.5-0.6-27.2-1.2-40.8l2.9-0.1
	c0.7,14.6,1.4,29.2,2.1,43.9c0.2,3.8-0.5,7.6,1,11.3C408,559,408.1,559.1,408.1,559.2z"/>
<path class="st0" d="M408.1,559.3c-0.3,7.6,0.1,15.2-1,22.8c-0.4,2.8-0.4,2.8-3,2.2c0-0.1,0-0.3,0-0.4c0.2-0.6,0.3-1.2,0.3-1.7
	c2.2-0.3,1.6-2.2,1.7-3.4c0.3-2.1,0.5-4.2,0.6-6.3c0,0,0,0,0,0c0.8-1.3,1.3-2.9,1-5c-0.3-2.1-0.4-4.3-0.7-6.3
	C407,560.4,407.4,559.8,408.1,559.3z"/>
<path class="st0" d="M407.6,567.4c0.3,2.1-0.2,3.7-1,5c0.1-1.2,0.1-2.4,0.2-3.7c0.7-1.8,0.7-3.8,0-5.7c0-0.7,0-1.3,0.1-1.9
	C407.3,563.2,407.3,565.3,407.6,567.4z"/>
<path class="st0" d="M406.8,563c0.7,1.9,0.7,3.9,0,5.7c0-1.5,0-2.9,0-4.4C406.8,563.9,406.8,563.5,406.8,563z"/>
<path class="st0" d="M406.8,564.3c0,1.5,0,3,0,4.4c-0.7,1.9-2,3.5-3.9,4.8c-1.5,0.9-0.7,2.4-0.9,3.6c-4.9,0-9.7-0.6-14.6-0.2
	c-1.2,0.1-2.3,1.1-3.5,1.6c-0.5-0.3-1-0.7-1.3-1.4c-1-2-1.1-4.1-1.7-6.2c-1.4-5.1-2-10.4-4.3-15.2c-1.3-2.5-2.7-3.6-4.3-3.1
	c0,0,0,0,0,0c-0.4,0-0.7,0.2-1.1,0.5c0,0,0,0,0,0c-0.6,0.4-1.2,1-1.9,1.8c-1.8-0.4-3.8-2-5.5,0c-1.7,2.1-1.2,4.6-0.3,7
	c2.3,5.9,4.6,11.9,6.9,17.8c0.4,0.9,0.7,1.6,1.4,1.6c0.2,1.3,0.4,2.7,0.4,4.1c-1.6-1-3.4-0.8-5.2-0.6c-2.4,0.3-4.9,0.6-7.4,0.6
	c-5.4,0-6-0.2-6-5.4c0-10.3-1.4-20.5-2.2-30.7c-0.2-3.6-0.1-7.3-2.3-10.5c0,0-0.1,0-0.1,0c-0.4-8.7-0.6-17.3-1.4-25.8
	c-0.3-3,0.2-6.2-1-9.1c0.1-0.3,0.2-0.6,0.4-0.8c0.4-1.8,0.3-3.7-0.1-5.5c-0.2-0.8-0.5-1.6-0.5-2.4c-0.1-7.5-0.1-15,0-22.5
	c0.9,0.9,1,1.8,0.8,2.6c-1.5,7.2,4.2,13.9,1.8,21.2c-0.1,0.2,0.2,0.7,0.4,0.9c3.2,3.8,1.2,8.3,1.1,12.2c-0.1,3.8-0.6,7.4,1,11
	c0.6,1.4,1.7,3,1.7,4.5c0,0.7-0.2,1.3-0.7,2c-2.2,2.8,2.1,5.5-0.5,8.1c-0.2,0.2,1.1,1.7,2.2,1.4c1.3-0.4,2.6-0.5,3.9,0
	c1.1,0.4,2.4,1,2.8-0.7c0.4-1.8-1.3-1.5-2.3-1.9c-4.4-1.8-5.1-3.8-2.3-6.9c0.1-0.1,0.1-0.2,0.2-0.3c9.4-0.7,18.8-1.6,28-2.3
	c2.9-0.2,5.8-1.1,8.4,1.2c0.8-2.3,0.8-4.1-0.1-5.8c1-11-0.8-21.9-0.9-32.8c-0.1-1.8,0.1-3.6,0.1-5.4l1.2,0c0,0.8,1,1.3,2.6,1.4
	c1,0,2,0.2,2.1,1.5c0.1,1.1-0.5,1.9-1.7,1.9c-1.2,0-2,0.6-1.7,1.8c0.3,1.1,1.1,1.6,2.3,1.4c2.4-0.4,3.4,0.9,3.3,3.1
	c-0.2,4,0.9,7.9,0.8,11.8c-0.4,18.7,1.2,37.4,1.2,56.1c0,1.5-0.8,3.5,1.2,4.7c1.2-1.3,0.7-2.7,0.8-4c0-1.4,0-2.9,0-4.4
	c0.9,1.8,1.6,3.6,2.4,5.3c0.1,0.2,0.2,0.4,0.3,0.6C406.8,563.5,406.8,563.9,406.8,564.3z M388.8,538.4c0-3.3,0.1-6.4-4.5-6
	c-7.2,0.6-14.4,1.2-22,1.9c0.4,1.2,1,2,0.8,2.7c-0.7,4,0.7,4.6,4.5,4.1c5.4-0.7,10.9-0.4,16.3-0.5
	C385.9,540.6,388.8,542.9,388.8,538.4z"/>
<path class="st0" d="M406.9,561.1c-0.1,0.6-0.1,1.3-0.1,1.9c-0.1-0.2-0.2-0.4-0.3-0.6c-0.8-1.7-1.5-3.5-2.4-5.3c0,1.5,0,3,0,4.4
	c-0.1,1.3,0.4,2.7-0.8,4c-2-1.2-1.2-3.2-1.2-4.7c0-18.7-1.6-37.4-1.2-56.1c0.1-3.9-1-7.8-0.8-11.8c0.1-2.2-0.9-3.5-3.3-3.1
	c-1.2,0.2-2-0.3-2.3-1.4c-0.3-1.2,0.5-1.8,1.7-1.8c1.2,0,1.8-0.8,1.7-1.9c-0.1-1.3-1.1-1.5-2.1-1.5c-1.6-0.1-2.6-0.6-2.6-1.4
	c0-0.5,0.4-1.1,1.3-1.8c5.6-4.5,4.5-9.5,2.1-15.2c-1.3-3.2-2.3-1.5-3.6-0.6c-0.2-0.1-0.5-0.1-0.7-0.1c0.1-0.1,0.2-0.2,0.4-0.3
	c0-0.7,0-1.2-0.1-1.5c2.3-1.3,3.8-0.5,5.1,2.6c2.1,5,4,9.7-1.1,14c-0.8,0.6-1.2,1.8-0.1,2.6c2,1.6,2.9,3.2,1,5.4
	c-0.6,0.7-0.4,1.2,0.4,1.5c3.6,1.4,3,4.6,3.4,7.6c0.3,2.6,0.5,5.3,0.7,8c0.7,13.6-0.4,27.3,1.2,40.8c0.5,4.3,0.3,8.8-0.1,13.2
	c-0.1,0.3-0.1,0.7-0.1,1c0,0.3-0.1,0.5-0.1,0.8c0-0.3,0.1-0.5,0.1-0.8c0-0.3,0.1-0.7,0.1-1c0.1-0.9,0.4-1.7,1.5-2.3
	C406,557.4,406.5,559.2,406.9,561.1z"/>
<path class="st0" d="M406.8,568.7c0,1.2-0.1,2.5-0.2,3.7c0,0,0,0,0,0c-1.1,1.8-3,3.2-4.5,4.9c0-0.1-0.1-0.1-0.1-0.2
	c0.2-1.2-0.6-2.7,0.9-3.6C404.8,572.3,406.1,570.6,406.8,568.7z"/>
<path class="st0" d="M406.6,572.4c-0.1,2.1-0.3,4.2-0.6,6.3c-0.1,1.2,0.5,3.1-1.7,3.4c-0.1-1.8-1.5-3.2-2.2-4.8
	C403.6,575.6,405.5,574.2,406.6,572.4z"/>
<path class="st0" d="M404.9,503.8L402,504c-0.1-2.7-0.4-5.3-0.7-8c-0.4-3,0.2-6.2-3.4-7.6c-0.8-0.3-1-0.8-0.4-1.5
	c1.9-2.2,1-3.8-1-5.4c-1.1-0.8-0.7-2,0.1-2.6c5.1-4.3,3.2-9,1.1-14c-1.3-3.1-2.8-4-5.1-2.6c-0.5-1.7-2.7-0.8-4-0.8
	c-11.1,0-22.1,2.2-33.2,0.6c-1.8-0.3-2.2-0.2-1.9,2.3c1.8,13.8,2.5,27.6,1.5,41.5c0,0.1,0,0.3,0,0.4c-2.1,4.4-0.4,9.1-1.1,14.1
	c1.1-1,1-2,1.1-2.9c0-0.1,0-0.1,0.1-0.2c0.1,0,0.2-0.1,0.3-0.1c0.9,2.9,0.3,5.9,0.6,8.8c-2,0.8-3.1,2.1-2.6,4.4
	c0.5,2.1,2.2,3.3,4.4,4.8c-4-1-5.7-3.7-4.6-7.4c0.3-0.9,0.4-1.7,0.4-2.5c0-1.6-0.4-3.1-1-4.7c-1.5-3.3-1.9-6.7-1.2-10.2
	c1.2-6.5,0.5-13.6-0.8-19.4c-1.3-5.9-1.8-11.8-2.8-17.7c-0.1-0.8-0.2-1.9-1.4-2c0-4.7,0.1-9.4,0.1-14.1c0-2.1,0.8-3.9,1.6-5.7
	c0.7-0.2,1.4-0.3,2.3-0.3c0,0,0.1,0,0.1,0c0,0,0.1-0.1,0.1-0.1c0.1,0,0.2-0.1,0.2-0.1c4.6-0.1,9.3-0.3,13.9-0.5
	c10.8-0.4,21.4-2.7,32.3-1.7c3.7,0.4,4.5,2,4.8,4.8c0.5,5.2,0.9,10.3,1.3,15.4C403.8,480.6,404.3,492.2,404.9,503.8z"/>
<path class="st0" d="M404.3,582.1c0.1,0.5,0,1.1-0.3,1.7c-0.1-0.8-0.5-1.6-0.9-2.3c0.3,0.2,0.7,0.4,1,0.6
	C404.3,582.1,404.3,582.1,404.3,582.1z"/>
<path class="st0" d="M404.3,582.1c0,0-0.1,0-0.1,0c-0.3-0.2-0.7-0.4-1-0.6c-0.8-1.3-1.7-2.5-1.3-4.1c0.1,0,0.1-0.1,0.2-0.1
	C402.9,578.9,404.2,580.3,404.3,582.1z"/>
<path class="st0" d="M404.1,583.8c0,0.1,0,0.1-0.1,0.2c-5.1-5-11.6-3.6-17.7-4.2c-1.8-0.2-4.4,1.7-5.2-1.7c1,1.6,2.2,1.2,3.8,0.8
	c0.1,0,0.1,0,0.2-0.1c1.1,0.2,2.3-0.1,3.3-0.1c5.2-0.3,10.2,0.3,14.8,2.8C403.6,582.2,404,583,404.1,583.8z"/>
<path class="st0" d="M402,577.1c0,0.1-0.1,0.2-0.1,0.3c-2.8,1.4-5.8,0.7-8.6,0.6c-2.7-0.1-5.6,0.1-8.2,0.8c-0.4-0.1-0.8-0.2-1.1-0.4
	c1.2-0.4,2.3-1.5,3.5-1.6C392.3,576.5,397.1,577.1,402,577.1z"/>
<path class="st0" d="M401.9,577.4c-0.4,1.6,0.5,2.8,1.3,4.1c-4.6-2.5-9.6-3.1-14.8-2.8c-1.1,0-2.2,0.3-3.3,0.1
	c2.7-0.8,5.5-0.9,8.2-0.8C396.1,578.1,399.2,578.8,401.9,577.4z"/>
<path class="st0" d="M396.6,464.8c2.4,5.7,3.5,10.7-2.1,15.2c-0.9,0.7-1.3,1.3-1.3,1.8l-1.2,0c0.1-2.9,0.2-5.8-0.9-8.7
	c0,0,0-0.1,0-0.2c0.6-2.9-1.9-6.3,1.2-8.8c0.2,0,0.5,0.1,0.7,0.1C394.3,463.3,395.3,461.6,396.6,464.8z"/>
<path class="st0" d="M395.2,147.8c0.6,1.7-0.8,2.8-1.4,2.5c-1.7-0.9-3-0.8-4.1-0.2l-0.1-0.3c0.9-0.4,1.8-0.9,2.7-1.5
	c1.3-0.8,1.4-1.6,1.4-2.8c0-0.2,0-0.3,0-0.5c0-1.8-0.2-3.6,0.6-5.3c0.2,0.1,0.5,0.2,0.7,0.3C394.7,142.7,394.4,145.3,395.2,147.8z"
	/>
<path class="st0" d="M394.8,139.4c-0.1,0.1-0.3,0.2-0.5,0.3c0,0,0,0.1,0,0.1c-2.3-1.2-1.6-3.6-1.6-5.5c-0.2-10.6-0.1-21.3,0-31.9
	c0-4.2-0.7-8.3-1-12.4c-0.2-2.9-1.5-3.7-4.3-3c-9.7,2.5-18.5,7.4-27.9,10.7c-1.8,0.6-2.2,2.3-2.3,4.1c0,0.1,0,0.1,0,0.2
	c-0.8,12.2-1.1,24.5,0.9,36.6c0.4,2.2,1.1,4.6-1.1,6.5c0,0,0,0.1-0.1,0.1c0,0-0.1-0.1-0.1-0.1c0,0,0-0.1,0-0.1
	c-1.2-14.2-2.1-28.4-1.4-42.6c0.2-3.8,1.1-5.5,4.9-6.7c8.9-2.8,17.1-7.2,26-10c0.6-0.2,1.2-0.4,1.8-0.6c3.5-1,4.3-1,4.8,2.9
	c1.8,15.1,0.7,30.2,1.3,45.2C394.3,135.3,394,137.4,394.8,139.4z"/>
<path class="st0" d="M393.7,145.1c0,0.1,0,0.3,0,0.5c0,1.2-0.1,2-1.4,2.8c-0.9,0.5-1.8,1-2.7,1.5c-7.7,3.8-16.1,4.7-24.3,6.3
	c-4.8,1-6.1,0.1-6.8-4.3l0.6-0.1c0.4,2.2,2.2,3.4,4.8,2.4c8.6-3.2,17.3-5.7,26.1-7.9c0.8-0.2,2.3-0.3,2.3-1.2L393.7,145.1z"/>
<path class="st0" d="M393.7,145.1l-1.4,0c0-0.2,0-0.4-0.2-0.7c-2.4-4.7-0.8-9.8-2.1-14.5c0-7.2-0.7-14.3-1.3-21.4
	c0-0.9-0.1-1.8-0.2-2.8c-0.1-0.7-0.1-1.4-0.2-2c0,0.1,0,0.2-0.1,0.3c0-0.1,0-0.2,0-0.4c0.6-3.1-0.1-6.3,0-9.4
	c0.1-3.8,1.5-6.4-4.8-3.5c-6.6,3-13.9,5.2-20.9,7.6c-2.9,1-4.1,1-4.3,3.6l-1-0.1c0-0.1,0-0.1,0-0.2c0.1-1.8,0.5-3.5,2.3-4.1
	c9.4-3.3,18.2-8.2,27.9-10.7c2.8-0.7,4.1,0.1,4.3,3c0.3,4.1,1,8.2,1,12.4c-0.1,10.6-0.2,21.3,0,31.9c0,1.9-0.8,4.3,1.6,5.5
	C393.5,141.5,393.7,143.3,393.7,145.1z"/>
<path class="st0" d="M391.1,473.1c1.1,2.9,1.1,5.8,0.9,8.7c-0.1,1.8-0.2,3.6-0.1,5.4c-0.1-0.3-0.2-0.5-0.5-0.5
	C391.2,482.1,391.8,477.6,391.1,473.1z"/>
<path class="st0" d="M389.6,149.9l0.1,0.3c-2,1.1-3.5,3.5-6.1,3.7c-4.1,0.2-8.6,0.6-12.6,2.6c-3.1,1.5-6.5,0.9-9.8,1.2
	c-1.4,0.1-2.5-0.4-3-2.4c-0.9-3.2-1-6.6-1.4-9.9c0-0.1,0.1-0.1,0.1-0.1c1.9,1.4,1.2,3.6,1.4,5.5c0.1,0.4,0.1,0.9,0.2,1.3
	c0.7,4.3,2,5.3,6.8,4.3C373.5,154.6,381.9,153.6,389.6,149.9z"/>
<path class="st0" d="M386.2,342.3l0.3,0.9c-0.5,0.3-0.6,1-0.5,1.8c0,0-0.1,0-0.1,0c0,0.6,0,1.1,0,1.7c0,0,0.1,0,0.1,0
	c-4.7,0.8-4.5-3.1-4.8-5.7c-1.2-9.9-3.9-19.5-7.1-29c0,0-0.1,0-0.1,0c-1.7-8.3-3.4-16.6-5.1-25c-0.2-0.3-0.3-0.5-0.2-0.7
	c0.1,0.2,0.2,0.4,0.3,0.7c0.3-0.3,0.5-0.5,0.7-0.8c5.5,18.7,10.9,37.4,16.4,56.1C386.1,342.3,386.2,342.3,386.2,342.3z"/>
<path class="st0" d="M385.1,578.8c-0.1,0-0.1,0-0.2,0.1c-1.5,0.4-2.8,0.8-3.8-0.8c0,0,0-0.1,0-0.1c1.1,0.8,2,0.8,2.8,0.5
	C384.3,578.7,384.7,578.8,385.1,578.8z"/>
<path class="st0" d="M383.9,578.5c-0.9,0.3-1.8,0.4-2.8-0.5c0,0,0,0.1,0,0.1c0-0.1-0.1-0.1-0.1-0.2c-1.7-7.4-3.1-14.8-5.7-21.9
	c-0.7-1.8-1.6-3.6-3-3.4c1.6-0.4,3,0.6,4.3,3.1c2.3,4.8,2.9,10.1,4.3,15.2c0.6,2.1,0.7,4.2,1.7,6.2
	C383,577.8,383.4,578.2,383.9,578.5z"/>
<path class="st0" d="M378.8,579.6c0.3,1.5-1.2,1.9-2.2,2.2c-1.4,0.5-1.5-0.7-1.7-1.7c-1.6-7.6-3-15.4-2.3-23.4
	C375.7,564.1,377.4,571.8,378.8,579.6z"/>
<path class="st0" d="M372.8,581c0.7,1.7,1.2,3.4,0.2,5c-0.3-0.3-0.5-0.5-0.8-0.6c0-1.4-0.1-2.8-0.4-4.1
	C372.1,581.4,372.4,581.3,372.8,581z"/>
<path class="st0" d="M373,586.1c-0.2,0-0.5,0-0.7,0.1c0-0.1,0-0.2-0.1-0.3c0-0.2,0-0.3,0-0.4C372.5,585.6,372.7,585.8,373,586.1z"/>
<path class="st0" d="M372.9,581C372.9,581,372.9,581,372.9,581c-0.1,0-0.1,0-0.1,0c-0.6-1.2-1.3-2.4-1.8-3.6c-1.6-7.3-3-14.6-2-22.1
	c0.1-0.1,0.1-0.2,0.2-0.3c0.1,0,0.2,0,0.2-0.1c0.1,0,0.2,0,0.3,0C369.3,563.8,371.8,572.4,372.9,581z"/>
<path class="st0" d="M372.8,581C372.8,581,372.8,581,372.8,581c-0.4,0.3-0.7,0.4-1,0.3c-0.1-0.4-0.1-0.8-0.2-1.2
	c-0.2-0.9-0.4-1.8-0.6-2.7C371.5,578.6,372.2,579.8,372.8,581z"/>
<path class="st0" d="M372.2,585.9c0,0.1,0,0.2,0.1,0.3c-2.4,0.2-4.8,0.3-7.1,0.4c-2.8,0.1-5.7,0.3-8.5,0.6c0,0-0.1,0-0.1,0
	c-3.1,0.3-4.5-0.3-4.6-4.1c-0.2-14.7-1.5-29.3-3.1-43.9c0.1-0.1,0.1-0.1,0.2-0.2c0,0,0,0,0-0.1c0,0,0.1,0,0.1,0
	c2.2,3.2,2.1,6.9,2.3,10.5c0.8,10.2,2.2,20.4,2.2,30.7c0,5.2,0.6,5.4,6,5.4c2.5,0,5-0.3,7.4-0.6c1.8-0.3,3.6-0.4,5.2,0.6
	C372.2,585.6,372.2,585.8,372.2,585.9z"/>
<path class="st0" d="M371.6,580.1c0.1,0.4,0.2,0.8,0.2,1.2c-0.7,0-1.1-0.8-1.4-1.6c-2.3-5.9-4.6-11.9-6.9-17.8
	c-0.9-2.4-1.4-4.9,0.3-7c1.7-2,3.7-0.4,5.5,0c0,0,0,0.1-0.1,0.1c-6.4,1.5-6.4,1.9-3.7,8.8c1.7,4.6,3.4,9.2,5.5,13.6
	C371.2,578.3,371.4,579.2,371.6,580.1z"/>
<path class="st0" d="M371,577.4c-2.1-4.4-3.8-9-5.5-13.6c-2.6-6.9-2.7-7.3,3.7-8.8c-0.1,0.1-0.2,0.2-0.2,0.3
	C368,562.8,369.3,570.1,371,577.4z"/>
<path class="st0" d="M369.2,366.6l0,0.6c-0.6,0-1.1,0-1.7,0c-3,0-4.1-2-4.2-5c-0.7-21.3-4.7-42.4-5-63.7c0-1.3-0.2-2.7-1.4-3.5
	c0.6-0.5,1.1-1.3,1.2-2.1c0.3-5.7-0.6-11.2-1.4-16.8c-0.1-0.8-0.8-1.6-1.6-2.1c0.3-0.1,0.5-0.3,0.6-0.6c1.1-2.2,0.9-4.6,0.8-6.9
	c-0.1-5.2-0.1-10.3-0.5-15.5c-0.2-2.7,0.9-4.4,3.6-4c-0.8,0.2-1.3,0.5-1.7,1.1c-0.4,0.7-0.5,1.6-0.4,2.8c1.9,12.2,1.9,24.5,2.8,36.8
	c1.8,24.9,4.8,49.7,5.1,74.7c0.1,2.2,0.8,3.6,2.6,4.1C368.4,366.6,368.8,366.6,369.2,366.6z"/>
<path class="st0" d="M368.1,366.1l-0.1,0.4c-1.8-0.4-2.5-1.9-2.6-4.1c-0.3-25-3.3-49.8-5.1-74.7c-0.9-12.3-0.9-24.6-2.8-36.8
	c-0.2-1.2-0.1-2.2,0.4-2.8l0.5,0c-0.3,0.4-0.2,1.1,0.4,2.6c2.7,7.1,1.3,14.8,2,22.2c1.7,19.7,3.3,39.4,4.7,59.1
	c0.7,10.4,1.1,20.9,1.4,31.3C366.8,364.9,367.2,365.9,368.1,366.1z"/>
<path class="st0" d="M367.8,247.3c-2.7,0.1-5.4,0.1-8.2-0.3c0,0,0,0,0,0c0.4-0.1,0.9-0.1,1.4-0.1C363.3,247,365.5,247.1,367.8,247.3
	z"/>
<path class="st0" d="M358.6,534.1c1,0.4,2.7,0.1,2.3,1.9c-0.4,1.7-1.7,1.1-2.8,0.7c-1.3-0.5-2.6-0.4-3.9,0c-1.1,0.3-2.4-1.2-2.2-1.4
	c2.6-2.6-1.7-5.3,0.5-8.1c0.5-0.6,0.7-1.3,0.7-2l0.4,0c0,0.8-0.1,1.7-0.4,2.5c-1.1,3.7,0.6,6.4,4.6,7.4c-2.2-1.5-3.9-2.7-4.4-4.8
	c-0.6-2.3,0.6-3.6,2.6-4.4c0,0.3,0.1,0.6,0.1,0.9c0.1,0,0.2,0,0.4,0c0,0.1-0.1,0.2-0.2,0.3C353.5,530.3,354.2,532.3,358.6,534.1z"/>
<path class="st0" d="M359.9,132.8c0,5.9-0.3,11.8-0.8,17.8c-0.1,0.5,0,0.9,0,1.4l-0.6,0.1c-0.1-0.4-0.1-0.8-0.2-1.3
	c-0.2-1.9,0.5-4.1-1.4-5.5c0,0,0.1-0.1,0.1-0.1c2.2-1.9,1.5-4.3,1.1-6.5c-2-12.1-1.7-24.4-0.9-36.6l1,0.1c0,0.7,0,1.5,0.1,2.6
	C359.3,113.9,359.9,123.3,359.9,132.8z"/>
<path class="st0" d="M356.7,276.1c0.8,5.6,1.7,11.1,1.4,16.8c-0.1,0.8-0.6,1.6-1.2,2.1c0,0,0,0,0,0c-0.4-7-0.3-14.1-2-20.9
	c0,0,0.1,0,0.2,0C355.9,274.5,356.6,275.3,356.7,276.1z"/>
<path class="st0" d="M355.1,506c0.8,3.6,0.1,7.1,0.1,10.7c0,0,0,0,0,0.1c0-0.1-0.1-0.1-0.1-0.2c-1.5-3.5-0.4-6.8-0.1-10.3
	C355,506.2,355,506.1,355.1,506z"/>
<path class="st0" d="M354.7,518.2c0.1-0.2,0.2-0.4,0.3-0.7c-0.1,0.8,0,1.8-1.1,2.9c0.7-5-1-9.7,1.1-14.1c-0.3,3.5-1.3,6.9,0.1,10.3
	c0,0.1,0,0.1,0.1,0.2c-0.1,0.2-0.1,0.4-0.2,0.6C354.6,517.7,354.6,518.1,354.7,518.2z"/>
<path class="st0" d="M352.6,520.6c0.7,1.5,1.1,3.1,1,4.7l-0.4,0c0-1.5-1.1-3.2-1.7-4.5c-1.6-3.6-1.1-7.2-1-11
	c0.1-3.9,2.1-8.4-1.1-12.2c-0.2-0.2-0.5-0.7-0.4-0.9c2.4-7.3-3.3-14-1.8-21.2c0.2-0.8,0-1.7-0.8-2.6c0-0.5,0-1,0-1.5
	c1.2,0.2,1.4,1.2,1.4,2c1,5.9,1.5,11.8,2.8,17.7c1.3,5.8,2,12.9,0.8,19.4C350.7,513.9,351.1,517.3,352.6,520.6z"/>
<path class="st0" d="M346.9,497.7c0.4,1.8,0.5,3.7,0.1,5.5c-0.1,0.3-0.2,0.6-0.4,0.8c-0.2-0.4-0.3-0.8-0.5-1.1
	c-0.1,0.1-0.1,0.3-0.2,0.4c0-0.1,0-0.2,0-0.3c-0.1-1.5-0.1-3-0.2-4.5c-0.1-1.7-0.2-3.3-0.3-5c0.1,1.7,0.3,3.4,0.7,5.1
	c0-8.7,0-17.4,0-26.1c0.1,0.1,0.2,0.2,0.3,0.3c-0.1,7.5-0.1,15,0,22.5C346.4,496.1,346.7,496.9,346.9,497.7z"/>
<path class="st0" d="M348.1,451.4c-0.8,1.8-1.6,3.6-1.6,5.7c0,4.7-0.1,9.4-0.1,14.1c-0.3,0-0.6,0-1,0c0.1-4.8,0.3-9.5-0.2-14.3
	C344.9,453.6,345.9,452,348.1,451.4z"/>
<path class="st0" d="M346.4,471.3c0,0.5,0,1,0,1.5c-0.1-0.1-0.2-0.2-0.3-0.3c0,8.7,0,17.4,0,26.1c-0.3-1.7-0.5-3.4-0.7-5.1
	c0,0,0,0,0-0.1c-0.1-3-0.1-6-0.1-9c0.1-2.9,0.2-5.7,0.1-8.5c0-1.5,0-3.1,0-4.6C345.8,471.2,346.1,471.2,346.4,471.3z"/>
<path class="st0" d="M299.9,353.5c0,4.2,0,7.4,0,10.5c0,1.3-0.5,1.6-1.8,1.5c-3.6,0-7.8,1.4-10.8,0.1c-3.5-1.7-5.9,0.5-8.8,0.4
	c-17.7-0.3-35.4-0.7-53.2-0.9c-5.8-0.1-11.6,0.3-17.3,0.9c-4.1,0.4-8-1.3-12.1-0.6c-2.2,0.4-4.6-0.9-3.8-4.5
	c1.3-6.6-0.2-13.3-0.8-19.9c-2-23.7-1.1-47.5-3.2-71.2c-0.5-6.1-0.1-12.3,0.1-18.4c0.1-6.4,0.9-7,7.5-7.1
	c13.6-0.1,27.2-0.3,40.8-0.5c2.8,0,5.6-0.5,8.4-0.7c0.1,0,0.2,0,0.2,0c-0.1,0-0.3,0-0.4,0.1c0.3,0.6,0.6,1,0.9,1.3c0,0-0.1,0-0.1,0
	c-8.9,1.7-17.9,0.9-26.9,0.9c-7.7,0-15.3,0.5-23,0.2c-4.3-0.1-5.9,1.6-6.1,6.1c-0.6,14.7,0.6,29.3,1.3,43.9
	c0.3,7.5,0.9,14.9,0.6,22.4c-0.6,14,2.7,27.8,2.1,41.8c-0.1,3,1.5,4,4.3,4.2c7.3,0.5,14.6,0.3,21.9-0.3c11.1-0.9,22.2,0.6,33.4,0.6
	c9.9,0.1,19.9,1,29.7-1.3c1.3-0.3,2.3,0.2,3.4,0.6c2.4,1,4.9,1,7.4,0.6c4.4-0.6,4.8-1.3,4-6.3c-3,0.7-2.3,5.3-5.9,5.5
	c-2.9,0.1-5.6-1.1-8.4-1.1c-8.3,0-16.6,1.2-24.9,0.8c-13.6-0.6-27.3-1.1-40.9-0.8c-4.7,0.1-9.3,0-14,0.5c-4.5,0.5-6.1-1-6-5.6
	c0-3.5,0-7,0.1-10.5c0.3-1,0.1-2.4,0.8-3.1c0.1,0.5,0.1,1,0.2,1.5c-0.1,0.6,0,1.3,0.3,1.9c0,0.1,0,0.2,0,0.2c0,0,0-0.1,0-0.1
	c0,0,0.1,0.1,0.1,0.1c-0.1,3.8,0,7.7-0.3,11.5c-0.3,2.9,1,3.5,3.5,3.2c16.6-1.9,33.1-0.6,49.7-0.2c13.3,0.3,26.7-1.3,40,0.6
	c0.7,0.1,1.7,0.2,1.6-0.2C292.5,357.5,297.2,357.1,299.9,353.5z"/>
<path class="st0" d="M298.2,326.7c0.1,1.7,0.9,3.7-1,5c0,0,0,0,0,0c-0.2-2.3-0.4-4.5-0.6-6.8c-0.1-4.1-0.6-8.1-1.1-12.2
	c0-0.1,0-0.2,0-0.3c-0.1-1.2-0.2-2.4-0.3-3.6c0,0,0,0,0-0.1c-0.1-0.8-0.1-1.6-0.1-2.4c0-1.8-0.5-3.6-0.1-5.4
	c0.1-0.2,0.2-0.5,0.3-0.8c0.2,0.3,0.5,0.6,0.9,0.9c0-0.1,0.1-0.1,0.1-0.2c0,0,0,0.1,0,0.1C297,309.6,297.7,318.2,298.2,326.7z"/>
<path class="st0" d="M297.6,357.9c0.8,5,0.4,5.7-4,6.3c-2.5,0.4-5,0.4-7.4-0.6c-1.1-0.4-2.1-0.9-3.4-0.6c-9.8,2.3-19.8,1.4-29.7,1.3
	c-11.2,0-22.3-1.5-33.4-0.6c-7.3,0.6-14.6,0.8-21.9,0.3c-2.8-0.2-4.4-1.2-4.3-4.2c0.6-14-2.7-27.8-2.1-41.8
	c0.3-7.5-0.3-14.9-0.6-22.4c-0.7-14.6-1.9-29.2-1.3-43.9c0.2-4.5,1.8-6.2,6.1-6.1c7.7,0.3,15.3-0.2,23-0.2c9,0,18,0.8,26.9-0.9
	c0,0,0.1,0,0.1,0c1.5,1.5,3.7,1,5.7,0.9c12.6-0.3,25.3,0.8,37.9,1c3.8,0.1,4.8,1.6,4.5,5.2c-0.5,6-0.2,12-0.2,18
	c0,2.5-0.1,5,1.7,7.1c0.1,0.1,0.2,0.2,0.4,0.2c-0.6,0.2-1.2,0.6-1.2,1.4c-0.1,7,0,13.9,0.5,20.8c0,0.4,0.1,0.8,0.4,1.1
	c-0.1,0.3-0.2,0.5-0.3,0.8c-0.4,1.8,0.1,3.6,0.1,5.4c0,0.8,0,1.6,0.1,2.4c-1-11-1.9-22-3-33c-0.7-7.4-2.7-14.7-3.1-22.1
	c-0.2-3-1.1-2.8-3-2.8c-8.9,0-17.9,0-26.8-0.1c-20.1-0.4-40.1-0.8-60.2-1.1c-1.8,0-4.5,0.4-1.9,3.3c-0.1,4.8-0.7,9.7-0.1,14.4
	c2,17,0,34.1,0.5,51.1c0.3,8.4-0.2,16.8,0.8,25.1c-0.6,0.8-0.4,2.2-0.8,3.1c-0.1,3.5-0.1,7-0.1,10.5c-0.1,4.6,1.5,6.1,6,5.6
	c4.7-0.5,9.3-0.4,14-0.5c13.6-0.3,27.3,0.2,40.9,0.8c8.3,0.4,16.6-0.8,24.9-0.8c2.8,0,5.5,1.2,8.4,1.1
	C295.3,363.2,294.6,358.6,297.6,357.9z"/>
<path class="st0" d="M296.9,338.2c-0.6,3.9,2.9,8.8-0.5,11.3c-2.6,1.9-7.4,1-11.2,1c-18.1,0.3-36.2,0.7-54.3,0.1
	c-5.5-0.2-10.9,0-16.4,0.1c-3.5,0.1-4.8-1.3-5.2-4.9c-0.4-3.7,0.8-7.5-1.3-10.9c0,0,0-0.1,0-0.1c0-0.1,0.1-0.1,0.1-0.2
	c0.1,0,0.2,0,0.3,0c2.8,1.8,1.8,4.7,2.1,7.3c0.5,6.2,1.7,7.7,7.9,7.6c22.4-0.2,44.9,0.5,67.3-0.4c7.8-0.3,9.4-0.4,9.8-5.4
	c0.1-1.3,0.1-2.8,0.2-4.8c0.1-0.3,0.2-0.7,0.4-1C296.3,338,296.6,338.1,296.9,338.2z"/>
<path class="st0" d="M296.4,337.4c0.1,0.3,0.3,0.6,0.5,0.9c-0.3-0.1-0.6-0.2-0.8-0.3C296.1,337.7,296.3,337.5,296.4,337.4z"/>
<path class="st0" d="M296.3,300.9c0,0.1-0.1,0.1-0.1,0.2c-0.4-0.2-0.7-0.5-0.9-0.9c0.8-2.5-0.2-5.4,0.8-7.9
	C296.2,295.2,296.2,298.1,296.3,300.9z"/>
<path class="st0" d="M296.4,337.4c-0.1,0.2-0.2,0.4-0.3,0.6c-1-0.6-0.9-1.8-0.9-2.8c0.2-1,0.4-2,0.7-3c0.1,1,0.2,1.9,0.3,2.9
	C296.1,335.9,296.1,336.6,296.4,337.4z"/>
<path class="st0" d="M295.7,277c0.1,5.1,0.3,10.3,0.4,15.4c-1,2.4-0.1,5.4-0.8,7.9c-0.2-0.4-0.4-0.7-0.4-1.1
	c-0.5-6.9-0.6-13.8-0.5-20.8c0-0.8,0.5-1.1,1.2-1.4C295.6,277,295.7,277,295.7,277z"/>
<path class="st0" d="M296.1,337.9c-0.1,0.3-0.3,0.6-0.4,1c0,2-0.1,3.6-0.2,4.8l-2.6-0.2c0-0.4,0-0.8-0.1-1.4
	c-1.3-7.3-2.6-14.7-3.9-22c-3.1-17-4.5-34.2-6.4-51.3c-0.4-3.7,1.5-8.6-1.1-10.9c-2.8-2.5-7.6-0.1-11.5-0.1
	c-14.3,0.2-28.6-0.7-42.8,0.4c-5.6-0.8-11.4,0.6-16.9-1.9c-2.8-1.2-5.1-0.1-4.4,3.8c0.4,2.6,0.5,5.2,0.7,7.9
	c0.9,12.7,1.7,25.5,3.2,38.1l-2.8,0.3c-0.6-4.9-1.4-9.7-2.8-14.5c-0.1-0.1-0.1-0.1-0.2-0.2c0.6-6.3-1.4-12.4-1.3-18.7
	c0.1-1.3,0.2-3.3-1.6-4.3c0,0.2,0,0.4,0,0.6c0-0.2-0.1-0.4-0.1-0.5c-0.1-0.7-0.1-1.4-0.1-2.1c0-0.3,0-0.6,0-1
	c0.1-3.3,0.8-6.7-0.6-10c0.3-1.8-0.6-3.9,3-3.7c23.3,0.4,46.5,0.3,69.7,0.8c17.2,0.4,13.5-2.1,16.2,15.9c3.1,21,4.7,42.2,6.8,63.4
	c-0.3,1-0.5,2-0.7,3C295.2,336.2,295.1,337.4,296.1,337.9z"/>
<path class="st0" d="M295.7,276.9c-0.1,0-0.1,0-0.1,0c-0.1-0.1-0.2-0.1-0.4-0.2c-1.8-2.1-1.7-4.6-1.7-7.1c0-6-0.3-12,0.2-18
	c0.3-3.6-0.7-5.1-4.5-5.2c-12.6-0.2-25.3-1.3-37.9-1c-2,0.1-4.2,0.6-5.7-0.9c2.7-0.2,5.4,0,8.1-0.2c1-0.1,2.1,0,2.9-0.4
	c5.7,0.1,11.4,0.1,17.1,0.4c6.4,0.4,12.9,0.6,19.4,0.5c3.5,0,2.5,2.5,2.5,4.1c0,7.1-0.3,14.2-0.3,21.4
	C295,272.6,295.4,274.7,295.7,276.9z"/>
<path class="st0" d="M292.9,343.5l2.6,0.2c-0.4,5-2,5-9.8,5.4c-22.4,0.9-44.9,0.2-67.3,0.4c-6.2,0.1-7.4-1.4-7.9-7.6
	c-0.3-2.6,0.7-5.5-2.1-7.3c-0.1,0-0.2,0-0.3,0c0.7-1,1.1-2.3,0.8-3.6c0,0,0.1-0.1,0.1-0.1c-0.8-8.1-1.1-16.3-2.1-24.4l2.8-0.3
	c0.6,4.8,1.3,9.6,2.2,14.4c1.3,7,2.7,14.1,2.7,21.2c0,4,0.9,3.6,4,3.9c10.2,0.8,20.3-0.2,30.4,0.2c9.7,0.4,19.5-0.4,29.2-1.7
	c4.3,0.1,8.6,0.1,12.8,0.3C292.4,344.5,292.8,344.2,292.9,343.5z"/>
<path class="st0" d="M275.8,99.3c2.9,1.4,3.9,3.9,3.9,7.2c-0.5,15.7-1.8,31.4-1.5,47.1c0,1,0.3,2.1-0.9,2.5
	c-1.1,0.4-1.8-0.3-2.6-1.1c-2.3-2.4-4.7-4.8-7-7.2c0.1,0,0.1,0,0.2,0c2.1,0.5,3.4,2,4.7,3.5c0.9,1,1.7,2.4,3.1,2
	c1.4-0.4,1.4-1.7,1.4-2.8c0.3-0.8,0.2-1.8,0-2.7c-0.2-1-0.3-1.9-0.4-2.9c-0.2-7.8,1.2-15.6,1-23.4c-0.1-4.5-0.2-9,0.5-13.4
	c0.5-2.8-0.6-5.2-2.1-7.4c0-0.2,0-0.4,0-0.6C275.9,99.8,275.9,99.5,275.8,99.3z"/>
<path class="st0" d="M276,100.7c1.5,2.2,2.5,4.5,2.1,7.4c-0.7,4.4-0.6,8.9-0.5,13.4c0.2,7.8-1.2,15.6-1,23.4
	c-0.6-5.5-0.2-11-0.3-16.5C276.1,119.2,276.6,109.9,276,100.7z"/>
<path class="st0" d="M277,147.8c0.2,0.9,0.2,1.9,0,2.7c0-0.2,0-0.4-0.1-0.6c-0.2-1.7-0.3-3.3-0.3-5
	C276.7,145.9,276.8,146.8,277,147.8z"/>
<path class="st0" d="M277,150.5c0.1,1.1,0,2.4-1.4,2.8c-1.4,0.4-2.2-1-3.1-2c-1.3-1.5-2.6-3-4.7-3.5c-0.1,0-0.2,0-0.2,0
	c-0.2-0.2-0.4-0.4-0.6-0.6c-0.1,0-0.1,0-0.2-0.1c-3.1-2.6-4.2-7.3-8.8-8.1c0,0.1,0.1,0.1,0.1,0.2c-0.1-0.1-0.2-0.1-0.3-0.2
	c-0.1-0.6-0.3-1.2-0.4-1.8c0,0,0,0-0.1,0c0-0.1,0-0.1,0.1-0.2c-0.2-0.2-0.3-0.5-0.5-0.7c0.1-0.1,0.3-0.2,0.5-0.4
	c0-0.8-0.2-1.6,0-1.3c4.2,4.6,9.5,9.9,14.2,15.6c0.9,1.1,2,2.6,3.7,1.9C276.3,151.7,276.7,151.2,277,150.5z"/>
<path class="st0" d="M276.9,149.9c0,0.2,0,0.4,0.1,0.6c-0.2,0.7-0.7,1.3-1.6,1.6c-1.7,0.7-2.8-0.8-3.7-1.9c-4.7-5.7-10-11-14.2-15.6
	c-0.2-0.3,0,0.5,0,1.3c-0.2,0.2-0.3,0.3-0.5,0.4c-1.4-2-2.8-4-4.1-6.1c8,4.9,13.6,12.2,20.1,18.8c0.8,0.9,1.7,1.7,2.6,2.5
	c-1.9-17.3-0.1-34.8-0.7-52.4c0.4,0.5,0.8,1.1,1.1,1.6c0.5,9.2,0.1,18.5,0.3,27.7c0.1,5.6-0.3,11,0.3,16.5
	C276.6,146.6,276.7,148.2,276.9,149.9z"/>
<path class="st0" d="M276,100.1c0,0.2,0,0.4,0,0.6c-0.4-0.5-0.7-1.1-1.1-1.6c0,0,0,0,0,0c0,0,0,0,0-0.1c0,0,0.1,0.1,0.1,0.1
	c0-0.1-0.1-0.1-0.1-0.2c0.3,0.1,0.6,0.2,0.8,0.4C275.9,99.5,275.9,99.8,276,100.1z"/>
<path class="st0" d="M274.9,98.9L274.9,98.9c0,0,0,0.1,0,0.1c0,0-0.1,0-0.1-0.1c-2-3.3-5.7-5-7.9-8.2c2,2.1,4.5,3.8,6.6,5.8
	C274.1,97.3,274.5,98.1,274.9,98.9z"/>
<path class="st0" d="M267,88.9c1.6,2.9,4.5,4.9,6.5,7.7c-2.1-2-4.6-3.7-6.6-5.8c-0.3-0.4-0.6-0.8-0.8-1.3
	C266.4,89.4,266.7,89.2,267,88.9z"/>
<path class="st0" d="M266.9,90.8c2.2,3.1,5.8,4.9,7.9,8.2c-4-2.8-7.5-6.1-10.7-9.8c0.1,0,0.2,0,0.3,0c0.5,0.2,1,0.4,1.5,0.4
	C266.2,90,266.5,90.4,266.9,90.8z"/>
<path class="st0" d="M267.5,151c-0.6-0.6-1.1-1.4-1-2.4c0.1,0.1,0.1,0.1,0.2,0.1c0,0.1,0.1,0.1,0.2,0.2c1.4,1.8,2.7,3.5,4.1,5.3
	c-0.3,0.2-0.5,0.5-0.8,0.7c-3.2-3.3-6.2-6.5-9.4-9.8c0,0,0.1-0.1,0.1-0.1c-0.1-0.1-0.1-0.2-0.2-0.2
	C264.1,145.6,265.4,148.9,267.5,151z M267.8,151.3c0,0,0-0.1-0.1-0.1c0,0-0.1-0.1-0.1-0.1C267.7,151.2,267.7,151.3,267.8,151.3z
	 M267.8,151.3c0.4,0.5,0.6-0.5,0.1,0C267.9,151.3,267.8,151.3,267.8,151.3z"/>
<path class="st0" d="M267,147.2c0.2,0.2,0.4,0.4,0.6,0.6c-0.2,0-0.4,0.1-0.5,0.2c0-0.2,0-0.4,0-0.6c-0.1-0.1-0.2-0.2-0.3-0.3
	C266.9,147.2,266.9,147.2,267,147.2z"/>
<path class="st0" d="M267,88.9L267,88.9c-0.3,0.3-0.6,0.5-0.9,0.6c0,0,0-0.1,0-0.1c0-0.1-0.1-0.3-0.1-0.4
	C266.3,89,266.6,88.9,267,88.9z"/>
<path class="st0" d="M266.5,148.6c-0.2,1,0.3,1.7,1,2.4c-2.1-2.1-3.4-5.4-6.8-6.1c0,0,0,0,0,0c-2-2.1-3.5-4.5-6.1-6
	c-0.1,0-0.1,0-0.2,0c-0.1-0.1-0.1-0.2-0.2-0.3c0.9-2.3-1.4-3.3-2.3-4.6c1.6,0.4,2.2,3.7,4.4,2.7c0.3,0.2,0.7,0.4,1.1,0.5
	c-0.3,0.9,0,1.7,0.7,2.3c0.2,0.1,0.5,0.3,0.7,0.4C261.3,142.8,263.5,146.1,266.5,148.6z"/>
<path class="st0" d="M266.1,89.5c0.2,0.5,0.5,0.9,0.8,1.3c-0.4-0.4-0.8-0.8-1.1-1.3C266,89.5,266,89.5,266.1,89.5z"/>
<path class="st0" d="M266.1,89.4C266.1,89.4,266.1,89.5,266.1,89.4c-0.1,0.1-0.1,0.1-0.3,0.1c-0.1-0.2-0.3-0.3-0.4-0.5
	c0.2,0,0.3,0,0.5-0.1C266,89.1,266.1,89.3,266.1,89.4z"/>
<path class="st0" d="M265.9,89.5c-0.5,0-1-0.1-1.5-0.4c0.4-0.1,0.8-0.1,1.1-0.1C265.6,89.2,265.7,89.4,265.9,89.5z"/>
<path class="st0" d="M263.7,85.6c0.4,0.5,1.8,1.3,0.9,2.3c-0.1-0.1-0.3-0.3-0.4-0.4c-0.3-0.2-0.7-0.5-1-0.7c-1.8-2.7-4.1-5-6.1-7.6
	c-0.7-0.9-1.5-1.6-2-2.5c0.1-0.2,0.2-0.4,0.4-0.6c0-0.1,0.1-0.1,0.1-0.2C258.3,79.1,261,82.3,263.7,85.6z"/>
<path class="st0" d="M264.2,87.5c0.1,0.1,0.2,0.2,0.4,0.4c-0.1,0.1-0.3,0.3-0.5,0.4c0-0.1,0-0.1,0-0.2c-0.2-0.4-0.5-0.9-0.8-1.3
	C263.5,87,263.9,87.3,264.2,87.5z"/>
<path class="st0" d="M264,88.1c0,0.1,0,0.1,0,0.2c0,0,0,0,0,0c-1.3-0.8-2.6-1.7-3.9-2.5c0,0-0.1,0-0.1-0.1c0,0,0,0,0-0.1
	c1.3-0.1,2.3,0.5,3.2,1.1C263.5,87.2,263.8,87.7,264,88.1z"/>
<path class="st0" d="M257.1,79.2c2,2.6,4.4,4.9,6.1,7.6c-0.9-0.7-1.9-1.2-3.2-1.1c-0.2-1.7-1.4-2.6-2.7-3.4c0-0.1,0-0.1,0-0.2
	c-0.9-1.7-3.5-3-2.2-5.4C255.6,77.6,256.4,78.3,257.1,79.2z"/>
<path class="st0" d="M258.1,139.2c0.2,0.2,0.4,0.5,0.6,0.7c-0.2-0.1-0.4-0.3-0.7-0.4c-0.7-0.7-1-1.4-0.7-2.3c0,0,0,0,0.1,0
	c0.1,0.6,0.3,1.2,0.4,1.8C258,139.1,258.1,139.1,258.1,139.2z"/>
<path class="st0" d="M257,136.3c0.2,0.2,0.3,0.5,0.5,0.7c0,0.1,0,0.1-0.1,0.2c-0.4-0.1-0.8-0.3-1.1-0.5
	C256.5,136.6,256.8,136.5,257,136.3z"/>
<path class="st0" d="M257.3,82.1c0,0.1,0,0.1,0,0.2c-0.1-0.1-0.3-0.1-0.4-0.2c0,0,0,0,0,0.1c-4.2-1.4-4.9-3.7-2-7
	c-0.1,0.6,0,1.1,0.2,1.5C253.8,79.1,256.4,80.4,257.3,82.1z"/>
<path class="st0" d="M256.3,136.7c-2.2,1-2.9-2.3-4.4-2.7c0.9,1.3,3.2,2.4,2.3,4.6c-1.6-2.6-4.6-4.4-5.5-7.9
	C252.4,131.5,253.6,135.2,256.3,136.7z"/>
<path class="st0" d="M254.9,75.1c0.2,0.3,0.5,0.6,0.7,0.8c0,0.1-0.1,0.1-0.1,0.2c-0.1,0.2-0.3,0.4-0.4,0.6
	C254.9,76.2,254.8,75.7,254.9,75.1C254.9,75.1,254.9,75.1,254.9,75.1z"/>
<path class="st0" d="M252.2,74.9c0,0.1,0,0.1,0,0.2c-0.9,8.2-1.6,16.4-1.3,24.7c0,0.1,0,0.2,0,0.3c0-0.1-0.1-0.3-0.1-0.4
	c-0.2,0.8-0.3,1.7-0.4,2.5c-0.6-0.7-0.7-1.8-0.9-2.8c0-5.3-0.4-10.7,0.2-16c0.4-1.7,0.7-3.3,0.8-5.1C250.7,77,250.8,75.7,252.2,74.9
	C252.1,74.9,252.1,74.9,252.2,74.9z"/>
<path class="st0" d="M252.2,74.8c0,0,0,0.1,0,0.1c0,0-0.1,0-0.1,0c-1.3,0.8-1.4,2.1-1.6,3.4c0.1-1.3-0.1-2.5-0.5-3.8c0,0,0,0,0,0
	c0.1,0,0.1,0,0.2,0C251,74.2,251.6,74.4,252.2,74.8z"/>
<path class="st0" d="M250.1,74.1c1.1-0.7,1.9-0.6,2.1,0.7c-0.6-0.3-1.2-0.6-2-0.3c-0.1,0-0.1,0-0.2,0
	C250.1,74.4,250.1,74.2,250.1,74.1z"/>
<path class="st0" d="M250,74.5c0.4,1.3,0.5,2.6,0.5,3.8c0,0.2-0.1,0.3-0.1,0.5c-0.3,1.5-0.6,3.1-0.7,4.6c-0.3,1.3-0.6,2.6-0.7,3.9
	c-1,10.1-0.4,20.1-1.3,30.2c-0.1,1.5,0.3,3-1.4,3.9c-0.1,0-0.1,0-0.2,0c0-0.1-0.1-0.2-0.1-0.4c0.5-10.1,1.2-20.2,1.6-30.3
	C247.8,85.3,248.9,79.9,250,74.5z"/>
<path class="st0" d="M250.4,78.8c0-0.2,0.1-0.3,0.1-0.5c-0.1,1.7-0.4,3.4-0.8,5.1C249.8,81.9,250.1,80.3,250.4,78.8z"/>
<path class="st0" d="M249.5,99.4c0.2,1,0.3,2,0.9,2.8c-0.8,5.1-1.1,10.3-1.2,15.5c-2.6,2.2-0.4,6.1-3.2,8.5c0-0.1,0-0.2,0-0.3
	c0.9-2.2,0.9-2.5,0.1-4.6c0.1,0,0.1,0,0.2,0c1.7-0.9,1.3-2.4,1.4-3.9c0.9-10.1,0.3-20.1,1.3-30.2c0.1-1.3,0.4-2.6,0.7-3.9
	C249.1,88.7,249.5,94.1,249.5,99.4z"/>
<path class="st0" d="M249.2,117.7c0,0.1,0,0.3,0,0.4c-1.2,3,1.2,7.1-3.2,10.2c0-0.7,0-1.4,0-2.1
	C248.8,123.8,246.6,119.8,249.2,117.7z"/>
<path class="st0" d="M246.1,121.4c0.8,2.1,0.8,2.3-0.1,4.6c0-1.7,0-3.2,0-4.6C246,121.4,246.1,121.4,246.1,121.4z"/>
<path class="st0" d="M238.8,150.5c0,1.5,1.8,4.1-1.3,4.3c-2.6,0.2-1.8-2.6-2.4-4.2c0-0.3,0-0.6-0.1-0.9c0.8-2.4,0.2-4.9,0.1-7.2
	c0-0.3-0.1-0.6-0.1-0.9c0,0,0,0,0,0c0-0.1,0-0.2,0-0.3c-0.2-8.9,0.2-17.8-1-26.7c0-0.6-0.1-1.2-0.1-1.7c0.3-7.9,1.3-15.8,0.1-23.8
	c3.6-1,4.5-0.4,4.5,3.8c0.1,6.8-0.2,13.6-0.1,20.3C238.4,125.6,238.7,138.1,238.8,150.5z"/>
<path class="st0" d="M224.8,141.1c0.1,0.8,0.2,1.6,0.4,2.4c-10.9,4.1-21.7,8.3-33.1,10.9c-0.2-0.5-0.3-0.9-0.5-1.4
	C202.7,149,213.7,145.1,224.8,141.1z"/>
<path class="st0" d="M221,76.2c3.6,20.7,2.5,41.6,4.4,62.8c-2.5-2.2-2.5-2.2-2.5-5.5c0-2.2,0-4.3-0.1-6.5c0.7-8.7-1.4-17.3-1-26
	c0-0.9,0-1.9-0.7-2.5c-0.6-3.2,0.2-6.6-2.1-9.5c2.5-2,1.2-4.7,1.4-7.1C220.6,80,220.4,78.1,221,76.2z"/>
<path class="st0" d="M221.1,127c0,0.2-0.1,0.3-0.1,0.5c0,5,0.1,8.2-0.6,10.4l-1.9-0.3c1.1-4.2-0.4-8.4-0.5-12.6
	c-0.4-14.5-1.1-29.1-1.6-43.6c-0.1-1.6-0.1-3.4-2.4-2.6c-8.6,3-17.4,5.4-25.8,9.1h0c-0.1,0-0.1,0-0.2,0c-1.9,4.1-1.1,8.4-0.7,12.6
	c0.3,2.6,0.1,4.8-2.2,6.5c0-1.7,0-3.3,0.1-5c1.8-5.4,0.6-10.9,0.7-16.3c9.7-4.5,20.3-6.7,30.2-10.5c2.3-0.9,2.4,0.9,2.4,2.4
	c0.2,3.8,0.3,7.6,0.5,11.4c-0.3,3.1,0.3,6,1,9C220.4,107.7,220.7,117.4,221.1,127z"/>
<path class="st0" d="M219,89c2.3,2.9,1.6,6.3,2.1,9.5c-0.3-0.3-0.6-0.4-1.1-0.5C219.3,95,218.7,92.1,219,89z"/>
<path class="st0" d="M208.9,331c0.3,1.4-0.1,2.6-0.8,3.6c-0.1,0-0.2,0-0.3,0c-0.4-0.9-0.4-1.8-0.3-2.8
	C207.8,331.9,208.2,331.7,208.9,331z"/>
<path class="st0" d="M207.9,334.8C207.9,334.8,207.9,334.9,207.9,334.8c-2,4.4,0.2,8.6,0,12.8c-1.3-4.2-0.9-8.4-0.8-12.7
	c0.2-0.1,0.4-0.2,0.7-0.3C207.9,334.7,207.9,334.8,207.9,334.8z"/>
<path class="st0" d="M207.5,331.9c-0.1,1-0.1,1.9,0.3,2.8c-0.3,0-0.5,0.1-0.7,0.3c0-1.4,0-2.7-0.1-4.1c-1.1-12.2-3.4-24.4-3.9-36.7
	c2.3,9.8,3.1,19.8,3.9,29.8c0,0.1,0,0.2,0,0.3c0.1,1.9,0.2,3.7,0.2,5.6C207.2,330.6,207,331.8,207.5,331.9z"/>
<path class="st0" d="M207,330.8c0.1,1.4,0.1,2.7,0.1,4.1c-0.9,0.5-0.9,1.5-1,2.6c-0.5-7.1-1.4-14.1-2.3-21.2c0,0,0-0.1,0-0.1
	c-0.2-1.4-0.3-2.9-0.5-4.3c0-0.4-0.1-0.7-0.1-1c-0.6-5.1-1.1-10.2-1.2-15.3c0-1.2,0.1-2.3,0.2-3.4c0,0,0,0,0,0c0.1,0,0.3,0,0.5-0.1
	c0.2,0.7,0.4,1.4,0.5,2.1C203.6,306.4,205.9,318.6,207,330.8z"/>
<path class="st0" d="M196.9,149.1C197,149.1,197,149.1,196.9,149.1c-3.1,1.3-6.2,2.7-10.3,4.4c-0.4-16-0.9-31.2-1.5-46.5
	c4-0.7,3.6-3.8,3.7-6.5c-0.1-3.8-1-7.6,0.7-11.3c0.1,0,0.1-0.1,0.2-0.1c0.8,0.8,1.3,1.8,1.2,3.3c-0.2,4.5,0.1,9.1,0.2,13.6
	c0,12.8-0.1,25.6-0.1,38.3c0,2.3,0,5.2,3.8,3.9C195,149.5,195.9,149.6,196.9,149.1z"/>
<path class="st0" d="M189.7,89.1c-0.1,0-0.1,0.1-0.2,0.1c-1.7,3.7-0.8,7.5-0.7,11.3c-0.1,2.7,0.3,5.8-3.7,6.5
	c2.3-1.7,2.5-3.9,2.2-6.5c-0.4-4.2-1.2-8.5,0.7-12.6c0.1,0,0.1,0,0.2,0c-0.1,0-0.1,0.1-0.2,0.1C188.7,88.3,189.3,88.6,189.7,89.1z"
	/>
<path class="st0" d="M185.9,85.7c-0.1,5.4,1.1,10.9-0.7,16.3C186.1,96.6,184.9,91.1,185.9,85.7z"/>
<path class="st0" d="M185.9,85.7c-1,5.4,0.2,10.9-0.7,16.3C185.5,96.6,184.3,91.1,185.9,85.7z"/>
</svg>
