<?xml version="1.0" encoding="utf-8"?>
<!-- Generator: Adobe Illustrator 20.1.0, SVG Export Plug-In . SVG Version: 6.00 Build 0)  -->
<svg version="1.1" xmlns="http://www.w3.org/2000/svg" xmlns:xlink="http://www.w3.org/1999/xlink" x="0px" y="0px"
	 viewBox="0 0 1366 734.1" style="enable-background:new 0 0 1366 734.1;" xml:space="preserve">
<style type="text/css">
	.st0{fill:#F25551;}
	.st1{fill:none;}
	.st2{fill:#F96861;}
	.st3{fill:#F85D57;}
	.st4{fill:#808079;}
	.st5{fill:#C8C7B7;}
	.st6{fill:#C3403D;}
	.st7{fill:#D84544;}
	.st8{fill:#696761;}
	.st9{fill:#5A5E58;}
	.st10{fill:#7C7969;}
	.st11{fill:#F45853;}
	.st12{fill:#E44D4A;}
	.st13{fill:#64655F;}
	.st14{fill:#F25853;}
	.st15{fill:#5A5A57;}
	.st16{fill:#E6E6E6;}
	.st17{fill:#494D4B;}
	.st18{fill:#454342;}
	.st19{fill:#595755;}
	.st20{fill:#323432;}
</style>
<g id="Layer_8">
	<path class="st0" d="M1366.9,642.9c0.1,0.1,0.3,0.1,0.4,0.2C1367,674,1367,705,1367,736c-2-1.8-4.4-1.3-6.5-1.7
		c-18.8,0-37.7,0.3-56.5-0.3c-5.1-0.2-10.7,0.6-15.2-3.4c-2.8-2.5-4.4-6.3-8.4-7.6c-1.3-0.5-0.3-1.7-0.4-2.6c0-0.3,0-0.6,0-0.9
		c0-3.1,0.9-6.8-2.5-8.5c-6.1-3.1-10.4-8.2-15.3-12.5c-8.5-7.6-14.6-17.3-19.1-27.7c-1.1-2.5-2-5.1-2.6-7.7
		c-0.5-2.3-0.7-4.7-0.5-7.1c0.5-4-0.8-9.1-3.8-11.7l0.1-0.2c1.5,1.2,3.3,2.2,5.4,2.7c0.1,0.1,0.2,0.1,0.3,0.2c1.9,1.6,3.1,4,5.9,4.2
		c0,0,0,0,0,0c0.1,0.5,0.2,1.3,0.4,1.3c7.3,1.2,14.7,3.2,21.3-2.4c2.5-2.1,5.4-3.9,8.1-5.8c0.9,1.8,1.3,3.2,1.3,5
		c-0.1,5.2,5.2,8.2,9.9,5.8c0-9.8-0.4-19.5,0.1-29.1c0.2-4.6-1-9.4,1.1-13.9c0-0.1,0-0.1-0.1-0.2c0.1,0,0.1,0.1,0.2,0.1
		c0.6,6.1,4.1,11.9,2.4,18.4c-0.1,0.3,0.3,1,0.6,1.2c6.3,4.4,6,12.8,12.1,18.1c7.5,6.5,14.5,11.8,24.7,11.6c4.7-0.1,4.7,0,5.6-3.2
		c0.2-0.5,1-0.8,1.5-1.2c1.2,0.2,2.1,0.5,2,2c-0.2,4.5,0.3,9-0.4,13.4c-0.7,4.3-0.7,8.5,0.3,12.7c0,0,0,0,0.1,0
		c-0.9,5.8,0.8,9.9,4.8,12.4c1,0.6,1.5-0.3,2.2-0.4c4.9-1,3.6-4.6,3.7-8c0.3-11.3,0.9-22.6,1.4-34c2.3-1.4,3.7-3.7,4.6-6
		c2-5.4,4.9-8.7,11.2-5.9C1366.9,643,1366.9,643,1366.9,642.9z"/>
	<path class="st0" d="M1367,736c0,10.2-0.1,20.3,0.1,30.5c0,2.2-0.4,2.9-2.6,2.5c-0.6-0.1-1.3,0-2,0c-452.3,0-904.7,0-1357,0.1
		c-3.7,0-4.6-0.8-4.6-4.6c0-9.7,0-19.3,0-29h2c0.4,0.3,0.9,0.5,1.3,0.8c3.5-5.8,7.1-11.5,10.6-17.3c0.1,0,0.1,0,0.1,0
		c0.3-0.4,0.6-0.8,0.9-1.2c3.4-5,6.8-9.6,13.9-5.3c1.2,0.8,2.5-0.5,3-1.8c0.6-1.7,1.8-2.9,3.1-3.8c2.5-1.7,2.9-3.6,1-5.9
		c0.1,0,0.2,0,0.3,0c-0.7-13.3-1.3-26.5-1-39.8c0.3-15,0-29.9,0-44.9c-0.1-0.4-0.1-0.8-0.2-1.3c0-2.7,0-5.5,0-8.2
		c0-0.3,0.1-0.7,0.2-1c0-1.1-0.1-2.3-0.1-3.5c0-0.1,0-0.1,0-0.2c0.4-1.4-0.4-2.9,0.8-4.3c0.8,9.8-0.1,19.3,0.7,28.8
		c0.4,4.5,2.2,4.6,5.4,4.4c0,0,0-0.1,0-0.1c0.1,0.1,0.2,0.3,0.3,0.4c0,4.6,0.2,9.2,0.2,13.8c0,2.8,0.7,4.6,4.1,5.2
		c5.3,0.9,10.6-0.5,15.8,1.1c0,0,0.1,0,0.1,0l0,0c2.7,1.3,5.3,0.7,7.9-0.6c0.1,0,0.2,0,0.3,0c4-6,8.5-11.8,6.9-19.7c0,0,0-0.1,0-0.1
		c2.4,0.1,0.4,3.5,2.7,3.8c0,0,0.1-0.1,0.1-0.1c0,0.1,0,0.1,0,0.2c2.7,0.5,2.9,5.2,6.4,4.1c3.4-1,6.2,0.1,8.8,1.8
		c2.4,1.6,4.3,1.1,6.5-0.1c0.4,0,0.8,0.1,1.1,0.1c0-0.2,0-0.4,0-0.6c0,0.1,0.1,0.2,0.1,0.4c4.6,0.1,9.4,0.4,7.1-6.5
		c2.2-0.3,1.7,1.8,1.5,2.6c-0.6,3.3,1.6,2.3,3.2,2.4c1,2.2,2.6,1,4,0.7c0,0,0.1,0,0.1,0.1c2.8-1.2,2.4-4.2,3.4-6.3
		c4.6-9.2,9.4-18.4,12.8-28c1.8-5,4.2-6.4,9-6.6c20.6-0.9,41.1-2.1,61.7-3.2c8.9-0.2,17.9,1.1,26.9,0.1c0,0,0,0.1,0.1,0.1
		c7.4-0.5,15.1,1.3,22.4-0.8c8.9-2.6,18-1.8,27-2.4c6.3-0.4,12.6-0.7,18.9-1.2c10.4-0.9,20.7-2.7,31.2-2.8c2.2,0,4.4,2.2,6.5-0.1
		c0,0,0,0,0,0.1c3.6,0.2,7.4,1.3,10.6,0.8c7.8-1.2,15.5-1.6,23.4-1.6c0.4,4.3,1.1,8.6,1.3,13c0.1,2,0.5,3.2,2.7,2.9
		c-0.9,1.3-1.4,2.8-1.1,4.6c4-1.6,2.9-4.5,2.3-7.4c-0.3-1.3-0.8-3.7,1.7-1.1c-0.1-0.5-0.1-1-0.2-1.5c0.2,0.5,0.4,1.1,0.6,1.6
		c0.3,3.3,0.7,6.6,0.9,9.9c0.1,1.1-1.7,2.8,0.5,3.1c2.3,0.3,1.8-2,1.8-3.3c-0.2-5.3-0.6-10.6-0.9-15.9c-0.1-1.1-0.4-2.4,0.3-3
		c0.3-0.2,0.7-0.3,1.4-0.2c4,0.6,7.7-1,12.6-1.6c0.2,0.2,0.4,0.5,0.5,0.7c-2.1,3.3,0.8,6.4-1.2,9.2c-0.9,1.2-0.4,2.5,0.7,2.9
		c2.1,0.7,1.7-1.4,2-2.5c0.7-2.5-0.8-5.4,0.8-8.2c2.4,2.1,2.2,4.8,2.5,7.1c0.4,2.7,0.5,5.5,0.5,8.2c0.1,1.4,0.5,2.5,1.9,2.3
		c1.3-0.2,0.9-1.4,0.7-2.4c-1-4.6-0.1-9.3-1.6-13.8c-0.5-1.4-0.2-1.9,1.3-2.9c2.9-1.9,4.2,0,6.2,1.4c3.7,2.7,5.9,8,11.8,6.9
		c0-0.1,0-0.1,0.1-0.2c4.3,0.1,8.5,0.3,12.6,0.5c0.9,0,2.2,0,2.3-1.3c0.1-1.1-1.2-1.8-2-1.7c-2.5,0.4-3.6-2.1-5.7-2.5
		c-0.5-0.1-0.8-0.3-1-0.6c-0.5-0.6-0.5-1.5-0.5-2.2c0-1.8,1.6-0.9,2.5-1.1c1.9-0.5,4,0.4,5.8-0.8c-0.1,0-0.1-0.1-0.2-0.1h0
		c4.2-0.1,8.4,0.2,12.5-0.4c4.9-0.7,10.8,2.5,14.5-3.5c0.2-0.4,1.2-0.3,1.9-0.3c16.1-1,32.1-2.1,48.2-2.8c2.9-0.1,7.1-2.2,8.9,2.6
		c0.1,0.2,1.2,0.2,1.8,0.1c9.7-1.7,19.5-0.2,29.3-0.8c2.5-0.2,2.6,1.2,2.8,2.9c0.2,0.2,0.2,0.4,0.3,0.6c-0.1,2.4-0.4,5.2,2.4,6.1
		c2.1,0.7,3.3-1.5,3.4-3.7c-0.1,0-0.2,0-0.3,0c0.1-0.5,0.2-1,0.2-1.5c0-2.2,0.3-4,3.2-4.4c3.4-0.4,3.2,1.7,3.5,3.9
		c0.4,3.1,1,6.2,1.5,9.3c1-1.5,1.2-3,1.1-4.6c0.2,0.2,0.7-0.3,0.2-0.1c-0.1,0-0.2-0.1-0.2-0.4c0-0.8-0.1-1.7-0.3-2.5v0
		c0-0.5,0-1,0-1.5c0-0.4-0.1-0.8-0.3-1.2c0,0,0,0,0,0c0-0.2,0-0.4,0.1-0.6c0.1-0.8,0.4-1.4,0.7-1.9c0.2-0.1,0.4-0.1,0.6-0.2
		c2.4-0.5,1.9,1.7,2.4,2.9c0.6,1.2,0.9,2.7,2.5,2.7c1.4-0.1,2.1-1.4,3-2.4c0.4-0.5,0.5-1.5,0.7-2.2c0.3-0.3,0.5-0.6,0.8-1
		c0.3-0.2,0.7-0.2,1.3-0.1c0.2,0,0.3,0,0.5,0.1c0,0,0,0-0.1,0c3.8,3.2,0.8,8.4,3.6,11.8c0.7-0.6,0.8-2.1,2.2-1.9c0,0,0,0.1,0,0.1
		c0.4,1.2,1.1,2.5,2.4,1.6c1.7-1.4,1.1-3.2-0.1-4.8c0,0.1-0.1,0.2-0.1,0.3c0-0.2-0.1-0.3-0.2-0.5c0.2-5.4-2.9-10.3-2.2-15.7
		c0.1-0.5,0-1.3,0.1-1.8c0.1-0.3,0.3-0.6,0.5-0.8c0.2-0.1,0.6-0.1,1.1,0c4.2,0.9,8.1-0.9,12.2-0.3c0.1,0,0.3,0.1,0.4,0.1
		c-0.1,0-0.1,0-0.2,0.1c2.4,4.1,5.7,3.2,9.1,1.7c0,0,0-0.1-0.1-0.1c0.1,0,0.1,0.1,0.2,0.1c6-0.9,12.1-1.1,17.9-3.2
		c2.6-0.9,5.2-1.8,8-0.8c0,0.1,0,0.2,0,0.2c2.7,0.5,5.2-1,7.8-1.3c8.2-1,16.3-1.6,24.3,0.4c9.7,2.4,13.2,13.7,6.2,20.1
		c-3.2,2.9-7.1,5.4-11.4,6.8c-1.6,0.5-4,0.9-3.5,2.7c0.7,2.8-1.6,6.7,2.3,8.4c7.9,3.5,16.4,2.9,23.6-0.5c6-2.8,11.9-5.2,18.2-5.5
		c10.6-0.6,19.8-4.2,27-11.6c4.6-4.7,10.4-6.8,15.9-8.3c9.5-2.6,20.2,3.2,25.5,11.9c0.4,0.7,1.1,1.5,1.1,2.2
		c0.3,6.9,0.7,14-1.2,20.7c-1,3.6-3.5,6.9,0.8,10c0.1,0.1,0.3,0.4,0.3,0.7c0.1,0.5,0.1,1.2-0.1,1.6c-3.9,8.1,1.5,14.2,5,20.2
		c3,5.2,4.6,9.9,1.9,15.6c-0.6,1.4-1.7,3.9-0.2,4.4c3.5,1.1,1.3,2.5,0.9,4c-0.4,1.1-1.9,2.2-0.3,3.5c1.8,2.8,6.3,4.4,5.8,7.6
		c-0.1,5,1.4,10-0.3,15.2c-1.7,5.2-1.7,11-1,16.5c0.4,2.9,5.2,5,1.5,8.7c-0.1,0.2,0.5,1.2,0.8,1.7c1.9,2.8,2.6,7.1,7.8,5.6
		c0.3-0.1,0.7,0,0.9,0.2c0.6,0.4,1.1,1.4,1.5,2.1c0.6,1,1.4,1.9,2.6,2.2c7.4,1.7,15,1.2,22.5,1.3c1.6,0,3-0.4,3.7-2
		c0.1-0.2,0.2-0.5,0.2-0.7c0,0,0,0,0,0c0,0.2,0,0.3,0,0.5c2,2.2,3.6,2.4,4-1.1c0.1-1.5,0-3,0-4.4c0-0.1,0-0.2,0.1-0.3
		c0-0.4,0-0.7,0-1c0-0.2,0-0.5,0.1-0.7c0,0,0,0,0,0c2.7-3.7,3.9-8.1,4.2-12.4c0.5-4.8,1.8-8.8,4.1-13c2.6-4.8,6-7.3,11.4-7.2
		c0.6,0,1.3-0.5,1.8-0.9c5-4.8,10.9-2.1,16.4-1.9c2.4,0.1,4.7,2.4,6.9,4.2c5.6,4.5,7,11,9.7,16.9c0.8,1.8,1.6,3.2,3.9,3
		c0-0.2-0.1-0.4-0.1-0.6c0.1,0.1,0.3,0.3,0.4,0.4c1.8,2.9,4.9,4.5,7.5,6.4c2.1,1.5,5.4,2.7,7.7,2.1c8.1-2.1,15.6-12.5,13.7-21.4
		c-0.9-3.9-1.6-7.8-2.2-11.7c-1.8-10.8,0.4-21.1,7-29.5c8.8-11.3,21.9-11.2,27.7,2.1c1.9,4.5,4.5,7.1,9,8.5c3.2,1,12.9-1.7,14.8-4.3
		c0.7-0.9,0.8-1.7,0.6-2.8c-0.9-4.3-2-8.7-2.4-13.1c-0.4-4.1-0.7-8.4,0-12.4c1.2-7.7,11.6-13,20.7-11.5c2.7,0.4,7.2,2.4,5.6-3.9
		c0-0.2,0-0.4,0.1-0.6c0.2-0.5,0.8-1.1,1.2-1.4c2.9-2.4,2.3-4.8,0.2-7.3c-1.3-1.6-4-4-3.6-5c2.1-5.1-0.6-11,2.9-15.8
		c1.4-1.9,4.2-2.3,4.8-4.8c-2.4-2.2-5.6-0.1-8.2-1.5c3.9-1.5,8.1-2.8,9.9-7.2c0,0,0-0.1,0.1-0.1c0,0.1,0.1,0.2,0.1,0.3
		c1.9-3.4,2-7.2,2.5-10.9c1.3-9.3,0.8-10-8.7-12.1c-1.7-0.8-3.2-0.4-5.3,0.3c-0.2-0.1-0.4-0.2-0.6-0.3c0,0,0,0,0,0
		c0.6-1.9-1.8-3.8,1-5.1c2.9,0.1,5.8,0.1,8.7,0.2c1.4,0,2.4-0.4,2.3-1.9c-0.5-6.4,0-12.8-1.7-19.1c0-0.1-0.1-0.2-0.1-0.3
		c0.1-4.7-3.3-11.1,5.6-11.4c0.1,0,0.1-0.3,0.2-0.4c6-0.7,12-0.3,17.8-2.5c2.8-0.9,6.7,1.4,9.4-1.7c0-0.4,0-0.6-0.1-0.9
		c0,0,0.1,0,0.1,0c0.1,0.2,0.2,0.5,0.1,1.1l0.3-0.1c0,0,0,0,0,0.1c1.3,3.2,3.2,6,6.1,8.1c7,9.6,15.2,18.2,23.2,26.9c0,0,0,0,0,0
		c0,0,0,0.1,0.1,0.1c0.3,0.5,0.7,1.1,1.1,1.7c0.1-0.1,0.2-0.1,0.2-0.2c0,0-0.1,0.1-0.1,0.2c-1,1.7-2.7-1.8-3.7,0.5
		c-0.7,1.8,0.6,2.7,1.4,3.9c3.5,5.1,6.9,10.5,8.9,16.4c3.5,10.3,10.4,16.2,20.8,18.1c3.1,0.6,6.5,0.9,9.2-1.2
		c5.4-4,10.2-1.2,15.3,0.6c9.4,3.2,14.6,11.6,22,17.3c6.1,4.8,13.2,8.1,18.6,13.8c3.7,3.9,8.8,4.9,13.4,6.4
		c7.8,2.6,14.8,7.3,23.5,7.6c5.2,0.1,10.8,0.4,16.1,2.4c4.5,1.8,8,5.3,12.9,6.2c6.8,1.3,9.6,6.5,6.9,12.8c-0.6,1.3,0.1,2.3,0.6,3.3
		c0.5,1.2,1.6,2,1.9,3.2c0.1,0.3,0.1,0.5,0,0.8c-0.8,7.7,4.8,12.9,7.7,19c0.9,1.8,1.1,4,2.6,5.7c6.7,7.6,14.5,14.2,21.5,21.5
		c0.7,0.7,1.5,1.4,2.4,1.7c1.8,0.6,5.8-0.1,4,2.9c-1.5,2.5,1.2,3.6,1.2,4.7c0,0.2-0.1,0.4-0.3,0.6c-4.1,3.9-2.1,4.8,2.1,5
		c0.5,0,1.3,0.5,1.5,1c4.1,9,12.5,9.7,20.5,9.8C1324.5,736.2,1345.7,736,1367,736z"/>
	<path class="st0" d="M1236.3,644.1l-0.1,0.2c-0.7-0.6-1.5-1.1-2.5-1.4c-4.3-1.3-8.2-3.4-12.3-5.3c-3.6-1.7-7.4-3.1-11.5-3.3
		c-8-0.5-15.6-2.5-23.3-4.8c-15.1-4.5-26.7-14.3-39.1-23.1c-2.3-1.6-5.2-2.9-6.6-5.3c-1.1-1.9-2.5-3.4-3.9-4.8l2.7-1.2
		c1.1,1,2.7,0.5,4.4-0.1c0.2,0,0.5-0.1,0.8-0.1c2.2,2.5,3.8,5.5,6.4,7.2c3.4,2.2,7.2,5.2,11.7,3.6c5.7-2,10.6,1,15.5,2.6
		c1.6,0.5,3.5-0.1,4.8,0.7c0.2,0.1,0.4,0.3,0.6,0.5c3.3,3.6,6.7,7.2,9.6,11.1c1.3,1.8,3,1.7,4.3,2.5c5,3.2,10.7,3.3,16,5
		c5.6,1.9,8.6,8.4,15.2,7.9c0,0,0,0.1,0,0.1c0.7,0.7,1.4,1.3,2.1,2c0.1,0,0.2,0.1,0.3,0.1C1232.6,640.5,1234.3,642.5,1236.3,644.1z"
		/>
	<path class="st0" d="M1229.3,630c-0.1,0-0.2,0-0.3,0c0.5,1.7,0.8,3.4,0.3,5c0,0,0,0-0.1,0c-3.8-1.3-7.1-2.8-10.3-5.5
		c-3-2.6-7.1-3.7-11.4-4.4c-5.3-0.8-10.8-2.4-14.4-6.9c-2.2-2.8-4-5.7-7.2-7.8c-0.8-0.5-1.7-1.1-2.6-1.5c-6-3.3-12.4-5.2-19.2-4.5
		c-5.1,0.5-9-1-12.6-4.1c-2-1.7-3.4-4-5.5-5.7c-0.3-0.1-0.6-0.2-0.8-0.3c0.4-0.7,1-1.2,1.1-1.9c1-3.9,2.7-3.8,5.3-1.3
		c1.5,1.4,3.6,1.6,6.9,1.2c-6.6-3.3-11.5-7.1-16.3-11c0.7-1.4,5.1-2.7,0.9-4c-2.7-0.8-3.1-2.1-3.2-4.3l-0.4-1.6
		c4.8-1.1,9.7-2.2,12.6,4.5c2.6,3.2,5.4,6.2,6.8,10.3c0.2,0.8,0.3,1.7,1.5,1.3c0.7-0.3,0.9-0.9,0.8-1.6c-0.3-1.3-0.4-3.3-1.1-3.6
		c-3.5-1.5-4.5-5.2-7.1-7.3c-0.7-5.7,2.5,1,3-0.8c1,3.1,2.9,5.5,5.9,6.8c0,2.1,0,4.2,0,6.3c0,1-0.8,2.5,1,2.6c1.2,0,2.6-0.4,2.6-2.2
		c0-0.8,0.2-1.6,0.3-2.4c0,0,0,0,0,0c0,0,0.1,0,0.1,0c1.4-1.2,0.9,0.4,1.2,0.9c-0.4,1.7,0.9,3.6,1.9,3.4c2.9-1.1,7,0.9,8.5-2.4
		c1.2-2.8,3.2-2.7,5.3-3.2c0,0,0-0.1,0-0.1c0,0,0,0,0,0c0.5,0,1,0,1.6-0.1c1.4,0.1,2.9,0.2,4.5,0.2c0.1,1.5,0.1,2.9,0.1,4.4
		c-0.1,0.2-0.2,0.4-0.2,0.7c0.3,3.3,2.7,3.4,5,2.9c3.2-0.7,3.2-3.4,3.1-5.9c-0.3-8-0.3-8,6.5-9.2c0-0.1-0.1-0.2-0.1-0.2
		c0.1,0,0.2,0.1,0.3,0.1c1.8,0.1,3.5,0.2,5.2,0.2c0,0,0,0.1,0,0.1c0.2,0.2,0.3,0.4,0.4,0.6c0,0-0.2,0.3-0.3,0.3
		c-2.3,0.3-4.6,1-6.9,0.9c-4.7-0.2-3.9,1.6-1.7,4.1c0.9-1.7,5.6-3.6,8.1-3.4c0.7,0,1.2,0.2,1.4,0.6c3,4.8,3.6,0.2,5.1-0.8
		c0,0,0,0,0,0c0.2,0,0.3-0.1,0.5-0.2c1.2,2.4-0.3,3.9-1.6,5.7c-7.5,10.5-7.9,21.4-2,29.1c2.4,3.2,5.9,5.8,10.5,7.7
		c4.2,1.7,6.5,3.8,6.9,8.2C1229.3,629.9,1229.3,630,1229.3,630z"/>
	<path class="st0" d="M1139.5,571.4l0.4,1.6c-0.9,0.4-1.3,0.7-1.7,0.8c-3.1,0.6-4.8,4.9-8.8,3.1c-1-0.4-2.3-1.6-3.1-0.2
		c-0.1,0.2-0.2,0.4-0.3,0.6c-0.1-3.8-1.4-3.8-6.6-2.8c-2.8,0.5-5.2-0.3-7.3-2.2c-0.9-1-2.3-2.5-3.3-1.7c-0.3,0.2-0.6,0.5-0.9,0.6
		c-3.8,2.3-6.6,0.3-9.4-2.5c0,0-0.1-0.1-0.2-0.1c1.2,0.3,2.6,1,2.6-1.5c0-0.1,0.1-0.1,0.1-0.2c0,0,0,0.1,0,0.1
		c2.2-4.7,3.6-9.8,5.1-14.8c0.6-0.2,1.7-0.6,1.6-0.2c-0.2,2.2,0.9,3.8,2.7,3.9c1.8,0.1,3.1-1.4,2.8-3.6c0-0.4,0.1-0.7,0.7-0.9
		c4.3-1.3,9,1.9,8.9,6.2c0,0.1,0,0.2-0.1,0.3c0-0.1,0-0.1,0-0.2c-2.9,9.8-2.6,10.8,3.9,13.5c0.1,0,0.2-0.1,0.3-0.1
		c2.7,0.8,5.3,1.2,8.4,1C1136.7,572,1138.1,571.7,1139.5,571.4z"/>
	<path class="st0" d="M1139.6,595.1l-2.7,1.2c-3.8-3.5-8.4-5.6-13-7.9c-4.9-2.5-10.1-4-15.6-0.6c-3.1,1.9-6.7,1.5-10.2,0.8
		c-8.4-1.7-14-6.8-17.2-14.4c-2.6-6.4-5.6-12.4-9.3-18.2c-1.2-2-0.7-2.9,0.8-4c0.1-0.1,0.1-0.3,0.1-0.4c2.2-1.3,3.4,0.1,4.3,2.1
		c0,0,0,0.1-0.1,0.1c5.6,4.4,8.7,11,13.8,15.8v0c0.1,0.1,0.2,0.3,0.3,0.4c2.4,2.6,4-0.5,5.9-1c2.3,1.1,4.6,2.1,1.7,5.8
		c3.7-1,6.7-0.4,9-3c0.2-0.2,0.3-0.3,0.5-0.4c1.1-0.7,1.9,0.3,2.7,1.3c2.7,3.3,6.4,4.3,10.1,2.4c3.9-1.9,3.9,0.2,3.7,2.9
		c-0.1,1-0.3,1.9,0.2,2.8c0.1,0,0.1,0.1,0.2,0.1c-1.2,2.4-0.2,2.8,2.1,2.5c2.4-0.2,4.9-0.8,7,1.2c0.7,3.2,3.6,5,4.6,7.9
		c0,0.1,0,0.2,0,0.4C1138.9,594,1139.2,594.7,1139.6,595.1z"/>
	<path class="st0" d="M1000,587.1c1.1,2.4,4,0.5,5.9,2.4c-7.2,4.8-4.9,12.6-6.3,19.2c-0.2,0.9,0.3,1.8,0.9,2.3
		c4.2,3.6,4,7.5,1.9,11.8c-0.2,0.3-0.3,0.7-0.5,1c-0.9,1.7-1.8,2.4-3.4,2.1c-4-0.8-7.6,0.6-11.3,1.5c-8.6,2.1-12,6.5-12.4,15.4
		c-0.3,6.6,1.8,12.8,2.3,19.3c0.2,2.1,0.3,4-1.8,5.3c-7.2,4.4-16.8,3.1-19.4-4.7c-1.5-4.6-4.6-8.4-9.6-10.2
		c-7-2.6-15.8,0.3-20.9,7.8c-5.9,8.6-8.2,18.4-7,28.9c0.5,4,1,7.9,2.1,11.8c2,7.2-1.7,12.8-6.2,17.5c-3.9,4.1-10,3.9-14.5,0.3
		c-2.1-1.7-4.2-3.3-6.3-4.9c-0.5-0.2-0.9-0.5-1.2-0.8c-0.9-5.8-2-11.5-6.5-16.5c-0.9-1-2.3-2.2-3.3-3.6c-0.2-0.3-0.5-0.7-0.7-1
		c-0.6-1-0.9-2.1-0.7-3.2c0.6-3.3-0.5-5.4-2-7.8c-2.6-4.2-4.7,0.3-7.3,0.6c3.3-6.7,6.6-12.8,12.7-16.9c-7.6-5.7-8.1-6-11.6,0.2
		c-2.5,4.3-3.4,9.6-4.6,14.5c-0.3,1.2-0.5,2.2-1.4,2.9c-0.3,0.3-0.7,0.3-1,0.2c-0.3-0.1-0.5-0.3-0.7-0.5c-0.9-1.2-0.1-2.2,0.1-3.3
		c1-4.8,3-9.2,3.7-14.2c0.7-5.4-1.3-3.9-4.3-3.4c-3.2,0.5-3.7,3.1-3.7,5.1c0,2.6-1.2,3.4-3,4.6c0,0,0,0-0.1,0
		c-0.6-2.5-0.2-4.3,0.8-6.4c1.4-2.9-1.9-4.4-3.4-5.6c-1.7-1.2-2.5,1.3-3,2.9c-0.7,2.7-1.5,5.3-2.3,7.9c-0.5,1.5-1.6,3.3-2.8,3.1
		c-0.1,0-0.3-0.1-0.4-0.1c-5.2-3.1-11.1-0.8-16.9-2.1c0,0,0,0,0,0c0,0,0-0.1,0-0.1c4.5-3.5,8.8-2.9,13.1-0.8c1.4,0.7,3,1.1,4-0.5
		c0.9-1.5,1-3.4,0.2-4.8c-0.6-0.9-2.3-1-2.9-2.4c-0.5-1.1-1.5-2-2.8-1c-0.9,0.7-2,1.4-1,2.8c0.6,0.8,0.7,1.6-0.3,2
		c-1.1,0.5-1.4-0.4-1.7-1.2c-1.4-3.4-3.4-4.2-6.2-1.2c-2,2.2-3.2,1.3-5-0.7c-2.4-2.6,0-3.4,1.1-4.8c0.8-0.9,1.6-2,0.1-2.8
		c-0.2-0.2-0.9,0.4-1.4,0.9l0,0c0-0.6-0.1-1.1-0.1-1.7c0.7-3.3,1.7-6.6,2.1-10c0.3-2,1.3-2.2,2.7-2c0.1,0.1,0.3,0.1,0.4,0.2
		c1.9,1,3.4-2.2,5.5-0.5c2.2,1.8,4.2,1,5.3-1.3c1.3-2.7-0.7-4-2.7-5c-1.5-0.7-3.8-1.6-3.2-3c0.8-1.9,0.8-5,3.9-5.2
		c1.1,1.3,1.9,2.9,3,4.3c1,1.5,2.3,2.8,4,3.6c0-0.1,0-0.2,0-0.3c0,0.1,0.1,0.2,0.1,0.2c0,0.5,0,1,0,1.5c0.1,1.3,0.2,3.4,1.5,3.2
		c1.9-0.3,3.8-1.5,5.3-2.9c1-0.9-0.4-2-1.2-2.8c-2.4-2.4-3.5-5.6-6.1-7.7c0,0,0,0,0,0c0,0-0.1-0.1-0.1-0.1c-1.4-2.1-2.9-4.3-4.3-6.4
		c3.9-2.9,7.8-2.1,11.6,0.4c1,0.7,2,1.8,3.5,0.9c0.1,0,0.2-0.1,0.3-0.2c3.3,0,2.6-1.8,1.6-3.8c0,0,0.1-0.1,0.1-0.1
		c1.3-1.5,4.4-2.3,1.5-5c0.8-0.7-0.9-2.9,1.5-2.6c1.1,3.3,2.5,6.4,4.5,9.3c0,0.2,0.1,0.3,0.2,0.5c0.9,1.8,1.7,3.6,2.8,5.3
		c1.8,2.8,4.5,2.9,7,1.5c1.1-0.6,1.5-1.2,1.5-1.8l2.4,0.2c0,0.6,0.7,1,1.9,1.5c2.3,0.8,4-1,6.1-1.1c0,0,0-0.1,0-0.1
		c0,0.1,0,0.1,0.1,0.1c6.5-0.5,5.1-6.7,7.2-10.4c1.6,0.9,0.5,3.7,2.7,3.3c2.1-0.3,1.4-2.4,1.4-3.7s1.7-2.7,0-4
		c0.1-5.6,0.1-11.2,0.2-16.8c0.3-0.4,0.4-0.8,0.1-1.5c0.1-0.3,0.1-0.5,0-0.8c0,0,0-0.1,0-0.1c1.5-2.8,0.4-5.8,1-8.7c0,0,0,0,0.1-0.1
		c0,0,0,0,0,0.1c3.4,3.3,4.7,7.6,5.9,11.9c0,0,0,0,0,0c0,0-0.1,0-0.2,0c-2.6,3.7,0.5,4.1,2.9,4.9c0,0,0.1,0,0.1-0.1c0,0,0,0,0,0.1
		c0.4,0.6,0.7,1.3,1,2c0.1,0,0.1,0.1,0.2,0.1c-0.1,0-0.2-0.1-0.3-0.1c0.3,0.9,0.7,1.8,1,2.8c0.7,1.6,1.6,2.2,3.4,1.4
		c1.8-0.7,1.6-1.8,1-3.1c-0.5-0.9-0.8-1.9-1.3-2.9c0-0.1,0-0.1,0-0.2c0.3-0.4,0.7-0.7,1-1.1l0,0c1.2,0,2.4-0.8,3.2,1
		c0.6,1.4,2.1,1.8,3.8,1.7c5.2-0.4,9.1-3.5,13.4-5.8c1.9-1,0.9-2.5,0.5-3.9c0-2.4,1.5-4.5,0.8-7.1c0.1,0,0.1,0,0.2,0
		c0.5-1.9,0.2-4.3,3.4-4.5c3.4-0.2,2.3,2.6,3,4.1c0.7,1.5,1.2,3.1,0.8,4.8c-0.4,1.2-0.9,2.9,0.6,3.5c1.8,0.8,3.6-0.4,5.1-1.3
		c1.6-1,0.3-2.3-0.1-3.5c-0.4-1.1-0.7-2.4-1-3.6c0.1,0,0.1-0.1,0.2-0.1c0.2-1.1,0.3-2.2,0.5-3.3c2,0.3,3.6,1.7,5.7,1.2
		c0-0.1,0-0.1,0.1-0.2c3.3,0.6,3.9,5.1,5.9,5.5c3.9,0.8,6.5,3.3,9.8,4.7c0.5,0.3,1,0.6,1.6,0.8c-0.5-0.2-1.1-0.4-1.6-0.7
		c-0.1,1.4,0.3,2.4,1.9,3c4.4,1.5,8.7,3.4,13.1,4.7c5.1,1.4,9-1.7,9-6.9c0-1.3,0-2.7,0-4c0,0-0.1,0-0.2,0c0.1,0,0.1-0.1,0.2-0.1
		C998,587.6,999,587.4,1000,587.1z M1002.4,616.7c0.7-2.1-1.5-3-2.1-4.6c-0.1-0.2-0.5-0.2-1-0.4c-0.7,2.4,0.3,4.2,1.9,5.6
		C1001.4,617.4,1002.3,617,1002.4,616.7z"/>
	<path class="st0" d="M997,588c0,1.3,0,2.7,0,4c0,5.2-3.9,8.3-9,6.9c-4.4-1.3-8.7-3.2-13.1-4.7c-1.6-0.6-2-1.6-1.9-3
		c0.5,0.3,1.1,0.5,1.6,0.7c0.5,0.2,1,0.4,1.5,0.5c4.3,2.9,9.3,3.8,14.3,4.6c3.2,0.6,5.8-1.2,5.6-5.2c0-1.3,0-2.5,0.5-3.7
		c0.1-0.1,0.2-0.2,0.3-0.2C996.9,588,997,588,997,588z"/>
	<path class="st0" d="M996.6,588c0,0.1-0.1,0.1-0.1,0.2c-5.7,4.2-14.4,5.9-20.4,4.2c-0.1,0-0.1-0.1-0.2-0.1
		C983.3,594.2,989.6,588.6,996.6,588z"/>
	<path class="st0" d="M996.5,588.3c-0.5,1.1-0.5,2.4-0.5,3.7c0.2,4-2.4,5.8-5.6,5.2c-5-0.8-10-1.8-14.3-4.6
		C982.2,594.2,990.8,592.5,996.5,588.3z"/>
	<path class="st0" d="M918,532.9c0.1,7.5-1.5,14.7-3.9,21.8c0,0,0,0,0.1,0c0,0,0,0-0.1,0.1c-0.2,1.7,1.1,2.9,1.7,4.3
		c-0.2,0.3-0.4,0.6-0.7,0.9c-1.5,2.5-4.6,4.2-4,7.8c0,1.1,0.4,2.1,0.9,2.9c0,1.1,0,2.1,0.3,3.2c-0.1,0.4-0.3,0.9-0.4,1.4
		c0,1.5,0.5,2.8,1.4,4c0.2,0.2,0.4,0.4,0.7,0.6c0,1.5-0.1,3,0.9,4.2c0,0,0.1,0,0.1,0c-0.3,2.3,2.2,4.9-0.7,6.9c0,0,0,0,0,0
		c-1.9-1-2.5-2.9-3.4-4.6c-1.5-3-2.3-6.4-5.2-8.6c-0.1,0-0.3,0-0.4-0.1c-0.1-5.4-1.1-10.7-0.5-16.2c0.1-0.4-0.2-0.8-0.5-1.2
		c0,0,0.1,0,0.1,0c1.9-3.1,2.3-6.5,1.8-10c-0.5-2.7-1.7-4.5-5.1-3.8c-11.8,2.5-16.2,0-20.9-11.6c-0.1-0.2-0.2-0.4-0.3-0.5
		c0,0,0,0,0.1-0.1c0,0,0.1,0,0.1-0.1c1.1,0.2,2.2,0.8,3.3,0.6C894.8,533,906.4,532.9,918,532.9z"/>
	<path class="st0" d="M914.3,591C914.3,591,914.3,591,914.3,591C914.3,591,914.2,591.1,914.3,591c-1.9,1.2-2.4-0.3-2.9-1.4
		c-2.1-3.9-4.1-7.9-6.1-11.8c0,0,0-0.1,0-0.1c0.1,0,0.3,0.1,0.4,0.1c2.9,2.2,3.7,5.6,5.2,8.6C911.8,588.1,912.4,590,914.3,591z"/>
	<path class="st0" d="M891.6,712.3c-0.5-0.6-0.8-1.3-1.2-2.1c-1.1-2.6-2.3-5.2-3.4-7.8c-4.1-9.5-11.1-13.3-21.5-13.5
		c-4.6-0.1-8.1,2.2-12.1,3c-10.3,2.2-13.5,9.8-15.1,18.3c-1,5.4-2.4,10.5-4.3,15.5l0,0c-3.4-3.5-3.1-6.9-1.2-11.3
		c1.1-2.5,1.2-5.6,2.6-8.4c1.8-3.7,4.9-6.6,5.9-10.7c0.2-0.8,0.9-1.6,0.4-2.3c-0.9-1.2-1.7,0.2-2.5,0.3c-5.9,0.6-9.9,5.8-15.8,6.5
		c-0.9,0.1-1.3,1-1.2,1.9c0.1,1.1,0.9,1.1,1.8,0.9c0.8-0.2,1.5-0.2,2,0c0.3,0.6,0.5,1.3,0.6,1.9c0,0.1-0.1,0.1-0.1,0.2
		c-1.4,3.3-2.5,7.4-7.2,7.8c-1,0.1-1.8,0.1-1.7,1.2c0.1,0.6,0.5,1.3,1,1.6c1.7,0.9,1.9,1.3,1,2.3c-0.9,0.9-1.9,1.7-3.8,3.4
		c4.5-1.3,6.9-3.8,9.7-5.5c0,0,0.1,0,0.1,0c0,0,0,0,0.1,0c1.7,3.7-0.6,6.7-1.7,9.8c-0.6,1.5,0,2.2,0.9,2.9c1.3,0.9,2.1,0.2,2.8-0.9
		c0.4-0.7,0-2.3,1.6-1.8c0.3,2.6,0.5,5.2,0.7,7.9c0,0,0,0,0,0c-0.3,0.1-0.7,0.2-0.9,0.3c-6.1,1.4-12.3,1.1-18.4,0.4
		c-2.9-0.3-5.8-1.8-8.7-3.1c-0.8-0.3-1.5-0.7-2.1-1.1v0c-4.4-2.6-6-6.2-7.6-11.9c-1.9-6.8-2-13.1-1-19.4c1.2-8.1,1.9-15.6-3.3-22
		c4.4,1.9,8.7,4.1,13.7,4.3c-3.1,9.2-6.5,18.3-5.9,28.2c0.1,0.9-1,1.9,0.4,2.5c0.4,0.2,1,0.1,1.4-0.1c1.2-0.6,0.8-1.5,0.6-2.5
		c-1-5.1,1-9.8,1.4-15.1c2.2,1.7,1.2,3.1,0.9,4.5c-0.2,0.8,0.4,1.3,1.1,1.3c0.4,0,1.1-0.6,1.1-0.7c-1.6-4.8,5.7-8.8,1.4-14
		c-0.4-0.6-0.4-1.4,0.3-2.2c2.2-2.7,2.3-3.1-1.2-3.7c0.8-2.9,0.9-3.6-0.9-3.4c-0.6,0.1-1.4,0.2-2.5,0.4c-1,0.2-2.1,0.4-2.5-1
		c2.1-2,4.8-1.8,7.4-2.1c2.7-0.3,5.1-2,4.7-4.8c-0.3-1.9-1.6-2-3-1.8c-0.6,0.1-1.3,0.3-1.9,0.4c-0.7,0.1-1.3,0.1-1.8-0.8
		c0.4-2.6,2.8-4.4,3.5-6.9c0.9-3.1,3.1-4.2,6.2-4.9c3.5-0.7,6.8-2.1,10.2-3.2c0.2,0.1,0.3,0.2,0.4,0.3c0,0.2,0.1,0.4,0.2,0.6
		c-0.6,1.1-2.2,2.2-0.6,3.3c1.2,0.9,2.8,2.4,4.6,0.7c0-0.1,0-0.2,0-0.3c0,0,0,0,0,0c1.2,0.5,0.9,1.2-0.1,2.3c-1.9,2.1-0.9,4,0.6,5.8
		c1.5,2,3.3,2.1,5.2,0.7c2.1-1.6,3.7-1.9,5.4,0.6c0.6,0.9,1.2,1.3,1.8,1.4l0,0.2c-2.8-0.7-5.6-0.6-8.3,1c-1,0.6-2.1,1.1-1.8,2.5
		c-0.1,0-0.1,0.1-0.2,0.1c0.1,0,0.1,0,0.2,0c0.3,1.2,1.4,1.2,2.4,1.4c3.5,0.7,7-0.3,10.5,0.4c1.9,0.4,3.3,0.7,4.4,0.7
		c3.2,0.3,3.6-1.2,5.5-6.4c0.7-2,0.3-5.9,3-5.5c3.4,0.5,1.4,4,1.3,6.3c0,0.1,0,0.2,0,0.2c0,0,0,0.1,0,0.3c0,1.1,0,2.3,0.9,2.9
		c0,0,0,0,0,0.1c0,0,0,0,0,0c0.1,0,0.2,0.1,0.3,0.1c1.4,0.6,2.4-0.6,3.3-1.6c1-1.2,1-2.8,1.5-4.2c0.6-1.9,2-3.4,4-2.9
		c2.1,0.5,1.1,2.6,1,3.9c-0.4,3.8-2.2,7.3-3,11c-0.5,2.2-1.9,4.8,0.9,5.7v0c0.1,0,0.3,0.1,0.4,0.1c2.6,0.6,2.8-2.3,3.5-4.4
		c1.6-4.5,2.5-9.3,4.9-13.5c0.8-1.4,1.1-3.8,3.6-3.5c1.3,0.2,2.6,1.1,3.1,2.3c1,2.3-1.2,3.4-2.4,4.4c-3.7,3-4.7,7.6-7.1,11.3
		c-0.5,0.6-0.6,1.4-0.1,2.1c0,0.1,0.1,0.1,0.1,0.2c0.6,0.7,1.4,0.5,2.3,0.3c4.4-1.1,5.9,0,6.2,4.4c0.1,1.7-0.1,3.3,0.9,4.8
		c0.2,0.2,0.3,0.5,0.5,0.7c0.2,0.4,0.4,0.7,0.7,1C886.4,699,890.9,704.7,891.6,712.3z"/>
	<path class="st0" d="M880.6,521.2c2.4-1.9,5.1-1,8.1-1.3c-2.2,4.1-7.3,4.7-8.7,9c0,0,0,0.1,0,0.1c-0.1,0-0.1,0-0.2,0
		c-2.8-1.3-3-5.4-6.7-6c-6.2-1-12.1,3.5-12.9,10.9c-0.1,1.4-1.7,3.6,0.4,4.8v0c0,0.2,0,0.5,0,0.7c0.1,0.2,0.1,0.3,0.2,0.5
		c-0.7,2.8-0.1,5.9-1.5,8.6c0,0-0.1,0-0.2-0.1c-2.9,0-5.8-3.2-8.5-0.4c-4.8,5.1-11.3,6.1-17.5,7.8c-6,1.7-9.9-2.1-8.6-8.4
		c0.5-2.1,1-4.3,0.6-6.4c-0.6-3.1,0.7-4.7,3.7-5.2c4.5-0.8,5.9-3.8,5.6-8c-0.2-1.7,0.1-3.4-0.3-5c-0.2-0.6-0.4-1.1-0.8-1.5
		c0.8-5,0.5-10.2,0.7-15.3c0.8-0.3,1.4-0.5,2.2-0.8c0-0.1-0.1-0.2-0.2-0.3c0.1,0,0.2,0.1,0.3,0.1c1.9-0.1,4.1,0.7,5.7-1.2
		c0-0.1,0.1-0.1,0.1-0.2c0,0.1,0,0.2,0,0.3c5.1-2.2,8,2.8,12,3.7c0,0.1,0,0.1,0,0.2c3.6,0.1,7.2,0.4,10.3,2.3c1.7,1.1,3,0.5,4.5-0.2
		c0,0,0,0,0-0.1c0,0.1,0,0.1,0,0.2c3.4,1.8,6.6,3.9,11.1,2.3c1.6-0.6,5.3,2.3,5.3-1.2s-3-0.6-4.9-0.9c-0.1,0-0.1-0.1-0.2-0.1
		c-0.2-0.1-0.3-0.3-0.4-0.4c0.3-0.6,0.6-1.2,1-1.8c0.4-0.5,0.8-0.9,1.1-1.3c0,0,0,0,0,0c0.2-0.1,0.5-0.2,0.8-0.1c0,0,0-0.1,0-0.1
		c2.2,1.5,4.3,3,6.5,4.5c-1.9,3.9-6.6,4.4-9.6,7.1c-2,1.8-0.4,3.4-1.2,5c-0.4,0.7,1.8,1.1,2.8,0.5c1.2-0.7,3.1-0.2,3.6-2.2
		C883.6,520.2,882,523.2,880.6,521.2z"/>
	<path class="st0" d="M883.2,622.9c-0.1,0-0.2-0.1-0.3-0.1c-1,0.7-1.4,1.2-1.4,1.6l-2.4-0.2c0-1.2-1.7-2.3-2.2-3.4
		c-0.3-0.6-0.7-1.1-1.1-1.7c-2.4-4.7-4.6-9.5-7.3-14.1c-1.1-2-0.1-2,1.1-2.1h0c0.2,0,0.5,0.1,0.7,0.2c3.3,0.5,6.5,0.9,9.8,1.3
		c3.4,3.8,1,8.4,1.8,12.6c0.1,0,0.1,0,0.2,0.1c-0.7,2.1,1.4,3.7,0.9,5.7C883.1,622.8,883.2,622.9,883.2,622.9z"/>
	<path class="st0" d="M880.1,529.2c0.6,1.6,0.5,3.1,0,4.8c-0.1,0.1-0.2,0.1-0.2,0.2c-2.7-4.9-7.8-5.3-12.6-5.6c-4.7-0.3-4,4.4-5.6,7
		c-0.3,0.5-0.5,1.1-0.7,1.6c-0.2-2.9,1-5.4,2.2-8c3-6.4,8.3-7.4,13.3-2.3c1,1,1.9,2.2,3.4,2.1c0.1,0,0.1,0.1,0.2,0.1
		C880,529.1,880.1,529.2,880.1,529.2z"/>
	<path class="st0" d="M879.8,529c-1.5,0.1-2.4-1.1-3.4-2.1c-5-5.1-10.3-4.1-13.3,2.3c-1.2,2.6-2.4,5.1-2.2,8
		c-0.1,0.2-0.1,0.5-0.2,0.7c0,0.3-0.1,0.5-0.1,0.8c-2.1-1.2-0.5-3.4-0.4-4.8c0.8-7.4,6.7-11.9,12.9-10.9
		C876.8,523.6,877,527.7,879.8,529z"/>
	<path class="st0" d="M861.1,539c0.1,1.1,0.2,2.2,0.2,3.2c0,1.8-0.2,3.4-1,4.9c0.1-2.4,1.2-4.8,0.5-7.2
		C860.9,539.6,861,539.3,861.1,539C861.1,539,861.1,539,861.1,539z"/>
	<path class="st0" d="M859.3,548.5c-0.1,0.1-0.2,0.3-0.3,0.4c-1.1,0.4-3,1.3-3.1,1c-3.2-4.9-4.6-0.4-6.8,1
		c-3.3,2.1-6.8,3.5-10.4,4.6c-3.6,1-7.3,1.7-11,2.3c-1.7,0.3-6.3-7.8-5-9.6c2.5-3.5,0.7-7,0.8-10.4c0.1-2.1,0-2.9,2.3-3
		c1.5-0.1,3.1-1.4,4.5-1.3c3.1,0.2,3.2-1.3,3-3.6c-0.2-2.3-0.2-4.6-0.2-7c0-0.2,0-0.3,0-0.4c0.1-0.4,0.1-0.7,0.2-1.1
		c0.4,0.3,0.6,0.9,0.8,1.5c0.4,1.6,0.1,3.3,0.3,5c0.3,4.2-1.1,7.2-5.6,8c-3,0.5-4.3,2.1-3.7,5.2c0.4,2.1-0.1,4.3-0.6,6.4
		c-1.3,6.3,2.6,10.1,8.6,8.4c6.2-1.7,12.7-2.7,17.5-7.8c2.7-2.8,5.6,0.4,8.5,0.4C859.2,548.4,859.2,548.4,859.3,548.5z"/>
	<path class="st0" d="M823.9,639.4c0.5,4-0.7,7.8-1.1,11.6c-0.1,0-0.2,0-0.3,0.1c0,0-0.1-0.1-0.1-0.1c-2.8-1.1-14.1,1.8-16.3,4.1
		l-1.3-1.2c0,0,0,0,0,0c1-1.8,5.1-2.6,2.3-5.9c0,0.1-0.1,0.1-0.1,0.2c0-0.1,0-0.1,0-0.2c0.4-7.1,4.2-13.1,5.9-19.7
		c0.1,0,0.2,0,0.3-0.1c1.9-1.2-0.4-4.7,2.7-5.3l0,0c0.5,3.2,0.2,6.5,2.5,9.2c0.1,0,0.1,0,0.2-0.1c0,0,0,0,0,0
		c-0.1,0.1-0.1,0.2-0.1,0.3c-1.3,1.3-1.9,2.8-1.6,4.6c0,0,0,0,0,0c0,0,0,0.1,0.1,0.2c0,0,0,0.1,0,0.1c0,0,0,0,0,0
		c1.1,2.3,2.8,2.8,4.9,2.2c0.4,0,0.8,0,1.2-0.1l0.5-0.1L823.9,639.4z"/>
	<path class="st0" d="M823.9,625.6c0.4,1.9-2.1,5.4-5.3,6.4c0,0,0-0.1,0.1-0.1c4.2-6,4.2-6-2.6-9c-0.1,0-0.1,0-0.2,0
		c0-0.1,0-0.1,0-0.2C819.4,621.6,823.2,622.5,823.9,625.6z"/>
	<path class="st0" d="M822.4,638.8c0.2,0.1,0.4,0.2,0.6,0.3c-0.4,0.2-0.7,0.3-1.1,0.4c-1.8-0.1-3.2-1.4-4.9-2.2c0,0,0-0.1-0.1-0.2
		c0-0.1,0-0.1,0-0.2c0.5,0,0.9,0.1,1.3,0.2C819.1,639,820.8,638.8,822.4,638.8C822.3,638.8,822.4,638.8,822.4,638.8z"/>
	<path class="st0" d="M822.3,638.8c-1.6,0-3.3,0.2-4.1-1.6C819.7,637.5,821,638.2,822.3,638.8z"/>
	<path class="st0" d="M821.9,639.5c-2.1,0.6-3.8,0.1-4.9-2.2C818.7,638.1,820.1,639.4,821.9,639.5z"/>
	<path class="st0" d="M816.1,622.9c6.8,3,6.8,3,2.6,9c0,0,0,0.1-0.1,0.1v0c0,0,0,0,0,0c0-0.1,0-0.2,0-0.3c-0.6-3-0.4-6.3-2.7-8.8
		l0,0C816,622.9,816,622.9,816.1,622.9z"/>
	<path class="st0" d="M818.6,631.7c0,0.1,0,0.2,0,0.3c-0.1,0-0.1,0-0.2,0.1c-2.2-2.6-2-5.9-2.5-9.2
		C818.2,625.4,818,628.7,818.6,631.7z"/>
	<path class="st0" d="M808,667.5c1,1.3-0.5,2-1.2,2.8c-0.7,0.9-1.8,2-2.9,1.4c-2.5-1.3-4.3,0.2-6.4,1.1c-1.3,0.6-4.1,0.3-2.8,2.6
		c0.9,1.5,3.3,3.5,5.9,1.7c0.6-0.4,0.7-1.3,1.6-1.3c0.1,0,0.2,0,0.3,0c0.6,1.3-0.4,2.2-0.7,3.2c0.1,0.1,0.1,0.1,0.2,0.2
		c0,0.3,0,0.6,0,0.7c0,0,0,0.1,0,0.1c0,0,0,0,0,0c-2.2,0.2-4.1-0.5-6-1.5c-2.9-1.5-5.9-2.5-9.1-3.1c-0.3-0.3-0.7-0.7-1.1-1
		c-0.5-2,1.6-4.3,0.6-5.8c-2-2.9-0.7-5.3-0.1-8c0.9-4.2,0.9-9.1-2-12c-6.5-6.6-5.9-15-7-22.9c-0.3-2-0.7-4-1.3-5.8
		c-0.3-0.7,0.2-1.6,0.5-2.4c1.5-3.7,1.9-7.8,2.3-11.7c1.2-13.1-3.8-21.4-15.5-25.7c-11.2-4.1-20.5,0.3-29,7.1
		c-7.1,5.7-14,10.9-23.8,11.1c-7.4,0.2-14.5,2.5-21.4,6c-6,3-12.9,2.9-19.6,1.6c-2.5-0.5-3.9-2-4.2-4.8c-0.3-2.8,0.8-4.3,3.4-5.3
		c3.4-1.3,6.5-3.4,9.4-5.6c5.5-4.1,7.3-11.3,3.9-15.8c-4-5.4-9.1-8.8-16.4-8.8c-8.3,0-16.6,0.1-24.8,1.9c0,0-0.1,0-0.1,0
		c0.8-2.4,0-4.9-0.5-7.3c12.1,0.1,23.9,2.6,35.9,3.8c0,0,0-0.1,0-0.1c4.2,0.5,8.8,2.3,12.6,1.3c8.7-2.3,17.6-2.4,26.3-4.3
		c-0.1-0.1-0.1-0.1-0.2-0.2c0.1,0,0.2,0.1,0.3,0.2c3.1-0.4,6.4-0.3,9.3-1.3c3.6-1.2,4.5,0.2,4.6,3.2c0,0,0,0,0,0
		c-1.4,3-3.8,2-5.9,1.4c-3.4-1-5.6-0.3-5.7,3.6c0,0,0.1,0.1,0.1,0.1c0,0-0.1,0-0.1,0c-4.1,0.1-2,5.6-5.6,5.9c2.1,0.3,3.6-0.8,4.7-2
		c3.4-3.5,7.6-3.3,11.6-2.6c3.9,0.7,7.6,0.9,11.4,0.5v0c3.9-0.3,7.8,0.2,11.2,1.7c3.8,1.7,6.9-1.3,10.4-0.6c0.9,0.2,1-0.9,0.7-1.8
		c-0.8-2.2-2.3-3.3-4.7-3.1c-0.2-0.4-0.4-0.8-0.7-1.2c0,0,0-0.1,0.1-0.1c8.5-1.4,17.2-2.2,25.5-4.2c6-1.5,9.6-0.4,11.1,5.7
		c0.1,0.2-0.1,0.6-0.2,1.1c-5,0.2-10-1.6-15.1,0c-2,0.6-3.3,1.4-3.9,3.3c-0.5,1.5-0.2,3,1,3.6c3.4,1.7,5.6,5.1,9.3,6.3h0
		c3.4,3.6,0.5,7.2-0.6,10.6c-0.5,1.5-1.7,2.5-0.5,4.1c0.7,0.9,1.7,1,2.7,0.6c1.8-0.8,2.8-2.3,2.1-4c-1.4-3.4,0-6.3,0.8-9.8
		c2.3,6.2,1,12.2,1.7,18.1c0,0-0.1,0-0.1,0c-0.1,1.1,0.1,2.3-0.1,3.4c-0.3,1.4-0.8,3.2,1.2,3.4c1.5,0.1,3.7,0,3.5-2.6
		c0,0,0.1,0,0.1,0c-0.2-9.3-2.2-18.5-1.8-27.8c0.1-2.3-0.8-3.1-2.9-2.4c0-0.1-0.1-0.1-0.1-0.2c0.1-0.1,0.3-0.2,0.4-0.2
		c1.5,0.1,3.2-0.5,4.6,0.6c0.1,0,0.1-0.1,0.2-0.1c0.6,0.3,1.2,0.6,1.7,0.8c0.2-0.2,0.3-0.5,0.5-0.7c0,0,0,0,0,0
		c-0.1,0.3-0.2,0.7-0.3,1c-1.5,1.6-1.2,3-0.3,4.9c0.7,1.4,1.4,2.9,1.5,4.4c0.1,1.3-0.1,2.5-1,3.9c-0.7,1-0.3,2.1,0.1,3.3
		c2.8,9.2,6.8,17.8,11.7,26.1c-3.8,7-7,14.2-8.4,22.2c-0.5,3-2,5.9-3.1,8.8c-0.4,1.3-3.3,1.5-2.2,3.3c1.8,2.9,2-1.5,3.5-1.1
		c1,0.3,2,0,3,0c0,0,0,0,0-0.1c0.7,0.1,1.3,0.1,1.9,0.1c0,0,0.1,0,0.1,0c-0.7,0.6-1.3,1.1-2,1.6c1,0.4,2.5,1.2,2.8,1.2l1.3,1.2
		c-0.1,0.1-0.1,0.1-0.2,0.2c-0.5,0.7-1.1,1.5-1.1,2.2c-0.1,2.2-1.8,3.5-2.6,5.3c-0.6,1.4-3.3,2.1-1.6,4.5c1.5,2.1,3,1.1,4.6,0
		c0.3-0.2,0.7-0.3,1.1-0.4C807,666.8,807.6,666.9,808,667.5z"/>
	<path class="st0" d="M1240.5,663.1l-0.5,0.1c-0.3-1.2-1.4-2-1.9-3.2c-0.5-1-1.2-2-0.6-3.3c2.7-6.3-0.1-11.5-6.9-12.8
		c-4.9-0.9-8.4-4.4-12.9-6.2c-5.3-2-10.9-2.3-16.1-2.4c-8.7-0.3-15.7-5-23.5-7.6c-4.6-1.5-9.7-2.5-13.4-6.4
		c-5.4-5.7-12.5-9-18.6-13.8c-7.4-5.7-12.6-14.1-22-17.3c-5.1-1.8-9.9-4.6-15.3-0.6c-2.7,2.1-6.1,1.8-9.2,1.2
		c-10.4-1.9-17.3-7.8-20.8-18.1c-2-5.9-5.4-11.3-8.9-16.4c-0.8-1.2-2.1-2.1-1.4-3.9c1-2.3,2.7,1.2,3.7-0.5c0-0.1,0.1-0.1,0.1-0.2
		c0.1-0.1,0.2-0.1,0.3-0.2c0,0.1-0.1,0.3-0.1,0.4c-1.5,1.1-2,2-0.8,4c3.7,5.8,6.7,11.8,9.3,18.2c3.2,7.6,8.8,12.7,17.2,14.4
		c3.5,0.7,7.1,1.1,10.2-0.8c5.5-3.4,10.7-1.9,15.6,0.6c4.5,2.3,9.2,4.4,13,7.9c1.5,1.4,2.8,2.9,3.9,4.8c1.4,2.4,4.3,3.7,6.6,5.3
		c12.4,8.8,24,18.6,39.1,23.1c7.7,2.3,15.3,4.3,23.3,4.8c4.1,0.2,7.9,1.6,11.5,3.3c4.1,1.9,8,4,12.3,5.3c0.9,0.3,1.7,0.8,2.5,1.4
		c3,2.6,4.3,7.7,3.8,11.7C1239.7,658.4,1239.9,660.8,1240.5,663.1z"/>
	<path class="st0" d="M1229.2,635C1229.2,635,1229.2,635,1229.2,635c0,0.4-0.2,0.7-0.3,1c-6.6,0.5-9.6-6-15.2-7.9
		c-5.3-1.7-11-1.8-16-5c-1.3-0.8-3-0.7-4.3-2.5c-2.9-3.9-6.3-7.5-9.6-11.1c-0.2-0.2-0.4-0.3-0.6-0.5l0.1-0.2c0.9,0.5,1.7,1,2.6,1.5
		c3.2,2.1,5,5,7.2,7.8c3.6,4.5,9.1,6.1,14.4,6.9c4.3,0.7,8.4,1.8,11.4,4.4C1222.1,632.2,1225.4,633.7,1229.2,635z"/>
	<path class="st0" d="M1002.6,623.5c1.6,6.3-2.9,4.3-5.6,3.9c-9.1-1.5-19.5,3.8-20.7,11.5c-0.7,4-0.4,8.3,0,12.4
		c0.4,4.4,1.5,8.8,2.4,13.1c0.2,1.1,0.1,1.9-0.6,2.8c-1.9,2.6-11.6,5.3-14.8,4.3c-4.5-1.4-7.1-4-9-8.5c-5.8-13.3-18.9-13.4-27.7-2.1
		c-6.6,8.4-8.8,18.7-7,29.5c0.6,3.9,1.3,7.8,2.2,11.7c1.9,8.9-5.6,19.3-13.7,21.4c-2.3,0.6-5.6-0.6-7.7-2.1
		c-2.6-1.9-5.7-3.5-7.5-6.4c-0.1-0.1-0.3-0.3-0.4-0.4c-0.1-0.5-0.2-1-0.2-1.5c0.3,0.3,0.8,0.6,1.2,0.8c2.1,1.6,4.2,3.2,6.3,4.9
		c4.5,3.6,10.6,3.8,14.5-0.3c4.5-4.7,8.2-10.3,6.2-17.5c-1.1-3.9-1.6-7.8-2.1-11.8c-1.2-10.5,1.1-20.3,7-28.9
		c5.1-7.5,13.9-10.4,20.9-7.8c5,1.8,8.1,5.6,9.6,10.2c2.6,7.8,12.2,9.1,19.4,4.7c2.1-1.3,2-3.2,1.8-5.3c-0.5-6.5-2.6-12.7-2.3-19.3
		c0.4-8.9,3.8-13.3,12.4-15.4c3.7-0.9,7.3-2.3,11.3-1.5c1.6,0.3,2.5-0.4,3.4-2.1c0.2-0.3,0.4-0.7,0.5-1l0.3,0.1
		C1002.6,623.1,1002.6,623.3,1002.6,623.5z"/>
	<path class="st0" d="M839.2,695c0,0.6,0,0.9-0.2,1.2c-4.3,6.7-7,14.1-9.5,21.6c-0.7,1.9-0.8,3.3,0.5,4.6c1.4,1.5,2.2,3.3,3.5,4.7
		c0,0.1-0.1,0.2-0.1,0.3c-0.4,0.6-0.4,1.5-0.3,2.3c-0.7,1.3-1.6,2.5-2.6,3.7c0,0-0.1,0-0.1,0c-0.2,0-0.3,0.1-0.4,0.1c0,0,0,0,0,0
		c0.4-1.2,0.7-2.4,0.5-3.7c-0.2-1.6,0.5-3.4-1-4.7c-1.6-1.4-2.6,1.5-4.1,1.1c-0.2-1.2,0.2-2,0.4-2.8c0.6-2.7,2.8-6.1-0.1-7.8
		c0,0,0-0.1-0.1-0.1c0,0-0.1,0-0.1,0.1c-2.9-1.6-4.5,2.2-6.4,3.5c0.5-0.9,2.6-2.3,1.8-3.3c-2-2.6,0.5-2.5,1.5-3.2
		c3.1-2.2,4.6-5.3,4.2-8c0.3-1,0-1.7-0.6-1.9c-0.3-0.5-0.6-1-1-1.4C829.7,699.2,833.6,695.3,839.2,695z M827,712.5
		c0.9-1.4,2.3-2.8,1.5-5.7C827,709,826.4,710.6,827,712.5z"/>
	<path class="st0" d="M828.5,706.8c0.8,2.9-0.6,4.3-1.5,5.7C826.4,710.6,827,709,828.5,706.8z"/>
	<path class="st0" d="M807.1,648c2.8,3.3-1.3,4.1-2.3,5.9c0,0,0,0,0,0c-0.3,0-1.8-0.8-2.8-1.2c0.7-0.5,1.3-1,2-1.6
		c0.1,0,0.1,0,0.2,0c0.5,1.1-0.6,1.2-1.4,1.6c1.5,0.5,2.4-0.3,3.2-1.4c0.2-0.3,0.4-0.7,0.4-1c0.4-0.5,0.6-1.2,0.6-2.1
		C807,648.1,807.1,648.1,807.1,648z"/>
	<path class="st0" d="M806.4,649.1c0.1,0.4,0.1,0.8,0,1.2c-0.5,0.6-1.2,0.8-2.3,0.8c0,0,0,0,0-0.1
		C805.1,650.6,805.8,650,806.4,649.1z"/>
	<path class="st0" d="M806.4,650.3c-0.1,0.3-0.2,0.7-0.4,1c-0.8,1.1-1.7,1.9-3.2,1.4c0.7-0.4,1.9-0.5,1.4-1.6
		C805.2,651.2,806,650.9,806.4,650.3z"/>
	<path class="st0" d="M803.1,679.2c3.5,0.6,3.3,1,1.2,3.7c-0.7,0.8-0.7,1.6-0.3,2.2c4.3,5.2-3,9.2-1.4,14c0,0.1-0.7,0.7-1.1,0.7
		c-0.7,0-1.3-0.5-1.1-1.3c0.3-1.4,1.3-2.8-0.9-4.5l0-0.3c0.1,0,0.1,0,0.2,0c1.7-0.1,1.7,1.4,1.8,2.1c3.2-4.1,0.7-9.6,2-14.5
		c0.2-0.6-0.1-1-0.6-1.4C803,679.7,803.1,679.4,803.1,679.2z"/>
	<path class="st0" d="M802.9,679.9c0.4,0.4,0.7,0.8,0.6,1.4c-1.3,4.9,1.2,10.4-2,14.5c-0.1-0.7-0.1-2.2-1.8-2.1c-0.1,0-0.2,0-0.2,0
		c-0.5,0.1-0.8,0.3-1,0.6c0.8-3.3,2-6.5,3.3-9.7c0.5-1.2,1.5-2.6,0.5-4C802.6,680.4,802.7,680.2,802.9,679.9
		C802.9,680,802.9,679.9,802.9,679.9z"/>
	<path class="st0" d="M802,680c-0.1,0.3-0.2,0.6-0.3,1c-5-0.2-9.3-2.3-13.7-4.3c-0.3-0.4-0.7-0.9-1.1-1.3c3.2,0.5,6.3,1.6,9.1,3.1
		C797.8,679.5,799.7,680.2,802,680C801.9,680,801.9,680,802,680z"/>
	<path class="st0" d="M799.8,730L799.8,730l-0.4,0.6c-0.3-0.2-0.6-0.3-0.9-0.2c-5.2,1.5-5.9-2.8-7.8-5.6c-0.3-0.5-0.9-1.5-0.8-1.7
		c3.7-3.7-1.1-5.8-1.5-8.7c-0.7-5.5-0.7-11.3,1-16.5c1.7-5.2,0.2-10.2,0.3-15.2c0.5-3.2-4-4.8-5.8-7.6c1.4,0.5,2.7,1.1,4,1.6
		c5.1,6.4,4.5,13.9,3.3,22c-1,6.3-0.9,12.6,1,19.4C793.8,723.9,795.3,727.4,799.8,730z"/>
	<path class="st0" d="M786.8,675.4c0.4,0.4,0.8,0.9,1.1,1.3c-1.3-0.6-2.7-1.1-4-1.6C784.9,675.2,785.8,675.3,786.8,675.4z"/>
	<path class="st0" d="M786.3,668.6c1,1.5-1.1,3.8-0.6,5.8c0.4,0.3,0.7,0.7,1.1,1c-0.9-0.2-1.9-0.3-2.9-0.3c-1.6-1.3-0.1-2.4,0.3-3.5
		c0.4-1.5,2.6-2.9-0.9-4c-1.5-0.5-0.4-3,0.2-4.4c2.7-5.7,1.1-10.4-1.9-15.6c-3.5-6-8.9-12.1-5-20.2c0.2-0.4,0.2-1.1,0.1-1.6l0.5-0.1
		c1.1,7.9,0.5,16.2,7,22.9c2.9,2.9,2.9,7.8,2,12C785.6,663.3,784.3,665.7,786.3,668.6z"/>
	<path class="st0" d="M763.2,580.1c11.7,4.3,16.7,12.6,15.5,25.7c-0.4,3.9-0.8,8-2.3,11.7c-0.3,0.8-0.8,1.7-0.5,2.4
		c0.6,1.9,1,3.8,1.3,5.8l-0.5,0.1c-0.1-0.3-0.2-0.6-0.3-0.7c-4.3-3.1-1.8-6.4-0.8-10c1.9-6.7,1.5-13.8,1.2-20.7
		c0-0.7-0.7-1.5-1.1-2.2c-5.3-8.7-16-14.5-25.5-11.9c-5.5,1.5-11.3,3.6-15.9,8.3c-7.2,7.4-16.4,11-27,11.6
		c-6.3,0.3-12.2,2.7-18.2,5.5c-7.2,3.4-15.7,4-23.6,0.5c-3.9-1.7-1.6-5.6-2.3-8.4c-0.5-1.8,1.9-2.2,3.5-2.7
		c4.3-1.4,8.2-3.9,11.4-6.8c7-6.4,3.5-17.7-6.2-20.1c-8-2-16.1-1.4-24.3-0.4c-2.6,0.3-5.1,1.8-7.8,1.3c0-0.1,0-0.1,0-0.2
		c0,0,0.1,0,0.1,0c0.3-0.5,0.5-0.9,0.7-1.4c0,0,0.1,0,0.1,0c8.2-1.8,16.5-1.9,24.8-1.9c7.3,0,12.4,3.4,16.4,8.8
		c3.4,4.5,1.6,11.7-3.9,15.8c-2.9,2.2-6,4.3-9.4,5.6c-2.6,1-3.7,2.5-3.4,5.3c0.3,2.8,1.7,4.3,4.2,4.8c6.7,1.3,13.6,1.4,19.6-1.6
		c6.9-3.5,14-5.8,21.4-6c9.8-0.2,16.7-5.4,23.8-11.1C742.7,580.4,752,576,763.2,580.1z"/>
	<path class="st0" d="M892.5,714.6c0,0.2,0.1,0.4,0.1,0.6c-2.3,0.2-3.1-1.2-3.9-3c-2.7-5.9-4.1-12.4-9.7-16.9
		c-2.2-1.8-4.5-4.1-6.9-4.2c-5.5-0.2-11.4-2.9-16.4,1.9c-0.5,0.4-1.2,0.9-1.8,0.9c-5.4-0.1-8.8,2.4-11.4,7.2
		c-2.3,4.2-3.6,8.2-4.1,13c-0.4,4.3-1.5,8.7-4.2,12.4c0-0.3,0-0.6-0.1-0.8c1.8-5,3.3-10.1,4.3-15.5c1.6-8.5,4.8-16.1,15.1-18.3
		c4-0.8,7.5-3.1,12.1-3c10.4,0.2,17.4,4,21.5,13.5c1.1,2.6,2.3,5.2,3.4,7.8c0.3,0.8,0.7,1.5,1.2,2.1c0,0.2,0,0.4,0,0.6
		C891.6,713.6,892,714.1,892.5,714.6z"/>
	<path class="st0" d="M855.3,658.6c1.5,1.2,4.8,2.7,3.4,5.6c-1,2.1-1.4,4-0.8,6.4c-0.9-0.6-0.9-1.8-0.9-2.9c0-0.2,0-0.3,0-0.3
		c0,0,0-0.1,0-0.2c0.1-2.3,2.1-5.8-1.3-6.3c-2.7-0.4-2.3,3.5-3,5.5c-1.9,5.3-2.4,6.7-5.5,6.4l0-0.3c1.2,0.1,2.3-1.6,2.8-3.1
		c0.8-2.6,1.6-5.2,2.3-7.9C852.8,659.9,853.6,657.4,855.3,658.6z"/>
	<path class="st0" d="M847.2,664.1c0.8,1.4,0.7,3.3-0.2,4.8c-1,1.6-2.6,1.2-4,0.5c-4.3-2.2-8.6-2.7-13.1,0.8
		c-0.3-1.4,0.9-1.9,1.8-2.5c2.8-1.6,5.5-1.7,8.3-1c1.1,0.3,2.1,0.6,3.2,1c1.3,0.5,2.7,0.6,3.3-1.1c0.6-1.6-0.5-2.4-1.6-3.2
		c-1.7-1.3-2-0.5-2.6,1.2c-0.5,1.4-1.3,2.1-2.3,1.9c-0.6-0.1-1.2-0.6-1.8-1.4c-1.7-2.5-3.3-2.2-5.4-0.6c-1.9,1.4-3.7,1.3-5.2-0.7
		c-1.5-1.8-2.5-3.7-0.6-5.8c1-1.1,1.3-1.8,0.1-2.3c0.5-0.5,1.2-1.1,1.4-0.9c1.5,0.8,0.7,1.9-0.1,2.8c-1.1,1.4-3.5,2.2-1.1,4.8
		c1.8,2,3,2.9,5,0.7c2.8-3,4.8-2.2,6.2,1.2c0.3,0.8,0.6,1.7,1.7,1.2c1-0.4,0.9-1.2,0.3-2c-1-1.4,0.1-2.1,1-2.8c1.3-1,2.3-0.1,2.8,1
		C844.9,663.1,846.6,663.2,847.2,664.1z"/>
	<path class="st0" d="M847.2,672.5l0,0.3c-1.1-0.1-2.5-0.4-4.4-0.7c-3.5-0.7-7,0.3-10.5-0.4c-1-0.2-2.1-0.2-2.4-1.4
		c5.7,1.3,11.7-1,16.9,2.1C846.9,672.5,847.1,672.5,847.2,672.5z"/>
	<path class="st0" d="M844.9,663.4c1.1,0.8,2.2,1.6,1.6,3.2c-0.6,1.7-2,1.6-3.3,1.1c-1.1-0.4-2.1-0.8-3.2-1l0-0.2
		c0.9,0.2,1.8-0.5,2.3-1.9C842.9,662.9,843.2,662.1,844.9,663.4z"/>
	<path class="st0" d="M841.7,693c0.5,0.7-0.2,1.5-0.4,2.3c-1,4.1-4.1,7-5.9,10.7c-1.4,2.8-1.5,5.9-2.6,8.4
		c-1.9,4.4-2.2,7.8,1.2,11.3l0,0c0,0.1-0.1,0.2-0.1,0.3c-0.2,0.4-0.3,0.7-0.4,1.1c-1.3-1.4-2.1-3.2-3.5-4.7
		c-1.3-1.3-1.2-2.7-0.5-4.6c2.5-7.5,5.2-14.9,9.5-21.6c0.2-0.3,0.2-0.6,0.2-1.2c-5.6,0.3-9.5,4.2-14.3,6.2c0.4,0.5,0.8,0.9,1,1.4
		c-0.5-0.2-1.2-0.2-2,0c-0.9,0.2-1.7,0.2-1.8-0.9c-0.1-0.9,0.3-1.8,1.2-1.9c5.9-0.7,9.9-5.9,15.8-6.5
		C840,693.2,840.8,691.8,841.7,693z"/>
	<path class="st0" d="M834,728.5c0,1.5,0.1,3,0,4.4c-0.4,3.5-2,3.3-4,1.1c1-0.1,1.7-0.4,2.2-0.9c0.8-0.4,1-1,1-1.8c0,0,0,0,0,0
		C833.5,730.4,833.7,729.3,834,728.5z"/>
	<path class="st0" d="M833.1,729.7c0,0.5,0.1,1.1,0.1,1.6c0,0,0,0,0,0c-0.2,0.7-0.5,1.3-1,1.8c-0.4,0.2-0.9,0.3-1.7,0.3
		C831.5,732.3,832.4,731,833.1,729.7z"/>
	<path class="st0" d="M830.5,733.4c0.7,0,1.3-0.1,1.7-0.3c-0.5,0.5-1.2,0.8-2.2,0.9C830.2,733.8,830.4,733.6,830.5,733.4z"/>
	<path class="st0" d="M830.5,733.4c-0.2,0.2-0.4,0.4-0.5,0.6c0-0.2,0-0.3,0-0.5c0.1,0,0.3-0.1,0.4-0.1
		C830.5,733.4,830.5,733.4,830.5,733.4z"/>
	<path class="st0" d="M830.5,729.8c0.2,1.2-0.2,2.5-0.5,3.7c-0.2-2.6-0.4-5.2-0.7-7.9c-1.6-0.5-1.2,1.1-1.6,1.8
		c-0.7,1.1-1.5,1.8-2.8,0.9c-0.9-0.7-1.5-1.4-0.9-2.9c1.1-3.1,3.3-6,1.7-9.8c2.9,1.7,0.7,5.1,0.1,7.8c-0.2,0.8-0.6,1.6-0.4,2.8
		c1.5,0.4,2.5-2.5,4.1-1.1C831,726.4,830.3,728.2,830.5,729.8z"/>
	<path class="st0" d="M829.9,733.5c-0.1,0.2-0.2,0.5-0.2,0.7c-0.7,1.6-2.1,2-3.7,2c-7.5-0.1-15.1,0.4-22.5-1.3
		c-1.2-0.3-2-1.2-2.6-2.2c-0.4-0.7-0.9-1.7-1.5-2.1l0.4-0.6c0.6,0.4,1.3,0.7,2.1,1.1c2.9,1.3,5.8,2.8,8.7,3.1
		c6.1,0.7,12.3,1,18.4-0.4C829.3,733.7,829.6,733.6,829.9,733.5z"/>
	<path class="st0" d="M826.6,704.6c0.4,2.7-1.1,5.8-4.2,8c-1,0.7-3.5,0.6-1.5,3.2c0.8,1-1.3,2.4-1.8,3.3c1.9-1.4,3.6-5.1,6.4-3.5
		c-2.9,1.8-5.2,4.3-9.7,5.5c1.9-1.7,2.9-2.5,3.8-3.4c0.9-1,0.7-1.4-1-2.3c-0.5-0.3-0.9-1-1-1.6c-0.1-1.1,0.7-1.1,1.7-1.2
		c4.7-0.4,5.8-4.5,7.2-7.8C826.5,704.7,826.6,704.6,826.6,704.6z"/>
	<path class="st0" d="M822.4,651c0,0,0.1,0,0.1,0.1c-3.4,1.1-6.8,2.5-10.2,3.2c-3.1,0.7-5.3,1.8-6.2,4.9c-0.7,2.5-3.1,4.3-3.5,6.9
		c0.5,0.9,1.1,0.9,1.8,0.8c0.6-0.1,1.2-0.3,1.9-0.4l0.1,0.4c-0.4,0.1-0.8,0.2-1.1,0.4c-1.6,1.1-3.1,2.1-4.6,0
		c-1.7-2.4,1-3.1,1.6-4.5c0.8-1.8,2.5-3.1,2.6-5.3c0-0.7,0.6-1.5,1.1-2.2c0-0.1,0.1-0.1,0.2-0.2C808.3,652.8,819.6,649.9,822.4,651z
		"/>
	<path class="st0" d="M809.3,668.3c0.4,2.8-2,4.5-4.7,4.8c-2.6,0.3-5.3,0.1-7.4,2.1c0.4,1.4,1.5,1.2,2.5,1c1.1-0.2,1.9-0.4,2.5-0.4
		v0c-0.9,0-1.1,0.9-1.6,1.3c-2.6,1.8-5-0.2-5.9-1.7c-1.3-2.3,1.5-2,2.8-2.6c2.1-0.9,3.9-2.4,6.4-1.1c1.1,0.6,2.2-0.5,2.9-1.4
		c0.7-0.8,2.2-1.5,1.2-2.8c-0.4-0.6-1-0.7-1.7-0.6l-0.1-0.4C807.7,666.3,809,666.4,809.3,668.3z"/>
	<path class="st0" d="M802.2,675.8c1.8-0.2,1.8,0.5,0.9,3.4c-0.3-0.1-0.7-0.1-1.1-0.2c0,0.1,0,0.1,0,0.2c-0.1-0.1-0.1-0.1-0.2-0.2
		c0.3-1,1.3-1.9,0.7-3.2C802.4,675.8,802.3,675.8,802.2,675.8L802.2,675.8z"/>
	<path class="st0" d="M797.7,697.8c-0.7,3.4-1,6.8-1,10.4C796.7,704.7,797.2,701.3,797.7,697.8z M797.7,697.7
		c0.2-1.1,0.5-2.3,0.8-3.4c-0.3,0.5-0.4,1.2-0.5,1.9C797.8,696.7,797.8,697.2,797.7,697.7z M798.5,694.3c0.2-0.3,0.5-0.6,1-0.6
		l0,0.3c-0.4,5.3-2.4,10-1.4,15.1c0.2,1,0.6,1.9-0.6,2.5c-0.4,0.2-1,0.3-1.4,0.1c-1.4-0.6-0.3-1.6-0.4-2.5c-0.6-9.9,2.8-19,5.9-28.2
		c0,0,0,0,0.1,0c0.2-0.1,0.5-0.3,0.6-0.4c0.9,1.4,0,2.8-0.5,4C800.4,687.8,799.3,691,798.5,694.3z"/>
	<path class="st0" d="M1360.5,734.3c2.1,0.4,4.5-0.1,6.5,1.7c-21.3,0-42.5,0.2-63.8-0.1c-8-0.1-16.4-0.8-20.5-9.8
		c-0.2-0.5-1-1-1.5-1c-4.2-0.2-6.2-1.1-2.1-5c0.2-0.2,0.3-0.4,0.3-0.6l0.6,0c0,0.3,0,0.6,0,0.9c0.1,0.9-0.9,2.1,0.4,2.6
		c4,1.3,5.6,5.1,8.4,7.6c4.5,4,10.1,3.2,15.2,3.4C1322.8,734.6,1341.7,734.3,1360.5,734.3z"/>
	<path class="st0" d="M1277.5,711c3.4,1.7,2.5,5.4,2.5,8.5l-0.6,0c0-1.1-2.7-2.3-1.2-4.7c1.8-3-2.2-2.3-4-2.9
		c-0.9-0.3-1.7-1-2.4-1.7c-7-7.3-14.8-13.9-21.5-21.5c-1.5-1.7-1.7-3.9-2.6-5.7c-2.9-6.1-8.5-11.3-7.7-19c0-0.3,0-0.5,0-0.8l0.5-0.1
		c0.6,2.7,1.6,5.3,2.6,7.7c4.5,10.4,10.6,20.1,19.1,27.7C1267.1,702.8,1271.4,707.9,1277.5,711z"/>
	<path class="st0" d="M1183.3,608.9l-0.1,0.2c-1.4-0.8-3.3-0.2-4.8-0.7c-4.9-1.6-9.8-4.6-15.5-2.6c-4.5,1.6-8.3-1.4-11.7-3.6
		c-2.6-1.7-4.3-4.7-6.4-7.2c0,0,0,0,0,0c0.1-0.2,0.2-0.4,0.4-0.6c0.3,0.1,0.5,0.1,0.8,0.3c2.1,1.7,3.5,4,5.5,5.7
		c3.6,3.1,7.5,4.6,12.6,4.1C1170.9,603.7,1177.3,605.5,1183.3,608.9z"/>
	<path class="st0" d="M1140,591c-0.1,0.1-0.3,0.2-0.4,0.3c-0.2-0.2-0.4-0.3-0.6-0.5c-0.8-1.7-2-3.2-3.1-4.7
		C1137.4,587.5,1138.5,589.5,1140,591z"/>
	<path class="st0" d="M1139.3,591.5c0,0.1,0.1,0.3,0.1,0.4c-0.2,0.3-0.4,0.7-0.6,1c0-0.1-0.1-0.3-0.1-0.4
		C1138.7,592.1,1139,591.8,1139.3,591.5z"/>
	<path class="st0" d="M1139,590.8c0.1,0.2,0.2,0.5,0.3,0.7c-0.3,0.3-0.6,0.6-0.6,1c-1-2.9-3.9-4.8-4.6-7.9
		C1135.8,586.6,1137.1,589,1139,590.8z"/>
	<path class="st0" d="M1135.9,586c1.1,1.6,2.3,3,3.1,4.7c-1.9-1.8-3.2-4.1-4.9-6.2C1134.8,585,1135.4,585.5,1135.9,586z"/>
	<path class="st0" d="M1008.2,588.6c-0.6,2.5-3.4,2.9-4.8,4.8c-3.5,4.8-0.8,10.7-2.9,15.8c-0.4,1,2.3,3.4,3.6,5
		c2.1,2.5,2.7,4.9-0.2,7.3c-0.4,0.3-1,0.9-1.2,1.4l-0.3-0.1c2-4.3,2.3-8.2-1.9-11.8c-0.6-0.5-1.1-1.4-0.9-2.3
		c1.4-6.6-0.9-14.4,6.3-19.2c-1.9-1.9-4.8,0-5.9-2.4C1002.6,588.5,1005.8,586.4,1008.2,588.6z"/>
	<path class="st0" d="M1000.3,612.1c0.6,1.6,2.8,2.5,2.1,4.6c-0.1,0.3-1,0.7-1.2,0.6c-1.6-1.4-2.6-3.2-1.9-5.6
		C999.8,611.9,1000.2,611.9,1000.3,612.1z"/>
	<path class="st0" d="M892.3,713.1c-0.3-0.2-0.5-0.5-0.7-0.8c-0.7-7.6-5.1-13.3-9.1-19.3c1.1,1.4,2.5,2.6,3.3,3.6
		C890.3,701.6,891.4,707.3,892.3,713.1z"/>
	<path class="st0" d="M881.8,691.9c-0.2-0.2-0.3-0.5-0.5-0.7c-1-1.5-0.8-3.1-0.9-4.8c-0.3-4.4-1.8-5.5-6.2-4.4
		c-0.9,0.2-1.7,0.4-2.3-0.3c-0.1-0.1-0.1-0.1-0.1-0.2l0,0c2.6-0.3,4.7-4.8,7.3-0.6c1.5,2.4,2.6,4.5,2,7.8
		C880.9,689.8,881.2,690.9,881.8,691.9z"/>
	<path class="st0" d="M879,668.1c1.2-1,3.4-2.1,2.4-4.4c-0.5-1.2-1.8-2.1-3.1-2.3c-2.5-0.3-2.8,2.1-3.6,3.5c-2.4,4.2-3.3,9-4.9,13.5
		c-0.7,2.1-0.9,5-3.5,4.4c-0.2,0-0.3-0.1-0.4-0.1v0l0.1-0.2c0.3,0.1,0.6,0,1-0.2c0.9-0.7,1.1-1.7,1.4-2.9c1.2-4.9,2.1-10.2,4.6-14.5
		c3.5-6.2,4-5.9,11.6-0.2c-6.1,4.1-9.4,10.2-12.7,16.9l0,0c-0.5-0.7-0.3-1.5,0.1-2.1C874.3,675.7,875.3,671.1,879,668.1z"/>
	<path class="st0" d="M864.7,661c3-0.5,5-2,4.3,3.4c-0.7,5-2.7,9.4-3.7,14.2c-0.2,1.1-1,2.1-0.1,3.3c0.2,0.3,0.5,0.5,0.7,0.5
		l-0.1,0.2c-2.7-0.8-1.3-3.5-0.9-5.7c0.8-3.7,2.6-7.2,3-11c0.1-1.3,1.1-3.4-1-3.9c-2-0.5-3.4,1-4,2.9c-0.5,1.4-0.5,3-1.5,4.2
		c-0.9,1-1.9,2.2-3.3,1.6c-0.1,0-0.2-0.1-0.3-0.1c1.9-1.2,3-2,3-4.6C861,664.1,861.5,661.5,864.7,661z"/>
	<path class="st0" d="M833.6,727.2c0.2-0.2,0.4-0.5,0.6-0.7c0,0.2-0.1,0.5-0.1,0.7c0,0.3,0,0.6,0,1c0,0.1-0.1,0.2-0.1,0.3
		c0-0.2,0-0.3,0-0.5c-0.3,0.6-0.6,1.2-0.9,1.7c-0.1-0.9-0.2-1.7,0.3-2.3c0-0.1,0-0.2,0.1-0.3C833.5,727.1,833.6,727.2,833.6,727.2z"
		/>
	<path class="st0" d="M803.1,679.2c-0.1,0.2-0.1,0.5-0.2,0.7c-0.3-0.3-0.6-0.5-0.9-0.7c0-0.1,0-0.1,0-0.2
		C802.4,679.1,802.8,679.1,803.1,679.2z"/>
	<path class="st0" d="M802.9,679.9C802.9,679.9,802.9,680,802.9,679.9c-0.2,0.3-0.4,0.5-0.6,0.7c-0.1-0.2-0.2-0.3-0.4-0.5
		c0,0,0-0.1,0-0.1c0-0.2,0-0.5,0-0.7C802.3,679.4,802.6,679.7,802.9,679.9z"/>
	<path class="st0" d="M802,680c0.2,0.2,0.3,0.3,0.4,0.5c-0.2,0.2-0.4,0.3-0.6,0.4c0,0,0,0-0.1,0C801.7,680.7,801.8,680.4,802,680z"
		/>
	<path class="st0" d="M1128.7,579.4c-0.1,0.2-0.1,0.4-0.2,0.5c-0.8,0.5-1.7,0.8-2.5,0.9c0-0.1,0-0.2,0-0.2c0-1,0.1-1.9,0.1-2.6
		C1126.4,578.8,1128,578.7,1128.7,579.4z"/>
	<path class="st0" d="M1126.1,578c0,0.7,0,1.6-0.1,2.6c0,0.1,0,0.2,0,0.2c-0.3,0-0.7,0.1-1,0.1c-0.1,0-0.1-0.1-0.2-0.1
		c-0.5-0.9-0.3-1.8-0.2-2.8c0.2-2.7,0.2-4.8-3.7-2.9c-3.7,1.9-7.4,0.9-10.1-2.4c-0.8-1-1.7-2-2.7-1.3l-0.1-0.2
		c0.3-0.2,0.6-0.4,0.9-0.6c1-0.8,2.4,0.7,3.3,1.7c2.1,1.9,4.5,2.7,7.3,2.2c5.2-1,6.4-1,6.6,2.8C1126,577.6,1126,577.8,1126.1,578
		L1126.1,578z"/>
	<path class="st0" d="M1108,571.2l0.1,0.2c-0.2,0.1-0.3,0.2-0.5,0.4c-2.3,2.6-5.3,2-9,3c2.9-3.7,0.6-4.7-1.7-5.8v0
		c0.3-0.6,0.8-0.6,1.4-0.5c0,0,0.1,0,0.1,0c0.1,0,0.1,0.1,0.2,0.1C1101.4,571.6,1104.2,573.5,1108,571.2z"/>
</g>
<g id="Layer_7">
	<path class="st1" d="M1171,471.2c1,1.5,1.1,3.2,0.9,5c-12.3,2.7-24.5,5.8-36.8,8.6c-1.7-1-3.5-1.9-5.3-2.7
		c-0.4-1.4,0.3-2.8-0.6-4.3c-2.7-4.2-2.6-4.3,2.1-4.9c2.7,0.3,2.2,2.8,2.8,3.9c-1.2-0.7,0.7-4.8-3.4-3.5c-2.7-0.8-5-0.9-4.7,3
		c0.1,1.4,1.1,3.4-0.7,4c-2.3,0.7-2.2-1.8-2.9-3.2c-0.3-0.6-0.6-1.2-1.2-1.5c-0.9-0.1-1.3,0.6-1.8,1.1c-5.3,0.1-8.2-3.7-11.4-7.1
		c-2.1-3-1.1-7.9-5.5-9.5c-3.8-3.4-3.8-3.4,1-5.9c1.5-1-0.3-4.2,2.6-4c1.2,0.1,3.1,0.1,3,2.3c0,0.6,0.3,1,0,0.4c0,0,0.2-0.1,0.5-0.3
		c-0.7-2.6-5.3-3.1-4.1-6.8c0.1-0.2-0.1,0.1-0.2,0.2c-1.9,2.7-3.4,1.1-5-0.4c-0.6-2,2.8-3.1,1.4-5.3c4.8-2.2,10.2-1.9,15.3-2.8
		c3.4,1,7.3-0.5,10.4,2c2.9,0.2,4.8,1.9,6.4,4c2.5,3.3,5.4,5.6,10,3.9c2-0.7,4.2-1,6.3-1c3.6-0.1,7.5-0.9,9.8,3.1
		c0,1.4-1.1,1.9-2.1,2.5c-0.8,0.4-1.7,0.8-2.6,0.9c-5.4-0.1-4.2,3.5-4,7.3c2.8-2.1,5.6-1.2,8.2-1.3c1.3-0.2,2.6-0.1,3.9-0.6
		c2.3-0.6,3.1-2.2,3.1-4.4c0-2-0.2-3.9,0.3-5.8c0.3-0.1,0.8-0.4,0.8-0.4c3.2,3.4-0.5,8.2,2.5,11.8c0.9,1.1-1.7,1.6-2.3,2.7
		c0.3,0.2,0.4,0.5,0.3,0.8c0,0.3-0.1,0.4-0.2,0.4c-3.1,1.2-3.1,1.2-2.1,5.3c-0.2-1.9-1.6-3.6,0.3-4.4c1.3-0.6,1.8,1.1,2.4,2
		c0.4,0.7,0.7,1.5,1.3,2C1170.6,469.1,1171.8,469.8,1171,471.2z"/>
	<path class="st1" d="M1129.8,482c1.2,1.1,5.4-3.6,4.2,2.2c0.3,2.1-1.8,2.6-2.6,3.9c-1.1,1.9-3.2,3.8-0.4,6
		c-10.1,3.8-17.8-0.9-19.8-12.4c-0.7-3.8-1.2-5.5-5.6-3.2c-4.9,2.6-10.1,0.3-12.4-4.9c-1.7-3.8-2.3-7.8-1.7-12
		c0.8-5.1,1.6-10.1,3.2-15c1.1-3.5,3.1-6.2,7.2-6.5c1.9,0.2,4.3,0.1,1.4,2.7c-0.8,0.7-1.9,1.1-2.4,2.2c-0.6,1.3-0.4,2.8-0.6,4.2
		c-0.2,1.6-0.7,3.8,2.6,3c2.1-0.5,2.1,1.3,2,2.8c-0.6,1.4-7.1,0.1-1.9,4.1c0.2,0.8-0.1,1.7-0.3,2.5c-0.9,4.5-2.1,4.9-5.7,1.8
		c-0.5-0.4-1-0.9-2-0.5c-0.3,3.2,0.5,6.2,2.5,8.8c1.7-0.3,1.4-1.5,1.8-2.4c1.1-2.6,2.9-3.4,4.9-1.2c1.5,1.7,3,1.9,4.8,1
		c2.1,3.5,6.3,4.4,9,7.3c0.4,0.5,0.7-0.7,0.9-1.3c3.6,0.9,1.8,4.5,3.2,6.4C1124.8,481.3,1127.5,479.3,1129.8,482z"/>
	<path class="st2" d="M1170.8,452.4c0.7-1.7-1.3-4.4,2.1-5.2c3.1-0.7,3.5,1.8,4.7,3.5c0.9,1.2,1.8,2.5,2.3,3.8
		c0.4,1-1.1,1.8-1.3,1.5c-2.5-3.8-5.6,4-7.7-0.5C1170.5,454.6,1170.8,453.5,1170.8,452.4z"/>
	<path class="st3" d="M1167,447.9c3,6.5,1.5,10.7-4,11.4c-3.2-1.8-4.1-5-4.8-8.2c0.1-1.3,1.6-1.1,2.1-1.8c2.3,0.9,2.6,3.6,4.2,5.2
		C1166,452.4,1163.1,448.8,1167,447.9z"/>
	<path class="st4" d="M1170,462.1c1.8,1.3,5.1-5.2,6,1.1c0.5,3.4,1.5,7.1-4,7.1C1170.6,467.7,1168.7,465.3,1170,462.1z"/>
	<path class="st5" d="M1170,462.1c0.6,2.7,2.4,5.2,2,8.1c-0.3,0.3-0.7,0.6-1,0.9c-0.5-0.7-1-1.3-1.5-2c-1.5-1.9-1.2-4.2-1.6-6.3
		c0-0.3,0-0.5,0.1-0.8C1168.7,462.1,1169.4,462.1,1170,462.1z"/>
	<path class="st1" d="M1127.7,439.2c-3.4-1-7.1-0.4-10.4-2C1120.8,437.3,1124.7,435.6,1127.7,439.2z"/>
	<path class="st6" d="M1109.1,469.1c-1.4,3.2-3,4.7-5.1,0.5c-0.5-1-0.7-2.3-2.3-1.9c-1.9,0.4-1.7,1.6-1.2,3c0.8,2.2-1,2.4-2.4,2.9
		c-1.9,0.8-2.2-0.6-2.6-1.9c-0.8-2.7-1.7-5.4-2.5-8c-0.4-1.3-0.2-2.2,1.3-2.6c1.3-0.3,2.5-1,3.4,0.7c0.7,1.2,0.2,3.8,2.9,3
		c2.7-0.8,0.3-2.8,0.9-4.1c0.2-0.5,1-0.8,1.5-1.2c2.1-0.5,3.2,0.3,3.7,2.5C1107.4,464.2,1108.4,466.6,1109.1,469.1z"/>
	<path class="st7" d="M1116.6,457.3c3.6,0.1,7,3.6,7,6.8c0,3.1-4.1,6.2-7.8,6.1c-3.1-0.1-6.9-4.3-6.6-7.4
		C1109.7,458.1,1113.6,458,1116.6,457.3z"/>
	<path class="st8" d="M1139.8,468.6c3,1.1,2.1,3.7,3.7,4.8c0.7-0.3,0.3-0.9,0.4-1.5c0.2-1.4-2.7-3.4,1-4c3.2-0.6,6.1-1.1,6.8,3.3
		c0.5,2.9-0.5,2.8-3.3,4.6c-2.4,1.6-5.1,1.3-7.4,3.1C1140.7,475.3,1140.3,472.2,1139.8,468.6z"/>
	<path class="st9" d="M1105,455.1c-0.8,0.1-0.4-3.4-2-0.7c-0.7,1.3-1.9,0.8-2.4,0.3c-1.7-1.4-1.4-3.8-2.3-5.6c2-0.7,0.4-3.6,2.6-4.1
		c1.8,0.1,3.8,1.7,5-1.1c0.4-0.9,1.5-0.2,2,0.4c0.2,0.3,0.3,1.1,0.1,1.3c-3.2,2.3-1.1,3.4,1.1,4.2c1.2,0.4,2.2,0.7,2,2.3
		c-0.1,1.1-0.9,1.8-1.8,2.1c-0.8,0.3-1.8,0.3-2.1-0.6c-0.5-1.4,0.5-1.2,1.3-0.9c0.7-2.9-2.3-0.9-2.9-2.2
		C1104.2,451.8,1107.7,453.9,1105,455.1z"/>
	<path class="st10" d="M1129.8,482c-2.8-1.2-5.3,0-7.9,0.9c0-3-2.4-5.7-0.9-8.8c0.8-1,1.5-1.3,2,0.1c0.6,1.7,1,3.4,1.5,5.1
		c2.1-2-2.6-4.8,0.6-6.5c1.8-1,4.1-2.7,5.9,0.3l-0.1-0.1c0,0.2-0.1,0.3-0.1,0.5c0.4,3.2-2.6-0.5-2.7,1.3c-0.1,2.7,3,1.5,3.7,2.9
		C1133,479.8,1131.1,480.9,1129.8,482z"/>
	<path class="st11" d="M1160.3,459.1c-0.6,1.6-1.7,2-3.1,0.9c-1.5-1.1-2.9-1-3.9,0.4c-0.8,1-1.4,2.1-2.7,1.4
		c-1.3-0.7-0.5-2.1-0.6-3.1c-0.1-1.2,0-2.3,0-3.5c0.3-4.7,1.2-5.2,5.9-3.2C1158.6,453.7,1160.3,455.9,1160.3,459.1z"/>
	<path class="st12" d="M1130.1,455.3c2-0.2,3.1-0.4,3.5,0.8c0.4,1-0.3,1.4-1.1,1.9c-2.6,1.4-0.4,3.2-0.2,4.7c0.2,1.6,1.3,3.2-1.2,4
		c-2.7,0.8-2.4-1.6-3-2.9c-0.9-1.9-0.3-4.9-4-4.4c-0.8,0.1-1.3-1-1.2-1.9c0.1-1.1,0.9-1.2,1.8-1.3
		C1126.8,455.8,1129,455.5,1130.1,455.3z"/>
	<path class="st13" d="M1121,450.3c-0.6-2.3-1.3-4.7-1.9-7c2.1,0.4,4.8-0.2,4.9,3.2c0.1,1.6,0.5,3.2,0.8,4.8
		c-2.6-0.5-4.8,0.9-7.2,1.4c-1,0.2-1-0.7-1.1-1.2c-0.4-2.7-0.6-5.4-1-8.6c2.2,1,2.2,2.6,2.8,3.8c0.7,1.3,1.3,2.6,1.9,4
		C1120.5,450.5,1120.7,450.4,1121,450.3z"/>
	<path class="st14" d="M1148.7,461.6c-0.8,1.9-2.6,1.3-3.9,1.7c-1.4,0.4-2.9,1.2-3.6-1.1c-0.6-2.2-1.3-4.4-2-6.6
		c-0.3-1.1-0.1-1.9,1.1-2.3c1.5-0.5,2,0.3,2.5,1.6c0.9,2.5,0,6.8,5.1,5.6C1148,460.5,1148.4,461.2,1148.7,461.6z"/>
	<path class="st15" d="M1160.9,471.5c0.3,2.4-2.4,2.3-2.5,2.2c-2.5-1.4-3.1-4.2-3.5-6.5c-0.4-2.4,3.3-0.2,4.1-2.2
		C1161.6,466.7,1159.1,469.8,1160.9,471.5z"/>
	<path class="st16" d="M1160.3,459.1c-1.4-2.4-2.9-4.7-4.3-7.1c0.5-0.8,1.2-1,2.1-1c2.3,2.3,3.4,5.4,4.8,8.2
		C1162,460.6,1161.2,459.5,1160.3,459.1z"/>
	<path class="st8" d="M1167.9,462.8c1.9,1.8,1.8,4,1.6,6.3c-2.8-0.3-0.7-3.7-3.2-4.5c-1.1,2.3,1.8,4.4,0.5,6.6
		C1162.6,464.3,1162.6,463.8,1167.9,462.8z"/>
	<path class="st13" d="M1128,451.6c-2.9-2.7-2.2-6.3-4.1-8.7c-0.6-0.8,0.7-1.2,1.4-1.4c0.6-0.1,1.7-0.1,1.5,0.7
		C1126.2,445.3,1128.7,448,1128,451.6z"/>
	<path class="st17" d="M1114.2,454c-2.3-3-1.5-6.4-3.9-8.5c-0.7-0.7,0.1-1.4,1-1.6c0.8-0.2,2.2-0.3,1.9,0.4
		C1112.1,447.5,1115.3,450,1114.2,454z"/>
	<path class="st18" d="M1131.1,473.1c-0.3-1.6,0.7-2.1,2-2.1c1.7,0,1,1.3,1,2.1c0,2.4,1.9,4.4,1.2,7.2
		C1132.4,478.5,1134.2,474.3,1131.1,473.1C1131,473.1,1131.1,473.1,1131.1,473.1z"/>
	<path class="st19" d="M1161.2,464.6c2.3,1.4,2.1,4.1,3.3,6c0.7,1.1,0.5,1.5-1,1.6c-1,0.1-1.8,0.8-1.6-0.8
		C1162.1,469.1,1160.3,467,1161.2,464.6z"/>
	<path class="st20" d="M1121,474.1c-0.6,3,1.7,5.8,0.9,8.8c-0.8,0.2-2.7,0.2-2.2-0.3c2.9-3-0.2-5.1-0.7-7.5
		C1119.2,473.8,1120.1,474,1121,474.1z"/>
	<path class="st16" d="M1119.1,463.7c-0.1,1.6-0.8,2.7-2.4,2.6c-1.7-0.1-2.6-1.3-2.7-2.9c-0.1-1.5,0.7-2.7,2.1-2.8
		C1118.1,460.5,1118.9,462,1119.1,463.7z"/>
</g>
</svg>
