<?xml version="1.0" encoding="utf-8"?>
<!-- Generator: Adobe Illustrator 20.1.0, SVG Export Plug-In . SVG Version: 6.00 Build 0)  -->
<svg version="1.1" xmlns="http://www.w3.org/2000/svg" xmlns:xlink="http://www.w3.org/1999/xlink" x="0px" y="0px"
	 viewBox="0 0 1366 735" style="enable-background:new 0 0 1366 735;" xml:space="preserve">
<style type="text/css">
	.st0{fill:#0D0D0D;}
	.st1{opacity:0.6;fill:#FEEA39;}
	.st2{fill:#FEEA39;}
	.st3{display:none;}
</style>
<g id="Layer_2">
	<path class="st0" d="M808,736c-267.7,0-535.3,0-803,0c-1.4-1.8,0-3.1,0.8-4.5c2.5-4.5,5.4-8.8,8.1-13.2c1.5-2.1,2.9-4.4,4.8-6.2
		c2.1-2,4.5-2.5,7.3-2.2c6.9,0.8,11.1-3.9,9.6-10.6c-1.1-4.6-1-9.2-1-13.8c0-23,0-46.1,0-69.1c0-3.3,0-6.6,0-10c0-1.4,0-2.9,0-4.3
		c0.3-1.8-0.4-4.9,2-4.8c2.1,0.1,1.7,3.2,1.8,5.1c0.2,7.3-0.2,14.6,0.4,21.9c0.3,3,1.3,5.1,4.1,6.1c2.5,3.4,1.2,7.3,1.4,11
		c0.3,6.6,0.9,7.5,7.4,7.5c3.3,0,6.6,0.1,9.8,0.9c2.8,0.9,5.6,1.2,8.4-0.1c4-4.9,7.7-9.9,7-16.8c-0.1-0.8,0.3-1.6,0.9-2.2
		c2.9-1,2.9,1.8,4.1,3.1c2,2.6,4.4,4.4,8.1,3.7c1.8-0.3,3.6,0.5,5.2,1.5c2.3,1.3,4.7,1.7,7.2,0.8c0.4-0.1,0.9-0.2,1.3-0.2
		c4.4,0.5,6.6-1.6,7-5.9c1.6-0.7,2.5,0.1,3,1.5c0.4,1.3,0.8,2.5,2.1,3.1c1.5,1,2.8,0.8,4.1-0.4c5.5-11.7,11.5-23.3,16.1-35.4
		c1.3-3.5,4.1-4.8,7.4-4.8c8-0.2,15.9-1.1,23.9-1.3c13.3-0.3,26.5-1.6,39.8-1.9c9.2-0.5,18.3,0.9,27.4,0.3c18,1,35.6-3.9,53.6-3.7
		c11.8,0.2,23.8-1.3,35.6-3.3c5.3-0.9,10.6,0.1,15.9-0.1c11,1,22-2.1,33-0.8c2.6,0.8,2.5,3,2.9,5.1c0.6,3.9-0.5,8.2,2.5,11.6
		c0.3,1,0.4,1.9-0.8,3c2.5-1.7,0.7-3.4,0.6-5c-0.1-1.3-0.2-2.9,1.2-3.5c1.6-0.6,2,1.1,2.7,2.2c0.6,2.7,1,5.5,1.1,8.2
		c-0.2-3.8-0.5-7.5-1.1-11.3c-0.8-5.5,0.2-6.8,5.5-7.8c0.3-0.1,0.7-0.1,1-0.2c10.4-2,10.4-2,10.3,8.5c0.1-0.1,0.2-0.3,0.2-0.4
		c0.4-2.1-1.3-5.8,1.5-6c3.3-0.3,2.8,3.8,3.5,6.2c0.7,2.3-0.3,4.7,0.7,6.8c-0.1-3.6-0.6-7.3-1.2-10.9c-0.3-2-0.1-3.6,1.9-4.7
		c2.1-1.1,4.1-1.6,6,0.1c2.2,2,4.9,3.5,6.9,5.7c1.7,1.9,3.6,2.2,5.8,2.1c3.5,0,6.9,0.2,10.3-0.1c0.3-0.3,0.1-0.5-0.3-0.7
		c-2.4-1.4-5.8-2.7-5.1-5.9c0.7-3.3,4.4-1.8,6.8-2.3c1-0.2,1.9-0.6,2.9-0.7c4.5-0.5,9,0,13.4-0.3c4.2-0.3,8.7,0.5,12.1-3
		c0.7-0.7,1.8-0.9,2.8-0.8c5.7,0.4,11.2-1.1,16.8-1.1c9.6-0.1,19.2-0.9,28.7-1.7c4.2-0.3,8.7-1.4,12.5,1.7c0.9,0.7,1.9,0.3,2.9,0.2
		c8.1-0.4,16.3-0.1,24.4-0.2c3.9-0.1,6.6,0.7,7.3,5.4c0.7,4.9,2.7,1.8,4.2,0.2c5-2.5,3.7,2.5,5.1,4.5c0-1.2,0.3-2.1,1.1-2.8
		c0.4-0.2,0.9-0.2,1.3,0.1c1.1,1.7,0.6,3.8,1.2,5.6c0.2,0.6,0.8,0.7,0.3,0.2s0.7-0.1,0.2-0.5c-0.2-0.1-0.1-0.6-0.3-0.9
		c-0.9-2.7-1.3-5.5-0.8-8.3c0.5-2.8,3-3.9,4.5-1.8c2.5,3.3,4.1,3,6.1-0.2c0.5-0.7,1.4-0.9,2.2-0.8c4.5,1.4,3.3,5.5,3.7,8.6
		c0.2,1.6,0.3,2.3,2,1.4c4.2-0.7,1.2-3.3,1.4-5.1c-0.7-3.9-2.6-7.6-2.3-11.7c0.3-3.3,1.5-5.2,5.2-5.4c3.1-0.1,6.3-0.2,9.4-0.2
		c3.1,1.9,6.3,3.8,10.1,1.7c6.5-1.3,13.2-1.6,19.5-4c2.1-0.8,4.3-0.6,6.4-0.2c7.6-0.3,15.2-2.1,22.9-1.9c5.5,0.2,10.5,1.6,14.8,5.2
		c6.2,5.2,5.9,14.7-0.6,19.4c-2.9,2.1-5.9,4.4-9.5,5.3c-3.3,0.8-3.7,3.4-3.6,6.2c0.1,2.9,1.7,4.2,4.3,4.7c7.3,1.4,14.5,1.2,21.3-2.3
		c5.4-2.7,11.3-5.1,17-5.2c11.9-0.2,20.7-5.7,29.7-12.5c6.8-5.2,14.6-9,24.1-6.7c11.4,2.8,18.9,12.4,17.5,25.7
		c-0.5,4.3-0.6,8.7-2.7,12.6c-0.3,0.6-0.7,1.4-0.5,1.9c3.7,8.7,1.4,18.9,6.9,27.3c3.3,5,5.9,10.3,2.7,16.8
		c-1.8,3.7,2.7,11.6,7.2,14.4c1,0.6,2.1,1.1,3.1,1.7c4.2,2.5,4.2,3,0.9,6.3c-0.7,0.7-1.4,1.4-1.5,2.5c-0.2,7.5-2.7,14.7-2.7,22.3
		c0,2.4,0.8,4.2,2.4,6.2c4,5.3,7.6,11,13,15.1C807.8,733.2,808.6,734.5,808,736z"/>
	<path class="st0" d="M1289,736c-152,0-304,0-456,0c-2.4-5.6,0.1-10.7,1.5-16c0.5-2,2-3.7-1.2-5.2c-2.2-1-1.1-3.6,0.2-5.2
		c4.3-5.3,7.6-11.4,11.8-16.7c2.3-3,6.1-4.4,8.9-7.2c2.2-2.2,6.7-2.7,10.3-0.5c1.2,0.7,2.4,1.3,3.8,1c5-1.2,8.2,1.4,10.9,5.2
		c0.7,1,1.4,2,2.5,2.4c6.4,2.5,8.8,7.7,9.8,13.9c1,6.1,5.3,9.4,10,12.3c3.7,2.3,7.4,2.2,11.1-0.6c6.1-4.8,9.1-12.3,7-19.8
		c-3.1-11.1-2.2-22.1,1.5-32.9c4.1-12.2,18-18.2,28-12.6c4.1,2.3,5.7,6.4,7.7,10.1c3.3,6,12.9,7.6,18.1,2.9c1.7-1.5,1.8-3.5,1.7-5.5
		c-0.2-3.3-1.1-6.5-2-9.8c-2.4-7.9-0.1-18.1,5.5-21.9c4.9-3.3,10.9-3.6,16.7-4c1.6-0.1,4.1,0.9,4.3-1.1c0.3-3.4,5.5-6.3,1.8-9.9
		c-3.5-3.5-3.8-7.8-4.7-12.1c-0.6-3,2.3-4.7,2.3-7.4c-0.1-3.3,1.8-4.8,5.4-5.6c-2.3-1.5-5,0-6.1-2.3c0.2-2,1.9-2.4,3.3-3.1
		c2.6-1.2,4.5-3.1,6-5.4c1.8-4.1,1.6-8.6,2.5-12.9c0.8-3.9-0.8-6.3-4.8-6.9c-1-0.2-1.8-0.7-2.8-0.8c-1-0.2-1.9-0.5-2.9-0.4
		c-1.9,0.3-3.6,0.4-4.2-2c-0.5-2.2-0.2-3.9,2.2-4.7c1.5-0.4,3-0.8,4.4-0.6c4.3,0.5,5.9-1.6,5-5.5c-1-4.7-0.4-9.6-1.6-14.3
		c-1-11.4-0.4-12.1,10.8-13.2c0.8-0.1,1.7-0.1,2.4-0.4c6.7-1.3,13.6-0.8,20.3-2.4c1.3-0.3,2.4,0.3,2.9,1.4c1.2,2.5,3.4,4,5.1,6
		c6.9,9.6,15.3,17.9,23,26.8c2.2,1.4,5.2,1.2,7,3.4c2.8,2.4,4.7,5.7,7.2,8.4c0.9,2,3.8,3.3,2.5,6.3c-2.4,0.4-3.4,1.9-3.2,4.2
		c0.2,2.2,1.5,3.8,3.8,3.8c2.5,0.1,4.3,1.4,6.2,2.9c4,3.2,8.5,3.9,13.5,2.8c5.1-1.2,10.2,0.7,15.3,0.6c1.3,0.4,2.4,1,3.8,0.9
		c6.6-0.5,10.5,3,12.9,8.8c-0.3,1.9-1.5,4.1,1.7,4.9c1.6,4.4,5.1,6.9,9,9c5.6,3.1,11.9,5.3,14.7,11.9c0.5,1.2,2,0.9,3.1,1.2
		c7.3,2.5,14.9,3,22.1,6.9c6.5,3.5,13.8,7.4,22,6.9c3.2-0.2,6.4,0.9,9,2.7c2.4,1.6,4.9,1.9,7.6,1.6c0.8,0.1,1.4,0.4,2,0.9
		c1.8,2.3,3.7,4.4,5.4,6.7c0.9,2.1,2,4.2,3,6.3c0.6,1.4,1.6,3,0.9,4.3c-1.8,3.2,0,5.9,0.3,8.8c0.8,9.2,7.6,15.4,10.6,23.4
		c0.9,2.3,3.9,3.5,5.7,5.5c5.1,5.4,10.5,10.5,15.6,16c1.1,1.2,2.5,1.6,3.9,2.2c1.4,0.6,2.8,1.4,3.2,2.9c1.8,6.1,4.8,11.5,8.9,16.4
		C1290.6,731.5,1290.8,733.9,1289,736z"/>
	<path class="st0" d="M945.3,543.9c-3.7-0.4-4.3-2.2-3.3-5.7c1.7-5.6,1.2-11-2.9-15.8c-3.2-3.8-7.7-4.2-12-5.5
		c-1.4-2.9-0.6-6-0.6-9.1c-0.1-3,2.3-3.1,4.5-3.2c7.7,0.3,15.3,1.7,23,1.9c9.6-0.6,19,1.5,28.6,1.1c3.3-0.1,6.6-0.1,9.8-0.8
		c1.9-0.4,4-0.5,5.6,1.1c1.3,0.1,2.6,0.5,3.9,0.4c2.9-0.2,3.5,1.3,3.7,3.9c0.6,6.9-0.6,13.9,1.5,20.7c-0.8,4.3,0.9,8.5,1,12.7
		c0.1,3.3-0.1,6.1-4.8,4.7c-1.3-0.4-2.9,0.4-4.3,0.7c-1,0-1.8-0.3-2.3-1.4c-5.4-11.1-14.5-14.9-26.5-10.7c-2.8,1-3.8-2.2-6-2
		c-1.9-0.3-3.8,0.2-5.8-0.2c-5.9-1.1-9.5,1.1-11.9,6.9C946.2,544.1,945.8,544.2,945.3,543.9z"/>
	<path class="st0" d="M859,548.9c-1.1,0.4-3,1.3-3.1,1c-3.2-4.9-4.6-0.4-6.8,1c-6.5,4.3-14,5.6-21.4,6.9c-1.7,0.3-6.3-7.8-5-9.6
		c2.5-3.5,0.7-7,0.8-10.4c0.1-2.1,0-2.9,2.3-3c1.5-0.1,3.1-1.4,4.5-1.3c3.1,0.2,3.2-1.3,3-3.6c-0.2-2.3-0.2-4.6-0.2-7
		c0.1-5.5-1.2-10.9,0.1-16.4c0.5-1.1,1.3-1.8,2.4-2.3c1.9-0.8,4-0.7,5.8-1.5c3.2-1.2,6-0.5,8.8,1.3c1.5,0.9,2.8,2.2,4.7,2.4
		c4.9-0.5,9.1,2.9,14,2.6c4,1.5,8,2.8,12.5,2.2c1.6-0.2,2.9-0.3,3.8-1.8c2.6-2.6,3.3,0,4.4,1.6c-0.5,4.8-5.8,4.9-8.1,8
		c-0.7,1-2.2,1.4-1.5,3c0.1,0.3,0.7,0.6,0.8,0.5c0.7-0.8-0.5-0.4-0.6-0.9c-0.2-2.5,1.9-2.5,3.3-2.9c1.9-0.6,4.2-0.9,5.5,1
		c1,1.5-0.5,2.8-1.7,3.7c-2.4,1.8-4.6,3.8-7,5.5c-1.8,0.2-2.7-1-3.7-2.1c-5-5-10.3-4.1-13.2,2.2c-1.4,3-2.9,6-2.1,9.5l0,0
		C861.5,542.5,861.7,546,859,548.9z"/>
</g>
<g id="Layer_4">
</g>
<g id="Layer_1">
	<path class="st1" d="M808,736c-267.7,0-535.3,0-803,0c-1.4-1.8,0-3.1,0.8-4.5c2.5-4.5,5.4-8.8,8.1-13.2c1.5-2.1,2.9-4.4,4.8-6.2
		c2.1-2,4.5-2.5,7.3-2.2c6.9,0.8,11.1-3.9,9.6-10.6c-1.1-4.6-1-9.2-1-13.8c0-23,0-46.1,0-69.1c0-3.3,0-6.6,0-10c0-1.4,0-2.9,0-4.3
		c0.3-1.8-0.4-4.9,2-4.8c2.1,0.1,1.7,3.2,1.8,5.1c0.2,7.3-0.2,14.6,0.4,21.9c0.3,3,1.3,5.1,4.1,6.1c2.5,3.4,1.2,7.3,1.4,11
		c0.3,6.6,0.9,7.5,7.4,7.5c3.3,0,6.6,0.1,9.8,0.9c2.8,0.9,5.6,1.2,8.4-0.1c4-4.9,7.7-9.9,7-16.8c-0.1-0.8,0.3-1.6,0.9-2.2
		c2.9-1,2.9,1.8,4.1,3.1c2,2.6,4.4,4.4,8.1,3.7c1.8-0.3,3.6,0.5,5.2,1.5c2.3,1.3,4.7,1.7,7.2,0.8c0.4-0.1,0.9-0.2,1.3-0.2
		c4.4,0.5,6.6-1.6,7-5.9c1.6-0.7,2.5,0.1,3,1.5c0.4,1.3,0.8,2.5,2.1,3.1c1.5,1,2.8,0.8,4.1-0.4c5.5-11.7,11.5-23.3,16.1-35.4
		c1.3-3.5,4.1-4.8,7.4-4.8c8-0.2,15.9-1.1,23.9-1.3c13.3-0.3,26.5-1.6,39.8-1.9c9.2-0.5,18.3,0.9,27.4,0.3c18,1,35.6-3.9,53.6-3.7
		c11.8,0.2,23.8-1.3,35.6-3.3c5.3-0.9,10.6,0.1,15.9-0.1c11,1,22-2.1,33-0.8c2.6,0.8,2.5,3,2.9,5.1c0.6,3.9-0.5,8.2,2.5,11.6
		c0.3,1,0.4,1.9-0.8,3c2.5-1.7,0.7-3.4,0.6-5c-0.1-1.3-0.2-2.9,1.2-3.5c1.6-0.6,2,1.1,2.7,2.2c0.6,2.7,1,5.5,1.1,8.2
		c-0.2-3.8-0.5-7.5-1.1-11.3c-0.8-5.5,0.2-6.8,5.5-7.8c0.3-0.1,0.7-0.1,1-0.2c10.4-2,10.4-2,10.3,8.5c0.1-0.1,0.2-0.3,0.2-0.4
		c0.4-2.1-1.3-5.8,1.5-6c3.3-0.3,2.8,3.8,3.5,6.2c0.7,2.3-0.3,4.7,0.7,6.8c-0.1-3.6-0.6-7.3-1.2-10.9c-0.3-2-0.1-3.6,1.9-4.7
		c2.1-1.1,4.1-1.6,6,0.1c2.2,2,4.9,3.5,6.9,5.7c1.7,1.9,3.6,2.2,5.8,2.1c3.5,0,6.9,0.2,10.3-0.1c0.3-0.3,0.1-0.5-0.3-0.7
		c-2.4-1.4-5.8-2.7-5.1-5.9c0.7-3.3,4.4-1.8,6.8-2.3c1-0.2,1.9-0.6,2.9-0.7c4.5-0.5,9,0,13.4-0.3c4.2-0.3,8.7,0.5,12.1-3
		c0.7-0.7,1.8-0.9,2.8-0.8c5.7,0.4,11.2-1.1,16.8-1.1c9.6-0.1,19.2-0.9,28.7-1.7c4.2-0.3,8.7-1.4,12.5,1.7c0.9,0.7,1.9,0.3,2.9,0.2
		c8.1-0.4,16.3-0.1,24.4-0.2c3.9-0.1,6.6,0.7,7.3,5.4c0.7,4.9,2.7,1.8,4.2,0.2c5-2.5,3.7,2.5,5.1,4.5c0-1.2,0.3-2.1,1.1-2.8
		c0.4-0.2,0.9-0.2,1.3,0.1c1.1,1.7,0.6,3.8,1.2,5.6c0.2,0.6,0.8,0.7,0.3,0.2s0.7-0.1,0.2-0.5c-0.2-0.1-0.1-0.6-0.3-0.9
		c-0.9-2.7-1.3-5.5-0.8-8.3c0.5-2.8,3-3.9,4.5-1.8c2.5,3.3,4.1,3,6.1-0.2c0.5-0.7,1.4-0.9,2.2-0.8c4.5,1.4,3.3,5.5,3.7,8.6
		c0.2,1.6,0.3,2.3,2,1.4c4.2-0.7,1.2-3.3,1.4-5.1c-0.7-3.9-2.6-7.6-2.3-11.7c0.3-3.3,1.5-5.2,5.2-5.4c3.1-0.1,6.3-0.2,9.4-0.2
		c3.1,1.9,6.3,3.8,10.1,1.7c6.5-1.3,13.2-1.6,19.5-4c2.1-0.8,4.3-0.6,6.4-0.2c7.6-0.3,15.2-2.1,22.9-1.9c5.5,0.2,10.5,1.6,14.8,5.2
		c6.2,5.2,5.9,14.7-0.6,19.4c-2.9,2.1-5.9,4.4-9.5,5.3c-3.3,0.8-3.7,3.4-3.6,6.2c0.1,2.9,1.7,4.2,4.3,4.7c7.3,1.4,14.5,1.2,21.3-2.3
		c5.4-2.7,11.3-5.1,17-5.2c11.9-0.2,20.7-5.7,29.7-12.5c6.8-5.2,14.6-9,24.1-6.7c11.4,2.8,18.9,12.4,17.5,25.7
		c-0.5,4.3-0.6,8.7-2.7,12.6c-0.3,0.6-0.7,1.4-0.5,1.9c3.7,8.7,1.4,18.9,6.9,27.3c3.3,5,5.9,10.3,2.7,16.8
		c-1.8,3.7,2.7,11.6,7.2,14.4c1,0.6,2.1,1.1,3.1,1.7c4.2,2.5,4.2,3,0.9,6.3c-0.7,0.7-1.4,1.4-1.5,2.5c-0.2,7.5-2.7,14.7-2.7,22.3
		c0,2.4,0.8,4.2,2.4,6.2c4,5.3,7.6,11,13,15.1C807.8,733.2,808.6,734.5,808,736z"/>
	<path class="st1" d="M1289,736c-152,0-304,0-456,0c-2.4-5.6,0.1-10.7,1.5-16c0.5-2,2-3.7-1.2-5.2c-2.2-1-1.1-3.6,0.2-5.2
		c4.3-5.3,7.6-11.4,11.8-16.7c2.3-3,6.1-4.4,8.9-7.2c2.2-2.2,6.7-2.7,10.3-0.5c1.2,0.7,2.4,1.3,3.8,1c5-1.2,8.2,1.4,10.9,5.2
		c0.7,1,1.4,2,2.5,2.4c6.4,2.5,8.8,7.7,9.8,13.9c1,6.1,5.3,9.4,10,12.3c3.7,2.3,7.4,2.2,11.1-0.6c6.1-4.8,9.1-12.3,7-19.8
		c-3.1-11.1-2.2-22.1,1.5-32.9c4.1-12.2,18-18.2,28-12.6c4.1,2.3,5.7,6.4,7.7,10.1c3.3,6,12.9,7.6,18.1,2.9c1.7-1.5,1.8-3.5,1.7-5.5
		c-0.2-3.3-1.1-6.5-2-9.8c-2.4-7.9-0.1-18.1,5.5-21.9c4.9-3.3,10.9-3.6,16.7-4c1.6-0.1,4.1,0.9,4.3-1.1c0.3-3.4,5.5-6.3,1.8-9.9
		c-3.5-3.5-3.8-7.8-4.7-12.1c-0.6-3,2.3-4.7,2.3-7.4c-0.1-3.3,1.8-4.8,5.4-5.6c-2.3-1.5-5,0-6.1-2.3c0.2-2,1.9-2.4,3.3-3.1
		c2.6-1.2,4.5-3.1,6-5.4c1.8-4.1,1.6-8.6,2.5-12.9c0.8-3.9-0.8-6.3-4.8-6.9c-1-0.2-1.8-0.7-2.8-0.8c-1-0.2-1.9-0.5-2.9-0.4
		c-1.9,0.3-3.6,0.4-4.2-2c-0.5-2.2-0.2-3.9,2.2-4.7c1.5-0.4,3-0.8,4.4-0.6c4.3,0.5,5.9-1.6,5-5.5c-1-4.7-0.4-9.6-1.6-14.3
		c-1-11.4-0.4-12.1,10.8-13.2c0.8-0.1,1.7-0.1,2.4-0.4c6.7-1.3,13.6-0.8,20.3-2.4c1.3-0.3,2.4,0.3,2.9,1.4c1.2,2.5,3.4,4,5.1,6
		c6.9,9.6,15.3,17.9,23,26.8c2.2,1.4,5.2,1.2,7,3.4c2.8,2.4,4.7,5.7,7.2,8.4c0.9,2,3.8,3.3,2.5,6.3c-2.4,0.4-3.4,1.9-3.2,4.2
		c0.2,2.2,1.5,3.8,3.8,3.8c2.5,0.1,4.3,1.4,6.2,2.9c4,3.2,8.5,3.9,13.5,2.8c5.1-1.2,10.2,0.7,15.3,0.6c1.3,0.4,2.4,1,3.8,0.9
		c6.6-0.5,10.5,3,12.9,8.8c-0.3,1.9-1.5,4.1,1.7,4.9c1.6,4.4,5.1,6.9,9,9c5.6,3.1,11.9,5.3,14.7,11.9c0.5,1.2,2,0.9,3.1,1.2
		c7.3,2.5,14.9,3,22.1,6.9c6.5,3.5,13.8,7.4,22,6.9c3.2-0.2,6.4,0.9,9,2.7c2.4,1.6,4.9,1.9,7.6,1.6c0.8,0.1,1.4,0.4,2,0.9
		c1.8,2.3,3.7,4.4,5.4,6.7c0.9,2.1,2,4.2,3,6.3c0.6,1.4,1.6,3,0.9,4.3c-1.8,3.2,0,5.9,0.3,8.8c0.8,9.2,7.6,15.4,10.6,23.4
		c0.9,2.3,3.9,3.5,5.7,5.5c5.1,5.4,10.5,10.5,15.6,16c1.1,1.2,2.5,1.6,3.9,2.2c1.4,0.6,2.8,1.4,3.2,2.9c1.8,6.1,4.8,11.5,8.9,16.4
		C1290.6,731.5,1290.8,733.9,1289,736z"/>
	<path class="st2" d="M1000,587.1c2.4,2,5.6-0.7,8.1,1.4c0.2,1.4-1.3,2.6-2.1,2.7c-6.7,0.6-2.6,8.6-7.2,10.5
		c3.9,2.7-0.6,8.2,4.2,11.1c3,1.8,4,5.6,0.6,8.9c-0.6,0.5-1.3,1.5-1.2,2.1c1.2,5.4-2.3,3.6-5,3.6c-5.9,0-12,0.3-16.9,3.9
		c-5.2,3.8-7,14.1-4.7,20.6c0.9,2.6,1.7,5.4,2.1,8.1c1.1,7.9-5.8,12.3-14.1,11.3c-7.8-1-8.2-7.5-11.3-11.8
		c-3.8-5.3-11.2-8.3-17.2-5.4c-7.2,3.4-12.1,8.8-14.1,16.8c-2.7,10.4-2.7,20.5,0.5,30.8c1.3,4.1,1,8.7-2.5,11.5
		c-2.7,2.2-2.1,6.9-6.4,7.6c-2.5,0.4-3.3,4.3-6.9,2.7c-5.7-2.7-11.8-4.7-14.3-11.3c-1.1-2.9-2.3-5.9-2.6-9.1
		c-0.3-2.4-1.6-4.9-3.6-5.6c-4.2-1.5-6.8-4.4-9.3-7.8c-0.6-0.8-1.6-2-2.2-1.9c-6.4,1.2-12.3-3.8-18.8-1.5c-2.2,0.8-3.9,1.7-1.4,4.1
		c0.6,0.6,1.2,1.3,0.3,2.1c-0.8,0.7-1.5,0.4-2.2-0.1c-2.8-2.2-4.1-0.7-5.8,1.7c-3.8,5.5-6.8,11.7-11.7,16.5c-0.9,0.9-1.4,2-1,3.2
		c0.5,1.5,1.6,0.4,2.5,0.2c2.1-0.4,2.5,0.7,1.8,2.3c-3.1,6.3-3.9,13.1-4.4,20c-8.3,0-16.7,0-25,0c-2.7-3-4.3-7.1-9.1-7.6
		c-1-0.1-2.1-1-1.7-2.1c1.1-3-1.5-5.7-2.6-6.4c-8.7-5.6-3-13.3-3.2-20c-0.1-3.8,2.1-7.5,1-11.6c-1.1-4.2,4.2-2.2,5.2-5
		c-1.8-1-3.5-2.8-5.4-3c-3.9-0.4-4.4-5.2-8.1-5.4c-0.1,0-0.4-0.3-0.4-0.3c2.7-3.9-3.4-7.4-0.8-11c3.9-5.3,0.8-9.7-1.2-14.2
		c-1.6-3.5-2.9-7.4-4.5-10.3c-2.3-4.1-1.5-7-1.1-10.6c0.2-1.3,0.3-3-0.8-3.8c-4.3-3-1.6-6.1-0.4-9.3c2.8-7.4,2.9-15.4,0.5-22.3
		c-1.5-4.4-5.6-9.3-11.2-10.9c-6-1.7-11.4-2.1-18,0.5c-9,3.5-14.7,11.1-23.3,14.7c-2.9,1.2-5.8,2-8.5,2.1
		c-6.2,0.2-12.1,1.7-17.9,3.5c-1.4,0.4-3,0.7-4.2,1.5c-7.3,4.8-15.2,4.6-23.3,3.6c-3.3-0.4-6.4-1.5-6.4-5c0-3.7-0.3-7.6,5.5-9.3
		c7.9-2.3,12.8-6.4,13.1-12.5c0.4-7.8-6.5-13.8-16.4-14.2c-6.8-0.3-13.5,0.7-20.3,1.7c-1.5,0.2-3,0.1-4.5,0.2
		c-0.2-3.2-1.5-6.5,0.6-9.5c5.6-1.8,11.2,0,16.7,0.6c6.2,0.7,12.5,1.3,18.6,2.5c13.3,2.9,26-2.1,39-3c3.2-0.6,6.5-0.9,9.8-1.3
		c3.2-0.4,5.2,0.5,5.2,4.1c-0.8,3.4-3.4,4.2-6.4,3.5c-2.6-0.6-4.5-0.2-5.7,2.2c-1.4,1.1-1.3,3.5-2.6,3.9c2-1,3.5-4.2,7.1-4.2
		c3.2,0,6.3,0.5,9.4,0.9c2.5,0.3,5,0.1,7.4,0.1c4.3,0.4,8.6,0.5,12.8,1.6c2.7,0.7,5.1-0.3,7.5-1c0.2-2.3-2.2-2-2.7-3.4
		c-0.3-0.8-0.2-1.5,0.3-2.2c5.5-3.2,11.9-2.1,17.8-3.6c3.6-1,7.5-1.3,11.3-1.9c2.3-0.4,4.4,0.1,5.5,2.3c1,2,3,4.1,1.5,6.4
		c-1.4,2.1-3.9,1.5-6,1c-2.9-0.7-5.6-0.1-8.4,0.4c-1.6,0.3-2.9,0.7-3.5,2.3c-0.7,2,0.9,2.6,2.1,3.4c2.3,1.6,4.5,3.4,6.9,4.9
		c2.6,1.6,2.7,4,2.1,6.6c-0.6,2.5-1.3,5-1.3,7.8c1.9-3.9-0.1-8.9,3.7-12.6c3.8,6.1,2.5,12.7,2.7,19c0,1.1-0.1,2.2,0,3.3
		c0.1,0.7-0.2,1.9,0.9,1.8c1.2,0,1.2-1.2,1.3-2.1c-0.9-8-1.6-16-2-24.1c-0.1-1.6-0.2-2.9-1.8-3.7c-1.4-1.6-0.4-2.3,1.1-2.7
		c1.5-0.4,3-0.1,4.4,0.5c1,0.4,2,1,2.4,2.1c0.9,13.6,3,26.9,10.6,38.7c0.9,1.4,1.8,2.8,1.7,4.6c-1.8,5.7-4.2,11.2-6.8,16.6
		c-1.6,3.3-0.7,6.8-2.2,10c-1.2,2.5-1.9,5.3-4.2,7.1c1.6-1.4,3.4-1.8,5.4-1.9c2.1-0.1,3.3-1.1,3.7-3.2c1.1-6.5,4-12.5,6.2-18.7
		c0.2-0.6,0.5-1.2,0.6-1.9c1.7-5.4,6.6-6.5,10.7-2.5c1.5,1.5,1.8,3.1,0.7,4.9c-0.8,1.3-1.6,2.5-2.7,3.5c-2.5,2.3-2.5,4.1,0.8,5.5
		c1,0.5,2.1,0.9,2.8,2c1.7,3.9-0.1,7.7-0.4,11.6c0.2,1.2-1.4,2.7,0.3,3.5c0.9,0.4,1-1,1.3-1.7c1-2.5,0.7-5.2,1.5-7.7
		c0.6-2,1.3-3.7,3.6-4.2c2-0.4,3.9-0.9,5.9-0.7c1.4,0.2,3.2,1.3,4-0.7c0.7-1.8-1-2.6-2.2-3.4c-1.7-1.2-3.6-2.4-2.7-4.7
		c0.8-2.3,1.7-4.8,4.9-4.8c3.4,2.1,5.2,5.5,7.7,8.4c0.7,1.2,0.8,3.7,3.2,2.1c2.1-1.3,0.3-2.6-0.4-3.7c-1.5-2.4-3-4.8-5.1-6.7
		c-0.8-0.8-1.6-1.7-2.2-2.7c-0.8-1.6-3.4-3-1.7-5.1c1.5-1.9,3.9-2.4,6.4-2.2c3.3,0.2,5.7,2.7,8.9,3.1c2.2,0.1,1.5-1.6,1.7-2.8
		c0.5-1.8,1.7-3.4,1.2-5.6c-0.4-1.6,0.3-3.4,2.8-2.5c2.4,2.9,3.4,6.6,5.5,9.6c1,1.5,1.7,3.2,2.7,4.7c1,1.7,2.5,3,4.5,1.9
		c2.4-1.4-0.1-2.8-0.5-4.1c-0.2-0.6-0.6-1.2-0.9-1.8c-1.8-4.1-4.5-7.8-6.4-11.8c-1.2-2.6-1.6-4.9,2.2-5.6c3.4-0.3,6.6,0.8,9.9,1.5
		c2.9,1.4,3,4.1,3,6.8c0,2,0,4,0,5.9c-0.2,2,0.7,4,0.5,6.1c-0.2,1.3-0.6,2.7,1.6,2.4c1.3-0.2,2.5-0.6,3.7-0.8
		c3.8-0.7,4.6-3.8,5.5-6.8c0.5-1.8,0.7-4.4,3.7-2.6c1.3,0.8,1.3-0.1,1.4-0.9c0.2-1.3,0.4-2.6,0.1-3.9c-0.3-5.5-0.3-11-0.2-16.5
		c0-0.8,0.1-1.6,0.3-2.3c1.1-2.7-0.2-5.9,1.5-8.5c1.9-1.2,2.8,0.3,3.5,1.5c1.7,3,3.7,5.9,4,9.5c-0.7,2.4,0.4,4.1,2.3,5.4
		c0.6,0.7,1.1,1.4,1.5,2.2c0.8,0.9,0.9,2.4,2.4,3c1.3-1.6-0.4-3.3,0.1-4.9c0.2-0.7,0.7-1.2,1.3-1.6c1.9-1,3.3-0.2,5,0.8
		c4.7,2.9,14.9-2.3,15.2-7.6c0-2.2,0.8-4.3,0.7-6.5c0.1-2.8,0.6-5.5,4.1-5.8c3.4-0.3,4.3,2.4,5,5.1c0.3,1.3,0.5,2.6,0.7,3.9
		c0.2,1.1-0.5,3,1.9,2.6c2.5-0.4,1.4-2,1.1-3.4c-0.3-1.1-0.6-2.2-0.6-3.4c0.9-4.6,0.9-4.6,7.2-3.3c1.2,0.2,2.5,0.4,3.2,1.3
		c3.6,4.5,9.3,6,13.4,9.7c4.9,4.4,11,5.7,17.1,6.5c3.1,0.4,5.2-1.6,5.1-5.1c0-1.5,0.1-3,0.9-4.3C997.6,586.7,998.6,585.9,1000,587.1
		z"/>
	<path class="st2" d="M578,170c-6,3.2-10.7,7.9-15.1,13c-6.7,5.4-14.3,9.8-20.4,16.1c-3.4,3.6-4.6,3.4-10.5,0.8
		c10.6-7.5,21.7-14.1,30.9-23.1c8-5.9,14.8-13.2,22-19.9c3.5,0.5,1.9,2.6,0.9,3.8C583.2,163.8,581.3,167.5,578,170z"/>
	<path class="st1" d="M945.3,543.9c-3.7-0.4-4.3-2.2-3.3-5.7c1.7-5.6,1.2-11-2.9-15.8c-3.2-3.8-7.7-4.2-12-5.5
		c-1.4-2.9-0.6-6-0.6-9.1c-0.1-3,2.3-3.1,4.5-3.2c7.7,0.3,15.3,1.7,23,1.9c9.6-0.6,19,1.5,28.6,1.1c3.3-0.1,6.6-0.1,9.8-0.8
		c1.9-0.4,4-0.5,5.6,1.1c1.3,0.1,2.6,0.5,3.9,0.4c2.9-0.2,3.5,1.3,3.7,3.9c0.6,6.9-0.6,13.9,1.5,20.7c-0.8,4.3,0.9,8.5,1,12.7
		c0.1,3.3-0.1,6.1-4.8,4.7c-1.3-0.4-2.9,0.4-4.3,0.7c-1,0-1.8-0.3-2.3-1.4c-5.4-11.1-14.5-14.9-26.5-10.7c-2.8,1-3.8-2.2-6-2
		c-1.9-0.3-3.8,0.2-5.8-0.2c-5.9-1.1-9.5,1.1-11.9,6.9C946.2,544.1,945.8,544.2,945.3,543.9z"/>
	<path class="st2" d="M945.3,543.9l0.3,0.2c2.6-7.5,9.8-10.1,17.4-6.3c4.3,1,4.3,3.6,2.1,7.1c3.7-2.1,6-5.4,10.3-5.8
		c4.1-0.4,7.8,0.2,11.7,2c-1.4,3.1-5.6,4.5-4.9,9.1c2.3-3,3.6-7.3,8.1-6.3c4.6,1,4.5,5.6,5.4,9.1c0.6,2.4,1.1,4.9,0.9,7.7
		c-0.4,4.8-5.3,5.3-7.4,9.2c4.5-1.4,7.8-2.9,8.6-7.5c0.6-3.4,3.4-3.6,6.1-3.6c7.7,2.4,7.8,2.4,6.8,10.1c-0.4,3.1-1.1,6.1-1.7,9.1
		c-0.3,1.2-0.7,2.3-1.8,2.9c-5.9,3.4-12.3,5-19.6,6.6c2.4-5,1.9-7.4-3.6-8c-3.1-0.4-6.6-1.1-9.4-3.9c-1.8-1.9-5,0.1-7.6,0.1
		c-2.6,0-5,0.2-4.1,4.1c0.3,1.3-0.2,1.4-4,0.3c-8.9-3.3-10.2-4.9-10.2-15c0-3-1.4-6,0-9C951.2,550.9,948.7,547.3,945.3,543.9z"/>
	<path class="st1" d="M859,548.9c-1.1,0.4-3,1.3-3.1,1c-3.2-4.9-4.6-0.4-6.8,1c-6.5,4.3-14,5.6-21.4,6.9c-1.7,0.3-6.3-7.8-5-9.6
		c2.5-3.5,0.7-7,0.8-10.4c0.1-2.1,0-2.9,2.3-3c1.5-0.1,3.1-1.4,4.5-1.3c3.1,0.2,3.2-1.3,3-3.6c-0.2-2.3-0.2-4.6-0.2-7
		c0.1-5.5-1.2-10.9,0.1-16.4c0.5-1.1,1.3-1.8,2.4-2.3c1.9-0.8,4-0.7,5.8-1.5c3.2-1.2,6-0.5,8.8,1.3c1.5,0.9,2.8,2.2,4.7,2.4
		c4.9-0.5,9.1,2.9,14,2.6c4,1.5,8,2.8,12.5,2.2c1.6-0.2,2.9-0.3,3.8-1.8c2.6-2.6,3.3,0,4.4,1.6c-0.5,4.8-5.8,4.9-8.1,8
		c-0.7,1-2.2,1.4-1.5,3c0.1,0.3,0.7,0.6,0.8,0.5c0.7-0.8-0.5-0.4-0.6-0.9c-0.2-2.5,1.9-2.5,3.3-2.9c1.9-0.6,4.2-0.9,5.5,1
		c1,1.5-0.5,2.8-1.7,3.7c-2.4,1.8-4.6,3.8-7,5.5c-1.8,0.2-2.7-1-3.7-2.1c-5-5-10.3-4.1-13.2,2.2c-1.4,3-2.9,6-2.1,9.5l0,0
		C861.5,542.5,861.7,546,859,548.9z"/>
	<path class="st2" d="M860.5,550.4c2.3-0.2,3.8,1.2,4.6,3.1c1,2.3,2.5,2.8,4.7,2.7c0.8,0,2.6-1.4,2.4,0.9c-0.1,1.2,1.2,2.4-0.1,3.7
		c-1.3,1.2-2.1-0.2-3-0.5c-0.6-0.2-1.6-0.9-1.8-0.7c-4.6,3.7-10.6,0.1-15.4,3.2c-2,1.3-4.3,1.9-2.4,5.1c1.2,2-1,1.6-2,2.1
		c-1.5,0.7-3.3,1.4-2.6,3.6c0.7,2.1,2.1,2.3,3.9,0.9c1.3-1,2.6-0.1,2.9,0.8c0.4,1-1.5,0.3-2,1.5c-0.8,2.1-2.9,1.9-4.7,1.5
		c-2.7-0.6-5.4-1.4-8.1-2.1c-4-5.4-9.7-7.5-16.1-8c6.1-7.3,6.1-7.3,18.5-11.2c2.2-0.7,4.5-1.1,6.6-2c2.8-1.3,4.3-0.9,4.9,2.3
		c0.4,2.3,1.4,3.6,4.1,2.6c2.6-0.9,3.4-2.2,1.9-4.7C854.1,550.4,860,552.5,860.5,550.4l0-0.4L860.5,550.4z"/>
	<path class="st2" d="M863.9,545.9c0.4-1.1,0.7-1.9,0.9-2.7c0.4-1.8-1.3-4.8,0.8-5.4c2.6-0.7,3.7,2.5,4.5,4.4
		c1.1,2.6,4.4,1.4,5.4,4.2c0.7,2,3.4,3.8,0.8,5.8c-2.3,1.7-5.8,2.2-8.1,0.7C865.8,551.5,863.9,548.8,863.9,545.9z"/>
	<path class="st2" d="M802.2,517.8c-0.6,1.7,1,4.9-3.1,4.5c-2.5-0.2-8-4.9-7.3-7.4c0.7-2.8,2.5-5.5,5.3-6.6
		C799.2,507.4,802.1,512.9,802.2,517.8z"/>
	<path class="st2" d="M815.8,558.1c-5.4-5.9-4.3-9,4.1-10.9c-0.1,3,0.2,5.6,2.6,8c2.3,2.3,0.5,7.6-2.5,8.9
		C818.6,562.1,817.2,560.1,815.8,558.1z"/>
	<path class="st2" d="M930.7,532.2c0.1-2.5,0.4-4,3.1-1.9c1.7,1.4,3.8,2.5,5.7,3.6c2.3,1.3,0.9,3,0.4,4.3c-0.7,2.1-1.3,4.8-4.1,5
		c-1.8,0.2-3.1-1.4-3.5-3C931.6,537.5,931.2,534.7,930.7,532.2z"/>
</g>
<g id="Layer_3">
	<path class="st3" d="M1357.1,240.4c-2,1.6-3.9,3.1-5.9,4.7c-2.5,1.2-4.2,3.4-6.1,5.3c-1.4,1.2-2.7,2.4-4.1,3.6
		c-0.4,2-2.1,3-3.5,4.1c-4,3.1-7.8,6.4-11.7,9.7c-1.4,1.5-2.7,3.1-4.6,4c-6.9,5.2-13.8,10.5-20.2,16.3c-0.3,0.3-0.7,0.6-1.1,0.8
		c-5.2,3.5-9.9,7.5-14.6,11.7c-5.3,4.1-10.7,8.2-15.4,13c-1.6,1.7-3.5,2.9-5.4,4c-2.2,1.1-3.8,2.9-5.6,4.6c-0.3,0.3-0.7,0.6-1.1,0.8
		c-4.7,3.6-9.4,7.3-13.9,11.2c-0.4,0.3-0.7,0.6-1.1,0.9c-5.8,3.8-10.7,8.7-16.2,12.7c-1.5,1.1-3.3,2.9-4.6-0.3
		c-0.7-7.8-0.1-15.5-0.3-23.3c-0.1-1.1,0.3-2.5-1-3c-1.6-0.6-1.7,1.1-2.3,1.9c-2.7,3.7-3.9,7.8-3.9,12.4c0,4.4,0.4,8.9-0.3,13.3
		c-0.1,0.5-0.4,0.9-0.6,1.3c-6.2,0.8-11.8,3.4-17.7,5.4c-5.1,1.7-10.2,2.9-14.4,6.3c-4.8,3.9-11.6,2.7-16.3,6.8
		c-1.3,1.2-3,1.9-4,3.6c-1,1.7-2.3,3.2-4.4,1.7c-2.1-1.5-1.5-3.4-0.2-5.2c0.5-0.8,1.7-1.1,1.6-2.4c-3.2-0.4-4.2,1.7-5.2,4.2
		c-1.8,4.5-4.4,6-9,4.7c-3.1-0.8-4,0.2-4.6,3c-1.6,6.9-1.7,6.9-9.3,6.4c-1.5-0.1-3,0.1-4.5,0.3c-2.1,0.2-3.2,0.9-1.7,3.2
		c1.9,2.9,0.3,4.5-2.3,5c-3,0.6-4,1.9-3.5,5.2c0.6,4-3,6.4-5.3,8.5c-3.4,3.2-8.6,3.2-13.1,3.4c-2.2,0.1-2.4-2.4-1-4.2
		c1-1.3,2.5-2,4.1-2.7c-1.7-1.5-3.3-1.1-4.8-0.4c-1.1,0.4-2.3,1.3-3.3,0.7c-7.3-4.2-10.1,4.5-15.7,5.4c-1.7,0.3-0.6,2.1,0.9,2.6
		c1.5,0.5,3.4,0.2,4.6,2c-2.2,2.7-5.2,1.5-7.8,1.8c-3.7-0.4-4.1,3.1-5.8,5.1c-5,6.8-10,13.6-13.8,21.2c-0.4,0.7-0.9,1.3-1.4,1.8
		c-3.3,7.7-10,7.3-16.7,7c-6.5-0.2-13,0.4-19.5-0.6c-3.6-0.7-7.3-0.3-10.9-0.4c-1.4,0-2.8,0-4.2-0.4c-4.7-0.8-9.3-1.2-14-1.6
		c-2.7-0.1-5.5,0.3-8.1-0.5c-2.9-7.7-11.9-8.1-16.5-13.7c-0.4-0.5-1.3-0.8-1.8-0.4c-4.3,4-5.8-0.6-8.3-2.5c-2.5-1.7-5-3.3-7.1-5.5
		c-2-2.1-2.4-3.9,0.6-5.6c0.3-0.4-0.4-0.3-0.4-0.3c-1.4,2.3-3,2.1-4.8,0.4c-1.4-2-1-3.7,0.9-5.1c6.8-5.2,6.3-5.1,4.7-13.6
		c-0.8-4.3-2.5-7.1-5.8-9.5c-0.4-0.3-0.7-0.6-1-1c-0.8-1.1-1.7-2.3-2.1-3.6c-0.4-1.7,0.1-3.3,0.9-4.8c0.6-1.3,1-2.3-0.7-3.3
		c-1.5-0.9-1.6-2.5-0.8-3.9c0.8-1.4,2.2-1.4,3.5-1.1c5.5,1,11,0,16.4,0.5c3,0.3,5.6-0.8,8.1-2c1.7-0.8,3.8-1.9,1.7-4
		c-1.6-1.6-3.5-5.9-6.1-2.7c-3.4,4.2-9.2,3.8-12.5,7.9c-1.8,2.2-6,0.1-6.8-3.2c-0.4-1.9-0.5-4-1-5.9c-1.1-4.6-4.2-6.7-8.8-5.7
		c-3.2,0.7-6.6,1.4-9.4,3.2c-5.4,3.6-10.6,0.5-15.9-0.1c-1-0.1-1.1-1.1-1.1-1.9c0.1-5.2-2.6-9.1-6.3-12.3c-2.6-2.3-3.4-4.8-1.2-8.1
		c-3-0.2-5.3-1.9-7.9-2.9c-2.6-1-5.4-1.8-7-3.1c2.6,2,6.6,2.9,10.2,4.5c3.3,1.5,2.9,3.1,0.6,5c-2.7,2.1-5.4,4.7-8.5,0
		c-0.8-1.2-2.7-1.8-4.1-3.3c3.8,7.1-3.3,7-5.9,10c-0.5,0.5-1.1,0.9-1.8,1.1c-0.5,0.1-0.9,0-1.3-0.3c-3.2-3.5-3.2-3.5-5.1,0.8
		c-0.3,0.7-0.8,1.4-1.3,2c-1.2,1.4,0.3,4.1-2.2,5c-2,0.3-4.1,0.4-6-0.7c-2.1-7.9-4.8-9.4-13.1-7c-0.7,0.6-1.4,1.2-2.4,1.2
		c-1.7-4-0.1-6.9,5.5-10c-3.4,1.6-7.2,2.3-10.7,3.6c-1.2,0.4-2.5,1.3-3.6-0.1c-1.1-1.4-0.8-2.8,0.3-4.1c0.5-0.6,1.4-1,1.6-1.9
		c-0.7-1.5-2.4-0.7-3.4-1.6c-1.4-3.3-0.3-6.7-0.5-10c0.5-4.6,1.7-8.8,6.6-10.7c0.4-0.2,0.9-0.4,1.4-0.5c1.9-0.4,4.2-0.8,4.5-3
		c0.3-2.3-2.5-2-3.7-3.1c-6.3-2.9-12.6-6-18.8-9.2c-9-5.4-18.5-10-28.1-14.2c-14.5-6.3-28.2-14.1-42.3-21.2
		c-20.7-10.3-40.9-21.5-61.6-31.8c-13.1-6.6-26.7-12-40.2-17.7c-3.7-1.8-7.6-3.1-11.8-3.7c-2.4-0.3-5.5,0.1-6.8-3
		c5.6-1.1,11.4-1.8,17-1.8c9.8,0,19.5-2,29.3-1.1c4.5,0.4,9.6-0.5,13.9-2.8c2.8-1.5,5.6-1.3,8.7-1.2c8.8,0.3,17.5,3.4,26.5,0.1
		c5-1.8,9.8,2.3,14.6,3.7c2.8,0.9,5.6,2,7.4,5.8c1.4,2.9,5.2,6.3,9.5,7.5c1.4,0.4,2.5,0.5,3.7-0.4c0.8-0.6,2.2-1.6,2.5-1.3
		c6,4.6,14-2.5,19.8,3.6c1.2,1.2,3.3,1.1,4.8,0.6c9.5-2.9,17.9,0.7,26.2,4.5c3.1,1.4,6.9,1.9,7.7,6.2c0.1,0.5,1,1.1,1.5,1.1
		c6.7,0.6,13.2,3.4,20.1,1.6c1.3-0.3,3-0.9,3.9-0.3c6.6,4.2,14.3,2,21.3,3.7c5.4,1.3,9.5,3.5,13.3,8.4c3.3,4.3,6.1,8.9,9.3,13.3
		c1,1.4,1.9,2.8,1.9,4.5c0,8.1,3.8,15.5,4.6,23.2c0.7,6.6,4.6,11.3,6.5,17c2,6.2,7.6,8.9,12.3,11.5c5.1,2.8,10.9,5.2,17.4,5
		c3.1-0.1,5.2-1,7.7-2.6c6.2-4,12.6-7.8,19-11.4c2.8-1.6,5.8-1.4,8.1,1.3c2.8,3.2,7.4,2.5,10.7,4.9c2.5,1.8,5,3.4,6.8,5.8
		c3.2,4.2,7.5,6.1,12.5,7.3c8.1,2,15.1,6.2,20.4,12.6c4.5,5.4,9.8,8,16.5,8.3c7.3,0.3,12.2-4.6,17.4-8.5c2.5-1.9,4.6-4.3,7.3-6
		c2.1-1.3,3.7-2.2,2.6-5.4c-0.9-2.6,3-3.1,4-5.1c1.4-3,2.8-3.2,5.1-0.8c1.4,1.5,2.4,0.1,3.6-0.9c3.6-2.8,6-7.1,10.5-8.9
		c0.7-0.3,1.4-1.1,2.2-0.4c0.8,0.7,0.9,1.7,0.4,2.7c-0.6,1.2-2.6,2.6-0.7,3.8c1.8,1.2,4.2,1.1,6.1-0.3c1.2-0.8,1.8-2.4,3.6-2.2
		c0.8,0.1,1.8,0,1.9-1.1c0.1-0.9-0.7-1.4-1.5-1.7c-3-1.2-2.1-2.4,0-3.6c3.2-1.9,5.6-5.8,10.5-3.8c1.1,0.5,4.2-1,2.1-3.3
		c-2.5-2.7-1.5-3.4,1.3-3.4c2,0,1.8-2.3,3.3-2.6c3.7,4.7,3.6,4.3,7.6-0.3c3.1-3.6,6.6-6.8,8.7-11.6c1.8,2.4,5.1,3.9,2.1,7.1
		c1,1.2,1.8,0.6,2.5,0.2c3.9-1.9,6.4-0.3,6.4,4.2c0,1.2-0.6,2.6,1.1,2.6c2.1,0,3.9-1.1,4.9-3c0.9-1.7-0.4-2.5-1.9-2.7
		c-2.3-0.4-4.6-1.3-4.2-3.9c0.4-3,3.3-2.2,5.3-2.1c3.1,0.1,3.2,0.7,1.1,4.2c3.3-0.2,6.3-0.2,8.2-4.1c1.4-3,5.3-3.1,8.4-2.8
		c1.5,0.2,2.9,0.8,4.3-0.2c1.5-1,4-2,0.2-3.4c-0.9-0.3-1.9-1-1.1-2.2c0.6-0.8,1.5-0.2,2.3,0c4.3,1.3,8.1,3.3,11.5,6.4
		c1.3,1.2,1.1,1.7,0.4,2.7c-0.7,1-0.6,1.8,0.5,2.4c0.9,0.5,2.4,1.2,2.7,0.5c2-5.3,8-3,11-6.3c-1.8-1.6-3.9-1.6-6.1-0.8
		c-1.4,0.5-2.7,0.6-3.5-0.8c-0.3-0.5-0.4-1.4-0.1-1.8c0.9-1.3,2-0.5,3.1-0.2c3.6,1.1,6.5-2.4,10.6-1.3c3.6,1,7.7-0.1,11.6-0.4
		c3.9-0.3,7-3.7,11.5-2.8c2.2,0.4,1.5-3.2,3.3-4.5c3.8-2.8,8.3-3.1,12.2-2.2c3.7,0.8,7.7-0.4,11.1,1.9c1.2,0.8,2.3,0.3,3.2-0.5
		c1.2-1.1,0-1.6-0.7-2.3c-1.9-2.1-0.4-2.4,1.4-2.5c3.2-0.4,3.8,0.3,6.3,3.3c1.4,1.6,3.7-0.2,5.4-0.6c2.9-0.6-0.3-2.7,0.4-4.3
		c3.2,0.6,6.4,1.7,8.7-2.8c1.5-2.9,11.6-1.7,14.7,1.6c3,3.1,5.1,2.4,8.1,0.1c5.1-3.8,10.3-7.6,16.8-8.9c0.6-0.1,1.5-0.2,1.9-0.6
		c5.2-5.4,12.3-7.6,19-8.8c8.4-1.5,11.6-9,17.8-12.7c2-1.2,0.4-6.2,4.7-5.1c3.4,0.8-1.3,4.4,1.5,5.8c-0.3,0.6-0.6,1.3-0.9,1.9
		C1360.9,237.1,1358.6,238.4,1357.1,240.4z"/>
	<path class="st3" d="M1075.9,414c2.3,0,4.6,0,7.6,0c-1.9-1.6-3.4-1-4.7-1c-1.8-0.1-2.8-0.7-2.8-2.6c0-1.5-0.1-3.1,2.1-3.3
		c3.7-0.4,6.4-2.1,8.4-5.3c1.5-2.4,3.8-1.1,5.8-0.4c1.3,0.4,2.3,2.4,3.9,0.9c3.9-3.5,6.5-0.9,10,2.3c-3.2-0.5-5.2,0.7-7.1,2
		c-0.7,0.5-1.2,1.2-0.7,2.1c0.5,0.9,1.3,0.9,2.1,0.6c5.8-1.6,12.2-1.8,15.5-8.3c0.7-1.3,1.1-2.4,0.4-3.6c-2-3.6-0.2-4.9,3.1-5.3
		c3.2-0.3,6-0.5,2-4.2c-0.8-0.7-1.5-1.9-0.7-3.1c0.7-1,1.6-1.4,2.9-1.4c3.6,0,7.2-0.6,10.7,0.7c2.7,1,4.3-0.3,2.7-2.9
		c-1.9-3,1.6-4.8,1.2-7.6c-0.1-0.9,3.7-0.3,5.8,0.5c3.7,1.3,6.6-0.8,7.7-5.3c0.6-2.5,5.7-5.6,7.8-4.5c1.8,0.9,1,2.2,0,3.2
		c-1.1,1-2.4,1.8-3.3,2.9c-0.8,1-0.5,2.3,0.7,3c1.4,0.8,2-0.2,2.7-1.3c2.7-4.8,7-7.7,12.3-7.9c3.8-0.1,6.7-2.2,8.8-4
		c5.4-4.6,12.7-3.8,17.9-7.4c4.6-3.2,9.1-2.8,14-2.8c2,1.7,1.4,4,1.3,6.1c-2.4,4.1-6.3,6.6-10,9.3c-4.5,3.4-8.6,7.3-13.4,10.3
		c-3.4,1.7-6.5,3.8-8.8,6.9c-2.5,2.3-2.4,5.5-2.6,8.5c-1.5,2.9-5.4,3.5-6.7,6.7c-1.3,1.5-3.1,2.5-4.6,3.8c-1.7,3.2,1,2.8,2.6,3.1
		c3.8,0.8,6.3,2.8,6.6,6.9c0.5,6.3-2,9.3-8.4,9.6c-9,0.4-17.9-0.7-26.7-1.6c-4.6-0.5-9.3-0.1-13.9-0.4c-1.7-0.1-4.2,0.6-4.2-2.6
		c2.8-0.4,5.6-0.2,8.4-0.1c0.7,0-0.1-1,0.1-0.3c0,0.1-0.1,0.2-0.4,0.2c-11,0.5-22.1,0.5-33.1-1c-3.4-0.4-7-0.5-10.4,0.6
		c-2.9,0.4-5.8,0.3-8.7,0.1C1078.4,416.2,1076.3,416.6,1075.9,414z"/>
	<path class="st3" d="M1011.9,499.1c0.4,2.9-0.6,3.5-3,1.9c-0.3,0.5-0.6,0.5-0.9,0c-5.4-0.3-10.8-0.6-16.2-0.9
		c-2.3-0.1-5.3,0.9-4.3-3.4c-2.3,0.3-1.5,1.6-1.8,2.3c-0.6,1.6-1.8,1.2-2.9,1.1c-1.8-0.2-0.8-1.4-0.6-2.2c0.8-2.8,0.6-5.9,2.5-8.5
		c2.3,2.2,2.5,5.4,4.1,7.8c0.5,0.8,1.2,1.3,2,0.8c1.1-0.6,0.4-1.4-0.1-2c-1.9-2.4-1.1-6-4.1-8.1c-1.5-1,1.1-2.1,2.1-2.9
		c0.8-1.7,0.6-3.7,2.3-5.2c2.3-2,0.3-3-1.4-3.8c-1.5-0.7-2.8-0.5-3.8,1c-1.1,1.6-2.3,1.5-3.6,0.1c-1.8-3.5-4.8-6.2-4.9-10.8
		c-0.1-3.3-4.1-4.3-8.9-3.3c-1.4,0-2.9-0.2-2.9-1.8c-0.1-2.2,2-2.6,3.6-3.4c3.4-0.3,0.9-2.5,0.7-3.2c-0.9-3.4,0.1-4.7,3.5-4.1
		c20-0.8,39.6,3.3,59.6,3.3c3.9,0,8.4-0.1,11.9,2.7c1.4,2.1-0.1,3.5-1.2,4.8c-2.4,2.8-4.2,5.9-6.1,9.1c-2.2,2.2-3,4.6-2.3,7.9
		c1.7,8.2,1.4,8.4-7,9.5c-1.1,0.2-2.3,0.2-3.4,0.3c-3,0.5-5.9,0.2-8.6-1.4c-1.7-1-3.1-0.8-4.5,0.3c-0.4,0.2-0.9,0.3-1.3,0.4
		c-2.9,0.6-4.9-3.1-7.8-1.8c2.9-0.3,5,1.3,7,3.4C1009.2,492.7,1011.9,495.6,1011.9,499.1z"/>
</g>
</svg>
