<?xml version="1.0" encoding="utf-8"?>
<!-- Generator: Adobe Illustrator 20.1.0, SVG Export Plug-In . SVG Version: 6.00 Build 0)  -->
<svg version="1.1" id="Layer_7" xmlns="http://www.w3.org/2000/svg" xmlns:xlink="http://www.w3.org/1999/xlink" x="0px" y="0px"
	 viewBox="0 0 1366 734.1" style="enable-background:new 0 0 1366 734.1;" xml:space="preserve">
<style type="text/css">
	.st0{fill:none;}
	.st1{fill:#F96861;}
	.st2{fill:#F85D57;}
	.st3{fill:#808079;}
	.st4{fill:#C8C7B7;}
	.st5{fill:#C3403D;}
	.st6{fill:#D84544;}
	.st7{fill:#696761;}
	.st8{fill:#5A5E58;}
	.st9{fill:#7C7969;}
	.st10{fill:#F45853;}
	.st11{fill:#E44D4A;}
	.st12{fill:#64655F;}
	.st13{fill:#F25853;}
	.st14{fill:#5A5A57;}
	.st15{fill:#E6E6E6;}
	.st16{fill:#494D4B;}
	.st17{fill:#454342;}
	.st18{fill:#595755;}
	.st19{fill:#323432;}
</style>
<path class="st0" d="M1171,471.2c1,1.5,1.1,3.2,0.9,5c-12.3,2.7-24.5,5.8-36.8,8.6c-1.7-1-3.5-1.9-5.3-2.7c-0.4-1.4,0.3-2.8-0.6-4.3
	c-2.7-4.2-2.6-4.3,2.1-4.9c2.7,0.3,2.2,2.8,2.8,3.9c-1.2-0.7,0.7-4.8-3.4-3.5c-2.7-0.8-5-0.9-4.7,3c0.1,1.4,1.1,3.4-0.7,4
	c-2.3,0.7-2.2-1.8-2.9-3.2c-0.3-0.6-0.6-1.2-1.2-1.5c-0.9-0.1-1.3,0.6-1.8,1.1c-5.3,0.1-8.2-3.7-11.4-7.1c-2.1-3-1.1-7.9-5.5-9.5
	c-3.8-3.4-3.8-3.4,1-5.9c1.5-1-0.3-4.2,2.6-4c1.2,0.1,3.1,0.1,3,2.3c0,0.6,0.3,1,0,0.4c0,0,0.2-0.1,0.5-0.3
	c-0.7-2.6-5.3-3.1-4.1-6.8c0.1-0.2-0.1,0.1-0.2,0.2c-1.9,2.7-3.4,1.1-5-0.4c-0.6-2,2.8-3.1,1.4-5.3c4.8-2.2,10.2-1.9,15.3-2.8
	c3.4,1,7.3-0.5,10.4,2c2.9,0.2,4.8,1.9,6.4,4c2.5,3.3,5.4,5.6,10,3.9c2-0.7,4.2-1,6.3-1c3.6-0.1,7.5-0.9,9.8,3.1
	c0,1.4-1.1,1.9-2.1,2.5c-0.8,0.4-1.7,0.8-2.6,0.9c-5.4-0.1-4.2,3.5-4,7.3c2.8-2.1,5.6-1.2,8.2-1.3c1.3-0.2,2.6-0.1,3.9-0.6
	c2.3-0.6,3.1-2.2,3.1-4.4c0-2-0.2-3.9,0.3-5.8c0.3-0.1,0.8-0.4,0.8-0.4c3.2,3.4-0.5,8.2,2.5,11.8c0.9,1.1-1.7,1.6-2.3,2.7
	c0.3,0.2,0.4,0.5,0.3,0.8c0,0.3-0.1,0.4-0.2,0.4c-3.1,1.2-3.1,1.2-2.1,5.3c-0.2-1.9-1.6-3.6,0.3-4.4c1.3-0.6,1.8,1.1,2.4,2
	c0.4,0.7,0.7,1.5,1.3,2C1170.6,469.1,1171.8,469.8,1171,471.2z"/>
<path class="st0" d="M1129.8,482c1.2,1.1,5.4-3.6,4.2,2.2c0.3,2.1-1.8,2.6-2.6,3.9c-1.1,1.9-3.2,3.8-0.4,6
	c-10.1,3.8-17.8-0.9-19.8-12.4c-0.7-3.8-1.2-5.5-5.6-3.2c-4.9,2.6-10.1,0.3-12.4-4.9c-1.7-3.8-2.3-7.8-1.7-12
	c0.8-5.1,1.6-10.1,3.2-15c1.1-3.5,3.1-6.2,7.2-6.5c1.9,0.2,4.3,0.1,1.4,2.7c-0.8,0.7-1.9,1.1-2.4,2.2c-0.6,1.3-0.4,2.8-0.6,4.2
	c-0.2,1.6-0.7,3.8,2.6,3c2.1-0.5,2.1,1.3,2,2.8c-0.6,1.4-7.1,0.1-1.9,4.1c0.2,0.8-0.1,1.7-0.3,2.5c-0.9,4.5-2.1,4.9-5.7,1.8
	c-0.5-0.4-1-0.9-2-0.5c-0.3,3.2,0.5,6.2,2.5,8.8c1.7-0.3,1.4-1.5,1.8-2.4c1.1-2.6,2.9-3.4,4.9-1.2c1.5,1.7,3,1.9,4.8,1
	c2.1,3.5,6.3,4.4,9,7.3c0.4,0.5,0.7-0.7,0.9-1.3c3.6,0.9,1.8,4.5,3.2,6.4C1124.8,481.3,1127.5,479.3,1129.8,482z"/>
<path class="st1" d="M1170.8,452.4c0.7-1.7-1.3-4.4,2.1-5.2c3.1-0.7,3.5,1.8,4.7,3.5c0.9,1.2,1.8,2.5,2.3,3.8c0.4,1-1.1,1.8-1.3,1.5
	c-2.5-3.8-5.6,4-7.7-0.5C1170.5,454.6,1170.8,453.5,1170.8,452.4z"/>
<path class="st2" d="M1167,447.9c3,6.5,1.5,10.7-4,11.4c-3.2-1.8-4.1-5-4.8-8.2c0.1-1.3,1.6-1.1,2.1-1.8c2.3,0.9,2.6,3.6,4.2,5.2
	C1166,452.4,1163.1,448.8,1167,447.9z"/>
<path class="st3" d="M1170,462.1c1.8,1.3,5.1-5.2,6,1.1c0.5,3.4,1.5,7.1-4,7.1C1170.6,467.7,1168.7,465.3,1170,462.1z"/>
<path class="st4" d="M1170,462.1c0.6,2.7,2.4,5.2,2,8.1c-0.3,0.3-0.7,0.6-1,0.9c-0.5-0.7-1-1.3-1.5-2c-1.5-1.9-1.2-4.2-1.6-6.3
	c0-0.3,0-0.5,0.1-0.8C1168.7,462.1,1169.4,462.1,1170,462.1z"/>
<path class="st0" d="M1127.7,439.2c-3.4-1-7.1-0.4-10.4-2C1120.8,437.3,1124.7,435.6,1127.7,439.2z"/>
<path class="st5" d="M1109.1,469.1c-1.4,3.2-3,4.7-5.1,0.5c-0.5-1-0.7-2.3-2.3-1.9c-1.9,0.4-1.7,1.6-1.2,3c0.8,2.2-1,2.4-2.4,2.9
	c-1.9,0.8-2.2-0.6-2.6-1.9c-0.8-2.7-1.7-5.4-2.5-8c-0.4-1.3-0.2-2.2,1.3-2.6c1.3-0.3,2.5-1,3.4,0.7c0.7,1.2,0.2,3.8,2.9,3
	c2.7-0.8,0.3-2.8,0.9-4.1c0.2-0.5,1-0.8,1.5-1.2c2.1-0.5,3.2,0.3,3.7,2.5C1107.4,464.2,1108.4,466.6,1109.1,469.1z"/>
<path class="st6" d="M1116.6,457.3c3.6,0.1,7,3.6,7,6.8c0,3.1-4.1,6.2-7.8,6.1c-3.1-0.1-6.9-4.3-6.6-7.4
	C1109.7,458.1,1113.6,458,1116.6,457.3z"/>
<path class="st7" d="M1139.8,468.6c3,1.1,2.1,3.7,3.7,4.8c0.7-0.3,0.3-0.9,0.4-1.5c0.2-1.4-2.7-3.4,1-4c3.2-0.6,6.1-1.1,6.8,3.3
	c0.5,2.9-0.5,2.8-3.3,4.6c-2.4,1.6-5.1,1.3-7.4,3.1C1140.7,475.3,1140.3,472.2,1139.8,468.6z"/>
<path class="st8" d="M1105,455.1c-0.8,0.1-0.4-3.4-2-0.7c-0.7,1.3-1.9,0.8-2.4,0.3c-1.7-1.4-1.4-3.8-2.3-5.6c2-0.7,0.4-3.6,2.6-4.1
	c1.8,0.1,3.8,1.7,5-1.1c0.4-0.9,1.5-0.2,2,0.4c0.2,0.3,0.3,1.1,0.1,1.3c-3.2,2.3-1.1,3.4,1.1,4.2c1.2,0.4,2.2,0.7,2,2.3
	c-0.1,1.1-0.9,1.8-1.8,2.1c-0.8,0.3-1.8,0.3-2.1-0.6c-0.5-1.4,0.5-1.2,1.3-0.9c0.7-2.9-2.3-0.9-2.9-2.2
	C1104.2,451.8,1107.7,453.9,1105,455.1z"/>
<path class="st9" d="M1129.8,482c-2.8-1.2-5.3,0-7.9,0.9c0-3-2.4-5.7-0.9-8.8c0.8-1,1.5-1.3,2,0.1c0.6,1.7,1,3.4,1.5,5.1
	c2.1-2-2.6-4.8,0.6-6.5c1.8-1,4.1-2.7,5.9,0.3l-0.1-0.1c0,0.2-0.1,0.3-0.1,0.5c0.4,3.2-2.6-0.5-2.7,1.3c-0.1,2.7,3,1.5,3.7,2.9
	C1133,479.8,1131.1,480.9,1129.8,482z"/>
<path class="st10" d="M1160.3,459.1c-0.6,1.6-1.7,2-3.1,0.9c-1.5-1.1-2.9-1-3.9,0.4c-0.8,1-1.4,2.1-2.7,1.4
	c-1.3-0.7-0.5-2.1-0.6-3.1c-0.1-1.2,0-2.3,0-3.5c0.3-4.7,1.2-5.2,5.9-3.2C1158.6,453.7,1160.3,455.9,1160.3,459.1z"/>
<path class="st11" d="M1130.1,455.3c2-0.2,3.1-0.4,3.5,0.8c0.4,1-0.3,1.4-1.1,1.9c-2.6,1.4-0.4,3.2-0.2,4.7c0.2,1.6,1.3,3.2-1.2,4
	c-2.7,0.8-2.4-1.6-3-2.9c-0.9-1.9-0.3-4.9-4-4.4c-0.8,0.1-1.3-1-1.2-1.9c0.1-1.1,0.9-1.2,1.8-1.3
	C1126.8,455.8,1129,455.5,1130.1,455.3z"/>
<path class="st12" d="M1121,450.3c-0.6-2.3-1.3-4.7-1.9-7c2.1,0.4,4.8-0.2,4.9,3.2c0.1,1.6,0.5,3.2,0.8,4.8
	c-2.6-0.5-4.8,0.9-7.2,1.4c-1,0.2-1-0.7-1.1-1.2c-0.4-2.7-0.6-5.4-1-8.6c2.2,1,2.2,2.6,2.8,3.8c0.7,1.3,1.3,2.6,1.9,4
	C1120.5,450.5,1120.7,450.4,1121,450.3z"/>
<path class="st13" d="M1148.7,461.6c-0.8,1.9-2.6,1.3-3.9,1.7c-1.4,0.4-2.9,1.2-3.6-1.1c-0.6-2.2-1.3-4.4-2-6.6
	c-0.3-1.1-0.1-1.9,1.1-2.3c1.5-0.5,2,0.3,2.5,1.6c0.9,2.5,0,6.8,5.1,5.6C1148,460.5,1148.4,461.2,1148.7,461.6z"/>
<path class="st14" d="M1160.9,471.5c0.3,2.4-2.4,2.3-2.5,2.2c-2.5-1.4-3.1-4.2-3.5-6.5c-0.4-2.4,3.3-0.2,4.1-2.2
	C1161.6,466.7,1159.1,469.8,1160.9,471.5z"/>
<path class="st15" d="M1160.3,459.1c-1.4-2.4-2.9-4.7-4.3-7.1c0.5-0.8,1.2-1,2.1-1c2.3,2.3,3.4,5.4,4.8,8.2
	C1162,460.6,1161.2,459.5,1160.3,459.1z"/>
<path class="st7" d="M1167.9,462.8c1.9,1.8,1.8,4,1.6,6.3c-2.8-0.3-0.7-3.7-3.2-4.5c-1.1,2.3,1.8,4.4,0.5,6.6
	C1162.6,464.3,1162.6,463.8,1167.9,462.8z"/>
<path class="st12" d="M1128,451.6c-2.9-2.7-2.2-6.3-4.1-8.7c-0.6-0.8,0.7-1.2,1.4-1.4c0.6-0.1,1.7-0.1,1.5,0.7
	C1126.2,445.3,1128.7,448,1128,451.6z"/>
<path class="st16" d="M1114.2,454c-2.3-3-1.5-6.4-3.9-8.5c-0.7-0.7,0.1-1.4,1-1.6c0.8-0.2,2.2-0.3,1.9,0.4
	C1112.1,447.5,1115.3,450,1114.2,454z"/>
<path class="st17" d="M1131.1,473.1c-0.3-1.6,0.7-2.1,2-2.1c1.7,0,1,1.3,1,2.1c0,2.4,1.9,4.4,1.2,7.2
	C1132.4,478.5,1134.2,474.3,1131.1,473.1C1131,473.1,1131.1,473.1,1131.1,473.1z"/>
<path class="st18" d="M1161.2,464.6c2.3,1.4,2.1,4.1,3.3,6c0.7,1.1,0.5,1.5-1,1.6c-1,0.1-1.8,0.8-1.6-0.8
	C1162.1,469.1,1160.3,467,1161.2,464.6z"/>
<path class="st19" d="M1121,474.1c-0.6,3,1.7,5.8,0.9,8.8c-0.8,0.2-2.7,0.2-2.2-0.3c2.9-3-0.2-5.1-0.7-7.5
	C1119.2,473.8,1120.1,474,1121,474.1z"/>
<path class="st15" d="M1119.1,463.7c-0.1,1.6-0.8,2.7-2.4,2.6c-1.7-0.1-2.6-1.3-2.7-2.9c-0.1-1.5,0.7-2.7,2.1-2.8
	C1118.1,460.5,1118.9,462,1119.1,463.7z"/>
</svg>
