<?xml version="1.0" encoding="utf-8"?>
<!-- Generator: Adobe Illustrator 20.1.0, SVG Export Plug-In . SVG Version: 6.00 Build 0)  -->
<svg version="1.1" id="Layer_1" xmlns="http://www.w3.org/2000/svg" xmlns:xlink="http://www.w3.org/1999/xlink" x="0px" y="0px"
	 viewBox="0 0 1366 734.1" style="enable-background:new 0 0 1366 734.1;" xml:space="preserve">
<style type="text/css">
	.st0{fill:#EC5553;}
</style>
<path class="st0" d="M121.3,471.7c0.8-1.9-1.2-2.8-1.4-4.4c-0.4-3.6-1.6-7.4,4.6-6.5c2.6,0.4,4.2-1.5,3.6-4.1
	c-2-8.1-1.8-16.4-1.9-24.7c-0.3-29.2-0.5-58.5-0.7-87.7c0-1-0.2-2-0.4-3c2-9.7,0.5-19.6,1-29.3c1-3-0.1-6,0.5-8.4
	c-0.1-1.2-1.1-0.3-0.5-0.6c0.1-0.1,0.2,0,0.2,0.3c0.1,2,0.7,4.1-0.5,6c-1.1-4.1-0.8-8.2-0.7-12.4c0.4-5,0.9-10,0-14.9
	c0-0.7,0-1.4,0-2c1.3-2.7,0.4-5.5,0.1-8.3c-0.2-2.3,0-4.3,1.1-6.3c1-1.8,2.6-2.7,4.6-2.2c1.8,0.4,3.2,1.5,2.2,3.6
	c-0.8,1.8,0.5,0.9,1,0.9c3.2,0,4.7,2,5.7,4.7c0.5,1.4,0.6,3,1.7,4.1c2.8,2.8,3.5,5.8,0.3,9.9c4.3-1.1,7.3-0.8,9.8,1.7
	c1.7,1.7,3.8,0.1,5.7,0.1c2.1,0,5.1-1.3,4.6,2.9c0,0.2-0.5,1.2,0.3,0.5c0.7-0.5,2.8-0.7,1.6-2.3c-1.9-2.6-0.3-4,1.6-5.3
	c2-1.4,3.4,0.2,4.7,1.5c1,0.9,2,1.8,3.4,1.9c0.6-0.8-0.2-1.2-0.5-1.6c-4.2-4.3-4.3-5.1,0.7-8.4c3-2,6.7-3.2,6-8
	c-0.1-0.9,1-1.7,2.1-1.8c1.4-0.1,2.1,0.9,2.7,1.9c1.8,3,1,6.4,1.2,9.6c0.1,1.6,0,3.3-0.1,4.5c-0.1,1,0.9,0.4,0.2,0.5
	c-0.2,0-0.3-0.1-0.2-0.4c0.4-0.9-1-3,1.5-2.7c2.3,3.3,1.2,6.9,1,10.5c-2,5.3-1.6,10.9-1.5,16.4c-0.1-3.2-0.1-6.4,0.1-9.7
	c3.5-0.1,2.6,2.7,2.6,4.4c0.2,6.7,0,13.3,0.1,20c0.1,14,2.8,27.8,2,41.8c-0.1,2.6,2.5,4.7,1.7,6.9c-0.1-2.5,0.4-5.7,4.4-5
	c4.3,0.7,1.9,4.5,2.6,6.4c0.6-2-0.9-5.9,3.5-6.2c2.8-0.2,4.7,1.3,4.6,3.8c-0.1-3,2.4-3.9,5.3-3.8c3.6,0.1,2.4,3.2,2.8,5.2
	c0-2.5-0.4-5.8,3.6-5.6c5.1,0.3,3.1,4.8,3.9,7.8c-0.3-6,0.7-7.9,4.1-8c5-0.1,3.8,3.4,3.7,6.3c0.1-3.3,0.4-6.6,4.9-6.3
	c5,0.3,3,4.1,3.1,6.8c0.6-5.7,1.8-7.3,5.3-6.8c2.9,0.4,3.4,1.5,2.7,6.9c0.4-3.6,0.8-7.2,5.8-6.9c4.7,0.3,3.7,3.8,3.7,6.5
	c0.4-1.3-0.2-2.8,0.6-4.2c0.9-1.6,2.4-2.4,4.2-2c4.3,1,2.8,4.1,2.4,6.8c1.5-7.1,2.7-8,9.3-7.1c1.6,0.2,3.3,1,4.9,0.7
	c4.7-1,5.9,1.1,4.8,4.6c-0.7-3.4,1.7-4.4,5.2-4.4c5.3,0,4.2,3.8,4.1,7.5c0.5-3.5-0.5-7.3,4.3-7.2c4.6,0.2,5,3.6,4.9,7.2
	c-1.9-13.8-2.6-27.7-3.1-41.6c0.1-2.3-0.2-4.6,0.5-6.9c0.5-1.4,1.3-2.6,1.9-4c1.7-4,6.3-4.7,9.3-1.5c1.8,1.9-0.2,2.7-1.4,3.9
	c4.3-0.1,8.3-1.6,11.2,1.5c-0.2-0.1-0.6-0.8-1.1-1.4c-1.2-1.5-3.4-3-1.4-5c2.1-2.2,4.3-0.7,6.2,0.8c1.4,1.2,2.4,2.7,3.4,4.3
	c0.9,1.4,0.4,4,3.2,3.7c2.7-0.3,5.6,0.5,7.3-2.9c1.6-3.1,6.4-4.9,4-9.7c-0.4-0.8,0.3-1.7,1.1-2c2.4-1.2,5-1.8,7.7-2
	c1.1-0.1,1.9,0.4,2.3,1.5c0.4,1.2,0.3,2.9-0.8,3.1c-6.6,1.2-2.8,6.9-4.8,10.1c1.6-2,1.7-4.7,3.2-6.7c0.7-0.9,1.5-1.9,2.8-1.8
	c1.5,0.2,1.5,1.5,1.8,2.6c0.8,3.4,1.9,6.8,1.7,10.2c-0.2,3.2,1.1-0.9,1,0.3c3.1,4.5,1.8,9.8,2.7,14.7c1.2,6.1-0.2,12.2,0,18.3
	c0.1,2.8-0.5,5.7,2.9,7.3c1.1,0.5,0.8,2.1,0.9,4.4c0.1-3.5-0.2-5.9,3.4-5.8c5,0.2,4.8,3.6,4.6,6.3c0.1-5,0.9-6.2,4.6-5.9
	c3.2,0.3,3.6,1.2,2.6,7.3c1.2-2.8-0.4-7.4,4.6-7.4c4.1,0,4.4,3.1,4.3,5.8c-0.2-2.6,0.3-4.9,4.1-4.9c4.3,0,3.2,3.3,3.5,5.8
	c-0.2-2.9-0.7-5.8,3.6-5.9c3.3-0.1,6.1,0.4,5.9,3.5c0.1-1.5,1.2-3.1,4.2-3c3.8,1,2.9,4.9,4.3,7.3c1.6,0.2,0.5-1.8,1.5-2.1
	c2.4-1.4,4.3-4.1,7.7-2.9c1.4,1.2,1.3,2.7,0.8,4.3c0.7-0.9,0.2-2.1,0.9-3c4.5-2.7,5.4-2.1,7,4.3c0.5,0.9,1.2,1.6,2.3,1.2
	c2.1-0.8,1.7-3.2,2.9-4.5c1.7-0.3,1.8,1,2.1,2.1c0.1,0.5-0.2,1.6,1,0.8c0.4-0.1,0.8,0,1.1,0.3c1.1,1.5,3.9-0.9,4.4,1.9
	c-0.4-2.8-3.4-0.5-4.5-2c-1.1-3.2-0.9-5.7,3-6.6c5.3,0.2,3.6,4.5,4.3,7.6c0.2-0.9,0-1.6,0.2-2.3c0.5-2.1,1.5-3.9,4-3.4
	c3.2,0.6,2.2,3.6,2.9,5.5c1.2-0.8,0.4-2.5,1.5-3.3c2.9-2.2,5.3-0.9,7.5,1.2c0.4,0.7,0.4,1.4,0.3,2.2c-1.5,2.4-0.2,4.3,0.9,6.4
	c1.8,3.4,0.4,6.6-3,5.6c-7-2.1-12.8,1.7-19.2,2.4c-2,0.2-3.6-0.2-4.6-2.1c-1.2-2.1,0.3-3.4,2-4.7c-2.1,0.5-4,0.3-5.6,1.4
	c-0.3,1.8,3.3,1.7,2,3.8c-1,1.7-2.8,1.5-4.4,1.8c-0.8,0.2-1.7,0.2-2.5,0c-7.4-2.5-15-0.7-22.5-1.3c-2.5-0.2-4.3,0.3-5.5,3.1
	c-1.2,2.9-4.2,4.3-7.1,3.1c-5.5-2.1-11,0.3-16.5-0.5c-0.9-0.1-1.7,0.2-1.8,1.2c-0.1,1.1,0.5,1.9,1.6,2.2c2.5,0.6,5,0.5,7.4,0
	c2.8-0.6,5.3,0.2,7.6,1.7c1.1,0.7,2.3,1.6,1.5,3.2c-0.6,1.2-1.9,1.6-3,1.1c-3.6-1.6-6.4-0.2-9.3,2.1c2.5,2,6,4.2,0.2,6.5
	c-1.3,0.5-1,1.4-0.1,2.3c1.3,1.4,3.4,1.9,5.2,1.1c1.2-0.5,2.6-0.6,3.9-1.5c-1.9-0.7-4.9,0.2-4.6-2.8c0.3-2.4,2.7-2.6,4.8-2.7
	c6.9-0.2,13.9-2,20.7,0.7c1.4,0.6,3,0.2,4.4-0.4c3.5-1.4,5.8-0.9,6.4,3.4c0.3,2.5,2.3,4,4.1,5.4c1.3,1,3,1.5,3.9-0.2
	c2.3-4.3,6-3.7,9.5-2.8c3.4,0.9,6.3,1.7,8.7-2.1c1.3-2,3.1-0.7,3.7,1.1c0.8,2.6,2.2,5.3,0.8,8.4c2.5-1.2,3.5-3.8,5.7-5
	c4.3-2.4,8.5-4.6,13.6-1.7c2.2,1.3,4.9,0.5,7.4,0.9c4.5,0.8,4.9,1.7,2.2,5.4c-0.3,0.4-0.4,0.9-0.2,1.4c0.1,0.8,0.3,1.7,0.1,2.4
	c-0.3,1.3,1.4,3.5-1.6,3.7c-3.2,0.3-2.5-2.1-2.3-3.6c0.3-2.4-1-3.1-2.8-3.7c-0.8,2.8,2.1,4.6,1.5,7.1c-2.3,2.3-4.2,1.7-5.9-0.8
	c-0.6-1-1.1-2-1.8-3.2c-1.6,1.5,0.5,2.8-0.2,4c-1.2,4.8-3.3,1.5-5.1,0.5c-0.7-0.3-1.3-0.7-1.6-1.9c0.3,1.5,0.4,2.5,0.8,3.5
	c-0.1,1.3,2.6,2.6,0.1,4c-3.4,0.9-3.8-2.4-5.5-3.9c-1.1-0.3-1.8-2.1-3.2-0.9c-0.2,0.2,0.1,1.1,0.1,1.7c-1.6,0.4-2.7,1.5-3.4,3
	c-2.4,1-0.8,2.2,0.1,2.8c2.9,1.7,3,4.3,3.1,7.2c0.3,12,0.7,24.1,1,36.1c0.2,0.4,0.2,0.9-0.1,1.3c-2.9,1-2.4-1.4-2.8-3.1
	c-2.5,4.4,1.4,3.4,3.1,4.1c0.5,0.9,0.5,1.8,0.1,2.8c-0.7,1.4-2.4,1.8-3.3,2.9c-2.5,3.1-4,4.1-7.4,0.1c-1.9-2.3-5.4-4.5-8.5-6.1
	c-3.8-2.1-2.3-3.1,0.2-4.5c1.5-0.8,2.7-1.9,4.1-2.9c0.7-0.5,1.7-1.3,1.4-1.9c-2-4.1,1.5-8.1,0.1-12.6c-2.6,1.7-2.9,5.3-6,6.1
	c-0.2,0-0.1,0.6,0.1,0.9c0.9,1.4,2.1,2.9,0.8,4.6c-1.6,2.2-3.8,3.7-5.9,5.3c-1,0.7-2.1,1-3.3,0.3c-1.3-0.8-1.7-2-1.5-3.4
	c0.1-0.5,0.3-1,0.4-1.4c0.8-4.5,2.9-9.2-3-12.2c-1,0.9-1.7,2.9-3.8,3c-0.9,0.1-1.7,0.6-1.7,1.5c0,4.2-2.6,7.1-5,10.1
	c-1.3,1.6-1.2,3.4-1.1,5.2c1.1,17.6,1.5,35.2,3.4,52.7c0.6,5.9-0.1,11.9,1.1,17.9c0.5,2.5,2.9,5.1,0.3,7.8c-0.3,0.3,0,1,0.3,1.4
	c3.7,5.1,5.3,10.7,3.9,17.1c-0.2,0.7,1.1,1.2,0.9,2.2c-5.3,2.7-8.6,1.4-10-3.8c-0.1-2-0.2-4-0.3-6c0.1-0.1,0.3-0.3,0.4-0.4
	c1.7-1.9-1.1-2.6-1.1-4.1c-0.4-2.3-1.3-4.6-1-7c1.3-3.3,0.8-6.9,1.2-10.3c0.1-1-0.8,0.7-1.2,0c-1.7-1.6-1.5-3.5-1-5.4
	c0.9-1.8,1.9-3.4,1.7-5.9c-0.2-2.2-1.7-1.6-2.4-2.4c-1.6-5.2-1.1-10.6-1.6-15.8c-2.2-26.2-1.1-52.6-1.1-78.9c0-0.7,0.2-1.3,0.4-1.9
	c2.3-3.1,5.4-1.7,8.3-1.7c3.4-2.3,0.3-4.9,0.4-7.4c0.1-2.8-1.1-4.1-4.1-4.1c-3.3,0-6.6,0.3-9.9,0.5c-12.8,0.7-25.6,0.6-38.4,0
	c-8.3-0.4-16.4-0.2-24.7,0.1c-2,0.1-4,0.2-6-0.2c-2.9-1-5.9-0.5-8.8-0.6c-1.8-0.1-3.6,0.2-5.1-1.2c-18.9-0.6-37.8-0.8-56.8-0.3
	c-8.8,0.2-17.6,0.2-26.4,0.2c-4.6,0-4.7,0-4.7,5.4c0,3.8,0,7.6,0,11.5c0.5-0.1,1-0.2,1.4-0.3c9.2-2.3,10.2-1.5,10.6,7.6
	c0.8,16.9,1.9,33.8,2.8,50.7c0.2,4,0,8,0,12c-0.9,7.7-0.1,15.3-0.2,23c0.3,0.7,1,0,0.3,0.2c-0.2,0.1-0.2-0.1-0.3-0.4
	c-0.1-1.4-0.6-2.9,0.5-4.2c1,3.4,0.7,6.9,0.6,10.3c-1.8,2.8,0.3,5.7-0.3,8.6c-0.1,0.6-0.2-0.1,0,0.5c0.2,0.4,0.3-0.3,0.6-0.3
	c1.3,1.8,0.8,3.9,0.8,5.8c0,11.1,0,22.2,0,33.4c-6.6,1.5-13.4,2-20.1,2c-4.1-0.8-8.2-0.9-12.4-1c-1.3,0-3,0.2-3.2-1.5
	c-0.2-1.3,1.4-2,2.5-2c4.7,0.1,9-3.4,14-1.1c1.9,0.9,4.2,0.4,6.2-1.8c-4.5-1.9-3.2-4-0.5-6.6c3.3-3.2,3-5.3-0.8-8
	c-2.7-1.9-3.8-4.6-2.8-7.4c2.5-6.6-0.1-12.3-2.6-18c-1.3-2.9-8.2-4.9-10.9-3.1c-1.6,1.1-3,1.2-4.7,0.5c-2-0.8-4.2-1.1-6.2-2
	c-5.4-2.3-10.5-4.2-16.5-0.8c-3.3,1.9-7.2-0.3-10.3-2.2c-2.6-1.6-1.9-4.3,1.7-8.3c1.6,0.2,1.9,1.8,2.7,2.8c0.4,0.1-0.3,1.6,0.8,0.7
	c0.9-0.7,1.7-1.4,2.6-2c0.8-0.5,1.6-0.8,2.6-0.7c2.1,0.7,4,2.3,6.2-0.1c1.9-2,2.2,1.7,3.7,1.3c1.4-2.6-0.3-5.5,0.9-8.1
	c2.9-1.3,5-1.2,6.1,2.4c0.4,1.3,0.9-0.8,1.7-0.4c0.7,0.3,0.8,1,0.8,1.6c0.4-0.3-0.1-0.7,0-1c1-3.1,2.3-1.6,3.6-0.3
	c1.4,0.9,1.4-2.3,3-1.1c0.1,0.1,0.1,0.3,0.2,0.4c0.3,0.4,0.4,0.4,0.5-0.1c0.4-4,0.5-8,0.6-13c-0.3,2.7,0.3,4.4-0.6,5.9
	c-2.6-0.4-2.2-2.6-2.3-4.3c-0.3-17.6-1.2-35.2-1.6-52.8c-0.1-2.6,1.7-4.2,2.9-6.3c-0.4,0.3-0.5,0.7-0.8,1.1
	c-1.1,1.4-3.2,2.1-3.7,0.6c-1-2.9-2.9-0.9-4.3-1.5c-2.4-1-2.6-2.7-2-3.7c-0.5,1.4-2,3.4-5,2.5c-3.6-1.1-1.6-4-1.8-6
	c-0.4,3.2-1,6.3-5.6,4.6c-1.9-2.2-0.3-4.5-0.3-6.6c-0.7,2-0.2,4.3-1.3,6.4c-5.1,1.2-5.1,1.2-6.5-7c0.9,5.5-0.1,8.2-2.9,8.5
	c-2.1,0.2-2.8-1-3.6-5.4c-0.5,1.7,2.8,5.5-2,6.5c-3.7,0.7-3.9-2.7-4.4-5.1c-0.4,1.7,1.8,3.7,0,5.4c-1.5,1.4-3.4,2-5.4,0.5
	c-0.9-2.1-1.2-4.4-2.2-6.4c0.7,2.6,2.5,5.1,1.1,8.1c-3.6,3.2-4.6,0-5.9-2.4c-0.7-1.2-1.4-2.4-2-4.3c0.5,2,1.3,3.2,2,4.5
	c0.8,1.8,2,3.7-0.3,5.2c-1.8,1.1-3.3,0.4-4.1-0.7c1.8,1.8,1.6,4.9,2.2,7.7c0,12.5,0.2,25,1.1,37.4c0.6,8.1,2.8,16.1,1.8,24.3
	c-0.1,0.6,0.3,1.3,0.4,0c0-0.3,0.2-0.6,0.5-0.9c3.6,1.5,2.8,4.8,2.6,7.4c-0.2,2.8-1.5,5.8-4.9,6.1c-2.8,0.3-3.9,1.4-3.5,4.1
	c0.2,1.5-0.8,2.9-2.1,2.9c-3.4-0.1-5.5,2.9-8.8,3.1c-2.2,0.1-3,1.6-2,3.4c1.1,2,1.1,4-0.1,5.7c-2.1,3.2-3.2,6,0.3,9.2
	c1.5,1.4-0.9,4.9-3.4,5.4c-3.2,0.7-7.1-2.3-7.2-5.7c0.2-3.2,0.6-6.5,1.5-9.7c-0.8-1.3,3.3-1.4,0.8-3.2c-0.5-1.8-0.9-3.5-0.5-5.4
	c0.7-3.6,0.6-6.3-3.1-8.9c-3-2.1-0.1-6.3-0.9-9.1c-0.2,1.6,0.2,3.6-0.2,5.5c-3,0.2-2.3-2.2-2.5-3.7c-0.5-4.1,0.3-8.3,0.1-12.5
	c-0.2-3.6,1-7.3-2-10.2c0.4-0.3,0.3,0,0.3,0.4c0.3,2.9,1.6,6.8-2.9,7c-3.6,0.2-3.2-3.8-3.4-6.1c-0.3-3.8-1.5-8.3,4.4-9.5
	c1.1-0.2,1.2-1.5,1.1-2.5c-0.5-3.1-0.4-6.3-2.1-9.2c-2.6-4.5-3.4-9.3-1.6-14.5L121.3,471.7z"/>
<path class="st0" d="M186.2,280.6c-0.1,1.8-0.3,3.5-0.4,5.3c-0.5-4.6-2.3-9.1-1.4-13.9c0.2-1.1-1-3.7-2.6-3.6
	c-2.2,0.1-1.2,2.1-0.9,3.5c0.5,2.2-0.5,3.7-2.5,4.2c-3.4,0.9-5.5,3.5-8.5,6c3.6,0.9,4.6,3.8,6.8,6.2c-3.1,1.1-5.3,0.6-7.4-1.6
	c-0.8-0.9-1.1-3.3-3.2-2.1c-0.9,0.6-2.1,1.6-2.2,2.5c-0.2,2.5,2.7,1.1,4,2.9c-3.4,0.4-5.1,4.2-9.1,3.6c-0.2-2.3,3.5-1.8,2.5-4.3
	c-1.3-0.8-2.7-0.3-4.1,0.1c-2.6,0.6-5.2,1.7-7.3-1.4c-0.7-1.1-2.6-2.3-4.4-0.9c-2.1,1.6-3.7,0.1-5.6-1c3.8-2.9,5.3-5.8,0.3-8.9
	c-1.1-0.7-0.8-2.1-1.1-3.2c-0.8-3.3-1.7-6.7-6.5-4.5c-1,0.5-2-0.3-2.7-0.9s-0.2-1.2,0.5-1.5c0.9-0.5,2.7,0.1,2.1-1.9
	c-0.3-0.8-1.2-1.1-2-1.2c-1.5-0.1-2.6,0.5-3.2,1.9c-1.4,3.3-1.6,6.8-0.8,10.3c0.4,1.7,0.5,2.9-1.2,3.7c-1.8-20.7-0.4-41.4-1.3-62.1
	c-0.4-11.2-0.8-22.3-1.3-33.5c-0.1-2-0.1-4,0.3-5.9c-0.7-2.2-0.7-4.1,2.5-3.8c3.1,0.3,4.4-2.7,7.1-3.4c-1-0.4-1.6,0.5-2.3,0.5
	c-2.8,0.2-4.7-1.3-5.2-3.7c-0.4-2.7,1.7-4.1,4.2-4.7c1.3-0.3,2.6,0.3,4,0.2c1.9-0.2,3-1.2,3.1-3.2c0.4-5.4,1.7-6.5,7.3-6.1
	c3.6,0.3,7.1-0.1,11.2-1.4c-3.4-2.6-6.3-2.5-9.4-1.4c-6.9,2.3-6.3,2-9.4-4.4c-3.7-7.7-0.6-14.2,1.7-21c0.6-1.9,1.8-2.7,3.8-2
	c2.2,0.8,4.5,0.9,6.9,0.6c1.5-0.2,5.3,5,5,7c-0.4,3-2.5,3.7-5.1,3.1c-5.5-1.2-1.5,4-3.7,4.8c0.3,0.7,0.6,1.1,0.9,1
	c5.3-1.7,10.4-1.1,15.3,1.6c0.6,0.3,1.3,0.3,2,0.2c6-0.3,5.8-0.2,6.8,5.5c0.5,2.8-1,3.7-3,4.9c-3,1.8-2.8,3.1,0,5.1
	c4.7,3.3,9.8,2.4,14.9,1.5c2.1,0.5,4.3,0.3,6.4,0.3c15.8-0.1,31.5,0.6,47.2,1.9c4.1,0.3,8.2-0.4,12.3-0.3c8.1,0.3,16.2,1.8,24.3,1.3
	c4.5-0.3,8.8,1.1,13.2,1c1.7,0,4.2,1.2,4.7-2c0.4-2.7-0.4-4.4-3.5-4.4c-0.6,0-1.1-0.6-1.6-1.1c-0.3-0.5-0.5-0.9-0.7-1.5
	c-0.8-3.6-1.5-7.2-1.2-10.8c0.2-3.6-0.4-7.2,0.5-10.8c0.6-1.6,2-1.7,3.3-1.4c5.5,0.9,11.3-0.4,16.6,2c1.9,0.8,3.1-0.6,4.4-1.6
	c6.2-4.4,14.4-1.7,16.5,5.5c0.2,0.8,0.6,1.5,1.2,2.1c3.6,3.7,3.6,3.7,1.2,7.8c4.6,1.5,8.8-0.8,13.2-1.4c8.4-1.2,12.1,2.6,8.9,10.5
	c-1.3,3.1-1.2,4.6,1.3,6.5c1.7,1.3,0.8,3.4,1.2,5.3c2.2-1-0.4-4.1,2.2-4.8c1.9-0.1,3.4,1.3,5.3,1.1c10.9,0.2,21.9-0.4,32.8,0.4
	c1.3-0.3,2.7-0.7,4.1-0.4c2.4,1.4,5.1,0.9,7.7,1c2.1,0.1,4.3-0.2,6,1.5c1,1.2,0.2,2.5,0,4.4c2.1-1.4,4.3-1.9,5.9-0.2
	c4.4,4.8,10.1,6.2,16.3,6.3c3,0,2.3,3.2,4,4.9c1.6-2.1,3.9-2.8,6.5-3.1c2.1-0.2,3.6-1.5,5.1-2.9c1.2-1.1,2.2-2.7,4.2-1.9
	s1.1,2.8,1.1,4.1c0.9,0.3,1.3,0.1,1.7-0.2c1.8-1.4,3.7-3.9,6-1.9c2.5,2.2-0.8,4-1.4,6c-0.3,1.3-3,1-2.1,2.7c1.1,1.9,3.4,1.7,5.9,2.1
	c-1.2-2-4.9-1.7-3.9-4.7c1.7-2.6,4.3-3.9,6.6-1.5c2.3,2.3,7.1,4,4.3,8.7c-1.1,1.7-0.4,3.8-2,5.4c-1.6,1.6,0.8,1.6,1.5,2.1
	c1.3,0.8,2.9,1.5,2.5,3.3c-0.3,1.7-2,2.1-3.4,2.4c-0.5,0.1-1,0.2-1.5,0.3c-7.3,1.6-7.8,1.2-8.5-6.7c-1.3,0.7-1.2,1.8-1.3,2.9
	c-0.7,5.4-2.6,6.5-7.6,4.3c-3.7-1.6-6.8-4.2-10.3-6c-2.8-1.4-5.2-1.9-7.9,0c-1.7,1.2-3.7,1.3-5.8,0.9c-4.1-0.8-4.9-2.3-4-6.8
	c-2,4.5-5.6,8-7.6,12.6c-0.5,1.3,0.2,2,1.3,2.8c3.6,2.6,3.5,3.4-0.6,5.4c-1.4,0.7-2.1,3.5-4.4,1.8c-0.9-4.1-0.1-8.2-0.4-11.6
	c-0.4,4.9,0.5,10.6-0.2,16.3c-4,1.6-4.7-1.7-5.9-4.1c-0.2-0.5,0.5-1.5,0.1-1.9c-4.6-3.7-3.5-9-4-13.9c0.4,5.9,0.4,5.9-2.2,7.7
	c-1.4-2.1-1.1-4.7-1.8-6.6c0.6,5.3,3,10.9,1.9,16.9c-0.3,1.6,0.8,2.4,1.8,3.2c-0.3,3.2,1.7,3.9,4.2,3.7c9.5-0.9,17.7,3.1,25.7,7.1
	c7.4,3.7,14.2,0.1,21.2-1.1c0.7-0.2,1.5-0.2,2.2,0c3.6,4.2,3.1,5.4-4,10c3.7-1.5,7.5-1.9,10.9,0.3c1.5,1,5.4,2.2,1.9,5.4
	c-6,0.8-11.9,0.1-17.9-0.4c-7.8-0.6-15.7-0.2-23.5-0.2c-19.2,0-38.3,0-57.5,0c-2.6,0-5.9-1.6-7.7-0.1c-2.1,1.8,0.2,5,0.2,7.6
	c0,7-0.6,14,0.9,20.9c0.2,11.3,1.1,22.5,1.6,33.7c0.8,7.7,1,15.4,0.2,23.2c-0.2,0.8-0.3,1.6-0.6,2.7c-1.4-5.2-2.8-10-3.1-15.8
	c-2.6,2.4-4.2,4.6-3.8,7.5c0.2,1.6,0,2.5-1.4,3.2c-0.8,0.4-1.6,0.5-2.3-0.1c-1.1-1-1.2-2.4-0.6-3.7c1.1-2.3,1.6-4.4,0.9-7.1
	c-0.7-2.4,1.2-2.6,3.1-1.9c1.6,0.6,2.7,0,2.6-1.8s-1.3-1.4-2.5-1.1c-1.3,0.4-2.5,0.8-3.8,0.9c-2.3,0.3-3.4,0.7-2,3.5
	c0.8,1.7,1.2,4.5-2.1,5.5c-1,0.3-2,1.5-2.3,2.5c-1.8,5.6-7,3.3-10.6,4.5c-1.3,0.5-2.1-0.8-2.1-2.5c-0.1-3.8-2.5-6.1-5.7-7.8
	c-0.9-0.5-2-0.5-2.7,0.4c-0.9,1.1,0.2,1.8,0.8,2.5c1.1,1.2,2.3,2.3,3.4,3.5c0.7,0.8,2.3,1.5,1,2.7c-1.1,1-2.4,0-2.9-0.9
	c-2.2-3.8-5.8-2.7-8.9-2.4c-2,0.2-4.5,1.1-5-1.4c-0.6-3.3,3.3,0.5,3.8-1.9c-5.6-3.9-5.6-3.9-8.7,2.5c-0.2,0.3-0.9,0.4-1.3,0.6
	c-2.2-1.7-2.4-4.2-2.5-6.8c-0.3-8-1.5-15.9-1.1-23.9c0.1-1-0.1-2-0.5-2.9c-0.9-4.9,0.2-9.8-0.4-14.7c0.3-9.6-0.7-19.3,0.6-28.9
	c0.3-2.6-1.1-3.5-3.6-3.5c-4.7,0-9.3-0.2-14,0c-6.8,0.2-13.5-1.5-20.3-1c-19.6-0.1-39.3-0.1-58.9,0.9c-3.2,0.2-6.3,0.1-9.5-0.5
	c-2.1-0.4-3.4,0.3-3.1,3c1.2,9.9-0.4,20,0.9,29.9C188.1,278.3,187.6,279.7,186.2,280.6z"/>
<path class="st0" d="M180.8,160c-5.2,2.8-10.1,1.9-14.8-1.1c-1.4-0.9-4-0.9-3.5-3.4c0.4-2,1.5-3.9,3.7-4.3c6.7-1.3-1.6-5.5,1.4-8
	c0.5-0.4-2.6,0-3.8,0.5c-3.4,1.3-5.7-1.4-8.3-2.3c-2.5-0.9-4.2-1.1-6.4,0c-1.3,0.6-2.9,0.5-4.4,0.6c-0.6,0-1.4-0.1-1.9-0.4
	c-1-0.8-0.8-2.3,0.2-2.3c3.9-0.3-3.7-9.9,4.9-5.9c1.7,0.8,3.1,1.2,4.3-0.8c1.3-2.3-1.7-2.3-1.7-2.7c-0.6-8.2-8.6-0.6-10.3-5.7
	c-3.2,5.2-3.7,10.4-4.8,15.5c-0.4,2.1-0.3,3.9,1.4,5.5c0.8,0.7,2.1,1.3,1.7,2.8c-1.5,5.1,1.7,4.2,4.3,3.2c3.5-1.4,6.7-2.6,10.5-1.2
	c1.6,0.6,3.5,1.2,3.4,3c-0.1,2.3-2.2,1.9-3.9,2c-4.4,0.2-8.7,0.3-13.1,0.8c-1.9,0.2-4.2,0.5-1.9,3.7c1.7,2.2-1.4,5.7-4.6,5.5
	c-1.1-0.1-2.2-0.7-3.4-0.8c-1.9-0.1-3,1.4-3.9,2.7c-0.8,1.1,0.4,1.8,1,2.5c1.1,1.1,2.2,2.1,3.9,1.2c1-0.5,1.7-1.7,3.1-1
	c0.9,0.4,2,0.8,1.9,2c-0.1,1.5-1.2,1.2-2.2,0.9c-1-0.4-2-0.2-2.6,0.8c-1.5,2.5-3.5,3.3-6.3,2.7c-2.4-0.5-1.3,1.6-1.8,2.6
	c-1.4-11.5-1.2-23-1.6-34.5c-0.3-8.7,0.3-17.5-1.1-26.1c-0.8-4.8,1.3-6.5,5.9-5.8c5.3-0.5,10.7,0.2,16,0c1,0,1.9,0.5,2.2,1.6
	c0.1,0.5-0.7,0.5-0.6,1c2.3-0.5,4.5-1,6.8-1.5c10.5,0.8,21,1.9,31.6,1.8c2.8,0.6,3,3.1,3,5.1c0.3,9.6,0.8,19.2,1.3,28.8
	c0.1,2.2-0.3,4.4-2.7,5.4C180.8,155.3,183.2,158.8,180.8,160z"/>
<path class="st0" d="M125.9,111.2c-7.3-0.8-5.9-6.2-5.7-10.9c0.1-3.6,0.9-7.3,0.5-10.8c-0.7-6.1,2.4-8.1,7.7-8.3
	c4.6,0.7,9.2,0.4,13.8,0.6c8,0.3,15.9,1.7,23.8,1.3c4.5-0.2,8.9,1.1,13.3,1.4c3.3,0.2,5.3,2.2,5.3,5.5c0.2,7-0.2,13.9-0.5,20.8
	c-0.1,3.5-2.2,4.6-5.3,4.3C161.2,115.2,143.6,112.8,125.9,111.2z"/>
<path class="st0" d="M434.3,103.9c-3.4-1.5-6.8-3.3-9.6-6.2c27.9,0.3,55.3,4.4,82.8,4.5c3.5,0,4.8,1.4,4.5,4.8
	c-0.2,1.8-0.3,3.7,1.2,5.1c-0.5,2.5-0.3,5,0.4,7.4c1,3.5-0.4,4-3.5,3.5c-8.6-1.3-17.2-0.8-25.8-1.1c-8.2-0.2-16.3,1.1-24.5,0.6
	c-2.1-0.1-4.3,0-6.4,0c-0.8,0-1.7,0-2.5,0c-10.3-0.3-10.3-0.3-10.6-10.6c-0.1-1.9-0.9-3.5-1-5.4L434.3,103.9z"/>
<path class="st0" d="M397.2,207c2.1-3.6,0-7.3-0.2-11.6c4.2,2.7,3.8,6.7,3.5,10c-0.2,2.5,0.5,4.2,2.1,5.6c1.3,1.1,3.9,1.4,1.2,3.9
	c-1,1,0.3,1.9,1.2,2c2,0.2,1.6,2.3,2.8,3.1c3.3-0.5,0.2-4,2.3-5c1.2-1.5,1-4.6,4.3-3.8c1.2,0.3,1.5-0.4,1.4-1.3
	c0-1.1-0.6-1.1-1.6-1.1c-4,0-3.3-2.3-2.5-5.1c1.2-4.1,6.3-5.9,5.9-11.2c-0.2-2.1,3.5-1.5,6.4-1.1c-1.9,1.5-4.4,2.9-2.6,4.8
	c1.9,1.9,5.2,3,7.3,1.2c5.8-4.9,9.9-0.4,14.4,2c2.5,1.3,4.7,3.1,7.4,4c2.9,1,4.5,0.6,4.4-2.9c-0.1-1.2,0-2.3,0-3.5
	c0.1-1.8,1.5-2.8,3-2.6c1.7,0.2,1.5,1.5,1.3,3c-0.8,6.1-0.5,6.2,5.4,4.8c0.8-0.2,1.6-0.2,2.5-0.2c1.2-0.1,2.7,0.1,2.9-1.3
	c0.3-1.7-1.6-2.1-2.7-2.3c-3.9-0.7-6.7-1.3-1-4.2c1.1-0.6,0.9-1.3,0.1-1.9c-1.8-1.4-1.3-2,0.6-2.4c1.8-0.3,2-1.7,1.5-3
	c-1.3-3.9-6.8-5.8-10.8-3.9l0,0c-1-2.1,2.5-4.4,0.7-5.6c-2.5-1.6-3,2.3-4.9,3.1c-1.3,0.5-2.7,0.9-3.8,0.1c-1.5-1.2,0.2-1.9,0.8-2.8
	c0.5-0.7,1.2-1.3,0.2-2.1c-1.1-0.9-1.9-0.3-2.5,0.6c-2.2,3.4-5.2,5-9.2,4.7c-1.1-0.1-2,0.4-2.2,1.6c-0.2,1.5-0.7,2.8-2.6,2
	c-1.2-0.5-2.4-1.3-1.8-3.1c0.4-1.2-0.2-3.2-1-2.8c-3.8,2.1-6.3-0.8-9.5-1.5c-3.3-0.8-6.5-0.8-7.9-4.7c-0.4-1-2-1.1-3.5-1.1
	s-0.8,4-3,1.3c-1.7-2.1,0.5-3.3,1.1-4.8c6.2-2.6,12.6-1,18.9-1c2.3,0,4.6,0.5,6.9,0.7c3.8,0.2,7.7-0.2,11.4,0.8
	c1.5,0.4,2.9,0.2,3.5-1.8c0.5-1.9-0.4-3.1-2-3.4c-5.8-1.4-5.8-5.9-5.1-10.3c1.3-7.4-0.2-14.6-1-21.8c-1-8.1-1.2-8.3,6.7-9.2
	c1.3-0.1,2.6-0.4,4-0.3c6.9,0.9,13.7,0.2,20.6,0.5c1.8,0.1,3.6-0.4,5.2,0.9c11.6,1.1,23.3,0.4,34.8,2.2c1.9,4,1.5,8.4,1.8,12.6
	c0.7,8.7-0.5,17.6,1.3,26.3c0.6,3.7,0.8,7.4,0,11c0,7.4,0,14.7,0,22.7c-3.7-2.6-4.3-1.5-4.1,2.2c0.3,6.6-0.1,13.3-0.3,19.9
	c0,1.3-0.5,3.1,1.3,3.1c4.4-0.2,3.7,2.9,3.9,5.4c1.1,15.1,2.1,30.1,3.2,45.2c0.1,1.6,0.5,3.3,0.8,4.9c-1,7.6-1.7,15.7-0.5,22.7
	c1,5.8,1.5,11.7,2.5,17.5c0.3,2.1,0.1,4.3,0.1,6.4c-0.4,0.9-1.1,1.5-2.2,1.4c-4,1.6-8.1,2.8-12.1,4.3c-1.9,0.7-3.5,1.1-4.8-1
	c-1.1-1.8-3-1.9-4.8-2.2c-1.7-0.3-3.3-0.7-3.5-2.9c0-0.7,0.9-1.7-0.4-2.1c-1.1-0.3-2,0.2-2.4,1.3c-0.6,1.6-2.6,3.1-1.3,5
	c1.5,2.2,3.9,3.2,6.5,3c2-0.2,3.9-0.7,5.9-0.2c3.2,0.7,4.8,2.5,5.5,5.6c0.8,3.2-0.5,5.1-3,6.7c-2.3,1.5-4.6,3.1-5.9,5.8
	c2.1,0.5,2.3-0.9,2.9-1.8c1.6-2.2,3.9-2.4,6.3-2c2.6,0.4,3.6,1.7,1.6,4.1c-2.4,2.9-2.3,7.1,0.1,9.9c1.4,1.6,1.1,3.1-0.1,4.5
	c-1.5,1.7-2.9,3.7-5.8,2.5c-3.4-1.3-3.5-1.1-7.2-0.4c-0.2,2.2,3.5,3.5,1.4,6.2c-1.6,2.1-4,2.1-6.2,2.7c-3.2,0.8-6.3,0.1-9.4-0.4
	c-3.4-0.5-6.4-1.8-6.2-5.8c0.2-4.3,3.9-3.1,6.6-3.5c-0.7-2.2-5.5-1.8-3.7-4.7c1.8-2.8,2.8-7.2,7.7-6.8c1.8,0.1,3.2-0.6,4.7-1.6
	c-4-0.4-8.4,1-11.7-2.4c-0.1-1.4,0.8-2.2,1.8-2.9c3-1.2,4.5-3.8,6.1-6.2c0.9-1.3,0.7-3.2-0.9-3.9c-2.7-1.2-0.9,1.7-1.7,2.1
	c-2.2,1.3-0.8,5.4-4.4,5.6c-2.5-3-3.5-6.5-3.4-10.4c0.6-3.3,2.8-7.1-2.5-8.7c-1.1-1.6-1.7-3.4-1.3-5.4c0.9-1.9,1.9-3.8-1-5
	c-0.8-0.7-1-1.6-0.6-2.7c2.4-2.6,4.4-1.6,6.2,0.8c0.6,0.8,0.7,1.8,1.3,3.4c0.1-1.8-0.7-2.3-1.1-3.1c-2.1-4.4-6.9-6.5-9.2-10.7
	c-0.9-1.3-1.1-2.7-0.3-4.2c4.6-2.5,5.8-2.2,8.7,2.5c1.3,2.2,1.4,5.4,4.6,6.1c3.6,0.8,7.3,0.1,10.9-0.1c2.5-0.2,2.1-3.2,3.6-4.4
	c2.1-1.6,2.1-2.7,0.1-4.6c-2.5-2.4,0.8-3.5,1.8-5c-5.1-2.5-5.3-3.2-0.8-6.9c1.9-1.6,1.7-2.5-0.1-3.7c-2.8-1.8-5.3-4.2-9-1.7
	c-1.3,0.9-2.6,0.2-2.9-1.5c-0.6-3.2,1.8-6.7,6.1-7.5c-4.5-1.1-6.3-4.2-8.3-7c-0.7-0.9-1.6-1.8-1.3-3.1c0.4-2.1,0.6-4.1-2.1-4.7
	c-2.7-0.7-5.5-1.9-7.7,1.1c-0.2,0.3-0.4,0.7-0.7,0.7c-6.7,0.2-4.6,5.3-5.2,9c-0.2,1.2,0.4,3.4-2.3,2.7c-2.2-6.3-1.3-12.7-0.5-19
	c0.4-0.5,0.7-1.1,1.5-0.9c0.9,0.2,2.2,0.9,2.4-0.4c0.1-1.8-1.6-1-2.6-1.2c-1.7-1.3-2.5-3.5-4.6-4.4c-3.7-3.7-7.5-7.2-13-2.6
	c-1.2,1-2.2,0.1-2.8-1c-0.7-1.1-0.9-2.2,0.7-2.8c0.9-0.4,1.8-1.1,2.7-1.2c4.6-0.8,4.2-3.3,2.3-6.4c-0.8-2.5,0.5-4.5,1.7-6.5
	c1-1.8,2.5-3.3,3-4.9c-2,3.5-5.2,6.7-6.5,11.1c-0.2,0.3-0.3,0.7-0.6,0.8c-7.5,2.2-14.9,5.3-22.6,0.6c-3.5-2.1-7.8-2.7-11.3-4.4
	c-4.4-2.1-8.5-2-12.9-1.9c-3,0-5.6-1-5.2-4.9C397.3,216.2,395.6,211.6,397.2,207z"/>
<path class="st0" d="M482,350c3.9,1.1,7.7,2.8,11.8,0.7c1-0.5,2-0.5,2.6,0.5c0.8,1.4-0.4,1.5-1.3,2c-2.4,1.2-4.2,4.1-7.5,2.2
	c-1-0.5-2.1,0.4-2.2,1.4c-0.4,2.4-2.2,3.6-4.5,5.2c3.2,1.2,6.2,1.9,6.9,5.2c-1.9,1.4-3.3-0.5-4.9-0.3c-1.4,0.2-3.2-0.4-3.6,1.7
	c-0.3,1.7-0.1,3.5,1.8,4.2c5.5,2.3,11.3,2.3,16.9,0.5c1.9-0.6,2.8-2.4,0.3-4c-1.3-0.8-2.5-2-1.7-3.7c0.8-2,2.4-1.1,3.8-0.8
	c2.2,0.5,4.8-2,6.9,1.5c0.6,0.9,3.5-2,4.4-3.8c0.9-1.9-1-2.5-2.5-2.6c-3.1-0.1-3.1-1.2-1.2-3.2c0.5-0.5,2.1-1.2,1.5-1.6
	c-4.2-3.5-1.5-4.5,1.7-6.1c1.5-0.7,0.7-2.1-0.9-2.1c-2.6-0.1-5.6-0.9-6.1,3.2c-0.2,1.8-1.7,1.7-3.1,1.7c-1.1,0-2.1-0.4-2.4-1.5
	c-0.4-1.4,0.6-2.3,1.6-2.8c1.9-1.1,2.7-3.5,4.9-4.1c4.8-1.4,4.2-4.9,2.7-8.2c-1.5-3.2-5.1-3.6-7.5-2.5c-3.7,1.8-6-0.4-8.6-1.7
	c-1.4-0.7-3.4-2.7-1.9-5c2-3,3.3-7.6,8.7-4.1c-1.9,2.4-3.6,4.7,1.9,4.4c1.6-0.1,4.7-0.3,4.9,3c0.1,0.8,1,1.5,1.3,1.1
	c2.9-3.5,8.4-0.9,11.1-4.7c1.5-2,2.5-1.9,3.6,0.2c2.7,2.9,0.6,6.7,1.5,9.8c0.3-2.9-1-6,0.6-9c1.1,0.9,0.8,2.1,0.8,3.2
	c0,21.9,2.9,43.6,3.4,65.5c0.2,7.1,0.1,14.2,1.4,21.3c0.2,0.8-0.6,1.1-1.2,1.4c-1.4,0-1.7-1.4-2.5-2.2c-2.3-1.9-4.2-2.9-5.2,1.2
	c-0.6,2.2-2.2,4-4.8,3.2c-2.4-0.7-1.2-2.6-0.4-4.5c-2,1.5-3.7,3-6.4,2.1c3.6,2.7,3,6.1,2.3,9.6c-0.3,1.5-1.4,2.2-2.8,2.4
	c-1.1,0.2-1.8-0.1-2.3-1.3c-1.3-2.9-4.4-3.8-6.4-1.1c-2.8,3.8-3.8,1.1-5.3-0.7c-2.3,1.3-2.1,4-2.9,6c-0.9,2.4-2.3,2.3-4.2,2.2
	c-2.9-0.1-1-2.2-1.3-3.3c-0.4-1.4,0.3-3.1-0.2-4.4c-1-2.9-1.5-0.2-2.2,0.4c-2.1-2.3,1.8-2.8,1.3-4.8c-1.1-0.3-2.4-0.6-3.7-0.9
	c-3.3-0.7-6.6,0.1-10.2-1.9c-3.8-2.1-8.1,1.1-11.5,3.9c-1.1,1-2,2.2-3.1,3.3c-1,1-2,2.8-3.7,1.3c-1.8-1.7,0.7-1.9,1.2-2.9
	c1.5-3.1-1.7-5.4-1.6-8.3c0-0.5-1.4-0.2-1.7,0.8c-1.2,4.4-4.3,3.8-7.5,2.8c-2.5-0.8-4.9-1.7-7.7-0.6c-1,0.4-1.7,0.2-1.9,1.6
	c-0.6,4.5-4.1,3.3-5.8,1.9c-2.3-1.9-5.8-3.3-5.3-7.6c0.4-2.7-1.9-3.3-3.6-2c-2.9,2.3-5.8,1.3-8.5,0.3c-6.8-2.3-13.5,0.4-20.2-0.1
	c-0.9-0.1-2.2,0.6-1.9,1.8c0.2,1.2,1.3,1.2,2.4,0.8c1.4-0.5,3.6-1.1,3.9,0.6c0.3,1.8-1.7,2.9-3.7,2.9c-2.1,0.1-3.7,1.3-5.4,2.4
	c-1,0.7-2.2,1.8-3.6,1c-0.6-0.3-1.1-0.9-0.8-1.6c0.8-1.5,2.6-0.3,3.6-1.3c-1.9-0.8-4.8-0.8-4.7-3.5c0.1-2,2.3-2.6,4.2-2.6
	c0.8,0,1.3-0.3,1.2-1.1c-0.2-1.3-0.9-2.2-2.4-1.9c-1.4,0.2-2.9,0.2-3-1.6c-0.1-1.4,1.6-1.3,2.6-1.8c3.4-2.1,6.6-4.3,10.7-1.3
	c0.5,0.4,1.3-0.1,1.5-0.8c0.1-0.4-0.2-1.2-0.4-1.2c-2.5-0.4-4.1-3.2-7.3-2.1c-2.4,0.8-5.3,0.4-7.9,0.5c-1.6,0-3.1-0.4-3.4-2.2
	c-0.3-1.4-0.7-3.2,0.6-4.2c1.1-1,2.5-0.3,3.8,0.3c0.9,0.4,2.4,1.1,2.7,0.8c4.4-4.5,9-0.4,13.4-0.1c3.2,0.2,5.9-0.8,5.8-3.7
	c0-3.1,1.4-2.8,3.2-2.8c4.6,0.1,9.9,1.1,13.6,0.1c6.4-1.7,12.2,3.1,18.1,0.4c0.3-0.9,0-1.2-0.6-1.4c-1.2-0.3-3.5,1.3-3.3-1.3
	c0.1-1.6,1.6-3.1,3.3-3.2c1.3-0.1,2.5,0.1,3.9-0.3s3.4-1,3.9,0.7c0.7,2.4-1.7,1.7-2.9,2c-1.2,0.3-1.7,1-1.3,2.2
	c0.4,1.1,1.5,2.6,2.4,2.1c3-1.8,7.9,1.4,9.7-3.6c0.4-1.2,2-1.4,3.4-0.5c1.1,0.7,2.4,1.2,3.7,1.4c2.3,0.4,5,1.3,6.6-0.7
	c1.7-2.1-1-3.5-1.9-5c-1.3-2.1-1.6-3.6,0.7-4.9c2.8-0.3,0.8-2.2,0.9-3.2c0.2-2.6,0.6-4.7,3.7-4.9c2.5-0.1,4.8,0.3,5,3.5
	c0.1,1.4,0.3,2.9,0.1,3.7c-0.2-2.5,0.2-5.6-1-8.9c-1.6-4.1-1.5-8.7-0.5-12.8C473.2,352.8,478,351.6,482,350z"/>
<path class="st0" d="M423.1,584.1c-1.2-0.3-3,0.6-3.6-1c-0.5-1.4,1.1-1.8,2-2.4c0.8-0.6,0.8-1.1,0.2-2c-2.4-3.8,0.3-9.7-5.1-12.3
	c-0.5-0.2-0.9-1.8-0.5-2.2c3.6-4.9-0.7-9.5-0.5-14.2c0.3-9.2-1-18.5-1.6-27.7c-0.7-12.5-1-25.1-2.3-37.6c-0.4-3.7,1.9-5,3.4-7
	c2.3-3,3.6-5.9,1.9-10.1c3.3,0.7,6,0.7,6.8-3.1c0.1-0.7,1.5-1.4,2.6-1c1.4,0.5,0.9,1.3,0.5,2.4c-0.8,2,0.9,2,2.2,2.2
	c1.4,0.2,3.3,1.6,2.4,2.2c-3.7,2.4-0.4,6.7-3,9.2c-1.1,1-0.2,3.2,1.2,3.1c3.3-0.3,4.9-3.7,7.4-5.5c2-1.5-0.6-2.7-1.4-3.9
	c-0.3-0.4-0.6-0.8-1.2-1.5c2.2-1.7,6.8-1.5,5.5-6.2c0-0.1,2.9-1.1,4.8-1.8c-0.6,3.3,1.6,6.8-1.3,9.8c-0.2,0.2-0.4,0.7-0.3,0.9
	c5.4,8.8-5.1,7.5-7.1,11.8c2.7-0.6,4.6,0.6,5.2,3.7c0.1,0.5,1,1.3,1.4,1.2c4.4-1,5.6,1.9,6.5,6.3c1.8-3.7,3.7-5.7,6.8-6.4
	c1.5,1.3,1.1,3,1.1,4.6c-0.2,9.1,0.5,18.1-0.5,27.2c-0.1,1.1-0.2,2.3,0.4,3.4c-0.5,11.9,0.6,23.7,1.6,35.6
	c0.5,6.1,0.6,12.1,0.5,18.2c-1.3,3.4-4.3,4-7.3,4.3c-8.1,0.8-16.2,1.2-24.3,1.6C425.7,586,424.1,585.7,423.1,584.1z"/>
<path class="st0" d="M493.6,427.1c1.7,0.8,3.2,3.4,4.8-0.4c1-2.3,4.6-1.1,6.1-3.2c1.1,1,3.4,1.3,2.2,3.5c-0.4,0.9-1.5,1.8,0.1,2.2
	c0.7,0.2,2.3,0.1,2.4-1.2c0.1-3.2,2.4-7.1-2.4-9c-0.8-0.3-1.8-0.5-1.4-1.6c0.2-0.5,1.2-1.3,1.4-1.2c4.2,2.6,6.4-1.4,9.2-3
	c1.4,1.3,0.5,2.2-0.2,3.1c-0.6,0.9-2,1.5-1.3,2.9c0.1,0.3,0.9,0.5,1.3,0.4c1.4-0.3,2.1-1.4,2.9-2.6c1-1.5-1.3-4.8,1.9-4.6
	c3.2,0.2,6.1,1.8,6.7,5.6l0,0c0.2,3.2-1.1,6.7,1.7,9.5c0.6,3.8,3.4,7.6,0,11.5c-0.9,1,0.1,1.3,0.5,2c2.7,4.5,2,9.6,2.5,14.5
	c0.1,1.3-0.6,2.1-2,2.4c-3.3,0.8-6.6-0.2-9.9,0c-0.4,0-0.8-0.4-1.2-0.6c1.7-3.2-1.7-4.8-2.4-7.3c-1.2-4.8,3.2-4,4.9-5.8
	c0.5-0.6,1.5-0.8,1.4-2.3c-2.7-1-4.5,1.6-6.7,2c-1.2,0.2-2.3,2.6-4.1,0.2s0.7-2.7,1.4-3.9c0.2-0.4,0.6-0.8,1.1-1
	c0.7-0.4,1.8-0.6,1.1-1.7s-1.7-0.8-2.5,0.1c-2.3,2.3-4.7,4-8.1,2.2c-0.9-2.2,0.7-3.6,2.4-5.7c-2.5,2.5-4.1,5.1-7.5,3.9
	c-1-0.2-1.9-0.4-1.3-1.9c0.9-2.6,1.6-5.2,1.9-7.9c-2.1,1.6-3.1,3.6-3.7,6c-0.3,1.5-1.3,2.3-2.9,2c-1.7-0.4-0.8-1.9-1.1-2.9
	C492.4,431.2,494.9,429.4,493.6,427.1z"/>
<path class="st0" d="M226.9,592.8c-2.3,0.6-4.9-0.6-7,1c-6.4,0.3-12.8-0.3-19.1,1c-19.6,0.3-39.1,1-58.6,3c-3.5,0.4-5.9-0.5-5.2-4.2
	c1.1-5.8-5-8.7-5-14c0-4.6-0.4-9.3-0.9-13.9c-0.3-2.2,0.9-3.3,2.1-4.7c1,3.2,0.1,6.4-0.2,9.5c-0.4,3.4,2.4,3.4,4.2,4.6
	c2.2,1.4,2.8-0.6,4-1.5c2.9-2.3-0.6-2.8-1.1-4.1c-0.9-1.9-6.3-3.7,0.1-5.8c0.6-0.2,4.1-4.2,0.8-7c-1.6-1.4-0.2-2.7,0.1-4.1
	c0.4-1.8,1.8-1.4,3.1-1.6c3.3-0.5,5.9-3,9.6-2.7c1.3,0.1,0.4-1.9,0-2.9c-1.1-2.9,0.7-4,3.1-4.3c4.3-0.4,6.3-2.9,5.7-7.2
	c-0.3-1.6-0.3-3.3-0.5-4.9c2-2.1,3-2.1,3.7,0.2c0.5,1.5,0.2,3.1,0,4.9c0.8-2.8-1.1-6.9,3.3-7.2c3.3-0.2,1.4,2.9,1.9,4.2
	c0.3-2,0.2-4.8,3.6-4.8c2.4,0,3.3,1.7,2.7,4.3c0.9-2.8,1.4-6.2,5.3-3.2c0.4,1.4,0.5,2.7-0.9,3.5c-0.6,1.2-1,2.4-1.7,3.5
	c-1.5,2.3-1,3.7,1.6,4.4c3.9,1.1,7.8,2.9,11.7-0.1c5.2-4.1,9.3,0.8,13.7,2.1c2.4,0.7,5.3,0.5,7.4,2.5c0.9,0.8,1.9-0.1,2.4-1
	c2.1-3.5,4.3-3,6.8-0.5c0.8,0.8,1.6,2.1,2.9,1.7c3.4-1,3.8,0.9,3.4,3.4c-0.1,1.1-0.4,2,0.6,2.7c5.2,4,2.7,9.3,2,13.9
	c-0.6,3.7-0.9,6.1,3.2,7.7c3.8,1.5,3.5,6.5-0.3,9.8c-0.9,0.8-2.9,0.8-2.4,2.6c0.4,1.4,1.9,1,3,1.2c0.6,0.1,1.4,0.4,1.6,0.8
	c0.4,0.9-0.5,1.4-1.1,2c-2.3,2-5.4,3.3-7.8,2c-4.8-2.5-8.8,1.6-13.3,0.6c-0.6-0.1-1.5,0.6-2.7,1.1
	C217.6,592.8,222.5,590.9,226.9,592.8z"/>
<path class="st0" d="M353.3,163.9c-1.6,1.3,0.2,2.3,0.4,3.5c0.3,1.5-0.7,2.1-1.5,2.9c-1.2,1-2.2,0.3-3.1-0.4
	c-1.2-0.9-0.4-1.7,0.2-2.5c2-2.8-0.3-3.7-2.1-4.9c-2-1.3-3.9-2.1-0.6-4.9c2.7-2.3,1.5-6.5,0.5-9.8c-0.5-1.6-2.5-2.1-4.3-1.4
	c-4.8,2-9.9,2.4-15,3c-1.7,0.2-3.2,0-3.8-1.4c-0.6-1.6,1.1-2.2,2.2-2.8c2.6-1.6,1.9-2.9-0.4-3.6c-2.6-0.8-3.6-1.7-3-5
	c0.6-3.8-4.2-3.1-6.2-4.9c-2-1.6-5.6-1.3-7.8,1c-2.5,2.7-4.1,3.8-8.1,1.3c-2.3-1.5-7.2-0.8-10.9-0.9c-1.8,0-3.7,0.2-5.3-1
	c-3-5.1-1.7-10.1,0.4-15c0.8-1.9,2.9-2.1,3.9-1.7c-2.9,0.2-4.7-1.6-5.1-5.5c-0.3-2.8-1-5.5-0.9-8.3c0-1.2,0-2.3,0-3.5
	c0.1-8,0.2-8.2,8-7.5c15.1,1.6,30.2,3.6,45.4,3.5c4.7,0.8,9.4,1.3,14.2,1.3c2.8,0,4.8,1.4,4.3,4.7c-0.5,3.8,0.5,7.6,0.8,11.4
	c0.2,3.5-1,5.3-5,5.8c-11.6,1.2-23-1.1-34.1-0.7c4,0.6,8.6-0.9,12.9,0.8c-2.3,2.9-5.5,0.3-8.1,1.5c9.6-0.9,19.2-0.5,28.7-1.5
	c1.4-0.1,2.7-0.1,3.5,1.3c0.4,3.5-0.3,7-0.8,9.6c0,0-0.2-1,1-1.3c2.9,2,1.7,4.8,1.5,7.4c-2.4,5,0.9,10.1-0.1,15.1
	c-0.4,1.9-0.3,3.9-0.5,5.9c0,0.5,0,0.9,0,1.4C355.1,159.2,356.4,161.9,353.3,163.9z"/>
<path class="st0" d="M144,114c1.6,0.1,3.3,0.1,4.9,0.2c-2.6,2.1-5.3,0.9-8.5,0.7C141.8,113.5,143,114.2,144,114z"/>
<path class="st0" d="M470.8,299.1c-3.5-9-4.8-18.3-3.8-27.9c0-4.5,0-8.9,0-14.4c3.3,2.8,4.8,2.9,7.1-0.6c2.2-3.3,6.8-0.5,10.1,0.6
	c2.6,0.8,2.1,2.9,0.8,4.9c-1,1.4,0.5,1.9,1.1,2.9c2.3,3.8,6.5,5.4,9.5,8.1c-0.2,1.4-1.1,1.5-1.6,1.4c-5.3-1.8-3.8,3.6-5.7,5.4
	c-0.1,0.1,0.3,1.2,0.5,1.2c0.6,0,1.2-0.2,1.8-0.5c2.9-1.6,10.7,0.6,12.1,3.6c1.1,2.3-0.3,3.2-2.3,3.9c-1.4,0.5-3.2,1.1-3.1,2.8
	c0.1,2.3,2.1,0.2,3.1,1c1.1,0.8,2.4,1.5,2.5,2.9c0.1,2.6-1.8,0.9-2.8,1.2c-0.6,0.1-1.3,0.6-1.5,1.1c-0.5,1.3,0.8,1.6,1.6,2.1
	c3,1.6,4.3,3.1-0.1,4.7c-0.6,0.2-1.2,0.7-1.5,1.2c-1.1,1.4,0.5,4.5-2.7,4.6c-4.4,0.1-8.9,0.4-13.2-0.1c-2-0.2-3-2.6-3.7-4.8
	C477.7,300.3,475.5,297.4,470.8,299.1z"/>
<path class="st0" d="M433.6,381.9c-0.7-2.1-0.6-4.2-0.6-6.4c0-1.6,0.1-2.9,2.3-2.8c2.3,0.1,2.2,1.4,1.9,3
	C436.9,378.2,437.6,381.4,433.6,381.9z"/>
<path class="st0" d="M415.2,377c-0.1-2-0.7-4.9,2.2-4.8c1.6,0.1,5.1-2.7,5.5,1.8C419.6,373.2,418.2,377.3,415.2,377z"/>
<path class="st0" d="M457.2,377c-0.8-4.2,2.3-3.5,4.6-3.5c3.6,0,2.4,2.5,2.1,4.5C461.7,377.3,459.7,375.4,457.2,377z"/>
<path class="st0" d="M449.2,378c-0.7-2-1.6-4.4,1.7-4.8c2.6-0.3,5.1,0,4.4,3.9c-0.2,1.2,0.3,2.6-0.5,3.9c-0.7-0.4-1.4-0.9-1.3-1.8
	c0.2-1.5,1.2-3.3-1.1-4C450.1,374.4,450.3,377,449.2,378z"/>
<path class="st0" d="M440,379c-1.9-5.8-1.4-6.4,4-5.8c-3,0.9-2.3,3.8-3,5.8l0,0C440.7,379,440.3,379,440,379z"/>
<path class="st0" d="M343.2,331.2c1.4,0,1.8,0.9,1.7,2c-0.1,1.2-0.8,1.7-2,1.7c-0.9,0-1.7-0.4-1.7-1.4
	C341.2,332.2,341.9,331.4,343.2,331.2z"/>
<path class="st0" d="M424.9,375c-0.2-3.7,2.5-1.9,4.1-2.1c2.1-0.3,2.4,1.1,2.3,2.8c-0.1,1.5-0.2,2.9-0.4,4.4
	c-0.7-0.4-1.5-0.9-1.3-1.8C430.4,373.5,428.1,373.6,424.9,375z"/>
<path class="st0" d="M408.4,386.1c-2.4,0.8-3.6,2.4-5.5,1c-0.2-0.2-0.2-1.1,0-1.2C404.3,384.7,405.9,384.7,408.4,386.1z"/>
<path class="st0" d="M410,372.1c6.3,0.1,2.2,4.4,2.8,6.9C410.5,377.3,412.3,373.9,410,372.1z"/>
<path class="st0" d="M441,379c2.6,0.1,6.6-1.3,4.3,4.4C446.6,378.8,441.5,381.5,441,379L441,379z"/>
<path class="st0" d="M478.8,229.1c3.1,2.1,9.4,2,5.6,8.6c-0.4,0.8,0.3,1.6,1.1,2c1.3,0.6,2.5,0.3,3.8-0.3c1.7-0.7,2.5-3.2,5.6-2.4
	c-2.2,2.2-3,4.2-0.4,6.4c0.9,0.8,0.6,2.5-1,2.5c-3.1,0-5.2,1.8-7.7,3.2c-2.9,1.7-6.4,1.6-8.4-0.4c-1.7-1.7-0.6-4.9,1.4-7
	c1.4-1.5,1.9-3.5,0.6-4.9c-1.5-1.5-3,0.2-4.4,1c-1,0.6-1.9,1.4-3.1,1.3C472.6,234.6,477.2,232.9,478.8,229.1z"/>
<path class="st0" d="M484.1,348c-0.3-1-0.6-2-1-3c1.2-1.7,0.6-4.1,2.8-5.7c1.7-1.2-2.3-1.7-1.2-3.8c1.9,0.2,3.9,0.3,6,0.5
	c-1,1.8,2,3.3,0.9,4.5C489.2,343.1,488.5,347.5,484.1,348z"/>
<path class="st0" d="M474.3,313c-0.8-3.3-1.6-6.6-2.4-9.9c2.9,2.2,4,6.2,8,7.5c1.6,0.5,0.8,2.2,0.1,3.5l0,0
	C478.1,313.4,476.6,311.2,474.3,313z"/>
<path class="st0" d="M499.9,358.5c-0.2,1.8-1.5,2.7-2.9,2.8c-2,0.1-3.3-1.5-3.5-3.4c-0.1-1.6,1.5-1.9,2.9-1.9
	C498.1,356,499.6,356.4,499.9,358.5z"/>
<path class="st0" d="M479.7,334.1c-0.8-2.7-1.7-5.4-2.5-8.1C482.7,325.8,483.2,327.2,479.7,334.1z"/>
<path class="st0" d="M480,314c1.9,0.3,3.7,0.9,3.2,3.4c-0.2,1.1-1.1,1.6-2.3,1.1C478.3,317.4,479.1,315.7,480,314L480,314z"/>
<path class="st0" d="M484.7,323.4c0.1,1.2-0.6,1.4-1.5,1.1c-1-0.3-2.6,0.4-2.8-1.3c-0.1-1.2,1.1-1.5,2-1.8
	C484,321,484.1,322.6,484.7,323.4z"/>
<path class="st0" d="M497.3,315c-0.4,0.7-0.6,1.7-1.6,1.5c-1.2-0.2-2.2-1.2-2.3-2.3c-0.1-1.4,1.2-1.3,2.2-1.1
	C496.7,313.2,497.5,313.7,497.3,315z"/>
<path class="st0" d="M476.1,320c-1-1.5-1.3-3.2-1.3-4.9C478.7,315.8,479,317.5,476.1,320z"/>
<path class="st0" d="M502.6,310.9c-0.9,0-1.8-0.2-1.9-1.1c-0.2-1.3,0.9-1.6,1.9-1.6c0.9,0,1.7,0.5,1.8,1.4
	C504.4,310.4,503.5,310.8,502.6,310.9z"/>
<path class="st0" d="M402.6,403.8c-0.3,2.1-2,2.4-3.2,2.9c-1,0.4-2.1,0.2-2.2-1.1c-0.1-1.6,1-2.3,2.4-2.5
	C400.7,402.9,401.9,402.9,402.6,403.8z"/>
<path class="st0" d="M193.9,526.1c0.2,2.3-1.1,4.6,0,7.8c2.6-3.2-1-10,6-8.9c2.4,3-0.1,6.5,0.9,9.6c-3.8,2.3-2.1-2-3.5-2.9
	c-2.3,4.6-4.9,3-7.4,0.1c-1.5-1.8-2.1-3.8-0.3-5.7C190.9,524.6,192.5,524.9,193.9,526.1z"/>
<path class="st0" d="M184,534.1c0-1.5,0.1-2.9,0.1-4.4c0.1-1.5,0.3-2.9,2.4-2.9c2.4,0,1.1,1.8,1.3,2.8c0.2,1.1,0.1,2.3,0.2,3.4
	c-1.2,1-2.4,2.1-3.7,3.1c-0.6,0.5-1.5,0.5-1.5-0.2C182.8,535.3,183.6,534.7,184,534.1z"/>
<path class="st0" d="M216,526.3c2-2.1,0.3-4.7,0.8-7c0.1-2.4,0.3-4.9,0.4-7.3c-0.4,5.7,3.4,11.6-0.7,17.1
	C215.6,528.3,216.3,527.2,216,526.3z"/>
<path class="st0" d="M209,527c-0.4-3.4,2.1-2.2,3.6-2c2.7,0.3,1.1,2,0.7,3.2c-3.7-4.1-2.3,1.5-4.1,2.1C209.1,529,209.1,528,209,527z
	"/>
<path class="st0" d="M224.3,532.4c-2,3-3.3,4.5-6.2,5.1C218.3,533.8,220.9,533.7,224.3,532.4z"/>
</svg>
