<svg id="Layer_5" data-name="Layer 5" xmlns="http://www.w3.org/2000/svg" viewBox="0 0 1366 734.1">
	<defs>
		<style>
			.achterhuis{fill:#b269af;}
			.achterhuis,.GR,.kitchen,.schuur,.light,.tropen{stroke:#000;stroke-miterlimit:10;}
			.GR{fill:#42d1c6;}
			.kitchen{fill:#4292ce;}
			.schuur{fill:#22a818;}
			.light{fill:#f2f268;}
			.tropen{fill:#cc9669;}
		</style>
	</defs>
	<title>selectorArtboard 1</title>
	<polygon class="achterhuis" points="570.5 190.88 644.4 212.9 838.1 308.6 838.1 529.47 797.1 529.47 796.04 372.6 522.72 278.8 522.49 217.05 570.5 190.88"/>
	<polygon class="GR" points="796.04 461.58 529.5 441 522.49 280.05 795.25 373.01 796.04 461.58"/>
	<polygon class="kitchen" points="795.88 557.67 533.12 583.27 529.34 441.61 795.88 462.19 795.88 557.67"/>
	<polygon class="schuur" points="533.27 582.66 117.5 598.5 117.5 82.7 515.5 103.7 533.27 582.66"/>
	<polygon class="light" points="610.47 167.38 520.5 216.19 519.53 195.15 579 149.18 610.47 167.38"/>
	<rect class="tropen" x="1071.3" y="419.4" width="180.4" height="126.9"/>
</svg>