<?xml version="1.0" encoding="utf-8"?>
<!-- Generator: Adobe Illustrator 16.0.0, SVG Export Plug-In . SVG Version: 6.00 Build 0)  -->
<!DOCTYPE svg PUBLIC "-//W3C//DTD SVG 1.1//EN" "http://www.w3.org/Graphics/SVG/1.1/DTD/svg11.dtd">
<svg version="1.1" id="Officiële_DS4_Logo" xmlns="http://www.w3.org/2000/svg" xmlns:xlink="http://www.w3.org/1999/xlink"
     x="0px" y="0px" width="1000px" height="1000px" viewBox="0 0 1000 1000" enable-background="new 0 0 1000 1000"
     xml:space="preserve">
<polygon id="Huis" points="700.5,439.34 700.5,739.33 640.5,739.33 640.5,499.33 280.08,499.33 280.08,439.34 490.29,228 
	532.83,270.31 364.7,439.34 615.88,439.34 565.12,388.31 607.79,345.87 " fill="#00e6f2"/>
    <g id="DS_Path">
	<path d="M361.689,739.771h-81.598V521.215h81.598c12.698,0,24.61,2.865,35.743,8.59c11.129,5.73,20.848,13.52,29.159,23.377
		c8.308,9.857,14.851,21.453,19.635,34.783c4.78,13.334,7.172,27.509,7.172,42.528c0,15.024-2.392,29.198-7.172,42.528
		c-4.784,13.334-11.328,24.926-19.635,34.783c-8.312,9.857-18.03,17.65-29.159,23.376
		C386.299,736.91,374.387,739.771,361.689,739.771z M356.045,574.445h-27.983V686.54h27.983c6.584,0,12.735-1.452,18.459-4.365
		c5.721-2.909,10.699-6.9,14.932-11.97c4.233-5.07,7.562-11.028,9.994-17.885c2.429-6.852,3.645-14.126,3.645-21.827
		c0-7.696-1.216-14.972-3.645-21.827c-2.433-6.853-5.761-12.815-9.994-17.885c-4.233-5.07-9.211-9.057-14.932-11.971
		C368.78,575.902,362.629,574.445,356.045,574.445z" fill="#00e6f2"/>
        <path d="M537.82,746.53c-12.229,0-24.338-1.729-36.331-5.179c-11.993-3.455-23.479-8.266-34.45-14.426
		c-0.316,0-1.098-0.375-2.351-1.123c-1.257-0.933-1.881-1.584-1.881-1.958c0-0.185,0.312-0.933,0.94-2.239
		c0.625-1.308,1.411-2.94,2.352-4.902c0.94-1.959,2.036-4.199,3.292-6.721c1.253-2.521,2.506-5.092,3.763-7.705
		c2.664-5.232,5.173-10.197,7.525-14.893c2.352-4.691,3.998-8.07,4.938-10.139c2.036,0.941,3.998,2.068,5.879,3.379
		c8.466,5.07,16.968,8.969,25.515,11.689c8.543,2.724,17.596,4.084,27.16,4.084c2.664,0,5.525-0.142,8.582-0.424
		c3.058-0.281,5.84-0.984,8.349-2.111c2.506-1.127,4.585-2.869,6.231-5.22c1.646-2.35,2.469-5.69,2.469-10.016
		c0-2.068-0.47-3.899-1.41-5.501c-0.941-1.598-2.117-3.006-3.527-4.229c-1.411-1.225-2.902-2.303-4.469-3.244
		c-1.568-0.941-3.057-1.693-4.467-2.262c-3.293-1.5-6.666-2.627-10.112-3.38c-3.45-0.753-6.899-1.602-10.347-2.544
		c-4.549-1.311-9.017-2.534-13.404-3.666c-4.391-1.126-8.623-2.441-12.697-3.947c-4.232-1.504-8.271-3.15-12.111-4.938
		c-3.843-1.786-7.407-3.898-10.699-6.346c-6.742-4.889-12.11-11.424-16.108-19.604c-3.998-8.181-5.997-19.042-5.997-32.583
		c0-4.699,0.43-9.443,1.293-14.24c0.86-4.797,2.153-9.355,3.88-13.687c3.446-8.647,7.915-15.794,13.404-21.436
		c5.486-5.642,11.559-10.06,18.224-13.259c6.662-3.195,13.676-5.453,21.047-6.77c7.366-1.315,14.733-1.975,22.104-1.975
		c12.07,0,23.986,1.746,35.744,5.24s22.964,9.202,33.627,17.133c-3.921,7.93-7.724,15.715-11.405,23.35
		c-3.686,7.635-7.407,15.394-11.17,23.279c-9.094-5.254-17.912-9.576-26.454-12.955c-8.547-3.38-17.755-5.07-27.631-5.07
		c-2.352,0-4.82,0.141-7.408,0.423c-2.586,0.282-4.979,0.985-7.172,2.112c-2.197,1.127-3.997,2.764-5.408,4.92
		s-2.116,5.012-2.116,8.572c0,2.627,0.47,4.877,1.411,6.751c1.095,2.063,3.094,3.89,5.996,5.483
		c2.898,1.593,6.467,3.045,10.699,4.356c4.232,1.315,8.855,2.583,13.874,3.798c5.016,1.219,10.267,2.672,15.755,4.361
		c5.328,1.689,10.7,3.608,16.108,5.765c5.409,2.156,10.501,4.779,15.285,7.873c4.78,3.094,9.054,6.751,12.815,10.966
		c3.763,4.221,6.739,9.233,8.936,15.042c1.725,4.313,2.9,8.956,3.527,13.924c0.625,4.968,0.941,9.889,0.941,14.761
		c0,14.248-2.433,25.968-7.29,35.152c-4.86,9.188-11.21,16.449-19.048,21.792c-7.84,5.343-16.695,9.092-26.572,11.248
		C557.573,745.452,547.697,746.53,537.82,746.53z" fill="#00e6f2"/>
</g>
    <path d="M700.5,779.33H280.08c-23.159,0-42-18.841-42-42V437.34c0-11.176,4.341-21.695,12.222-29.619l210.21-211.34
	c7.826-7.868,18.68-12.381,29.778-12.381c11.098,0,21.952,4.513,29.778,12.381l210.21,211.34
	c7.882,7.924,12.222,18.443,12.222,29.619v299.99C742.5,760.489,723.659,779.33,700.5,779.33z M490.29,198
	c-7.399,0-14.634,3.009-19.852,8.254l-210.21,211.34c-5.254,5.282-8.148,12.295-8.148,19.746v299.99c0,15.439,12.561,28,28,28H700.5
	c15.439,0,28-12.561,28-28V437.34c0-7.45-2.894-14.463-8.147-19.746l-210.21-211.339C504.925,201.009,497.688,198,490.29,198z"
          fill="#111"/>
</svg>
