<?xml version="1.0" encoding="utf-8"?>
<!-- Generator: Adobe Illustrator 16.0.0, SVG Export Plug-In . SVG Version: 6.00 Build 0)  -->
<!DOCTYPE svg PUBLIC "-//W3C//DTD SVG 1.1//EN" "http://www.w3.org/Graphics/SVG/1.1/DTD/svg11.dtd">
<svg version="1.1" id="Layer_1" xmlns="http://www.w3.org/2000/svg" xmlns:xlink="http://www.w3.org/1999/xlink" x="0px" y="0px"
	 width="24px" height="24px" viewBox="0 0 24 24" enable-background="new 0 0 24 24" xml:space="preserve">
<path fill-rule="evenodd" clip-rule="evenodd" d="M18.678,16.29c0-0.088,0-0.158,0-0.229c0.001-1.613,0.002-3.227-0.002-4.841
	c0-0.129,0.045-0.211,0.137-0.298c1.233-1.161,1.777-2.58,1.426-4.249c-0.4-1.907-1.598-3.147-3.489-3.585
	c-1.818-0.421-3.373,0.144-4.589,1.582c-0.052,0.062-0.103,0.125-0.156,0.19c-0.03-0.034-0.044-0.047-0.056-0.063
	c-1.143-1.455-2.65-2.074-4.457-1.759C5.641,3.361,4.39,4.493,3.86,6.292C3.334,8.08,3.842,9.637,5.191,10.917
	c0.099,0.093,0.141,0.18,0.14,0.316c-0.005,1.582-0.003,3.162-0.003,4.744c0,0.102,0,0.203,0,0.313
	C9.786,16.29,14.217,16.29,18.678,16.29z M18.669,18.547c-4.455,0-8.889,0-13.326,0c0,0.845,0,1.67,0,2.5c4.449,0,8.882,0,13.326,0
	C18.669,20.207,18.669,19.392,18.669,18.547z"/>
</svg>
