<?xml version="1.0" encoding="utf-8"?>
<!-- Generator: Adobe Illustrator 16.0.0, SVG Export Plug-In . SVG Version: 6.00 Build 0)  -->
<!DOCTYPE svg PUBLIC "-//W3C//DTD SVG 1.1//EN" "http://www.w3.org/Graphics/SVG/1.1/DTD/svg11.dtd">
<svg version="1.1" id="Layer_1" xmlns="http://www.w3.org/2000/svg" xmlns:xlink="http://www.w3.org/1999/xlink" x="0px" y="0px"
	 width="24px" height="24px" viewBox="0 0 24 24" enable-background="new 0 0 24 24" xml:space="preserve">
<g>
	<rect x="-2.9" y="10.775" transform="matrix(0.7071 0.7071 -0.7071 0.7071 11.7571 -4.8333)" width="29.226" height="2"/>
</g>
<g>
	<path d="M5.343,21.047c4.449,0,8.882,0,13.326,0c0-0.84,0-1.655,0-2.5c-4.455,0-8.889,0-13.326,0
		C5.343,19.392,5.343,20.217,5.343,21.047z"/>
	<path d="M18.676,11.22c0-0.129,0.045-0.211,0.137-0.298c1.233-1.161,1.777-2.58,1.426-4.249c-0.4-1.907-1.598-3.147-3.489-3.585
		c-1.818-0.421-3.373,0.144-4.589,1.582c-0.052,0.062-0.103,0.125-0.156,0.19c-0.03-0.034-0.044-0.047-0.056-0.063
		c-1.143-1.455-2.65-2.074-4.457-1.759C7.423,3.051,7.363,3.072,7.297,3.085l11.38,11.38C18.678,13.385,18.679,12.303,18.676,11.22z
		"/>
	<path d="M3.86,6.292C3.334,8.08,3.842,9.637,5.191,10.917c0.099,0.093,0.141,0.18,0.14,0.316c-0.005,1.582-0.003,3.162-0.003,4.744
		c0,0.102,0,0.203,0,0.313c4.123,0,8.224,0,12.345,0L5.358,3.975C4.66,4.536,4.149,5.311,3.86,6.292z"/>
	<path fill="none" d="M18.678,16.062c0-0.531-0.001-1.063-0.001-1.596L7.297,3.085C6.542,3.245,5.894,3.545,5.358,3.975
		L17.673,16.29c0.336,0,0.669,0,1.005,0C18.678,16.202,18.678,16.132,18.678,16.062z"/>
</g>
</svg>
