<?xml version="1.0" encoding="utf-8"?>
<!-- Generator: Adobe Illustrator 16.0.0, SVG Export Plug-In . SVG Version: 6.00 Build 0)  -->
<!DOCTYPE svg PUBLIC "-//W3C//DTD SVG 1.1//EN" "http://www.w3.org/Graphics/SVG/1.1/DTD/svg11.dtd">
<svg version="1.1" id="Layer_1" xmlns="http://www.w3.org/2000/svg" xmlns:xlink="http://www.w3.org/1999/xlink" x="0px" y="0px"
	 width="84.5px" height="35.8px" viewBox="0 0 84.5 35.8" enable-background="new 0 0 84.5 35.8" xml:space="preserve">
<g id="Layer_2" display="none">
	<rect y="5.253" display="inline" fill="#AFAFAF" width="24" height="13.493"/>
</g>
<g id="Layer_1_1_">
	<g>
		<path fill="#080808" d="M741.194,1.221c0.555,0.031,1.108-0.032,1.633-0.046c-0.215-0.391,0.463-1.079-0.398-1.234
			c-0.86,0.423-1.727,0.204-2.616,0.204c-63.497,0.014-126.962,0.014-190.489,0.014h-12.846c-0.031,0-0.031,0-0.031,0h-9.244
			c-0.061,0-0.061-0.015-0.092-0.015c-1.201-0.094-2.463,0.233-3.666-0.204h-3.268c-1.047,0.344-2.154,0.344-3.232,0h-3.268
			c-0.953,0.344-1.879,0.344-2.834,0h-3.266c-1.08,0.344-2.188,0.344-3.234,0h-3.695c-0.928,0.344-1.91,0.344-2.836,0h-3.666
			c-1.078,0.344-2.188,0.344-3.234,0h-4.098c-0.832,0.344-1.634,0.344-2.436,0h-3.666c-0.896,0.407-1.816,0.157-2.711,0.188
			c-0.031,0-0.095,0-0.153,0.017c-0.03,0-0.063,0-0.122,0.015h-3.391c-0.063-0.015-0.063-0.015-0.123-0.015
			c-0.063-0.017-0.123-0.017-0.152-0.017c-0.896-0.031-1.818,0.219-2.712-0.188h-3.665c-0.928,0.344-1.91,0.344-2.835,0h-3.668
			c-0.954,0.344-1.88,0.344-2.864,0h-3.636c-0.954,0.344-1.909,0.344-2.864,0h-3.666c-0.801,0.344-1.604,0.344-2.436,0h-3.666
			c-0.861,0.438-1.787,0.079-2.68,0.25c-0.031,0-0.095,0.017-0.125,0.031c-0.029,0.015-0.029,0.015-0.029,0.032
			c-0.187,0.108-0.31,0.25-0.371,0.422c0,0.031,0,0.046,0,0.078c0.096,0.015,0.219,0.03,0.342,0.063
			c-0.342,1.046,0.924,2.717-1.572,2.858c-2.617,0.141-2.156-1.39-2.094-2.905c0.123-0.015,0.246-0.031,0.367-0.046
			c0-0.046,0-0.031,0-0.015c0-0.016-0.029-0.047-0.029-0.108c-0.092-0.141-0.186-0.25-0.309-0.344
			c-0.029-0.017-0.094-0.046-0.123-0.064c-0.029-0.015-0.029-0.015-0.063-0.015c-1.016-0.171-2.096,0.234-3.08-0.234h-3.266
			c-1.078,0.344-2.158,0.344-3.236,0h-3.266c-0.955,0.344-1.91,0.344-2.834,0h-3.267c-1.108,0.344-2.188,0.344-3.266,0h-3.666
			c-1.078,0.423-2.156,0.126-3.234,0.204c-0.063,0-0.094,0-0.125,0.015H54.325c-0.045-0.015-0.092-0.015-0.152-0.015
			c-1.217-0.094-2.466,0.25-3.666-0.204h-2.436c-1.201,0.438-2.448,0.11-3.666,0.204c-0.03,0-0.063,0.015-0.094,0.015H28.63
			c-0.03,0-0.062-0.015-0.093-0.015l0,0c-1.078-0.094-2.187,0.233-3.265-0.204h-3.25c-1.093,0.344-2.172,0.344-3.25,0h-3.266
			c-1.079,0.344-2.172,0.344-3.25,0H8.991c-0.939,0.344-1.896,0.344-2.85,0H2.49c-0.678,0.344-1.355,0.344-2.049,0
			c-0.801-0.063-0.23,0.563-0.4,0.828c0.308,0.422,0.215,0.922,0.215,1.391c0,10.48,0,20.946,0,31.425
			c0,0.469,0.092,0.969-0.215,1.373c0.17,0.28-0.4,0.906,0.4,0.844c0.771-0.404,1.603-0.219,2.403-0.219
			c45.118,0,90.219,0,135.325,0h9.553c0.014,0,0.045,0,0.061,0c1.217,0.125,2.465-0.218,3.666,0.219h2.449
			c1.187-0.437,2.435-0.094,3.65-0.219c0.016,0,0.047,0,0.063,0h2.727c0.016,0,0.047,0,0.063,0c1.093,0.125,2.202-0.218,3.266,0.219
			h3.25c1.095-0.344,2.173-0.344,3.25,0h3.267c1.078-0.344,2.172-0.344,3.25,0h3.266c1.078-0.344,2.158-0.344,3.25,0h3.25
			c1.094-0.344,2.173-0.344,3.266,0h3.65c0.818-0.344,1.634-0.344,2.451,0h3.666c0.939-0.344,1.895-0.344,2.85,0h3.666
			c0.848-0.467,1.787-0.094,2.682-0.248c0.015,0,0.045,0,0.076-0.031c0.031,0,0.063,0,0.092-0.063
			c0.14-0.063,0.248-0.188,0.324-0.344c0-0.03,0.016-0.063,0.029-0.095c-0.122,0-0.246,0-0.369,0
			c0.029-1.186-1.186-2.967,1.463-2.889c2.357,0.077,2.62,0.422,1.803,2.951c-0.062,0-0.123,0-0.185,0c0,0,0,0,0,0.031
			c0.093,0.279,0.308,0.404,0.585,0.469c0.031,0,0.063,0,0.094,0c0.014,0,0.045,0,0.062,0l0,0c0.771,0.092,1.569-0.22,2.295,0.219
			h4.065c0.849-0.438,1.789-0.094,2.683-0.25c0.045-0.031,0.075-0.031,0.123-0.031c0.016,0,0.03,0,0.045-0.029
			c0.153-0.096,0.278-0.252,0.354-0.438l0.017-0.031c-0.125,0-0.248-0.031-0.371-0.031c-0.293-2.874-0.215-2.921,2.265-2.855
			c2.373,0.062,1.079,1.826,1.401,2.826c-0.123,0-0.245,0.031-0.369,0.061c0,0,0.015,0.064,0.031,0.064
			c0.075,0.188,0.184,0.313,0.338,0.375c0.017,0.063,0.045,0.063,0.078,0.063c0.03,0,0.045,0.031,0.092,0.031
			c0.879,0.188,1.817-0.217,2.681,0.25h3.668c0.707-0.467,1.524-0.094,2.278-0.25l0,0c0.046-0.031,0.093-0.031,0.14-0.031
			l0.016-0.029c0.152-0.095,0.277-0.281,0.354-0.47c0.016,0,0.016,0,0.031-0.063c-0.124,0-0.23-0.029-0.34-0.063
			c0.309-1.031-0.816-2.748,1.479-2.78c2.512-0.03,2.805,0.281,2.143,2.937v0.404c0.045,0.032,0.092,0.063,0.17,0.096
			c0.015,0.031,0.029,0.031,0.063,0.031c0.816,0,1.633,0.063,2.465-0.031c0.015,0,0.045-0.031,0.062-0.031
			c0.03,0,0.063,0,0.093-0.029c0.141-0.095,0.247-0.22,0.323-0.406c0.017,0,0.03-0.031,0.047-0.063c-0.124,0-0.247-0.063-0.37-0.063
			c0.047-1.313-0.521-2.859,1.756-2.812c2.203,0.047,2.356,0.108,2.313,2.812c-0.125,0.03-0.246,0.063-0.371,0.063
			c0.031,0.063,0.047,0.094,0.063,0.125c0.078,0.125,0.187,0.25,0.31,0.345c0.047,0.029,0.078,0.029,0.123,0.063
			c0.017,0,0.03,0.029,0.047,0.029c1.017,0.156,2.08-0.248,3.082,0.219h3.666c0.955-0.344,1.896-0.344,2.851,0h3.266
			c1.078-0.344,2.156-0.344,3.25,0h3.25c1.094-0.344,2.172-0.344,3.266,0h3.25c1.096-0.344,2.173-0.344,3.25,0h3.268
			c1.217-0.344,2.435-0.344,3.648,0h2.451c1.201-0.437,2.434-0.094,3.666-0.219c0.029,0,0.063,0,0.092,0h9.197
			c0.029,0,0.045,0,0.076,0c1.217,0.125,2.449-0.218,3.65,0.219h2.448c0.771-0.403,1.586-0.219,2.39-0.219
			c25.063,0,50.141,0,75.201,0h178.787c0.03,0,0.03,0,0.03,0h73.908c0.063,0,0.125,0,0.153,0c1.201,0.094,2.465-0.218,3.666,0.219
			h2.435c1.203-0.437,2.437-0.094,3.668-0.219c0.028,0,0.062,0,0.092,0h9.183c0.029,0,0.063,0,0.094,0
			c1.107,0.094,2.219-0.218,3.266,0.219h3.266c1.047-0.344,2.156-0.344,3.234,0h3.266c1.078-0.344,2.156-0.344,3.236,0h3.264
			c1.109-0.344,2.158-0.344,3.267,0h3.266c0.928-0.344,1.881-0.344,2.836,0h3.666c0.955-0.344,1.879-0.344,2.863,0h3.637
			c0.955-0.344,1.91-0.344,2.834,0h3.697c0.801-0.344,1.604-0.344,2.436,0h3.664c0.927-0.344,1.91-0.344,2.836,0h4.064
			c0.957-0.344,1.91-0.344,2.867,0h3.666c0.801-0.344,1.602-0.344,2.434,0h3.664c0.863-0.437,1.789-0.094,2.687-0.248
			c0.026-0.031,0.092-0.031,0.12-0.031c0.029,0,0.029,0,0.029-0.031c0.188-0.093,0.277-0.25,0.369-0.438c0-0.032,0-0.032,0-0.032
			c-0.121-0.029-0.246-0.062-0.369-0.062c0.369-1-0.924-2.781,1.416-2.826c2.467-0.064,2.527-0.019,2.281,2.826
			c-0.125,0.031-0.246,0.062-0.369,0.062c0,0.032,0,0.063,0,0.063c0.092,0.188,0.186,0.313,0.338,0.373
			c0.031,0.063,0.031,0.063,0.094,0.063l0.063,0.032c0.924,0.188,1.85-0.219,2.711,0.248h4.068c0.801-0.344,1.602-0.344,2.432,0
			c1.078-0.217,2.25,0.47,3.266-0.404c-0.461-0.438-1.016-0.188-1.569-0.221c-0.925,0-1.695,0.033-1.664-1.34
			c0-1.25,0.368-1.781,1.602-1.672c0.557,0.047,1.109-0.049,1.633-0.078v-0.408c-0.092-0.125-0.184-0.248-0.184-0.373
			c-0.031-8.684-0.031-17.368,0-26.051c0-0.126,0.092-0.25,0.184-0.359V4.475c-0.461-0.391-1.047-0.25-1.567-0.203
			c-1.17,0.108-1.695-0.25-1.664-1.578C739.592,1.423,740.147,1.142,741.194,1.221z M730.351,2.5c0,1.562-0.74,1.703-1.728,1.547
			c-1.106,0-2.154,0.327-2.094-1.406c0-1.625,0.926-1.5,1.971-1.5C729.426,1.158,730.351,0.938,730.351,2.5z M723.879,2.658
			c0,1.53-0.801,1.483-1.815,1.39c-0.927-0.064-2.064,0.437-2.064-1.36c-0.029-1.592,0.771-1.578,1.881-1.563
			C722.955,1.158,723.851,1.049,723.879,2.658z M717.534,2.596c0.064,1.671-0.893,1.514-1.848,1.453
			c-1.05,0.015-2.097,0.296-2.097-1.39c0-1.593,0.863-1.563,1.91-1.532C716.547,1.173,717.504,0.955,717.534,2.596z M711.094,2.719
			c0,1.829-1.17,1.218-2.063,1.344c-0.832-0.188-2.063,0.562-2.094-1.281c-0.031-1.733,0.924-1.656,2.032-1.64
			C710.078,1.158,711.125,0.955,711.094,2.719z M704.44,2.516c0,1.579-0.832,1.641-1.787,1.531c-1.107-0.032-2.156,0.374-2.156-1.39
			c-0.027-1.656,0.832-1.578,1.91-1.532C703.362,1.173,704.472,0.783,704.44,2.516z M698.063,2.5c0,1.593-0.802,1.625-1.91,1.547
			c-0.924-0.064-2.033,0.421-2.002-1.375c0-1.593,0.709-1.671,1.447-1.563C696.953,1.205,698.063,0.704,698.063,2.5z M691.655,2.547
			c0,1.828-1.078,1.515-2.125,1.469c-1.078,0.171-1.664,0.032-1.725-1.39c-0.063-1.89,1.075-1.437,2.094-1.5
			C690.916,1.063,691.655,1.079,691.655,2.547z M685.155,2.47c-0.031,1.515-0.617,1.764-1.756,1.562
			c-1.109,0.064-2.002,0.234-2.033-1.453c0-1.764,0.984-1.437,1.973-1.437C684.262,1.125,685.187,0.829,685.155,2.47z
			 M678.838,2.516c0,1.828-1.078,1.5-2.155,1.546c-1.019,0.032-1.757,0.016-1.787-1.468c-0.062-1.89,1.141-1.422,2.278-1.453
			C678.037,1.063,678.838,0.97,678.838,2.516z M672.062,2.47c0,1.515-0.646,1.734-1.849,1.546c-1.172,0.171-1.973,0.109-1.973-1.578
			c0-1.639,0.924-1.327,1.787-1.28C670.952,1.173,672.092,0.674,672.062,2.47z M665.713,2.611c-0.061,1.687-0.983,1.468-1.971,1.405
			c-1.17,0.141-1.91,0.046-1.941-1.515c-0.03-1.813,1.078-1.313,2.005-1.358C664.79,1.096,665.776,0.908,665.713,2.611z
			 M659.185,2.563c0,1.625-0.802,1.593-1.912,1.453c-1.17,0.188-1.815,0.015-1.849-1.531c0-1.797,1.109-1.266,2.033-1.359
			C658.504,1.033,659.185,1.079,659.185,2.563z M650.896,34.957c-1.047,0.063-1.94,0.156-1.94-1.5c0-1.655,0.926-1.452,1.909-1.405
			c1.111-0.062,1.974-0.093,2.033,1.502C652.897,35.268,651.851,34.924,650.896,34.957z M644.704,34.957
			c-0.955-0.063-2.033,0.376-2.033-1.373c0-1.577,0.771-1.655,1.91-1.517c1.047-0.125,1.907-0.141,1.879,1.453
			C646.428,35.018,645.719,35.018,644.704,34.957z M653.669,27.538c0,2.796-0.461,3.344-3.297,3.344
			c-11.091,0.045-22.242,0.016-33.334,0.016v0.029c-10.599,0-21.164,0-31.73-0.016c-0.832,0-1.664,0.016-2.467-0.063
			c-1.479-0.141-2.402-0.703-2.342-2.547c0.094-6.936,0.063-13.871,0-20.804c-0.031-1.734,0.739-2.359,2.188-2.578
			c0.463-0.077,0.955-0.046,1.448-0.046c21.872,0,43.776,0,65.683,0.016c3.328,0,3.852,0.545,3.852,3.904
			C653.669,15.042,653.669,21.29,653.669,27.538z M631.702,34.957c-0.986,0.063-1.849,0.126-1.849-1.5
			c0-1.655,0.955-1.405,1.938-1.42c1.08-0.017,1.941-0.093,1.941,1.517C633.797,35.268,632.751,34.957,631.702,34.957z
			 M295.415,34.957c-1.063,0.031-2.048,0.249-2.02-1.437c0.018-1.655,0.986-1.469,2.005-1.483c0.938,0,1.831-0.203,1.849,1.358
			C297.249,34.957,296.509,35.082,295.415,34.957z M289.038,34.957c-1.171,0.031-2.05,0.188-2.063-1.344
			c-0.017-1.765,1.016-1.562,2.108-1.576c0.986-0.017,1.787-0.127,1.804,1.39C290.903,35.174,289.933,35.051,289.038,34.957z
			 M255.981,30.864c-2.604,0-3.834,0-3.727-3.732c0.168-6.436,0.045-12.902,0.063-19.335c0-2.436,0.354-2.89,2.771-2.921
			c8.41-0.047,16.807-0.047,25.2-0.047c2.929-0.015,5.839,0,8.75,0c10.506,0,20.996-0.015,31.501,0c0.955,0,1.91-0.015,2.852,0.079
			c1.245,0.125,1.971,0.826,1.971,2.155c0,7.138-0.014,14.258,0.016,21.398c0,1.531-0.985,1.999-2.11,2.327
			c-0.509,0.156-1.078,0.063-1.617,0.063C299.759,30.864,277.87,30.848,255.981,30.864z M250.05,4.031
			c-1.047,0.126-1.879,0.094-1.832-1.515c0.076-2.187,1.633-1,2.525-1.281c1.23-0.389,1.188,0.453,1.277,1.36
			C252.207,4.312,251.13,4.079,250.05,4.031z M238.451,2.672c-0.017,1.719-1.078,1.359-2.22,1.39
			c-0.877,0.078-1.756,0.125-1.709-1.484c0.031-1.671,1.048-1.39,2.05-1.453C237.683,1.079,238.466,1.111,238.451,2.672z
			 M231.981,2.767c-0.016,1.608-1,1.265-1.895,1.296c-0.939-0.063-2.049,0.375-2.063-1.358c-0.016-1.546,0.738-1.609,1.879-1.579
			C231.06,1.158,231.997,1.063,231.981,2.767z M225.573,2.734c-0.014,1.625-0.969,1.297-2.125,1.313
			c-0.754,0.03-1.771,0.264-1.739-1.422c0-1.437,0.662-1.53,1.739-1.5C224.558,1.173,225.589,0.955,225.573,2.734z M219.119,2.687
			c0,1.796-1.108,1.296-2.019,1.36c-0.985-0.064-2.203,0.453-2.155-1.453c0.062-1.671,1.048-1.436,2.048-1.436
			C218.071,1.142,219.119,0.892,219.119,2.687z M212.495,2.547c-0.029,1.578-0.861,1.578-1.91,1.484
			c-1.047,0.047-1.972,0.267-1.972-1.405c0-1.656,0.862-1.53,1.896-1.5C211.479,1.158,212.511,0.829,212.495,2.547z M206.087,2.532
			c-0.015,1.594-0.771,1.656-1.646,1.5c-1.232,0.017-2.219,0.328-2.219-1.405c-0.017-1.641,0.848-1.53,1.895-1.5
			C205.071,1.173,206.118,0.799,206.087,2.532z M199.726,2.5c0.016,1.765-0.955,1.655-2.019,1.5c-1.264,0.218-1.926,0-1.896-1.531
			c0.017-1.812,1.188-1.249,2.08-1.327C198.849,1.079,199.71,0.924,199.726,2.5z M193.241,2.687
			c0.046,1.796-1.109,1.234-2.033,1.375c-1.34,0.171-1.709-0.328-1.709-1.702c0.016-1.921,1.34-0.985,2.096-1.218
			C192.888,0.875,193.21,1.408,193.241,2.687z M186.896,2.611c-0.047,1.702-1.033,1.39-2.02,1.437
			c-1.109,0.061-1.879,0.03-1.879-1.547c-0.018-1.766,1.079-1.313,2.4-1.391C186.063,1.063,186.925,0.938,186.896,2.611z
			 M180.132,2.563c0.03,1.905-1.171,1.405-2.402,1.5c-1.125,0.234-1.463-0.39-1.479-1.717c0-1.906,1.31-1.063,2.125-1.188
			C179.394,0.985,180.103,1.096,180.132,2.563z M173.8,2.642c-0.045,1.717-1.093,1.389-2.187,1.406
			c-1.047,0.156-1.726-0.064-1.756-1.578c-0.031-1.843,1.14-1.249,2.032-1.327C172.968,1.049,173.831,1.016,173.8,2.642z
			 M167.315,2.642c-0.03,1.749-1.047,1.389-2.143,1.389c-0.938,0.141-1.57,0.047-1.633-1.405c-0.078-1.718,0.848-1.5,1.879-1.5
			C166.468,1.125,167.347,0.955,167.315,2.642z M158.873,34.957c-0.924,0.063-1.848,0.188-1.833-1.468
			c0-1.484,0.709-1.484,1.756-1.471c1.125,0.031,2.11-0.125,2.079,1.627C160.847,35.268,159.892,34.924,158.873,34.957z
			 M161.708,27.819c0,2.436-0.508,3.046-2.958,3.046c-11.184,0.03-22.353,0.017-33.551,0.017v0.045c-10.627,0-21.271,0-31.901-0.016
			c-0.816,0-1.633,0.016-2.449-0.063c-1.433-0.141-2.265-0.703-2.248-2.451c0.092-6.998,0.076-13.995,0-20.992
			c-0.017-1.749,0.832-2.311,2.264-2.498c0.4-0.046,0.816-0.016,1.217-0.016c21.951,0,43.917,0,65.869,0
			c3.173,0,3.773,0.61,3.773,3.779C161.724,15.059,161.724,21.446,161.708,27.819z M146.257,34.957
			c-1.107,0.126-1.849,0.031-1.832-1.53c0.016-1.5,0.801-1.42,1.786-1.39c0.986,0.03,1.988-0.269,1.974,1.42
			C148.185,35.082,147.368,35.051,146.257,34.957z M139.912,34.957c-1.002,0.031-1.987,0.249-1.974-1.437
			c0-1.42,0.632-1.547,1.727-1.5c1.078,0.063,2.125-0.188,2.107,1.593C141.745,35.206,140.866,34.957,139.912,34.957z M6.235,7.467
			C6.204,5.75,7.021,5.124,8.453,4.921c0.54-0.077,1.079-0.046,1.633-0.046c21.828,0,43.671,0,65.499,0
			c3.313,0,3.835,0.546,3.819,3.936c0,6.248,0.016,12.495,0,18.743c0,2.812-0.433,3.328-3.28,3.328
			c-11.122,0.045-22.244,0.016-33.365,0.016c-10.645,0.015-21.289,0.015-31.933,0c-0.893,0-1.787,0.093-2.648-0.079
			c-1.187-0.233-1.972-0.78-1.957-2.343C6.327,21.475,6.311,14.479,6.235,7.467z M30.081,0.674c1.001,0.015,2.002-0.203,2.033,1.468
			c0.015,1.625-0.893,1.563-1.895,1.468c-1.093,0.047-2.048,0.218-2.08-1.453C28.109,0.516,29.017,0.642,30.081,0.674z
			 M36.627,0.767c1.032-0.046,1.725-0.031,1.756,1.421c0.031,1.609-0.771,1.609-1.864,1.484c-1.108,0.126-1.879,0.078-1.879-1.5
			C34.64,0.455,35.672,0.829,36.627,0.767z M42.974,0.799c1.094-0.111,1.939-0.125,1.939,1.483
			c-0.016,1.516-0.802,1.468-1.802,1.421c-0.986-0.046-2.019,0.265-2.049-1.437C41.017,0.625,41.895,0.688,42.974,0.799z
			 M55.45,0.813c1.232-0.126,2.08-0.188,2.05,1.437c-0.017,1.453-0.679,1.53-1.726,1.453c-0.939-0.079-2.033,0.375-2.018-1.391
			C53.772,0.813,54.403,0.579,55.45,0.813z M94.532,0.799c1.109,0.015,2.109-0.111,2.141,1.593c0.016,1.812-1.17,1.203-2.094,1.327
			C93.808,3.5,92.53,4.329,92.483,2.47C92.451,0.847,93.36,0.767,94.532,0.799z M88.062,3.703c-1.018,0.015-2.002,0.328-1.957-1.405
			c0.047-1.625,0.91-1.5,1.957-1.5c1.063-0.016,1.926-0.125,1.94,1.5C90.002,4.016,89.001,3.703,88.062,3.703z M88.108,32.035
			c1.107-0.108,1.924-0.093,1.895,1.483c-0.031,1.75-1.078,1.345-2.033,1.438c-1.17,0.063-1.832-0.124-1.863-1.624
			C86.073,31.504,87.244,32.131,88.108,32.035z M81.808,3.672c-1.232,0.126-2.097,0.234-2.049-1.437
			c0.047-1.469,0.709-1.515,1.756-1.437c0.971,0.063,2.004-0.343,1.986,1.405C83.501,3.798,82.793,3.891,81.808,3.672z
			 M83.501,33.393c0.03,1.625-0.861,1.5-1.925,1.563c-1.231,0.063-1.804-0.219-1.804-1.687c-0.016-1.733,1.095-1.297,2.188-1.344
			C82.916,31.768,83.487,32.035,83.501,33.393z M77.063,2.173c0.016,1.795-1.047,1.546-2.436,1.531
			C73.996,3.658,72.935,4,72.902,2.313c-0.045-1.842,1.094-1.515,2.125-1.5C75.97,0.813,77.032,0.455,77.063,2.173z M70.763,2.328
			c-0.047,1.703-1.141,1.359-2.109,1.375c-1.063,0.031-2.157,0.25-2.11-1.546c0.03-1.764,1.155-1.281,1.896-1.343
			C69.685,0.799,70.81,0.516,70.763,2.328z M64.03,2.345c0.031,1.795-1.107,1.296-2.018,1.358c-1.078,0.077-1.879,0.094-1.863-1.516
			c0.031-1.733,1.031-1.374,2.109-1.374C63.291,0.674,64.017,0.799,64.03,2.345z M77.048,33.238
			c0.016,1.655-0.832,1.778-1.986,1.655c-1.201,0.063-2.158,0.063-2.158-1.625c0-1.779,1.172-1.326,2.064-1.312
			C75.831,31.973,77.048,31.428,77.048,33.238z M64.03,33.551c-0.045,1.53-0.938,1.344-1.893,1.373
			c-1.125,0.031-1.928-0.063-1.974-1.593c-0.046-1.78,1.063-1.374,2.188-1.405C63.368,31.801,64.063,32.035,64.03,33.551z
			 M55.575,34.674c-1.141,0.063-1.864-0.029-1.818-1.592c0.047-1.701,1.078-1.343,2.188-1.374c1.03-0.188,1.493,0.202,1.556,1.499
			C57.593,34.957,56.562,34.645,55.575,34.674z M51.323,33.208c0,1.688-0.971,1.467-2.202,1.467
			c-0.771,0.032-1.787,0.252-1.726-1.437c0.062-1.53,0.924-1.53,2.002-1.546C50.491,31.661,51.308,31.645,51.323,33.208z
			 M44.914,33.145c0.031,1.654-0.86,1.593-1.938,1.5c-0.849-0.063-1.896,0.438-1.912-1.25c0-1.627,0.848-1.703,2.049-1.703
			C44.19,31.692,44.884,31.723,44.914,33.145z M38.383,33.363c0.015,1.593-0.955,1.28-1.972,1.28
			c-0.971,0.125-1.803,0.125-1.771-1.5c0.031-1.625,0.971-1.375,1.987-1.453C37.905,31.583,38.368,31.99,38.383,33.363z
			 M32.098,33.27c0.031,1.843-1.17,1.187-2.033,1.312c-1.109,0.125-1.94,0.125-1.926-1.499c0.031-1.734,1.11-1.328,2.064-1.391
			C31.358,31.598,32.083,31.723,32.098,33.27z M25.336,33.27c0,1.779-1.155,1.248-1.941,1.312c-0.986,0-1.925,0.375-1.941-1.28
			c-0.015-1.688,0.863-1.608,2.018-1.625C24.612,31.661,25.336,31.708,25.336,33.27z M18.912,33.145
			c0.077,1.873-1.094,1.437-2.28,1.437c-0.802,0.125-1.541,0.156-1.571-1.344c-0.031-1.828,1.032-1.517,2.08-1.546
			C18.188,31.645,18.866,31.676,18.912,33.145z M12.426,33.27c0.031,1.654-0.939,1.312-1.833,1.312
			c-0.986,0.029-1.957,0.313-1.926-1.437c0.031-1.674,0.925-1.5,2.018-1.422C11.872,31.473,12.397,31.817,12.426,33.27z
			 M68.653,34.957c-1.155-0.03-2.11,0-2.11-1.687c0-1.797,1.218-1.219,2.11-1.36c0.863,0.174,2.094-0.467,2.109,1.36
			C70.763,34.893,69.823,34.957,68.653,34.957z M92.483,33.363c-0.016-1.983,1.371-1.124,2.109-1.328
			c1.109-0.017,2.143-0.313,2.08,1.422c-0.076,1.749-1.187,1.437-2.232,1.468C93.347,34.957,92.498,34.893,92.483,33.363z
			 M98.907,33.363c-0.047-1.827,1.171-1.218,2.078-1.345c0.832,0.172,2.08-0.547,2.064,1.313c0,1.75-1.048,1.593-2.156,1.625
			C99.815,34.957,98.937,34.957,98.907,33.363z M105.269,33.363c0-2.14,1.51-1.155,2.418-1.313c0.971-0.156,1.818-0.093,1.756,1.406
			c-0.063,1.749-1.217,1.436-2.233,1.499C106.101,34.988,105.269,34.893,105.269,33.363z M111.938,33.393
			c-0.016-1.748,1.047-1.326,2.172-1.375c0.91-0.092,1.709-0.107,1.709,1.5c0,1.75-1,1.375-1.971,1.438
			C112.755,34.988,111.938,35.018,111.938,33.393z M118.438,33.393c-0.016-1.78,1.063-1.311,1.986-1.375
			c1.004-0.062,1.758-0.139,1.771,1.375c0,1.625-0.77,1.656-1.895,1.5C119.179,35.082,118.453,34.988,118.438,33.393z
			 M124.815,33.393c0.017-1.562,0.832-1.437,1.541-1.375c1.217,0.049,2.265-0.373,2.265,1.406c-0.017,1.656-0.878,1.5-1.925,1.53
			C125.556,34.988,124.815,34.988,124.815,33.393z M131.179,33.457c0.016-1.873,1.276-1.358,2.248-1.42
			c1.047-0.063,1.973-0.155,1.957,1.483c0,1.937-1.277,1.279-1.863,1.373C132.103,34.988,131.162,35.082,131.179,33.457z
			 M98.907,2.345c0.046-1.593,0.939-1.546,2.002-1.546c1.125,0,2.156-0.111,2.143,1.624c0,1.875-1.279,1.094-2.063,1.297
			C100.03,3.61,98.86,4.157,98.907,2.345z M105.252,2.375c0.031-1.733,1.063-1.577,2.144-1.577c1.031,0,1.986-0.079,2.049,1.483
			c0.091,1.921-1.217,1.312-2.174,1.437C106.407,3.577,105.222,4.203,105.252,2.375z M111.938,2.313
			c0.029-1.405,0.662-1.531,1.756-1.515c1.188,0.015,2.111,0.015,2.111,1.687c0,1.609-0.986,1.295-2.064,1.312
			C112.862,3.845,111.907,3.984,111.938,2.313z M118.453,2.36c-0.017-1.562,0.785-1.546,1.896-1.578
			c1.17-0.016,1.834,0.141,1.834,1.641c0.014,1.718-1.033,1.375-2.033,1.375C119.116,3.937,118.47,3.782,118.453,2.36z
			 M124.831,2.375c-0.018-1.562,0.771-1.577,1.895-1.593c1.141,0,1.879,0.094,1.879,1.625c0,1.717-1.063,1.358-2.248,1.405
			C125.524,3.937,124.847,3.813,124.831,2.375z M131.179,2.5c0-1.655,0.924-1.702,2.094-1.702c1.156,0,2.096-0.016,2.109,1.656
			c0,1.812-1.187,1.233-2.109,1.358C132.44,3.641,131.194,4.312,131.179,2.5z M137.94,2.532c-0.045-1.67,0.924-1.5,1.957-1.452
			c0.877,0.031,1.879-0.344,1.879,1.296c-0.016,1.672-0.939,1.641-2.094,1.672C138.571,4.079,137.972,3.923,137.94,2.532z
			 M144.425,2.532c-0.063-1.67,0.879-1.515,1.987-1.452c1.063-0.141,1.802-0.015,1.771,1.546c-0.03,1.687-1.063,1.343-2.032,1.422
			C145.041,4.125,144.472,3.908,144.425,2.532z M150.772,2.532c-0.063-1.67,0.908-1.452,1.926-1.482
			c1.141-0.032,1.879,0.015,1.832,1.577c-0.045,1.687-1.031,1.405-2.094,1.405C151.372,4.187,150.817,3.875,150.772,2.532z
			 M157.041,2.532c-0.046-1.703,0.955-1.467,1.974-1.452c0.877,0.031,1.862-0.327,1.848,1.296c0,1.687-0.924,1.641-2.08,1.672
			C157.673,4.079,157.071,3.923,157.041,2.532z M385.883,0.783c1.019-0.03,1.882-0.218,1.882,1.343
			c0.062,1.75-0.986,1.579-2.097,1.579c-0.955,0-1.787,0.156-1.817-1.375C383.803,0.532,384.836,0.736,385.883,0.783z
			 M392.137,0.799c1.109-0.094,1.974-0.203,1.974,1.437c-0.03,1.421-0.647,1.563-1.726,1.469c-0.926-0.079-2.034,0.375-2.034-1.375
			C390.351,0.799,391.028,0.625,392.137,0.799z M398.485,0.767c0.955,0.08,2.033-0.374,2.033,1.375c0,1.545-0.709,1.687-1.817,1.53
			c-1.078,0.093-1.972,0.172-1.941-1.453C396.79,0.799,397.437,0.688,398.485,0.767z M404.954,0.783
			c1.02-0.016,1.971-0.25,1.909,1.453c-0.062,1.641-0.954,1.484-2.063,1.453c-0.984,0.093-1.816,0.141-1.816-1.468
			C402.981,0.532,403.967,0.783,404.954,0.783z M404.493,30.848c-7.856,0.016-15.744,0-23.601,0c-3.313,0.016-6.64,0-9.951,0
			c-10.922,0-21.845,0.016-32.75,0c-2.586,0-3.711-0.08-3.619-3.607c0.168-6.577,0.106-13.183,0-19.774
			c-0.031-1.952,0.877-2.561,2.511-2.593c2.571-0.046,5.146-0.046,7.731-0.063c19.379,0,38.771,0,58.166,0.015
			c0.803,0,1.604,0.016,2.436,0.046c1.508,0.094,2.312,0.844,2.312,2.469c-0.031,6.934,0,13.869,0,20.802
			C407.696,30.053,406.741,30.848,404.493,30.848z M406.864,33.457c-0.062,1.688-1.17,1.097-1.541,1.156
			c-1.538,0.157-2.37,0.125-2.342-1.468c0.03-1.498,0.804-1.437,1.851-1.453C406.063,31.661,406.864,31.833,406.864,33.457z
			 M400.519,33.208c0,1.688-0.925,1.499-1.817,1.436c-1.078,0.063-1.941,0.188-1.941-1.342c0-1.47,0.646-1.672,1.852-1.627
			C399.655,31.723,400.519,31.631,400.519,33.208z M394.11,33.208c-0.063,1.344-0.522,1.717-1.231,1.499
			c-1.388-0.125-2.525,0.375-2.525-1.375c0-1.481,0.615-1.687,1.85-1.655C393.247,31.723,394.142,31.598,394.11,33.208z
			 M387.765,33.393c0,1.688-1.05,1.188-1.851,1.281c-1.033-0.029-2.08,0.281-2.063-1.404c0.016-1.563,0.771-1.594,1.879-1.594
			C386.963,31.692,387.765,31.817,387.765,33.393z M374.53,33.457c0.031,1.656-0.938,1.438-1.971,1.5
			c-1.264,0.063-1.757-0.312-1.757-1.687c-0.016-1.827,1.187-1.233,2.05-1.328C374.038,31.754,374.517,32.131,374.53,33.457z
			 M368.123,33.27c-0.016,1.437-0.555,1.748-1.803,1.687c-1.063-0.063-1.924,0.063-1.94-1.563c-0.029-1.606,0.863-1.53,1.925-1.451
			C367.276,31.863,368.123,31.754,368.123,33.27z M361.838,33.332c-0.03,1.688-1.063,1.563-2.172,1.625
			c-1.063,0.031-1.741-0.094-1.771-1.5c-0.045-1.825,1.08-1.515,2.127-1.53C361.006,31.895,361.868,31.817,361.838,33.332z
			 M355.384,33.457c-0.062,1.688-1.094,1.438-2.096,1.5c-1.201,0.031-2.108-0.063-2.048-1.749c0.046-1.893,1.399-0.906,2.063-1.173
			C354.413,32.035,355.46,31.74,355.384,33.457z M348.991,33.27c0,1.687-0.938,1.687-2.109,1.687
			c-1.03-0.063-2.002,0.063-2.063-1.53c-0.063-1.982,1.311-1.232,2.203-1.404C347.866,32.145,348.978,31.583,348.991,33.27z
			 M342.707,33.393c-0.063,1.781-1.202,1.5-2.266,1.563c-1.155,0.063-1.91-0.155-1.91-1.687c-0.014-1.875,1.294-1.031,2.063-1.25
			C341.567,32.131,342.752,31.598,342.707,33.393z M334.08,32.035c1.093-0.108,1.908-0.108,1.863,1.483
			c-0.03,1.75-1.063,1.375-2.156,1.406c-1.078,0.188-1.664-0.094-1.695-1.594C332.046,31.504,333.217,32.114,334.08,32.035z
			 M332.077,2.375c-0.015-1.749,0.954-1.546,2.063-1.593c1.2-0.063,1.803,0.156,1.803,1.625c0.016,1.858-1.217,1.141-1.91,1.28
			C332.956,3.734,332.092,3.969,332.077,2.375z M338.532,2.375c0.016-1.562,0.879-1.608,1.973-1.577
			c1.095,0.03,2.188-0.141,2.203,1.608c0.017,1.843-1.264,1.141-2.08,1.312C339.718,3.577,338.485,4.219,338.532,2.375z
			 M344.817,2.298c0.063-1.594,1.031-1.469,2.08-1.5c1.154-0.046,2.109-0.016,2.094,1.671c-0.029,1.89-1.34,1.015-2.079,1.249
			C345.879,3.657,344.754,4.079,344.817,2.298z M351.226,2.282c0.075-1.578,1.002-1.483,2.032-1.483
			c1.095,0,2.111-0.141,2.126,1.577c0.031,1.812-1.154,1.202-2.003,1.343C352.411,3.61,351.149,4.203,351.226,2.282z M357.879,2.298
			c-0.016-1.796,1.078-1.5,2.217-1.484c1.05-0.156,1.757-0.031,1.757,1.515c0,1.938-1.277,1.282-2.203,1.375
			C358.649,3.813,357.896,3.782,357.879,2.298z M364.364,2.298c0.047-1.594,0.787-1.672,1.85-1.453
			c1.277-0.234,1.896-0.017,1.91,1.515c0.017,1.577-0.848,1.39-1.787,1.358C365.381,3.687,364.319,4.062,364.364,2.298z
			 M370.774,2.25c0.015-1.718,0.971-1.437,1.957-1.453c0.984-0.032,1.801-0.156,1.816,1.389c0.016,1.578-0.664,1.734-1.648,1.5
			C371.666,3.765,370.774,3.969,370.774,2.25z M377.196,2.282c-0.03-1.843,1.14-1.468,2.142-1.468c0.973,0,2.033-0.344,2.05,1.39
			c0.017,1.795-1.108,1.483-2.155,1.5C378.258,3.687,377.243,3.969,377.196,2.282z M327.58,32.018
			c0.878,0.031,1.863-0.342,1.848,1.313c-0.015,1.438-0.508,1.813-1.692,1.563c-1.11,0.063-2.033,0.313-2.08-1.405
			C325.623,31.787,326.578,32.004,327.58,32.018z M325.669,2.423c-0.029-1.734,0.925-1.593,2.063-1.64
			c1.141-0.03,1.647,0.234,1.68,1.563c0.063,1.639-0.863,1.53-1.816,1.453C326.517,3.845,325.701,3.923,325.669,2.423z
			 M323.099,2.36c0.045,1.938-1.279,1.312-2.111,1.453c-1.094-0.031-2.125,0.282-2.094-1.453c0.028-1.764,1.107-1.531,2.187-1.562
			C322.157,0.783,323.05,0.813,323.099,2.36z M316.704,2.423c0.046,2-1.371,1.141-1.987,1.375c-1.263,0.015-2.249,0.233-2.188-1.47
			c0.063-1.779,1.187-1.467,2.233-1.515C315.872,0.767,316.673,0.892,316.704,2.423z M309.974,2.328
			c0.029,1.703-0.972,1.5-1.479,1.484c-1.434-0.015-2.389,0.266-2.403-1.343c0-1.703,0.986-1.624,2.125-1.671
			C309.356,0.736,309.942,0.955,309.974,2.328z M303.474,2.423c0,1.485-0.664,1.641-1.851,1.641c-1.217,0-1.848-0.156-1.848-1.655
			c-0.017-1.608,0.938-1.329,2.2-1.329C302.563,1.063,303.502,0.813,303.474,2.423z M297.249,2.563
			c-0.031,1.453-0.74,1.485-1.788,1.485c-1.216,0-2.063-0.064-2.063-1.703c0-1.688,1.063-1.188,1.912-1.266
			C296.388,1,297.28,0.924,297.249,2.563z M290.888,2.516c-0.017,1.579-0.816,1.563-1.91,1.531c-1.063-0.032-1.941,0-1.988-1.547
			c-0.063-1.702,0.957-1.437,1.988-1.421C289.964,1.033,290.888,0.862,290.888,2.516z M284.388,2.625
			c0.016,1.687-1.031,1.405-2.127,1.405c-1.277,0.25-1.603-0.405-1.603-1.718c-0.017-1.842,1.265-1.093,2.11-1.234
			C283.972,0.862,284.388,1.346,284.388,2.625z M278.056,2.423c0.016,1.734-0.894,1.626-2.033,1.641
			c-1.156,0.016-1.879-0.031-1.879-1.577c-0.017-1.828,1.141-1.25,1.973-1.343C277.056,1.173,278.026,0.783,278.056,2.423z
			 M271.293,2.532c0,1.609-0.862,1.531-1.926,1.516c-1.032-0.017-1.926,0.171-1.957-1.47c-0.03-1.703,0.878-1.483,1.862-1.42
			C270.276,1.125,271.293,0.829,271.293,2.532z M264.946,2.596c-0.014,1.671-0.938,1.53-1.895,1.42
			c-1.217,0.125-2.018,0.109-2.063-1.484c-0.031-1.796,1.047-1.358,2.002-1.406C264.007,1.096,264.978,0.892,264.946,2.596z
			 M258.478,2.579c-0.016,1.719-0.971,1.405-1.973,1.484c-1.171,0.078-1.832-0.079-1.803-1.608c0.016-1.563,0.848-1.39,1.557-1.297
			C257.522,1.111,258.478,0.847,258.478,2.579z M323.099,33.457c0.028,1.813-1.142,1.438-2.174,1.5
			c-0.956-0.063-2.019,0.313-2.031-1.437c-0.031-1.828,1.107-1.483,2.141-1.5C322.021,32.018,323.065,31.754,323.099,33.457z
			 M316.704,33.457c0.03,1.876-1.155,1.438-2.157,1.47c-0.97-0.031-2.002,0.313-2.018-1.406c-0.017-1.812,1.125-1.469,2.156-1.482
			C315.671,32.018,316.673,31.787,316.704,33.457z M308.479,32.018c0.678-0.062,1.479-0.155,1.494,1.375
			c0.029,1.813-1.031,1.531-2.109,1.563c-0.986,0-1.728,0.063-1.771-1.437C306.015,31.661,307.153,32.067,308.479,32.018z
			 M377.211,33.363c-0.063-1.938,1.248-1.28,2.064-1.437c1.047,0.063,2.155-0.313,2.107,1.404c-0.047,1.75-1.107,1.563-2.188,1.594
			C378.12,34.957,377.258,34.924,377.211,33.363z M409.452,33.27c0.03-1.516,0.616-1.766,1.786-1.547
			c1.109-0.078,2.033-0.267,1.974,1.422c0,1.466-0.615,1.593-1.693,1.437C410.624,34.489,409.452,35.113,409.452,33.27z
			 M415.86,33.238c0-1.795,1.017-1.53,2.097-1.546c1.018-0.047,1.727-0.016,1.784,1.453c0.063,1.873-1.106,1.404-2.37,1.437
			C416.661,34.674,415.892,34.738,415.86,33.238z M422.176,33.27c-0.03-1.702,0.894-1.608,2.033-1.594
			c1.078,0,1.939-0.108,1.939,1.498c0.03,1.907-1.201,1.346-1.879,1.407C423.069,34.645,422.206,34.833,422.176,33.27z
			 M428.985,33.083c0-1.719,1.017-1.328,1.972-1.391c1.172-0.096,1.852,0.046,1.852,1.576c0.027,1.781-1.078,1.25-2.467,1.375
			C429.724,34.707,428.954,34.707,428.985,33.083z M435.454,33.238c0-1.577,0.739-1.606,1.852-1.562
			c1.047,0.045,1.908-0.172,1.908,1.498c0,1.78-0.984,1.406-2.063,1.406C436.317,34.645,435.454,34.833,435.454,33.238z
			 M441.833,33.27c0-1.502,0.584-1.766,1.754-1.547c1.172-0.078,2.158-0.252,2.127,1.547c-0.029,1.563-0.896,1.375-1.816,1.312
			C442.971,34.518,441.862,35.082,441.833,33.27z M448.147,33.176c-0.062-1.89,1.108-1.469,2.155-1.469
			c0.986-0.125,1.757-0.063,1.787,1.404c0.063,1.904-1.108,1.469-2.155,1.499C448.948,34.645,448.21,34.707,448.147,33.176z
			 M454.586,33.238c0-1.53,0.646-1.593,1.816-1.562c1.108,0.03,2.063-0.142,2.035,1.592c-0.063,1.563-0.927,1.375-1.852,1.313
			C455.665,34.518,454.586,35.018,454.586,33.238z M460.963,33.018c0-1.844,1.201-1.217,2.095-1.357
			c0.832,0.188,2.063-0.531,2.096,1.297c0.063,1.749-0.924,1.653-2.063,1.624C461.979,34.582,460.963,34.77,460.963,33.018z
			 M467.649,33.238c-0.03-1.593,0.771-1.625,1.879-1.562c0.986,0.045,2.033-0.328,1.972,1.405c-0.062,1.655-0.924,1.562-1.972,1.499
			C468.542,34.611,467.681,34.77,467.649,33.238z M474.026,33.208c0-1.625,0.802-1.625,1.849-1.516
			c1.078-0.031,2.063-0.282,2.032,1.453c-0.062,1.654-1.016,1.437-2.032,1.437C474.89,34.611,474.058,34.707,474.026,33.208z
			 M480.558,33.145c0-1.484,0.678-1.532,1.756-1.469c1.017,0.045,2.157-0.313,2.127,1.53c-0.063,1.53-0.862,1.437-1.817,1.374
			C481.544,34.611,480.588,34.77,480.558,33.145z M486.903,33.145c-0.062-1.938,1.201-1.58,2.281-1.655
			c1.2-0.095,1.879,0.155,1.879,1.655c-0.031,1.748-1.142,1.279-2.097,1.373C488.076,34.426,486.903,34.893,486.903,33.145z
			 M494.112,33.051c0.063-2.107,1.541-1.156,2.466-1.344c1.231-0.268,1.356,0.438,1.418,1.5c0.063,1.688-0.925,1.499-1.693,1.248
			C494.976,34.582,494.112,34.674,494.112,33.051z M498.181,7.405c0-1.625,0.737-2.233,2.094-2.468
			c0.586-0.093,1.231-0.062,1.817-0.062c21.781,0,43.531,0,65.313,0c3.481,0,3.976,0.516,3.976,3.998v18.946
			c0,2.404-0.553,3.046-2.957,3.046c-11.273,0.03-22.521,0.017-33.767,0.017v0.029c-10.598,0-21.165,0-31.731-0.016
			c-0.896,0-1.785,0.063-2.648-0.063c-1.293-0.219-2.094-0.767-2.094-2.421C498.303,21.415,498.303,14.403,498.181,7.405z
			 M530.374,2.345c-0.031,1.75-1.14,1.281-2.435,1.389c-0.709,0.125-1.265-0.125-1.293-1.5c-0.063-1.671,0.894-1.437,1.909-1.469
			C529.696,0.721,530.405,0.813,530.374,2.345z M535.149,0.799c1.049-0.172,1.664,0.078,1.728,1.453
			c0.063,1.906-1.172,1.375-2.437,1.468c-1.076,0.188-1.479-0.391-1.446-1.733C532.993,0.143,534.286,0.924,535.149,0.799z
			 M541.495,0.783c0.926-0.095,1.758-0.125,1.758,1.484c0,1.687-0.984,1.42-2.002,1.437c-1.049,0.031-1.91,0.046-1.91-1.531
			C539.31,0.438,540.356,0.799,541.495,0.783z M547.597,0.799c1.139-0.141,1.909-0.064,1.909,1.5c0,1.733-1.078,1.343-2.032,1.405
			c-0.986,0.062-1.726,0.046-1.726-1.421C545.717,0.674,546.519,0.674,547.597,0.799z M644.642,1.096
			c1.047-0.141,1.848-0.11,1.817,1.5c-0.031,1.671-0.985,1.405-2.002,1.453c-1.049,0.046-1.727-0.064-1.787-1.485
			C642.64,0.938,643.532,0.985,644.642,1.096z M640.083,2.423c-0.031,1.5-0.679,1.641-1.881,1.641c-1.201,0-1.816-0.188-1.816-1.655
			c-0.029-1.593,0.926-1.329,2.188-1.344C639.16,1.033,640.083,0.847,640.083,2.423z M633.735,2.36c0,1.64-0.86,1.656-2.032,1.688
			c-1.201,0.046-1.815-0.141-1.849-1.61c0-1.764,1.108-1.28,2.002-1.374C632.751,1.111,633.735,0.751,633.735,2.36z M627.297,2.532
			c-0.03,1.859-1.295,1.063-2.063,1.281c-0.985-0.108-2.127,0.391-2.097-1.39c0-1.717,1.048-1.576,2.156-1.624
			C626.528,0.751,627.329,0.924,627.297,2.532z M620.489,2.47c0,1.78-1.172,1.249-2.063,1.343c-1.107,0.11-1.693-0.125-1.693-1.515
			c0-1.61,0.926-1.546,2.033-1.469C619.995,0.596,620.426,1.096,620.489,2.47z M614.172,2.282c0.031,1.593-0.801,1.577-1.879,1.531
			c-0.924-0.031-1.91,0.25-1.879-1.328c0.029-1.375,0.461-1.889,1.693-1.656C613.217,0.767,614.142,0.658,614.172,2.282z
			 M607.733,2.391c0.063,1.749-1.017,1.389-2.155,1.406c-0.986,0.14-1.726-0.064-1.664-1.593c0-1.531,0.862-1.405,1.851-1.405
			C606.872,0.799,607.704,0.829,607.733,2.391z M601.326,2.36c0.03,1.843-1.171,1.217-2.064,1.374
			c-0.828-0.203-2.125,0.516-2.125-1.327c0.031-1.734,1.109-1.593,2.188-1.608C600.401,0.783,601.265,0.799,601.326,2.36z
			 M595.042,2.36c0.028,1.843-1.23,1.202-2.033,1.374c-0.926-0.187-2.156,0.531-2.156-1.327c0.029-1.546,0.832-1.656,1.973-1.608
			C593.87,0.829,594.979,0.611,595.042,2.36z M588.603,2.485c-0.031,1.906-1.388,0.969-2.063,1.218
			c-1.078-0.016-2.156,0.328-2.097-1.421c0.063-1.625,1.05-1.453,2.097-1.483C587.708,0.751,588.633,0.813,588.603,2.485z
			 M579.76,3.72c-1.018,0.079-1.756,0.079-1.756-1.42c-0.03-1.89,1.14-1.437,2.433-1.516c0.862-0.125,1.479,0.094,1.512,1.5
			C582.008,4.219,580.747,3.625,579.76,3.72z M579.944,32.035c1.108-0.03,1.974-0.233,2.035,1.358c0,1.781-1.05,1.5-2.127,1.563
			c-1.201,0.063-1.817-0.124-1.849-1.625C577.974,31.443,579.267,32.19,579.944,32.035z M573.599,3.687
			c-1.078,0.078-1.91,0.219-1.91-1.342c0-1.563,0.739-1.609,1.849-1.563c1.049,0.031,1.94-0.14,1.94,1.516
			C575.478,4.048,574.491,3.734,573.599,3.687z M575.446,33.518c0,1.656-1.047,1.375-2.032,1.438
			c-1.105,0.063-1.664-0.188-1.726-1.563c0-1.594,0.86-1.563,1.91-1.451C574.799,31.768,575.478,31.99,575.446,33.518z
			 M569.038,2.25c0,1.656-0.982,1.453-2.002,1.453c-1.017-0.046-2.188,0.359-2.156-1.484c0-1.671,1.02-1.437,2.002-1.405
			C567.868,0.847,569.038,0.393,569.038,2.25z M562.629,2.328c-0.028,1.922-1.323,1.267-2.248,1.375
			c-1.108,0.108-1.94,0.015-1.909-1.546c0.03-1.951,1.387-1.172,1.879-1.281C561.86,0.688,562.661,0.767,562.629,2.328z
			 M555.976,2.345c0.03,1.795-1.106,1.312-2.033,1.374c-1.047,0.062-1.91,0.093-1.91-1.531c0-1.764,1.109-1.359,2.22-1.389
			C555.206,0.674,555.976,0.751,555.976,2.345z M569.038,33.332c0,1.688-1.047,1.563-2.156,1.593
			c-1.23,0.031-2.031-0.093-2.002-1.717c0.031-1.844,1.293-1.076,2.063-1.298C567.899,32.035,569.038,31.551,569.038,33.332z
			 M555.976,33.518c0,1.719-1.048,1.375-2.033,1.406c-1.17,0.063-1.849-0.219-1.879-1.656c-0.031-1.797,1.172-1.25,2.063-1.344
			C555.329,31.787,556.006,32.018,555.976,33.518z M549.506,33.332c0,1.781-1.172,1.25-2.032,1.312
			c-1.109,0.188-1.726-0.063-1.726-1.436c0-1.595,0.861-1.482,1.91-1.516C548.89,31.631,549.476,31.863,549.506,33.332z
			 M543.222,33.332c0.03,1.938-1.354,1.187-2.22,1.343c-1.229,0.188-1.725-0.218-1.662-1.529c0.062-1.795,1.293-1.344,2.279-1.452
			C542.883,31.551,543.222,32.083,543.222,33.332z M536.876,33.176c0,1.592-0.804,1.592-1.604,1.498
			c-1.263-0.029-2.34,0.346-2.312-1.404c0.031-1.469,0.832-1.594,1.941-1.577C535.951,31.692,536.876,31.551,536.876,33.176z
			 M530.374,33.208c0.03,1.625-0.863,1.53-1.938,1.436c-1.109,0.188-1.852,0.063-1.787-1.498c0.061-1.471,0.737-1.471,1.787-1.455
			C529.481,31.708,530.342,31.598,530.374,33.208z M523.965,33.145c0.031,1.688-0.862,1.5-1.815,1.437
			c-1.047,0-2.033,0.313-2.033-1.374c0-1.625,0.861-1.547,1.91-1.516C523.073,31.708,523.935,31.52,523.965,33.145z M517.28,33.27
			c0,1.779-1.17,1.248-1.971,1.312c-0.986,0-1.974,0.343-1.974-1.28c-0.028-1.75,0.926-1.608,2.064-1.641
			C516.542,31.645,517.28,31.708,517.28,33.27z M510.872,33.208c0,1.78-1.047,1.374-2.002,1.374c-0.832-0.03-1.815,0.406-1.815-1.25
			c-0.03-1.655,0.737-1.671,1.972-1.655C510.133,31.692,510.872,31.645,510.872,33.208z M504.403,33.208
			c-0.03,1.53-0.801,1.467-1.787,1.374c-0.924-0.063-2.002,0.438-1.971-1.374c0-1.576,0.737-1.643,1.849-1.482
			C503.603,31.565,504.403,31.598,504.403,33.208z M558.472,33.332c-0.062-1.983,1.323-1.172,1.973-1.39
			c1.263-0.016,2.248-0.25,2.187,1.451c-0.027,1.75-1.105,1.5-2.187,1.531C559.333,34.957,558.503,34.863,558.472,33.332z
			 M584.442,33.426c-0.062-1.984,1.295-1.234,2.097-1.392c1.108,0,2.155-0.295,2.096,1.422c-0.094,1.656-1.107,1.437-2.127,1.468
			C585.491,34.957,584.504,35.051,584.442,33.426z M590.851,33.27c0-1.702,1.108-1.233,1.973-1.219
			c0.925,0.031,2.279-0.594,2.22,1.373c-0.063,1.594-1.049,1.5-2.525,1.531C591.774,35.018,590.851,34.957,590.851,33.27z
			 M597.135,33.332c0-1.606,1.019-1.374,1.91-1.28c0.863,0.096,2.279-0.748,2.279,1.28c-0.029,1.563-0.861,1.688-1.664,1.625
			C598.276,34.893,597.167,35.082,597.135,33.332z M603.913,33.457c-0.093-1.937,1.17-1.343,2.649-1.467
			c0.556-0.08,1.17,0.062,1.2,1.467c0.063,1.937-1.139,1.406-2.125,1.5C604.59,35.018,603.944,34.893,603.913,33.457z
			 M610.383,33.332c0-1.655,0.986-1.28,1.88-1.313c0.985-0.014,1.971-0.264,1.94,1.471c-0.063,1.654-0.924,1.529-1.971,1.404
			C610.938,35.143,610.415,34.833,610.383,33.332z M616.729,33.332c0-1.842,1.17-1.187,2.033-1.313
			c1.108-0.139,1.727,0.031,1.727,1.438c0,1.718-0.926,1.531-2.032,1.437C617.315,35.143,616.729,34.833,616.729,33.332z
			 M623.137,33.489c0-1.844,1.201-1.405,2.22-1.454c1.017-0.045,1.94-0.172,1.94,1.483c0.031,1.875-1.201,1.313-1.94,1.375
			C624.124,34.957,623.137,35.143,623.137,33.489z M648.954,2.454c0-1.75,1.08-1.329,2.034-1.39c0.861,0.062,1.88-0.344,1.88,1.296
			c0,1.639-0.894,1.656-2.063,1.688C649.633,4.079,648.954,3.984,648.954,2.454z M521.903,0.674
			c1.048,0.046,2.095-0.218,2.063,1.593c-0.029,1.562-0.894,1.375-1.879,1.328c-1.047,0.063-1.971,0.187-1.971-1.453
			C520.116,0.674,520.854,0.625,521.903,0.674z M515.741,0.658c0.802-0.109,1.57,0,1.539,1.562
			c-0.028,1.688-1.077,1.343-2.032,1.406c-1.105,0.063-1.938,0.046-1.91-1.547C513.368,0.393,514.446,0.736,515.741,0.658z
			 M509.21,0.674c1.17-0.11,1.692,0.188,1.662,1.546c0,1.749-1.105,1.343-2.312,1.406c-0.83,0.108-1.509,0-1.509-1.453
			C507.022,0.299,508.224,0.783,509.21,0.674z M502.616,0.704c1.048-0.156,1.787-0.031,1.757,1.515
			c-0.029,1.5-0.802,1.421-1.817,1.405c-0.983-0.015-1.907,0.173-1.907-1.468C500.614,0.516,501.506,0.642,502.616,0.704z
			 M496.67,0.721c1.14-0.328,1.265,0.423,1.324,1.405c0.062,1.437-0.615,1.641-1.664,1.359c-1.17,0.031-2.279,0.328-2.188-1.515
			C494.237-0.249,495.776,0.985,496.67,0.721z M488.937,0.549c0.985,0.125,2.157-0.391,2.127,1.389
			c-0.031,1.688-0.985,1.625-2.127,1.625c-1.17,0-2.095-0.062-2.033-1.702C486.903,0.049,488.198,0.767,488.937,0.549z
			 M482.653,0.688c0.615,0.064,1.787-0.467,1.787,1.344c-0.03,1.625-0.862,1.546-1.974,1.563c-1.108,0.015-1.879-0.017-1.909-1.578
			C480.558,0.393,481.42,0.642,482.653,0.688z M475.937,0.674c1.108-0.047,1.971-0.281,1.971,1.311
			c0.031,1.749-0.924,1.577-2.063,1.625c-1.202,0.063-1.817-0.188-1.817-1.656C474.026,0.096,475.258,0.799,475.937,0.674z
			 M469.528,0.674c1.048,0,1.972-0.344,1.972,1.28c0.03,1.687-0.859,1.624-2.002,1.641c-1.14,0.015-1.814-0.093-1.849-1.593
			C467.618,0.188,468.79,0.783,469.528,0.674z M463.058,0.658c0.926,0.141,2.157-0.469,2.096,1.359
			c-0.03,1.561-0.924,1.561-2.002,1.561c-1.142,0-2.155,0.11-2.188-1.608C460.963,0.096,462.226,0.847,463.058,0.658z
			 M456.588,0.674c0.924-0.047,1.851-0.25,1.851,1.328c0,1.733-0.927,1.656-2.097,1.546c-1.2,0.233-1.725-0.079-1.756-1.546
			C454.556,0.206,455.726,0.721,456.588,0.674z M450.335,0.674c1.078-0.141,1.756,0,1.756,1.452c0,1.875-1.199,1.375-2.219,1.453
			c-1.078,0.11-1.691-0.077-1.726-1.482C448.116,0.143,449.379,0.783,450.335,0.674z M444.019,0.674
			c0.862-0.095,1.728-0.125,1.694,1.483c-0.03,1.688-1.018,1.374-2.002,1.42c-1.108,0.064-1.879,0.047-1.879-1.514
			C441.833,0.313,442.879,0.688,444.019,0.674z M485.364,4.609c0.4,0,0.802-0.046,1.201,0.016c3.942,0.562,3.543,0.438,3.513,3.733
			c-0.029,6.59-0.093,13.181,0.03,19.772c0.062,2.077-0.924,2.672-2.588,2.703c-2.711,0.047-5.453,0.014-8.164,0.014
			c-8.533,0.018-17.101,0-25.603,0.018c-10.938,0-21.873,0-32.778-0.018c-3.451-0.014-3.699-0.56-3.668-3.527
			c0.125-6.668,0.094-13.338,0-19.992c-0.031-1.641,0.524-2.374,2.157-2.5c0.955-0.078,1.879-0.218,2.834-0.218H485.364
			L485.364,4.609z M430.772,0.688c0.955,0.047,2.032-0.296,2.032,1.422c0,1.609-0.803,1.609-1.881,1.484
			c-1.139,0.109-1.938,0.078-1.938-1.516C428.954,0.549,429.786,0.642,430.772,0.688z M424.487,0.674
			c0.861-0.078,1.662-0.063,1.662,1.421c0,1.827-1.106,1.482-2.153,1.53c-0.986,0.031-1.789,0.063-1.818-1.421
			C422.146,0.393,423.315,0.704,424.487,0.674z M417.771,0.688c1.049-0.015,1.94-0.233,1.971,1.344c0,1.546-0.737,1.641-1.907,1.593
			c-1.019-0.047-1.974,0.202-1.974-1.469C415.892,0.501,416.846,0.658,417.771,0.688z M411.61,0.674
			c1.229-0.141,1.603,0.328,1.603,1.577c0,1.765-1.107,1.311-2.25,1.375c-0.894,0.141-1.445-0.157-1.479-1.5
			C409.42,0.221,410.685,0.799,411.61,0.674z M49.274,0.767c0.955,0.063,2.033-0.328,2.047,1.39c0,1.546-0.691,1.718-1.523,1.563
			c-1.324-0.063-2.356,0.25-2.402-1.437C47.349,0.674,48.196,0.704,49.274,0.767z M23.349,0.674c1.001,0.046,2.018-0.25,1.987,1.452
			c-0.015,1.656-0.955,1.531-1.972,1.469c-0.97,0.031-1.879,0.25-1.911-1.328C21.423,0.674,22.239,0.642,23.349,0.674z
			 M16.987,0.688c0.971,0,1.925-0.296,1.925,1.329c0,1.484-0.647,1.702-1.849,1.608c-0.97-0.078-2.002,0.282-2.002-1.437
			C15.076,0.549,16.001,0.658,16.987,0.688z M10.686,0.674c1.094-0.078,1.726,0.078,1.726,1.5c0.015,1.687-0.955,1.484-2.003,1.421
			C9.315,3.766,8.715,3.517,8.683,2.125C8.638,0.393,9.715,0.736,10.686,0.674z M4.032,34.582c-0.986,0.093-1.879,0.188-1.864-1.437
			c0.016-1.625,0.939-1.5,1.972-1.453c0.924,0.046,1.972-0.391,2.003,1.357C6.172,34.833,5.171,34.645,4.032,34.582z M4.201,0.674
			c0.74,0.108,1.91-0.5,1.941,1.328c0.015,1.561-0.693,1.656-1.849,1.593C3.185,3.549,2.138,3.798,2.168,2.017
			C2.199,0.424,3.107,0.658,4.201,0.674z M152.25,34.957c-0.815,0.126-1.448-0.03-1.479-1.437c-0.016-1.655,0.925-1.453,1.939-1.483
			c1.125-0.047,1.833,0.015,1.818,1.576C154.515,35.393,153.421,34.893,152.25,34.957z M165.483,35.018
			c-1.018,0.031-1.926,0.313-1.94-1.311c0-1.438,0.569-1.688,1.804-1.607c1,0.076,1.955-0.188,1.955,1.482
			C167.315,35.206,166.438,35.113,165.483,35.018z M172.168,35.051c-1.325,0.03-2.296,0.187-2.312-1.47
			c-0.016-1.624,0.91-1.483,1.941-1.468c1.031,0.018,1.987-0.172,2.002,1.468C173.8,35.206,172.953,35.174,172.168,35.051z
			 M178.375,35.018c-1.155,0.031-2.125,0.219-2.125-1.438c-0.016-1.732,0.986-1.406,1.986-1.468
			c1.155-0.063,1.896,0.062,1.896,1.593C180.116,35.333,179.177,35.051,178.375,35.018z M184.83,35.018
			c-0.971,0.063-1.833,0.25-1.851-1.344c0-1.592,0.818-1.592,1.943-1.562c1.031,0.032,1.971-0.188,1.955,1.499
			C186.864,35.333,185.815,35.018,184.83,35.018z M191.716,35.082c-1.264,0-2.296,0.312-2.219-1.437
			c0.063-1.358,0.555-1.563,1.709-1.516c1.094,0.061,2.096-0.203,2.049,1.576C193.226,35.268,192.41,35.143,191.716,35.082z
			 M197.815,35.082c-1.078,0-2.018,0.218-2.018-1.47s0.955-1.452,1.973-1.467c1.047-0.016,1.957-0.155,1.971,1.5
			C199.757,35.333,198.786,35.113,197.815,35.082z M204.271,35.051c-0.895-0.031-2.064,0.5-2.033-1.313
			c0.031-1.421,0.492-1.874,1.632-1.546c1.294-0.108,2.25-0.203,2.233,1.546C206.087,35.333,205.181,35.113,204.271,35.051z
			 M217.163,35.082c-1.156-0.063-2.296,0.312-2.203-1.437c0.077-1.578,1.047-1.455,2.079-1.483c1.187-0.048,2.097,0.015,2.08,1.672
			C219.089,35.768,217.718,34.77,217.163,35.082z M230.38,35.018c-1.479,0.125-2.39,0.25-2.357-1.438
			c0.047-1.654,1.033-1.391,2.033-1.436c1.125-0.032,1.896,0.029,1.926,1.561C232.028,35.582,230.841,34.957,230.38,35.018z
			 M244.198,28.663c0,1.357-0.477,2.077-1.803,2.188c-1.002,0.095-2.002,0.266-3.021,0.266c-21.024,0.018-42.053,0.018-63.079,0.018
			c-0.339,0-0.678,0-1.017,0c-3.638-0.111-3.866-0.361-3.866-4c0-6.451,0-12.917,0-19.368c0-2.311,0.479-2.828,2.834-2.873
			c2.096-0.047,4.206-0.016,6.301-0.016h27.481c10.705,0,21.427,0,32.147,0c0.738,0,1.494-0.015,2.232,0.141
			c1.141,0.218,1.816,0.765,1.803,2.217C244.12,14.371,244.136,21.524,244.198,28.663z M243.196,4.25
			c-1-0.079-2.202,0.328-2.232-1.5c-0.063-1.858,1.107-1.5,2.094-1.516c1.033,0,2.064-0.281,2.064,1.422
			C245.121,4.219,244.306,4.328,243.196,4.25z M250.497,35.018c-0.847-0.219-2.232,0.813-2.279-1.248
			c-0.047-1.875,1.063-1.531,2.219-1.516c1.078-0.314,1.617-0.017,1.602,1.391C252.037,34.893,251.608,35.268,250.497,35.018z
			 M256.444,35.051c-1.063,0.123-1.727,0-1.741-1.438c-0.03-1.606,0.832-1.481,1.896-1.499c1.125-0.03,1.863,0.031,1.863,1.561
			C258.461,35.424,257.353,34.957,256.444,35.051z M262.913,35.051c-0.816-0.031-1.879,0.281-1.927-1.406
			c-0.015-1.594,0.832-1.53,1.911-1.547c1.171,0,2.095-0.063,2.063,1.642C264.916,35.333,263.976,35.051,262.913,35.051z
			 M269.353,35.051c-1.094,0.063-1.94,0.063-1.94-1.531c0-1.779,1.093-1.344,2.218-1.405c1.094-0.188,1.664,0.218,1.648,1.655
			C271.278,35.393,270.231,34.988,269.353,35.051z M275.991,35.051c-1.078,0.063-1.895,0.094-1.863-1.531
			c0.047-1.67,1.032-1.405,2.034-1.373c1.093-0.143,1.894-0.079,1.879,1.498C278.009,35.333,276.961,34.988,275.991,35.051z
			 M282.384,34.957c-1.047,0.095-1.709,0-1.74-1.437c-0.031-1.655,0.861-1.53,1.957-1.453c1.107-0.157,1.803-0.047,1.787,1.517
			C284.388,35.362,283.292,34.893,282.384,34.957z M301.623,34.924c-1.106,0.157-1.879,0.127-1.864-1.468
			c0.031-1.485,0.758-1.469,1.758-1.422c0.971,0.048,1.973-0.28,1.973,1.422C303.487,35.018,302.718,35.082,301.623,34.924z
			 M638.295,34.924c-1.231,0.157-1.973,0.094-1.94-1.529c0.03-1.545,0.896-1.327,1.849-1.359c1.108-0.045,1.909-0.045,1.881,1.547
			C640.021,35.143,639.219,35.018,638.295,34.924z M657.088,35.051c-0.801,0.03-1.602,0.154-1.664-1.406
			c0-1.577,0.802-1.514,1.91-1.547c1.232-0.047,1.851,0.125,1.851,1.642C659.185,35.362,658.198,35.018,657.088,35.051z
			 M664.36,35.082c-1.479-0.063-2.526,0.218-2.526-1.5c-0.063-1.655,0.924-1.437,1.94-1.468c1.14-0.047,1.938,0,1.938,1.593
			C665.713,35.268,664.821,35.082,664.36,35.082z M670.306,35.051c-0.955-0.095-2.064,0.373-2.064-1.377
			c-0.03-1.576,0.74-1.685,1.787-1.527c1.14-0.079,2.033-0.156,2.033,1.466C672.062,35.082,671.321,35.143,670.306,35.051z
			 M676.928,35.018c-1.077,0.063-2.063,0.313-2.032-1.405c0-1.606,0.895-1.529,1.973-1.499c0.986,0.018,1.973-0.251,1.973,1.438
			C678.838,35.174,677.914,35.082,676.928,35.018z M683.431,35.051c-1.142,0.03-2.005,0.281-2.064-1.345
			c-0.031-1.797,0.984-1.499,2.094-1.562c1.109-0.078,1.664,0.142,1.695,1.5C685.215,35.393,684.231,35.113,683.431,35.051z
			 M689.868,35.082c-1.047-0.03-2.063,0.312-2.063-1.437c0-1.578,0.77-1.531,1.879-1.5c0.983,0.045,1.971-0.203,1.971,1.437
			C691.687,35.206,690.823,35.143,689.868,35.082z M696.03,35.051c-1.17,0.154-1.91,0.063-1.879-1.531
			c0-1.779,1.078-1.28,2.002-1.359c1.172-0.093,1.91,0.031,1.91,1.578C698.063,35.551,696.894,34.957,696.03,35.051z
			 M702.592,35.082c-0.895-0.063-2.096,0.47-2.096-1.312c0.031-1.483,0.523-1.891,1.633-1.596c1.295-0.062,2.342-0.248,2.312,1.531
			C704.41,35.299,703.517,35.143,702.592,35.082z M709.185,35.018c-0.894-0.063-2.279,0.72-2.248-1.311
			c0.028-1.563,0.924-1.563,2.002-1.547c1.108-0.016,2.125-0.109,2.155,1.607C711.094,35.424,710.047,35.113,709.185,35.018z
			 M715.563,35.082c-1.049,0.031-2.035,0.251-1.974-1.47c0.063-1.654,0.986-1.5,2.033-1.438c1.109-0.107,1.91-0.045,1.941,1.531
			C717.597,35.489,716.487,35.018,715.563,35.082z M721.94,35.082c-0.832-0.126-1.941,0.437-1.941-1.375
			c0-1.517,0.74-1.575,1.853-1.562c1.168,0.015,2.03-0.031,2.03,1.654C723.851,35.455,722.894,35.018,721.94,35.082z
			 M667.963,31.129c-0.276,0-0.522,0-0.801,0c-3.543-0.123-3.789-0.39-3.789-3.873V8.311c0-3.125,0.307-3.42,3.512-3.42
			c6.841-0.016,13.681,0,20.55,0h12.416c10.844,0,21.688-0.016,32.534,0c3.447,0,3.695,0.233,3.695,3.67
			c0,6.59-0.063,13.182,0,19.772c0.029,1.732-0.492,2.577-2.25,2.577c-0.801-0.015-1.602,0.203-2.432,0.203
			C710.262,31.129,689.129,31.129,667.963,31.129z M735.094,35.206c-0.954-0.188-2.155,0.438-2.155-1.372
			c-0.031-1.644,0.893-1.672,2.033-1.657c1.139,0.016,2.125-0.029,2.125,1.657C737.097,35.643,735.866,34.988,735.094,35.206z
			 M734.909,4.25c-0.982-0.031-1.971,0.125-1.971-1.531c-0.031-2.092,1.354-1.39,2.342-1.483c1.049-0.11,1.815-0.047,1.815,1.453
			C737.097,4.47,735.989,4.234,734.909,4.25z"/>
		<path fill="#202020" d="M306.922,0.329C236.649,0.345,166.375,0.345,96.103,0.345c-13.033,0-26.049,0-39.08,0
			c-0.107-0.093-0.141-0.172-0.107-0.28c0.029-0.08,0.063-0.126,0.107-0.126c83.306,0,166.596,0,249.899,0
			c0.107,0.094,0.154,0.172,0.107,0.267C306.999,0.299,306.953,0.329,306.922,0.329z"/>
		<path fill="#1F1F1F" d="M0.442,35.799c0.678-0.718,1.541-0.406,2.326-0.406c45.211,0,90.438,0,135.667,0
			c0.137,0.063,0.184,0.188,0.137,0.252c-0.045,0.125-0.107,0.156-0.137,0.156C92.437,35.799,46.44,35.799,0.442,35.799z"/>
		<path fill="#222222" d="M0.042,0.767c0.617,0.531,0.4,1.266,0.4,1.921c0.016,10.121,0.016,20.241,0,30.362
			c0,0.658,0.216,1.406-0.4,1.906C0.042,23.571,0.042,12.168,0.042,0.767z"/>
		<path fill="#1F1F1F" d="M54.173,0.345c-1.217-0.172-2.512,0.406-3.666-0.406c1.231,0,2.449,0,3.666,0
			c0.139,0.095,0.186,0.188,0.139,0.282C54.265,0.299,54.22,0.345,54.173,0.345z"/>
		<path fill="#1F1F1F" d="M41.556,0.345c-1.216,0-2.434,0-3.666,0c-0.139-0.093-0.185-0.172-0.139-0.266
			c0.046-0.094,0.108-0.141,0.139-0.141c1.232,0,2.45,0,3.666,0c0.139,0.094,0.185,0.188,0.139,0.282
			C41.648,0.299,41.602,0.345,41.556,0.345z"/>
		<path fill="#1F1F1F" d="M35.04,0.345c-1.217,0-2.45,0-3.682,0c-0.123-0.093-0.169-0.188-0.107-0.28
			c0.046-0.08,0.092-0.126,0.139-0.126c1.217,0,2.434,0,3.651,0c0.154,0.095,0.185,0.188,0.154,0.282
			C35.132,0.299,35.086,0.345,35.04,0.345z"/>
		<path fill="#1F1F1F" d="M48.071-0.062c-1.154,0.813-2.447,0.234-3.666,0.406c-0.139-0.093-0.184-0.172-0.139-0.28
			c0.047-0.08,0.094-0.126,0.139-0.126C45.623-0.062,46.856-0.062,48.071-0.062z"/>
		<path fill="#1F1F1F" d="M28.556,0.345c-1.094-0.172-2.264,0.422-3.281-0.406c1.093,0,2.172,0,3.25,0
			c0.139,0.079,0.185,0.172,0.154,0.267C28.632,0.299,28.602,0.345,28.556,0.345z"/>
		<path fill="#1F1F1F" d="M22.023-0.062c-1.093,0.641-2.172,0.641-3.25,0C19.852-0.062,20.931-0.062,22.023-0.062z"/>
		<path fill="#1F1F1F" d="M15.508-0.062c-1.079,0.641-2.172,0.641-3.25,0C13.336-0.062,14.43-0.062,15.508-0.062z"/>
		<path fill="#131313" d="M54.173,0.345c0-0.125,0-0.28,0-0.406c0.955,0,1.909,0,2.85,0c0,0.126,0,0.282,0,0.406
			C56.082,0.345,55.127,0.345,54.173,0.345z"/>
		<path fill="#1F1F1F" d="M8.992-0.062c-0.939,0.641-1.896,0.657-2.85,0C7.097-0.062,8.053-0.062,8.992-0.062z"/>
		<path fill="#080808" d="M28.556,0.345C28.54,0.22,28.54,0.079,28.54-0.062c0.94,0,1.896,0,2.85,0
			c-0.015,0.141-0.015,0.282-0.015,0.406C30.419,0.345,29.495,0.345,28.556,0.345z"/>
		<path fill="#111111" d="M35.04,0.345c0-0.125,0-0.28,0-0.406c0.956,0,1.91,0,2.85,0c0,0.126,0,0.282,0,0.406
			C36.95,0.345,35.996,0.345,35.04,0.345z"/>
		<path fill="#121212" d="M44.407-0.062c0,0.126,0,0.282,0,0.406c-0.955,0-1.895,0-2.85,0c0-0.125,0-0.28,0-0.406
			C42.512-0.062,43.451-0.062,44.407-0.062z"/>
		<path fill="#1F1F1F" d="M2.491-0.062c-0.678,0.593-1.371,0.61-2.049,0C1.136-0.062,1.814-0.062,2.491-0.062z"/>
	</g>
</g>
</svg>
