<?xml version="1.0" encoding="utf-8"?>
<!-- Generator: Adobe Illustrator 24.0.2, SVG Export Plug-In . SVG Version: 6.00 Build 0)  -->
<svg version="1.1" xmlns="http://www.w3.org/2000/svg" xmlns:xlink="http://www.w3.org/1999/xlink" x="0px" y="0px"
	 viewBox="0 0 1366 768" style="enable-background:new 0 0 1366 768;" xml:space="preserve">
<style type="text/css">
	.st0{display:none;}
	.st1{display:inline;fill:#AFAFAF;}
	.st2{fill:#080808;}
	.st3{fill:#202020;}
	.st4{fill:#1F1F1F;}
	.st5{fill:#1E1E1E;}
	.st6{fill:#222222;}
	.st7{fill:#0D0D0D;}
	.st8{fill:#0B0B0B;}
	.st9{fill:#090909;}
	.st10{fill:#0A0A0A;}
	.st11{fill:#111111;}
	.st12{fill:#121212;}
	.st13{fill:#131313;}
</style>
<g id="Layer_2" class="st0">
	<rect class="st1" width="1366" height="768"/>
</g>
<g id="Layer_1">
	<g>
		<path class="st2" d="M1354.23,356.53c0.97,0.07,1.95-0.04,2.92-0.07c-0.36-0.69,0.84-1.91-0.73-2.2c-1.52,0.75-3.13,0.36-4.7,0.36
			c-114.54,0.02-229.09,0.02-343.64,0.02h-23.22c-0.01,0-0.01,0-0.02,0H968.1c-0.04,0-0.09-0.01-0.13-0.01
			c-2.2-0.18-4.44,0.41-6.6-0.37h-5.88c-1.95,0.61-3.91,0.61-5.87,0h-5.87c-1.72,0.6-3.43,0.6-5.14,0h-5.88
			c-1.96,0.61-3.92,0.61-5.87,0h-6.61c-1.72,0.6-3.43,0.6-5.14,0h-6.61c-1.96,0.61-3.92,0.61-5.87,0h-7.35c-1.47,0.6-2.94,0.6-4.4,0
			h-6.61c-1.59,0.73-3.26,0.29-4.89,0.35c-0.09,0-0.18,0-0.28,0.01c-0.07,0.01-0.15,0.01-0.22,0.02h-6.15
			c-0.06-0.01-0.12-0.01-0.18-0.01c-0.1-0.02-0.2-0.02-0.3-0.02c-1.63-0.06-3.29,0.38-4.87-0.35h-6.61c-1.71,0.6-3.43,0.6-5.14,0
			h-6.61c-1.71,0.6-3.42,0.6-5.14,0h-6.61c-1.71,0.6-3.42,0.6-5.14,0h-6.61c-1.46,0.6-2.93,0.6-4.4,0h-6.61
			c-1.55,0.78-3.24,0.14-4.84,0.45c-0.07,0.01-0.15,0.03-0.22,0.05c-0.03,0.02-0.06,0.04-0.09,0.06c-0.28,0.2-0.49,0.45-0.63,0.76
			c-0.01,0.04-0.03,0.08-0.04,0.12c0.21,0.03,0.43,0.07,0.64,0.12c-0.57,1.86,1.68,4.83-2.82,5.08c-4.74,0.25-3.86-2.48-3.75-5.17
			c0.22-0.03,0.44-0.05,0.66-0.08c-0.04-0.09-0.05-0.05-0.05-0.03c-0.01-0.03-0.02-0.08-0.04-0.18c-0.14-0.25-0.33-0.45-0.56-0.61
			c-0.06-0.05-0.13-0.09-0.21-0.13c-0.04-0.01-0.07-0.01-0.11-0.01c-1.84-0.31-3.77,0.41-5.56-0.43h-5.88
			c-1.96,0.61-3.91,0.61-5.87,0h-5.88c-1.71,0.6-3.42,0.6-5.14,0h-5.87c-1.96,0.61-3.92,0.61-5.87,0h-6.61
			c-1.92,0.76-3.91,0.23-5.87,0.37c-0.07,0-0.15,0-0.22,0.01H115c-0.09-0.01-0.18-0.01-0.27-0.02c-2.2-0.15-4.44,0.44-6.61-0.36
			h-4.41c-2.16,0.78-4.4,0.2-6.6,0.37c-0.06,0-0.12,0.01-0.18,0.01H68.64c-0.05,0-0.1-0.01-0.15-0.01h-0.01
			c-1.96-0.16-3.96,0.4-5.89-0.37h-5.87c-1.96,0.61-3.92,0.61-5.87,0h-5.88c-1.96,0.61-3.91,0.61-5.87,0h-5.88
			c-1.71,0.6-3.42,0.6-5.14,0h-6.61c-1.22,0.6-2.44,0.6-3.67,0c-1.45-0.11-0.43,1.01-0.73,1.47c0.55,0.76,0.37,1.64,0.37,2.48
			c0.01,18.64,0.01,37.27,0,55.91c0,0.84,0.18,1.72-0.37,2.48c0.3,0.46-0.72,1.58,0.73,1.47c1.39-0.73,2.89-0.36,4.33-0.36
			c81.38-0.02,162.76-0.02,244.15-0.02h17.21c0.04,0,0.09,0.01,0.13,0.01c2.2,0.18,4.44-0.41,6.61,0.37h4.4
			c2.16-0.79,4.41-0.19,6.61-0.37c0.03,0,0.06-0.01,0.09-0.01h4.93c0.04,0,0.08,0.01,0.12,0.01c1.96,0.17,3.96-0.4,5.87,0.37h5.88
			c1.96-0.61,3.91-0.61,5.87,0h5.88c1.95-0.61,3.91-0.61,5.87,0h5.88c1.95-0.61,3.91-0.61,5.87,0h5.87c1.96-0.61,3.92-0.61,5.88,0
			h6.61c1.47-0.6,2.93-0.6,4.4,0h6.61c1.71-0.6,3.43-0.6,5.14,0h6.61c1.55-0.82,3.24-0.13,4.84-0.44c0.05,0,0.09-0.01,0.14-0.02
			c0.06-0.03,0.12-0.07,0.17-0.11c0.25-0.17,0.44-0.38,0.58-0.66c0.02-0.06,0.04-0.11,0.06-0.17c-0.22,0-0.45-0.01-0.67-0.01
			c0.07-2.11-2.14-5.27,2.64-5.12c4.25,0.14,4.74,0.76,3.26,5.25c-0.11,0-0.23,0-0.34-0.01c0,0.02,0.01,0.04,0.01,0.06
			c0.17,0.53,0.55,0.77,1.06,0.83c0.05,0,0.1,0.01,0.15,0.01c0.04,0.01,0.09,0.01,0.13,0.01v0.01c1.37,0.15,2.81-0.4,4.12,0.37h7.35
			c1.54-0.78,3.23-0.15,4.83-0.45c0.08-0.01,0.15-0.03,0.23-0.05c0.03-0.02,0.05-0.03,0.08-0.06c0.28-0.19,0.49-0.45,0.64-0.76
			c0.01-0.02,0.02-0.05,0.02-0.07c-0.23-0.01-0.45-0.04-0.67-0.06c-0.53-5.11-0.37-5.18,4.09-5.08c4.28,0.1,1.95,3.23,2.52,5.03
			c-0.22,0.04-0.44,0.07-0.66,0.09c0.01,0.06,0.04,0.11,0.06,0.17c0.15,0.27,0.35,0.5,0.6,0.67c0.04,0.04,0.09,0.07,0.14,0.1
			c0.06,0.01,0.11,0.03,0.17,0.04c1.59,0.31,3.28-0.4,4.84,0.43h6.61c1.29-0.8,2.76-0.13,4.11-0.45h0.01
			c0.08-0.02,0.16-0.04,0.24-0.07c0.01-0.01,0.03-0.02,0.04-0.03c0.29-0.21,0.51-0.48,0.65-0.8c0.02-0.04,0.03-0.07,0.04-0.11
			c-0.21-0.05-0.41-0.1-0.62-0.17c0.58-1.8-1.46-4.87,2.69-4.92c4.52-0.05,5.04,0.49,3.85,5.22v0.72c0.08,0.07,0.18,0.13,0.3,0.16
			c0.04,0.03,0.08,0.04,0.12,0.05c1.48,0.01,2.96,0.1,4.44-0.05c0.04,0,0.08-0.01,0.12-0.01c0.06-0.03,0.11-0.06,0.16-0.09
			c0.26-0.17,0.46-0.4,0.6-0.69c0.02-0.05,0.04-0.09,0.06-0.14c-0.21-0.04-0.43-0.09-0.64-0.15c0.08-2.27-0.95-5.05,3.15-4.97
			c3.98,0.07,4.25,0.2,4.16,5c-0.21,0.05-0.43,0.09-0.64,0.13c0.03,0.07,0.06,0.15,0.1,0.22c0.14,0.24,0.33,0.44,0.55,0.59
			c0.08,0.05,0.15,0.09,0.23,0.13c0.02,0,0.05,0.01,0.07,0.01c1.85,0.3,3.77-0.42,5.58,0.42h6.61c1.71-0.6,3.42-0.6,5.14,0h5.87
			c1.96-0.61,3.92-0.61,5.87,0h5.88c1.96-0.61,3.91-0.61,5.87,0h5.88c1.96-0.61,3.91-0.61,5.87,0h5.88c2.2-0.59,4.4-0.59,6.6,0h4.41
			c2.16-0.78,4.4-0.2,6.61-0.37c0.06,0,0.11-0.01,0.17-0.01h16.6c0.04,0,0.08,0.01,0.12,0.01c2.2,0.18,4.44-0.42,6.61,0.37h4.4
			c1.39-0.73,2.88-0.36,4.32-0.36c45.22-0.02,90.45-0.02,135.67-0.02h322.61c0.01,0,0.01,0,0.02,0h133.36
			c0.09,0.01,0.18,0.01,0.27,0.02c2.2,0.14,4.44-0.41,6.61,0.36h4.4c2.16-0.78,4.41-0.2,6.61-0.37c0.06,0,0.11-0.01,0.17-0.01h16.55
			c0.06,0.01,0.12,0.01,0.17,0.01c1.96,0.16,3.96-0.4,5.87,0.37h5.88c1.96-0.61,3.91-0.61,5.87,0h5.88c1.95-0.61,3.91-0.61,5.87,0
			h5.88c1.95-0.61,3.91-0.61,5.87,0h5.87c1.72-0.6,3.43-0.6,5.14,0h6.61c1.72-0.6,3.43-0.6,5.14,0h6.61c1.71-0.6,3.43-0.6,5.14,0
			h6.61c1.47-0.6,2.94-0.6,4.41,0h6.6c1.72-0.6,3.43-0.6,5.14,0h7.35c1.71-0.6,3.42-0.6,5.14,0h6.61c1.46-0.6,2.93-0.6,4.4,0h6.61
			c1.54-0.78,3.23-0.15,4.83-0.45c0.08-0.01,0.15-0.03,0.23-0.05c0.03-0.02,0.05-0.03,0.08-0.06c0.28-0.19,0.49-0.44,0.64-0.76
			c0.01-0.03,0.02-0.06,0.03-0.09c-0.22-0.03-0.43-0.07-0.65-0.11c0.61-1.78-1.74-4.92,2.52-5.01c4.41-0.1,4.55-0.04,4.07,5.07
			c-0.22,0.02-0.43,0.05-0.65,0.07c0.01,0.05,0.03,0.1,0.05,0.15c0.14,0.27,0.34,0.5,0.59,0.67c0.04,0.04,0.09,0.07,0.14,0.1
			c0.06,0.01,0.11,0.03,0.17,0.04c1.59,0.31,3.29-0.39,4.84,0.43h7.34c1.47-0.6,2.94-0.6,4.41,0c1.94-0.39,4.08,0.8,5.87-0.74
			c-0.84-0.79-1.86-0.35-2.79-0.36c-1.68-0.01-3.08,0.06-3.05-2.41c0.03-2.21,0.68-3.17,2.94-2.96c0.96,0.09,1.93-0.08,2.9-0.13
			v-0.74c-0.12-0.21-0.31-0.43-0.31-0.65c-0.1-15.45-0.1-30.91,0-46.37c0-0.22,0.19-0.43,0.31-0.65v-0.73
			c-0.86-0.71-1.89-0.44-2.82-0.36c-2.14,0.19-3.06-0.46-3.02-2.83C1351.35,356.91,1352.32,356.4,1354.23,356.53z M1334.64,358.83
			c0.03,2.77-1.29,3.02-3.14,2.74c-1.98,0-3.85,0.6-3.78-2.5c0.07-2.9,1.7-2.67,3.59-2.66
			C1333.01,356.43,1334.62,356.04,1334.64,358.83z M1322.94,359.11c0.02,2.72-1.43,2.62-3.25,2.46c-1.65-0.12-3.68,0.77-3.72-2.41
			c-0.04-2.84,1.41-2.81,3.41-2.77C1321.29,356.43,1322.93,356.23,1322.94,359.11z M1311.55,359c0.08,2.96-1.62,2.69-3.32,2.58
			c-1.95,0.02-3.8,0.51-3.82-2.49c-0.02-2.84,1.52-2.77,3.47-2.7C1309.71,356.45,1311.47,356.08,1311.55,359z M1299.91,359.21
			c-0.01,3.24-2.12,2.17-3.76,2.4c-1.45-0.34-3.68,1-3.75-2.3c-0.06-3.08,1.64-2.94,3.71-2.91
			C1298.08,356.44,1299.93,356.06,1299.91,359.21z M1287.92,358.86c-0.01,2.8-1.48,2.92-3.24,2.7c-1.99-0.04-3.88,0.67-3.9-2.47
			c-0.02-2.94,1.54-2.79,3.45-2.71C1285.96,356.45,1287.94,355.75,1287.92,358.86z M1276.39,358.82c-0.01,2.84-1.45,2.89-3.45,2.75
			c-1.67-0.12-3.62,0.75-3.61-2.45c0.01-2.84,1.32-2.97,2.63-2.78C1274.36,356.52,1276.39,355.62,1276.39,358.82z M1264.84,358.91
			c0.04,3.24-1.94,2.68-3.83,2.6c-1.93,0.3-3.02,0.05-3.11-2.48c-0.12-3.34,1.97-2.53,3.77-2.64
			C1263.51,356.27,1264.81,356.3,1264.84,358.91z M1253.11,358.77c-0.03,2.7-1.1,3.14-3.15,2.76c-2.01,0.12-3.62,0.42-3.67-2.58
			c-0.04-3.13,1.77-2.55,3.54-2.55C1251.47,356.39,1253.14,355.86,1253.11,358.77z M1241.73,358.85c0.02,3.25-1.96,2.66-3.87,2.74
			c-1.88,0.07-3.19,0.03-3.26-2.59c-0.09-3.38,2.07-2.54,4.09-2.6C1240.28,356.25,1241.72,356.11,1241.73,358.85z M1229.51,358.78
			c-0.02,2.68-1.2,3.07-3.33,2.73c-2.15,0.3-3.61,0.19-3.62-2.8c0-2.91,1.7-2.35,3.28-2.29
			C1227.47,356.47,1229.53,355.58,1229.51,358.78z M1218.03,359.02c-0.09,2.99-1.78,2.6-3.55,2.49c-2.11,0.27-3.44,0.08-3.49-2.69
			c-0.07-3.22,1.95-2.34,3.59-2.41C1216.41,356.33,1218.12,355.98,1218.03,359.02z M1206.27,358.92c0.02,2.9-1.46,2.84-3.47,2.6
			c-2.08,0.34-3.28,0.02-3.3-2.72c-0.02-3.21,2.01-2.27,3.65-2.42C1205.03,356.21,1206.25,356.29,1206.27,358.92z M1191.29,416.58
			c-1.88,0.07-3.48,0.28-3.48-2.64c-0.01-2.99,1.69-2.63,3.41-2.53c2.04-0.12,3.61-0.18,3.66,2.66
			C1194.92,417.14,1193.04,416.52,1191.29,416.58z M1180.12,416.59c-1.71-0.11-3.62,0.61-3.62-2.49c0-2.78,1.36-2.93,3.37-2.68
			c1.96-0.2,3.48-0.25,3.43,2.63C1183.25,416.65,1181.97,416.7,1180.12,416.59z M1196.31,403.37c0,4.98-0.81,5.94-5.92,5.96
			c-20.07,0.06-40.13,0.03-60.19,0.03v0.03c-19.09,0-38.17,0-57.25-0.01c-1.47,0-2.95,0.03-4.4-0.11c-2.72-0.26-4.33-1.25-4.28-4.55
			c0.18-12.34,0.16-24.68,0-37.02c-0.04-3.06,1.39-4.18,3.98-4.57c0.84-0.13,1.71-0.07,2.57-0.07c39.51,0,79.02,0,118.54,0.01
			c5.99,0,6.96,0.99,6.95,6.94C1196.3,381.13,1196.31,392.25,1196.31,403.37z M1156.69,416.56c-1.78,0.15-3.31,0.25-3.34-2.62
			c-0.03-2.99,1.7-2.54,3.5-2.57c1.91-0.02,3.49-0.15,3.53,2.69C1160.42,417.09,1158.6,416.58,1156.69,416.56z M549.96,416.55
			c-1.92,0.07-3.69,0.49-3.65-2.54c0.05-2.95,1.78-2.62,3.62-2.63c1.71,0,3.32-0.37,3.34,2.43
			C553.28,416.59,551.93,416.82,549.96,416.55z M538.46,416.54c-2.12,0.08-3.7,0.4-3.72-2.37c-0.03-3.14,1.84-2.77,3.8-2.8
			c1.78-0.03,3.21-0.22,3.25,2.47C541.83,416.97,540.08,416.75,538.46,416.54z M478.82,409.28c-4.7,0-6.91,0.02-6.72-6.62
			c0.31-11.47,0.08-22.96,0.09-34.43c0-4.32,0.65-5.14,5.02-5.17c15.16-0.1,30.32-0.09,45.47-0.11c5.26-0.01,10.52,0,15.77,0
			c18.95,0,37.9-0.01,56.85,0c1.71,0,3.43-0.02,5.13,0.15c2.25,0.21,3.56,1.47,3.56,3.83c0.01,12.7-0.03,25.39,0.03,38.09
			c0.01,2.71-1.77,3.56-3.82,4.14c-0.9,0.27-1.94,0.11-2.92,0.11C557.8,409.28,518.31,409.27,478.82,409.28z M468.12,361.53
			c-1.9,0.25-3.4,0.19-3.3-2.67c0.14-3.9,2.93-1.8,4.54-2.29c2.23-0.69,2.14,0.81,2.32,2.42
			C472.02,362.05,470.07,361.63,468.12,361.53z M447.2,359.13c-0.03,3.05-1.95,2.42-4.02,2.47c-1.59,0.15-3.17,0.23-3.09-2.65
			c0.08-2.95,1.91-2.46,3.7-2.56C445.8,356.28,447.23,356.35,447.2,359.13z M435.51,359.29c-0.03,2.86-1.8,2.25-3.41,2.3
			c-1.69-0.09-3.69,0.67-3.72-2.42c-0.02-2.74,1.34-2.84,3.39-2.8C433.84,356.42,435.55,356.27,435.51,359.29z M423.95,359.23
			c-0.02,2.9-1.74,2.32-3.83,2.35c-1.36,0.04-3.18,0.47-3.15-2.55c0.02-2.55,1.21-2.72,3.16-2.64
			C422.11,356.47,423.97,356.07,423.95,359.23z M412.32,359.16c-0.01,3.18-2,2.31-3.65,2.42c-1.77-0.13-3.98,0.81-3.88-2.59
			c0.09-2.97,1.89-2.56,3.69-2.57C410.41,356.41,412.32,355.95,412.32,359.16z M400.36,358.9c-0.04,2.82-1.55,2.82-3.45,2.63
			c-1.87,0.1-3.54,0.49-3.55-2.5c-0.01-2.92,1.55-2.7,3.43-2.64C398.54,356.44,400.4,355.86,400.36,358.9z M388.81,358.89
			c-0.03,2.82-1.41,2.93-2.97,2.65c-2.23,0.02-4.01,0.6-4.02-2.49c-0.01-2.93,1.54-2.72,3.42-2.66
			C386.97,356.45,388.85,355.79,388.81,358.89z M377.32,358.81c0.03,3.16-1.71,2.95-3.64,2.68c-2.28,0.39-3.46-0.01-3.42-2.73
			c0.04-3.22,2.15-2.23,3.76-2.35C375.73,356.29,377.29,356.01,377.32,358.81z M365.63,359.14c0.08,3.2-2.02,2.22-3.67,2.45
			c-2.42,0.32-3.08-0.58-3.08-3.02c0.01-3.43,2.41-1.75,3.76-2.16C364.99,355.93,365.57,356.88,365.63,359.14z M354.16,359.02
			c-0.08,3.02-1.85,2.46-3.62,2.56c-2.01,0.1-3.41,0.05-3.41-2.75c-0.01-3.16,1.96-2.34,4.35-2.47
			C352.68,356.25,354.23,356.05,354.16,359.02z M341.96,358.94c0.06,3.38-2.1,2.5-4.32,2.65c-2.04,0.43-2.64-0.68-2.66-3.04
			c-0.02-3.39,2.36-1.89,3.82-2.12C340.64,356.13,341.91,356.33,341.96,358.94z M330.54,359.08c-0.07,3.06-1.95,2.45-3.95,2.48
			c-1.89,0.29-3.11-0.1-3.16-2.8c-0.06-3.26,2.07-2.23,3.68-2.36C329.04,356.24,330.61,356.17,330.54,359.08z M318.85,359.06
			c-0.06,3.12-1.89,2.48-3.86,2.49c-1.69,0.24-2.85,0.07-2.96-2.52c-0.13-3.03,1.53-2.65,3.4-2.65
			C317.31,356.37,318.9,356.07,318.85,359.06z M303.63,416.56c-1.68,0.11-3.35,0.34-3.33-2.61c0.01-2.62,1.3-2.62,3.18-2.59
			c2.03,0.04,3.81-0.24,3.75,2.88C307.18,417.11,305.46,416.53,303.63,416.56z M308.74,403.88c0,4.32-0.91,5.4-5.34,5.41
			c-20.17,0.07-40.34,0.03-60.52,0.03v0.07c-19.19,0-38.39,0-57.58-0.01c-1.47,0-2.94,0.02-4.4-0.11c-2.6-0.25-4.1-1.26-4.06-4.37
			c0.16-12.45,0.15-24.91,0-37.36c-0.03-3.1,1.49-4.12,4.08-4.44c0.73-0.09,1.47-0.04,2.2-0.04c39.61,0,79.23,0,118.84,0.01
			c5.73,0,6.79,1.08,6.79,6.74C308.75,381.17,308.75,392.52,308.74,403.88z M280.85,416.54c-2,0.29-3.32,0.1-3.29-2.68
			c0.03-2.67,1.43-2.55,3.22-2.49c1.77,0.06,3.57-0.46,3.56,2.56C284.34,416.78,282.85,416.74,280.85,416.54z M269.42,416.55
			c-1.82,0.07-3.6,0.45-3.58-2.54c0.02-2.53,1.15-2.75,3.12-2.65c1.95,0.1,3.85-0.36,3.8,2.82
			C272.72,417,271.13,416.61,269.42,416.55z M28.23,367.67c-0.04-3.07,1.43-4.17,4.01-4.54c0.96-0.14,1.95-0.07,2.93-0.07
			c39.39-0.01,78.79-0.01,118.18,0c5.97,0,6.91,0.96,6.9,6.98c0,11.12,0.01,22.24,0,33.36c0,4.99-0.79,5.92-5.93,5.93
			c-20.07,0.06-40.13,0.03-60.19,0.03c-19.21,0.01-38.41,0.01-57.62,0c-1.59,0-3.22,0.14-4.76-0.16c-2.14-0.42-3.57-1.37-3.53-4.15
			C28.39,392.59,28.38,380.13,28.23,367.67z M71.25,355.56c1.82,0.05,3.63-0.35,3.67,2.61c0.03,2.9-1.6,2.78-3.42,2.63
			c-1.96,0.07-3.7,0.38-3.75-2.58C67.71,355.29,69.35,355.51,71.25,355.56z M83.07,355.74c1.85-0.1,3.12-0.07,3.17,2.53
			c0.06,2.85-1.4,2.87-3.36,2.64c-2.01,0.23-3.41,0.14-3.4-2.67C79.48,355.18,81.34,355.84,83.07,355.74z M94.53,355.79
			c1.96-0.2,3.49-0.22,3.48,2.65c-0.01,2.7-1.43,2.6-3.24,2.51c-1.77-0.08-3.64,0.48-3.7-2.55C91,355.48,92.58,355.6,94.53,355.79z
			 M117.04,355.81c2.2-0.21,3.75-0.32,3.7,2.58c-0.04,2.57-1.25,2.71-3.14,2.56c-1.67-0.13-3.66,0.67-3.63-2.46
			C114,355.81,115.15,355.39,117.04,355.81z M187.55,355.78c2,0.04,3.8-0.17,3.85,2.85c0.04,3.22-2.12,2.13-3.77,2.37
			c-1.39-0.41-3.72,1.06-3.78-2.22C183.79,355.88,185.42,355.74,187.55,355.78z M175.85,360.95c-1.82,0.04-3.61,0.59-3.52-2.5
			c0.08-2.88,1.63-2.67,3.53-2.67c1.91-0.01,3.49-0.21,3.5,2.68C179.38,361.51,177.56,360.97,175.85,360.95z M175.95,411.38
			c2.01-0.21,3.46-0.17,3.41,2.67c-0.04,3.07-1.95,2.36-3.67,2.5c-2.12,0.16-3.3-0.18-3.35-2.84
			C172.27,410.44,174.4,411.55,175.95,411.38z M164.58,360.9c-2.21,0.22-3.79,0.42-3.7-2.56c0.08-2.61,1.29-2.68,3.18-2.56
			c1.73,0.11,3.6-0.59,3.59,2.52C167.65,361.14,166.37,361.3,164.58,360.9z M167.64,413.83c0.04,2.86-1.57,2.63-3.48,2.73
			c-2.22,0.1-3.24-0.38-3.26-2.95c-0.02-3.13,1.98-2.34,3.97-2.44C166.57,410.91,167.6,411.38,167.64,413.83z M156.01,358.25
			c0.05,3.19-1.89,2.73-4.39,2.7c-1.14-0.06-3.04,0.55-3.11-2.47c-0.08-3.26,1.98-2.68,3.83-2.67
			C154.05,355.82,155.97,355.18,156.01,358.25z M144.65,358.52c-0.09,3.03-2.06,2.4-3.79,2.45c-1.94,0.05-3.89,0.44-3.83-2.76
			c0.06-3.13,2.09-2.29,3.42-2.4C142.72,355.78,144.74,355.3,144.65,358.52z M132.51,358.55c0.04,3.19-1.99,2.3-3.63,2.42
			c-1.95,0.14-3.4,0.17-3.37-2.7c0.04-3.09,1.87-2.44,3.8-2.46C131.17,355.56,132.47,355.8,132.51,358.55z M156,413.52
			c0.02,2.91-1.52,3.17-3.59,2.98c-2.18,0.09-3.9,0.07-3.9-2.92c0-3.18,2.12-2.36,3.73-2.34C153.81,411.26,155.99,410.3,156,413.52z
			 M132.5,414.07c-0.07,2.76-1.68,2.42-3.41,2.45c-2.02,0.04-3.48-0.12-3.55-2.85c-0.08-3.15,1.92-2.42,3.93-2.48
			C131.32,410.96,132.57,411.37,132.5,414.07z M117.25,416.07c-2.05,0.1-3.37-0.02-3.28-2.81c0.09-3.04,1.96-2.41,3.96-2.48
			c1.84-0.31,2.69,0.36,2.8,2.71C120.88,416.56,119.03,415.99,117.25,416.07z M109.58,413.49c0.01,2.97-1.76,2.59-3.97,2.57
			c-1.4,0.05-3.24,0.46-3.11-2.55c0.11-2.71,1.67-2.72,3.61-2.76C108.08,410.72,109.56,410.69,109.58,413.49z M98.01,413.38
			c0.06,2.9-1.55,2.8-3.49,2.66c-1.54-0.11-3.43,0.74-3.45-2.23c-0.01-2.92,1.53-3.06,3.71-3.06
			C96.7,410.75,97.96,410.82,98.01,413.38z M86.23,413.74c0.02,2.86-1.72,2.3-3.55,2.3c-1.75,0.17-3.25,0.2-3.2-2.66
			c0.05-2.93,1.75-2.49,3.58-2.63C85.37,410.57,86.21,411.28,86.23,413.74z M74.91,413.56c0.05,3.29-2.12,2.16-3.67,2.38
			c-2.01,0.19-3.51,0.18-3.47-2.69c0.05-3.1,1.98-2.38,3.71-2.5C73.56,410.6,74.87,410.81,74.91,413.56z M62.7,413.55
			c-0.01,3.2-2.08,2.22-3.5,2.37c-1.79-0.02-3.49,0.64-3.51-2.28c-0.03-3.03,1.55-2.89,3.64-2.91
			C61.38,410.71,62.7,410.8,62.7,413.55z M51.11,413.31c0.13,3.35-1.97,2.56-4.11,2.62c-1.46,0.16-2.79,0.25-2.84-2.43
			c-0.06-3.23,1.86-2.67,3.76-2.75C49.79,410.68,51.02,410.74,51.11,413.31z M39.4,413.59c0.05,2.94-1.68,2.33-3.29,2.35
			c-1.8,0.02-3.55,0.49-3.49-2.59c0.06-2.98,1.67-2.68,3.65-2.54C38.41,410.38,39.35,410.99,39.4,413.59z M140.85,416.54
			c-2.09-0.01-3.82,0.05-3.81-2.96c0.01-3.21,2.18-2.17,3.81-2.44c1.55,0.31,3.79-0.82,3.8,2.4
			C144.66,416.49,142.96,416.55,140.85,416.54z M183.85,413.74c-0.05-3.52,2.46-2.01,3.79-2.36c2-0.02,3.88-0.55,3.76,2.5
			c-0.13,3.11-2.15,2.58-4.02,2.65C185.4,416.61,183.88,416.44,183.85,413.74z M195.42,413.75c-0.07-3.27,2.13-2.17,3.76-2.41
			c1.49,0.32,3.75-0.97,3.73,2.34c-0.01,3.12-1.9,2.83-3.89,2.86C197.06,416.57,195.49,416.55,195.42,413.75z M206.9,413.73
			c0-3.79,2.73-2.05,4.37-2.32c1.76-0.3,3.28-0.18,3.18,2.47c-0.12,3.11-2.2,2.56-4.04,2.66
			C208.41,416.62,206.9,416.42,206.9,413.73z M218.93,413.82c-0.01-3.13,1.9-2.4,3.93-2.46c1.64-0.18,3.09-0.22,3.08,2.66
			c-0.01,3.07-1.81,2.45-3.56,2.52C220.42,416.62,218.95,416.68,218.93,413.82z M230.68,413.81c-0.03-3.19,1.9-2.35,3.58-2.45
			c1.8-0.12,3.17-0.26,3.18,2.47c0.01,2.86-1.37,2.92-3.4,2.66C232.01,416.77,230.7,416.63,230.68,413.81z M242.18,413.79
			c0.02-2.78,1.48-2.54,2.77-2.44c2.19,0.07,4.1-0.68,4.08,2.51c-0.02,2.93-1.58,2.66-3.48,2.71
			C243.52,416.62,242.16,416.62,242.18,413.79z M253.66,413.9c0.03-3.33,2.29-2.42,4.06-2.53c1.88-0.11,3.54-0.28,3.53,2.65
			c-0.02,3.43-2.33,2.27-3.38,2.45C255.32,416.63,253.63,416.79,253.66,413.9z M195.42,358.54c0.08-2.83,1.7-2.76,3.63-2.75
			c2.02,0.01,3.87-0.2,3.86,2.89c-0.01,3.33-2.3,1.95-3.72,2.31C197.47,360.8,195.34,361.77,195.42,358.54z M206.87,358.6
			c0.06-3.08,1.92-2.8,3.87-2.8c1.85,0,3.59-0.16,3.71,2.63c0.14,3.41-2.21,2.34-3.94,2.56
			C208.96,360.75,206.81,361.85,206.87,358.6z M218.95,358.49c0.05-2.5,1.19-2.74,3.17-2.7c2.12,0.04,3.79,0.03,3.79,3
			c0,2.87-1.77,2.32-3.71,2.35C220.62,361.2,218.89,361.46,218.95,358.49z M230.69,358.56c-0.03-2.78,1.43-2.74,3.42-2.79
			c2.12-0.04,3.3,0.25,3.32,2.9c0.02,3.07-1.87,2.45-3.68,2.46C231.89,361.37,230.72,361.09,230.69,358.56z M242.2,358.59
			c-0.02-2.76,1.38-2.81,3.41-2.82c2.08,0,3.39,0.17,3.4,2.87c0.01,3.06-1.92,2.44-4.07,2.53
			C243.44,361.38,242.22,361.15,242.2,358.59z M253.66,358.81c-0.02-2.94,1.65-3.01,3.77-3.01c2.08,0,3.79-0.03,3.8,2.95
			c0.02,3.2-2.13,2.19-3.8,2.42C255.94,360.85,253.69,362.04,253.66,358.81z M265.85,358.88c-0.08-2.99,1.68-2.66,3.53-2.59
			c1.58,0.06,3.39-0.62,3.38,2.3c-0.02,2.98-1.67,2.93-3.77,2.99C266.98,361.64,265.91,361.34,265.85,358.88z M277.56,358.88
			c-0.11-2.97,1.59-2.69,3.58-2.59c1.91-0.24,3.26-0.03,3.2,2.74c-0.06,3.01-1.91,2.41-3.67,2.54
			C278.67,361.71,277.65,361.31,277.56,358.88z M289,358.87c-0.11-2.96,1.63-2.57,3.49-2.63c2.04-0.06,3.38,0.01,3.3,2.8
			c-0.08,3.01-1.88,2.51-3.79,2.49C290.09,361.83,289.08,361.28,289,358.87z M300.3,358.87c-0.08-3.03,1.73-2.62,3.56-2.58
			c1.59,0.05,3.37-0.59,3.36,2.31c0,3-1.69,2.92-3.77,2.98C301.45,361.63,300.37,361.35,300.3,358.87z M713.18,355.77
			c1.8-0.07,3.4-0.39,3.43,2.38c0.05,3.12-1.81,2.82-3.8,2.82c-1.73-0.01-3.25,0.28-3.31-2.46
			C709.44,355.33,711.3,355.67,713.18,355.77z M724.5,355.79c1.96-0.16,3.56-0.36,3.51,2.57c-0.04,2.51-1.17,2.77-3.09,2.59
			c-1.67-0.14-3.65,0.69-3.67-2.43C721.23,355.8,722.47,355.49,724.5,355.79z M735.95,355.74c1.68,0.14,3.64-0.66,3.65,2.45
			c0,2.74-1.29,2.99-3.3,2.72c-1.96,0.17-3.54,0.31-3.48-2.59C732.87,355.78,734.05,355.59,735.95,355.74z M747.59,355.75
			c1.82-0.02,3.53-0.43,3.45,2.59c-0.08,2.93-1.73,2.66-3.73,2.58c-1.78,0.18-3.31,0.27-3.3-2.61
			C744.02,355.32,745.79,355.76,747.59,355.75z M746.75,409.25c-14.19,0.03-28.38,0.02-42.56,0.02c-6,0.01-11.99,0-17.98,0
			c-19.69,0-39.38,0.01-59.07,0c-4.67,0-6.7-0.14-6.54-6.42c0.31-11.72,0.21-23.45,0.01-35.18c-0.05-3.48,1.58-4.56,4.53-4.62
			c4.64-0.09,9.29-0.1,13.94-0.11c34.97,0,69.95,0,104.93,0.01c1.46,0,2.93,0.04,4.4,0.11c2.77,0.14,4.18,1.5,4.17,4.39
			c-0.04,12.34,0,24.67-0.03,37.01C752.54,407.85,750.85,409.25,746.75,409.25z M751.01,413.87c-0.05,3.02-2.06,1.98-2.79,2.09
			c-2.74,0.25-4.26,0.22-4.2-2.64c0.06-2.65,1.48-2.53,3.31-2.56C749.57,410.71,751.04,411,751.01,413.87z M739.6,413.49
			c0.02,2.97-1.68,2.64-3.31,2.53c-1.97,0.14-3.48,0.35-3.47-2.39c0.01-2.63,1.14-2.97,3.3-2.89
			C738.06,410.82,739.57,410.66,739.6,413.49z M728,413.46c-0.07,2.39-0.92,3.05-2.22,2.7c-2.49-0.24-4.54,0.65-4.52-2.51
			c0.01-2.62,1.13-2.98,3.3-2.91C726.48,410.81,728.08,410.6,728,413.46z M716.6,413.83c-0.02,2.93-1.95,2.09-3.36,2.23
			c-1.87-0.05-3.76,0.54-3.73-2.52c0.02-2.74,1.38-2.81,3.41-2.8C715.12,410.75,716.61,410.99,716.6,413.83z M692.71,413.9
			c0.04,2.95-1.72,2.52-3.56,2.65c-2.3,0.16-3.18-0.55-3.18-3.02c-0.01-3.21,2.13-2.15,3.7-2.33
			C691.8,410.88,692.67,411.54,692.71,413.9z M681.13,413.6c-0.01,2.53-1,3.08-3.24,2.96c-1.92-0.1-3.49,0.09-3.51-2.73
			c-0.04-2.89,1.56-2.77,3.48-2.62C679.62,411.07,681.14,410.88,681.13,413.6z M669.8,413.68c-0.05,3.01-1.92,2.78-3.91,2.86
			c-1.93,0.08-3.15-0.14-3.21-2.65c-0.09-3.23,1.96-2.69,3.85-2.71C668.29,411.12,669.85,410.98,669.8,413.68z M658.16,413.94
			c-0.13,2.93-1.97,2.52-3.78,2.6c-2.18,0.1-3.8-0.1-3.71-3.05c0.09-3.4,2.54-1.63,3.73-2.12
			C656.41,411.37,658.3,410.86,658.16,413.94z M646.61,413.58c0.01,3.02-1.69,3.02-3.79,2.96c-1.88-0.04-3.63,0.15-3.73-2.69
			c-0.12-3.54,2.37-2.19,3.97-2.51C644.6,411.56,646.6,410.56,646.61,413.58z M635.27,413.81c-0.1,3.14-2.16,2.63-4.07,2.73
			c-2.09,0.11-3.44-0.24-3.46-2.93c-0.01-3.37,2.36-1.87,3.74-2.27C633.23,411.53,635.38,410.59,635.27,413.81z M619.73,411.37
			c1.96-0.19,3.44-0.18,3.36,2.68c-0.07,3.04-1.92,2.45-3.9,2.47c-1.94,0.33-3.01-0.19-3.07-2.81
			C616.04,410.44,618.16,411.52,619.73,411.37z M616.1,358.6c-0.02-3.12,1.72-2.75,3.72-2.84c2.18-0.1,3.25,0.29,3.27,2.9
			c0.01,3.31-2.21,2.03-3.45,2.28C617.68,361.01,616.12,361.43,616.1,358.6z M627.74,358.6c0.05-2.79,1.59-2.86,3.57-2.81
			s3.93-0.25,3.96,2.85c0.03,3.29-2.26,2.03-3.75,2.36C629.89,360.74,627.67,361.89,627.74,358.6z M639.09,358.47
			c0.11-2.85,1.87-2.63,3.74-2.68c2.11-0.07,3.81-0.03,3.78,2.97c-0.04,3.37-2.42,1.8-3.73,2.22
			C641.02,360.87,638.97,361.62,639.09,358.47z M650.66,358.43c0.12-2.81,1.81-2.63,3.66-2.63c1.97-0.01,3.8-0.25,3.84,2.81
			c0.04,3.22-2.09,2.14-3.62,2.37C652.8,360.79,650.51,361.85,650.66,358.43z M662.66,358.47c-0.04-3.22,1.94-2.69,4.01-2.66
			c1.87-0.27,3.15-0.04,3.15,2.7c0,3.45-2.29,2.28-3.96,2.46C664.04,361.16,662.69,361.09,662.66,358.47z M674.36,358.45
			c0.07-2.83,1.42-2.95,3.32-2.57c2.31-0.42,3.44-0.02,3.47,2.68c0.03,2.83-1.53,2.47-3.24,2.42
			C676.18,360.92,674.28,361.61,674.36,358.45z M685.93,358.38c0.02-3.06,1.74-2.55,3.53-2.59c1.78-0.05,3.24-0.27,3.26,2.48
			c0.03,2.8-1.19,3.07-2.96,2.65C687.54,361.06,685.91,361.42,685.93,358.38z M697.52,358.44c-0.06-3.29,2.03-2.63,3.86-2.63
			c1.73,0,3.66-0.59,3.69,2.47c0.02,3.21-2.01,2.65-3.89,2.69C699.42,360.93,697.58,361.43,697.52,358.44z M607.99,411.36
			c1.6,0.04,3.37-0.63,3.34,2.31c-0.03,2.58-0.93,3.27-3.07,2.83c-1.98,0.09-3.67,0.49-3.73-2.53
			C604.47,410.92,606.17,411.32,607.99,411.36z M604.55,358.68c-0.07-3.08,1.67-2.83,3.71-2.91c2.07-0.07,2.99,0.4,3.05,2.77
			c0.09,2.93-1.57,2.73-3.3,2.59C606.08,361.22,604.61,361.36,604.55,358.68z M599.9,358.58c0.09,3.44-2.29,2.33-3.8,2.57
			c-1.97-0.04-3.85,0.51-3.79-2.57c0.06-3.16,2.02-2.73,3.95-2.78C598.21,355.76,599.82,355.82,599.9,358.58z M588.37,358.68
			c0.08,3.57-2.47,2.02-3.59,2.44c-2.26,0.03-4.04,0.41-3.93-2.6c0.11-3.17,2.12-2.63,4.01-2.7
			C586.88,355.74,588.31,355.97,588.37,358.68z M576.22,358.52c0.07,3.01-1.74,2.66-2.65,2.63c-2.6-0.03-4.33,0.47-4.34-2.39
			c0-3.03,1.77-2.88,3.83-2.97C575.11,355.69,576.16,356.07,576.22,358.52z M564.51,358.68c-0.02,2.65-1.2,2.91-3.35,2.92
			c-2.18,0-3.32-0.29-3.34-2.94c-0.02-2.88,1.71-2.36,3.97-2.37C562.86,356.27,564.54,355.82,564.51,358.68z M553.26,358.94
			c-0.05,2.57-1.32,2.63-3.22,2.64c-2.18,0-3.72-0.13-3.72-3.05c0.01-2.98,1.92-2.11,3.44-2.25
			C551.7,356.15,553.32,356.02,553.26,358.94z M541.79,358.86c-0.02,2.8-1.47,2.76-3.44,2.71c-1.93-0.06-3.5-0.01-3.6-2.76
			c-0.11-3.03,1.73-2.56,3.6-2.51C540.12,356.2,541.8,355.91,541.79,358.86z M530.07,359.05c0.01,2.99-1.88,2.5-3.83,2.48
			c-2.32,0.47-2.9-0.72-2.91-3.03c-0.03-3.3,2.29-1.97,3.81-2.22C529.31,355.91,530.06,356.77,530.07,359.05z M518.63,358.68
			c0.04,3.08-1.6,2.89-3.67,2.92c-2.06,0.03-3.37-0.05-3.38-2.81c-0.02-3.25,2.07-2.22,3.56-2.39
			C516.84,356.46,518.58,355.75,518.63,358.68z M506.43,358.89c0,2.86-1.54,2.72-3.47,2.69c-1.85-0.03-3.46,0.31-3.53-2.62
			c-0.06-3.02,1.6-2.64,3.36-2.54C504.62,356.39,506.44,355.85,506.43,358.89z M495,358.99c-0.05,2.97-1.71,2.72-3.43,2.52
			c-2.18,0.23-3.65,0.2-3.71-2.64c-0.08-3.18,1.89-2.42,3.59-2.48C493.3,356.32,495.05,355.97,495,358.99z M483.31,358.96
			c-0.02,3.05-1.73,2.51-3.54,2.63c-2.13,0.14-3.31-0.12-3.27-2.84c0.03-2.8,1.54-2.5,2.83-2.33
			C481.6,356.36,483.33,355.88,483.31,358.96z M599.9,413.88c0.06,3.28-2.05,2.61-3.92,2.66c-1.72-0.07-3.63,0.6-3.67-2.49
			c-0.05-3.3,2.01-2.68,3.87-2.69C597.95,411.36,599.85,410.87,599.9,413.88z M588.37,413.91c0.06,3.32-2.08,2.53-3.88,2.62
			c-1.75-0.03-3.62,0.54-3.65-2.49c-0.02-3.25,2.02-2.65,3.88-2.67C586.5,411.36,588.32,410.93,588.37,413.91z M573.53,411.35
			c1.22-0.1,2.67-0.29,2.7,2.45c0.05,3.21-1.87,2.71-3.8,2.75c-1.79,0.04-3.13,0.17-3.22-2.5
			C569.09,410.7,571.15,411.42,573.53,411.35z M697.53,413.74c-0.11-3.46,2.25-2.29,3.73-2.57c1.9,0.12,3.89-0.56,3.8,2.55
			c-0.08,3.08-2,2.76-3.95,2.8C699.16,416.55,697.62,416.51,697.53,413.74z M755.74,413.57c0.01-2.7,1.11-3.13,3.17-2.76
			c1.99-0.14,3.65-0.45,3.6,2.56c-0.05,2.58-1.16,2.8-3.09,2.57C757.83,415.74,755.72,416.86,755.74,413.57z M767.29,413.51
			c-0.05-3.2,1.81-2.71,3.74-2.76c1.86-0.06,3.11-0.01,3.2,2.56c0.12,3.35-1.99,2.55-4.23,2.63
			C768.67,416.08,767.33,416.18,767.29,413.51z M778.65,413.59c-0.03-3.06,1.65-2.87,3.68-2.86c1.91,0.01,3.46-0.19,3.49,2.67
			c0.05,3.4-2.16,2.39-3.39,2.51C780.26,415.98,778.68,416.38,778.65,413.59z M790.91,413.26c0.02-3.07,1.88-2.38,3.61-2.51
			c2.07-0.15,3.28,0.1,3.33,2.8c0.05,3.2-1.95,2.26-4.49,2.46C792.29,416.14,790.88,416.1,790.91,413.26z M802.63,413.52
			c-0.03-2.8,1.28-2.86,3.32-2.78c1.86,0.07,3.45-0.31,3.47,2.67c0.01,3.15-1.79,2.51-3.74,2.51
			C804.15,416.02,802.65,416.33,802.63,413.52z M814.13,413.56c-0.01-2.66,1.07-3.13,3.15-2.75c2.09-0.14,3.9-0.44,3.85,2.72
			c-0.04,2.78-1.61,2.49-3.3,2.39C816.21,415.83,814.14,416.77,814.13,413.56z M825.52,413.41c-0.09-3.36,1.98-2.61,3.89-2.63
			c1.81-0.2,3.15-0.1,3.23,2.51c0.11,3.36-2.04,2.58-3.87,2.66C826.95,416.03,825.59,416.1,825.52,413.41z M837.12,413.52
			c0-2.73,1.2-2.85,3.26-2.79c2.01,0.06,3.75-0.24,3.68,2.84c-0.06,2.78-1.62,2.43-3.34,2.33
			C839.09,415.82,837.13,416.67,837.12,413.52z M848.65,413.11c0.02-3.25,2.14-2.16,3.79-2.39c1.49,0.31,3.71-0.95,3.78,2.32
			c0.05,3.08-1.7,2.92-3.76,2.89C850.47,415.9,848.62,416.27,848.65,413.11z M860.69,413.5c-0.05-2.82,1.4-2.88,3.41-2.77
			c1.74,0.09,3.63-0.58,3.54,2.54c-0.08,2.9-1.7,2.72-3.58,2.62C862.32,415.97,860.74,416.27,860.69,413.5z M872.22,413.45
			c-0.05-2.88,1.46-2.89,3.32-2.68c1.95-0.07,3.73-0.51,3.65,2.54c-0.07,2.97-1.83,2.57-3.66,2.61
			C873.75,415.96,872.26,416.16,872.22,413.45z M884.02,413.31c-0.03-2.61,1.23-2.69,3.13-2.58c1.88,0.1,3.9-0.56,3.8,2.73
			c-0.07,2.73-1.54,2.55-3.25,2.43C885.78,415.97,884.05,416.25,884.02,413.31z M895.4,413.33c-0.07-3.44,2.19-2.8,4.18-2.94
			c2.14-0.16,3.36,0.29,3.35,2.94c-0.01,3.16-2.07,2.31-3.77,2.47C897.52,415.62,895.46,416.47,895.4,413.33z M908.48,413.17
			c0.1-3.74,2.74-2.05,4.41-2.39c2.21-0.45,2.46,0.79,2.55,2.68c0.14,3.04-1.62,2.63-3.04,2.24
			C910.04,415.9,908.41,416.08,908.48,413.17z M915.82,367.54c-0.04-2.89,1.32-3.97,3.73-4.38c1.07-0.18,2.2-0.1,3.3-0.1
			c39.27-0.01,78.54-0.01,117.82,0c6.29,0,7.18,0.89,7.18,7.09v33.73c-0.01,4.27-0.97,5.4-5.35,5.41
			c-20.31,0.06-40.62,0.03-60.93,0.03v0.05c-19.09,0-38.17,0-57.26-0.01c-1.59,0-3.21,0.11-4.76-0.13c-2.34-0.38-3.78-1.35-3.74-4.3
			C915.99,392.47,915.97,380,915.82,367.54z M973.86,358.53c-0.03,3.13-2.02,2.28-4.35,2.49c-1.31,0.21-2.31-0.23-2.38-2.67
			c-0.09-2.97,1.62-2.55,3.44-2.62C972.64,355.64,973.89,355.81,973.86,358.53z M982.45,355.78c1.94-0.3,3.07,0.14,3.13,2.61
			c0.09,3.39-2.14,2.42-4.37,2.6c-1.93,0.33-2.69-0.7-2.65-3.09C978.62,354.63,980.95,356.01,982.45,355.78z M993.89,355.75
			c1.67-0.15,3.22-0.21,3.22,2.66c0,2.99-1.79,2.51-3.59,2.56c-1.95,0.04-3.48,0.08-3.52-2.73
			C989.97,355.15,991.88,355.78,993.89,355.75z M1004.97,355.79c2.02-0.25,3.39-0.11,3.39,2.67c0,3.08-1.91,2.39-3.62,2.49
			c-1.84,0.12-3.12,0.08-3.16-2.53C1001.54,355.58,1002.99,355.56,1004.97,355.79z M1180.02,356.31c1.93-0.24,3.33-0.18,3.28,2.67
			c-0.05,2.98-1.78,2.51-3.59,2.59c-1.93,0.08-3.13-0.12-3.21-2.64C1176.42,356.03,1178.01,356.13,1180.02,356.31z M1171.77,358.68
			c-0.02,2.66-1.21,2.91-3.36,2.92c-2.18,0.01-3.31-0.32-3.32-2.95c-0.01-2.84,1.7-2.36,3.98-2.38
			C1170.16,356.22,1171.78,355.88,1171.77,358.68z M1160.37,358.58c0,2.91-1.61,2.93-3.71,3c-2.14,0.08-3.27-0.26-3.3-2.87
			c-0.04-3.15,2-2.29,3.58-2.44C1158.59,356.34,1160.37,355.72,1160.37,358.58z M1148.73,358.88c-0.05,3.3-2.35,1.9-3.75,2.28
			c-1.73-0.19-3.8,0.68-3.76-2.48c0.04-3.06,1.88-2.81,3.88-2.88C1147.31,355.72,1148.78,356.01,1148.73,358.88z M1136.41,358.76
			c0.05,3.18-2.06,2.22-3.68,2.39c-2,0.21-3.09-0.23-3.09-2.68c0-2.86,1.65-2.76,3.68-2.63
			C1135.56,355.42,1136.37,356.31,1136.41,358.76z M1125.06,358.44c0.05,2.83-1.46,2.8-3.43,2.72c-1.65-0.07-3.38,0.45-3.35-2.37
			c0.02-2.43,0.81-3.37,3.05-2.95C1123.34,355.74,1125.01,355.54,1125.06,358.44z M1113.47,358.62c0.09,3.12-1.87,2.47-3.93,2.52
			c-1.81,0.25-3.08-0.12-3.03-2.84c0.05-2.72,1.6-2.5,3.37-2.5C1111.85,355.8,1113.39,355.85,1113.47,358.62z M1101.85,358.58
			c0.08,3.27-2.11,2.17-3.7,2.43c-1.54-0.35-3.83,0.93-3.81-2.36c0.02-3.08,1.94-2.82,3.93-2.86
			C1100.24,355.75,1101.79,355.78,1101.85,358.58z M1090.51,358.58c0.07,3.27-2.18,2.12-3.66,2.44c-1.63-0.33-3.91,0.95-3.86-2.38
			c0.04-2.74,1.49-2.92,3.52-2.85C1088.46,355.86,1090.45,355.46,1090.51,358.58z M1078.93,358.8c-0.08,3.39-2.49,1.71-3.7,2.16
			c-1.98-0.02-3.92,0.58-3.79-2.53c0.11-2.9,1.9-2.58,3.74-2.64C1077.32,355.72,1078.99,355.82,1078.93,358.8z M1062.96,360.98
			c-1.84,0.16-3.16,0.16-3.17-2.52c-0.02-3.35,2.1-2.57,4.41-2.7c1.52-0.23,2.65,0.18,2.72,2.67
			C1067.02,361.87,1064.71,360.82,1062.96,360.98z M1063.3,411.38c1.97-0.07,3.58-0.43,3.64,2.38c0.06,3.21-1.84,2.71-3.81,2.81
			c-2.17,0.11-3.32-0.26-3.33-2.92C1059.78,410.31,1062.04,411.65,1063.3,411.38z M1051.82,360.93c-1.92,0.15-3.38,0.4-3.4-2.38
			c-0.02-2.79,1.3-2.86,3.35-2.79c1.89,0.06,3.48-0.25,3.47,2.7C1055.24,361.56,1053.45,361.01,1051.82,360.93z M1055.22,413.99
			c-0.04,2.98-1.89,2.43-3.67,2.55c-2.03,0.13-3.05-0.31-3.11-2.72c-0.07-2.87,1.49-2.82,3.43-2.6
			C1054.01,410.91,1055.25,411.3,1055.22,413.99z M1043.61,358.39c-0.03,2.94-1.8,2.58-3.61,2.58c-1.82-0.09-3.9,0.64-3.89-2.64
			c0.02-2.99,1.81-2.57,3.59-2.52C1041.49,355.87,1043.65,355.08,1043.61,358.39z M1032.07,358.52c-0.06,3.4-2.39,2.26-4.08,2.43
			c-1.98,0.21-3.48,0.03-3.44-2.75c0.05-3.46,2.49-2.07,3.39-2.28C1030.68,355.59,1032.12,355.73,1032.07,358.52z M1020.08,358.53
			c0.03,3.2-2,2.34-3.68,2.45c-1.94,0.12-3.48,0.18-3.45-2.72c0.02-3.13,1.95-2.41,3.96-2.47
			C1018.66,355.58,1020.06,355.72,1020.08,358.53z M1043.62,413.65c-0.04,3.05-1.87,2.81-3.87,2.88c-2.21,0.08-3.67-0.2-3.63-3.08
			c0.04-3.28,2.33-1.9,3.75-2.29C1041.57,411.38,1043.66,410.5,1043.62,413.65z M1020.07,414.03c-0.03,3.03-1.93,2.41-3.68,2.5
			c-2.14,0.1-3.38-0.42-3.41-2.98c-0.02-3.18,2.14-2.19,3.74-2.37C1018.88,410.93,1020.1,411.36,1020.07,414.03z M1008.35,413.67
			c0.01,3.17-2.07,2.22-3.66,2.36c-2.01,0.28-3.08-0.09-3.1-2.57c-0.03-2.85,1.55-2.64,3.46-2.71
			C1007.23,410.66,1008.34,411.07,1008.35,413.67z M997.08,413.66c0.02,3.45-2.46,2.1-4.06,2.4c-2.18,0.35-3.08-0.38-2.99-2.73
			c0.12-3.18,2.33-2.37,4.14-2.57C996.42,410.51,997.06,411.47,997.08,413.66z M985.59,413.4c0.02,2.83-1.48,2.85-2.89,2.67
			c-2.28-0.05-4.26,0.62-4.17-2.47c0.08-2.65,1.5-2.86,3.52-2.84C983.94,410.77,985.57,410.52,985.59,413.4z M973.86,413.44
			c0.03,2.89-1.54,2.75-3.52,2.58c-1.98,0.29-3.3,0.07-3.21-2.7c0.08-2.58,1.38-2.58,3.23-2.56
			C972.26,410.78,973.83,410.59,973.86,413.44z M962.31,413.37c0.07,3.01-1.55,2.67-3.28,2.54c-1.87,0.03-3.67,0.58-3.66-2.47
			c0.01-2.86,1.51-2.72,3.44-2.69C960.67,410.78,962.24,410.46,962.31,413.37z M950.26,413.56c-0.03,3.19-2.12,2.23-3.6,2.38
			c-1.79-0.03-3.51,0.59-3.55-2.32c-0.04-3.11,1.67-2.86,3.73-2.9C948.91,410.68,950.28,410.79,950.26,413.56z M938.72,413.49
			c0,3.13-1.93,2.38-3.66,2.43c-1.5-0.07-3.28,0.72-3.31-2.23s1.41-2.99,3.57-2.96C937.31,410.76,938.72,410.69,938.72,413.49z
			 M926.97,413.46c-0.01,2.73-1.38,2.6-3.18,2.48c-1.67-0.11-3.62,0.75-3.59-2.46c0.02-2.84,1.36-2.93,3.39-2.67
			C925.6,410.55,926.99,410.59,926.97,413.46z M1024.55,413.69c-0.1-3.53,2.42-2.1,3.55-2.47c2.26-0.04,4.06-0.46,3.98,2.55
			c-0.09,3.13-2.06,2.69-3.98,2.75C1026.11,416.58,1024.62,416.4,1024.55,413.69z M1071.44,413.86c-0.12-3.54,2.31-2.22,3.77-2.49
			c1.98,0,3.88-0.51,3.73,2.57c-0.15,2.92-1.98,2.56-3.79,2.59C1073.27,416.55,1071.54,416.74,1071.44,413.86z M1082.99,413.57
			c0.02-3.02,2.02-2.2,3.51-2.16c1.69,0.04,4.12-1.06,4.01,2.45c-0.1,2.86-1.88,2.65-4.53,2.71
			C1084.63,416.67,1082.97,416.56,1082.99,413.57z M1094.34,413.72c-0.04-2.9,1.82-2.47,3.41-2.31c1.58,0.17,4.13-1.34,4.09,2.3
			c-0.03,2.76-1.51,2.94-2.99,2.84C1096.36,416.5,1094.38,416.83,1094.34,413.72z M1106.5,413.92c-0.12-3.45,2.13-2.4,4.78-2.64
			c1-0.14,2.12,0.11,2.21,2.64c0.11,3.39-2.04,2.49-3.82,2.62C1107.76,416.68,1106.59,416.46,1106.5,413.92z M1118.25,413.69
			c-0.03-2.95,1.73-2.3,3.34-2.33c1.8-0.03,3.56-0.49,3.49,2.6c-0.07,2.98-1.68,2.7-3.54,2.51
			C1119.25,416.91,1118.28,416.31,1118.25,413.69z M1129.63,413.7c0-3.29,2.16-2.13,3.74-2.34c1.96-0.26,3.04,0.03,3.07,2.58
			c0.03,3.01-1.64,2.7-3.63,2.56C1130.72,416.87,1129.63,416.38,1129.63,413.7z M1141.22,413.96c0.02-3.28,2.17-2.51,3.97-2.59
			c1.86-0.08,3.53-0.29,3.55,2.62c0.02,3.38-2.21,2.36-3.51,2.51C1142.97,416.57,1141.21,416.92,1141.22,413.96z M1187.82,358.74
			c0-3.11,1.94-2.37,3.63-2.47c1.57,0.11,3.41-0.61,3.42,2.29c0,2.92-1.62,2.96-3.73,3.02
			C1189.06,361.64,1187.82,361.46,1187.82,358.74z M958.54,355.58c1.94,0.08,3.85-0.39,3.76,2.82c-0.09,2.78-1.63,2.46-3.36,2.37
			c-1.89,0.11-3.57,0.33-3.57-2.6C955.38,355.56,956.65,355.5,958.54,355.58z M947.48,355.54c1.42-0.19,2.83,0,2.78,2.78
			c-0.06,3-1.96,2.4-3.72,2.5c-1.99,0.11-3.47,0.08-3.41-2.74C943.19,355.06,945.12,355.67,947.48,355.54z M935.7,355.58
			c2.08-0.2,3.03,0.33,3.01,2.75c-0.02,3.1-2.03,2.38-4.2,2.49c-1.46,0.19-2.71,0-2.75-2.59
			C931.72,354.9,933.89,355.76,935.7,355.58z M923.78,355.62c1.93-0.26,3.25-0.05,3.18,2.71c-0.06,2.66-1.46,2.51-3.25,2.49
			c-1.84-0.02-3.48,0.3-3.5-2.61C920.18,355.28,921.8,355.51,923.78,355.62z M913.07,355.66c2.07-0.6,2.27,0.75,2.36,2.48
			c0.14,2.57-1.06,2.94-3,2.43c-2.06,0.05-4.08,0.58-3.94-2.7C908.66,353.94,911.47,356.12,913.07,355.66z M899.11,355.35
			c1.77,0.22,3.85-0.7,3.82,2.46c-0.03,3-1.78,2.89-3.81,2.9c-2.1,0-3.76-0.12-3.71-3.03C895.46,354.46,897.75,355.74,899.11,355.35
			z M887.75,355.6c1.16,0.12,3.23-0.84,3.21,2.4c-0.02,2.87-1.54,2.73-3.5,2.76c-2.04,0.03-3.42-0.02-3.46-2.81
			C883.96,355.08,885.57,355.51,887.75,355.6z M875.64,355.57c2-0.08,3.58-0.5,3.6,2.34c0.02,3.11-1.72,2.79-3.75,2.89
			c-2.2,0.1-3.29-0.35-3.3-2.95C872.17,354.55,874.41,355.8,875.64,355.57z M864.12,355.58c1.83,0,3.5-0.62,3.53,2.26
			c0.04,3-1.52,2.9-3.61,2.93c-2.08,0.03-3.32-0.17-3.34-2.84C860.67,354.72,862.78,355.76,864.12,355.58z M852.42,355.53
			c1.63,0.26,3.86-0.82,3.79,2.42c-0.06,2.78-1.69,2.79-3.64,2.79c-2.01-0.01-3.87,0.18-3.91-2.87
			C848.63,354.54,850.93,355.88,852.42,355.53z M840.78,355.58c1.65-0.09,3.26-0.45,3.28,2.36c0.02,3.08-1.68,2.93-3.8,2.75
			c-2.12,0.41-3.11-0.16-3.13-2.76C837.11,354.74,839.17,355.66,840.78,355.58z M829.45,355.56c1.98-0.24,3.19,0.02,3.2,2.59
			c0.01,3.35-2.2,2.44-4,2.6c-1.98,0.18-3.08-0.14-3.13-2.65C825.45,354.63,827.77,355.77,829.45,355.56z M818.04,355.56
			c1.62-0.17,3.14-0.21,3.09,2.65c-0.04,2.99-1.86,2.44-3.64,2.54c-2,0.11-3.37,0.08-3.37-2.72
			C814.12,354.94,816,355.61,818.04,355.56z M892.64,362.58c0.74,0,1.48-0.1,2.2,0.01c7.11,1.01,6.34,0.8,6.32,6.64
			c-0.04,11.73-0.16,23.47,0.08,35.19c0.07,3.71-1.66,4.77-4.73,4.82c-4.89,0.08-9.79,0.03-14.68,0.03
			c-15.42,0.01-30.83,0-46.24,0.01c-19.7,0-39.4,0.02-59.09-0.02c-6.22-0.02-6.72-0.99-6.62-6.29c0.21-11.85,0.14-23.71,0.01-35.56
			c-0.03-2.91,0.91-4.22,3.89-4.46c1.69-0.13,3.38-0.37,5.09-0.37H892.64z M794.16,355.59c1.74,0.09,3.65-0.53,3.68,2.53
			c0.02,2.87-1.47,2.87-3.41,2.64c-2.04,0.21-3.52,0.15-3.52-2.68C790.9,355.34,792.39,355.51,794.16,355.59z M782.85,355.58
			c1.57-0.15,2.94-0.12,2.97,2.52c0.04,3.24-1.98,2.65-3.87,2.72c-1.83,0.06-3.25,0.12-3.28-2.53
			C778.64,355.06,780.69,355.62,782.85,355.58z M770.68,355.61c1.9-0.04,3.54-0.44,3.55,2.38c0.01,2.75-1.32,2.92-3.4,2.83
			c-1.84-0.07-3.56,0.37-3.53-2.62C767.33,355.25,769.04,355.55,770.68,355.61z M759.62,355.58c2.19-0.26,2.84,0.56,2.86,2.81
			c0.04,3.13-1.99,2.31-4.05,2.43c-1.65,0.26-2.61-0.28-2.68-2.68C755.64,354.75,757.9,355.8,759.62,355.58z M105.89,355.74
			c1.71,0.1,3.67-0.6,3.69,2.47c0.01,2.74-1.25,3.07-2.74,2.77c-2.39-0.09-4.27,0.46-4.36-2.54
			C102.4,355.58,103.94,355.63,105.89,355.74z M59.12,355.58c1.8,0.07,3.63-0.46,3.58,2.58c-0.04,2.94-1.72,2.71-3.55,2.62
			c-1.76,0.05-3.39,0.43-3.45-2.38C55.64,355.58,57.11,355.51,59.12,355.58z M47.64,355.61c1.74-0.01,3.48-0.53,3.48,2.34
			c0,2.65-1.19,3.03-3.35,2.87c-1.76-0.13-3.62,0.5-3.6-2.56C44.19,355.35,45.85,355.55,47.64,355.61z M36.27,355.57
			c1.96-0.13,3.1,0.13,3.11,2.66c0.03,3-1.72,2.64-3.61,2.54c-1.98,0.3-3.06-0.14-3.12-2.62C32.57,355.07,34.51,355.69,36.27,355.57
			z M24.25,415.92c-1.77,0.16-3.37,0.32-3.35-2.58c0.03-2.89,1.7-2.66,3.55-2.58c1.67,0.08,3.56-0.69,3.62,2.43
			C28.13,416.37,26.32,416,24.25,415.92z M24.56,355.57c1.33,0.2,3.46-0.88,3.5,2.36c0.04,2.77-1.24,2.94-3.34,2.84
			c-1.98-0.08-3.88,0.36-3.82-2.82C20.94,355.13,22.59,355.53,24.56,355.57z M291.68,416.6c-1.49,0.22-2.62-0.09-2.67-2.6
			c-0.05-2.94,1.65-2.57,3.49-2.63c2.04-0.07,3.31,0.02,3.28,2.8C295.75,417.33,293.79,416.45,291.68,416.6z M315.55,416.72
			c-1.83,0.02-3.49,0.48-3.5-2.34c-0.01-2.6,1.03-3.03,3.23-2.89c1.82,0.13,3.53-0.33,3.55,2.62
			C318.85,417,317.27,416.85,315.55,416.72z M327.59,416.74c-2.37,0.02-4.12,0.34-4.16-2.59c-0.03-2.92,1.64-2.66,3.52-2.64
			c1.85,0.02,3.57-0.31,3.59,2.61C330.56,416.99,329.03,416.97,327.59,416.74z M338.8,416.72c-2.08,0.03-3.82,0.34-3.84-2.62
			c-0.03-3.05,1.8-2.49,3.59-2.59c2.09-0.12,3.43,0.1,3.41,2.85C341.95,417.21,340.25,416.74,338.8,416.72z M350.46,416.72
			c-1.76,0.09-3.33,0.37-3.34-2.42c0-2.83,1.47-2.84,3.49-2.79c1.87,0.05,3.57-0.32,3.53,2.66
			C354.11,417.22,352.22,416.67,350.46,416.72z M362.88,416.76c-2.29,0.02-4.15,0.62-4.02-2.51c0.11-2.43,1.02-2.8,3.08-2.7
			c1.98,0.1,3.79-0.36,3.72,2.82C365.59,417.16,364.11,416.88,362.88,416.76z M373.87,416.76c-1.93,0.07-3.64,0.42-3.63-2.58
			c0-3,1.71-2.59,3.55-2.61c1.9-0.02,3.54-0.28,3.56,2.66C377.37,417.26,375.62,416.85,373.87,416.76z M385.52,416.75
			c-1.6-0.09-3.73,0.87-3.67-2.35c0.05-2.52,0.89-3.33,2.95-2.74c2.32-0.19,4.05-0.37,4.03,2.74
			C388.8,417.23,387.17,416.84,385.52,416.75z M408.77,416.79c-2.07-0.11-4.12,0.6-3.96-2.53c0.13-2.83,1.9-2.6,3.75-2.66
			c2.13-0.08,3.78,0.02,3.74,2.99C412.25,417.99,409.78,416.21,408.77,416.79z M432.63,416.7c-2.66,0.19-4.31,0.4-4.25-2.55
			c0.07-2.98,1.85-2.51,3.67-2.58c2.02-0.07,3.42,0.04,3.48,2.8C435.61,417.65,433.46,416.57,432.63,416.7z M457.55,405.37
			c0.02,2.43-0.85,3.69-3.24,3.9c-1.82,0.16-3.63,0.46-5.45,0.46c-37.93,0.03-75.87,0.02-113.81,0.02c-0.61,0-1.22,0.02-1.83,0
			c-6.55-0.19-6.98-0.63-6.98-7.1c0-11.49-0.01-22.98,0-34.47c0-4.1,0.85-5.02,5.11-5.11c3.79-0.09,7.59-0.02,11.38-0.01h49.56
			c19.34,0,38.67-0.01,58.01,0c1.34,0,2.71-0.03,4.02,0.23c2.08,0.4,3.29,1.36,3.26,3.95C457.42,379.95,457.46,392.66,457.55,405.37
			z M455.75,361.92c-1.81-0.13-3.96,0.6-4.04-2.66c-0.09-3.31,2-2.65,3.79-2.7c1.87,0.01,3.73-0.5,3.72,2.55
			C459.21,361.89,457.76,362.07,455.75,361.92z M468.93,416.66c-1.53-0.36-4.05,1.43-4.13-2.24c-0.06-3.29,1.93-2.69,4-2.66
			c1.95-0.54,2.93-0.02,2.91,2.46C471.69,416.42,470.92,417.13,468.93,416.66z M479.66,416.73c-1.93,0.22-3.12,0.01-3.16-2.54
			c-0.05-2.87,1.51-2.65,3.42-2.69c2.04-0.05,3.37,0.06,3.37,2.79C483.29,417.4,481.29,416.6,479.66,416.73z M491.32,416.74
			c-1.48-0.07-3.39,0.5-3.46-2.51c-0.05-2.84,1.48-2.73,3.45-2.74c2.09-0.01,3.77-0.12,3.7,2.91
			C494.94,417.21,493.25,416.74,491.32,416.74z M502.93,416.73c-1.95,0.11-3.48,0.11-3.48-2.74c0-3.13,1.97-2.38,4-2.47
			c1.95-0.34,2.98,0.39,2.97,2.94C506.4,417.36,504.51,416.64,502.93,416.73z M514.93,416.74c-1.96,0.12-3.44,0.15-3.37-2.7
			c0.07-2.99,1.85-2.53,3.67-2.47c1.98-0.24,3.42-0.14,3.38,2.66C518.57,417.26,516.66,416.64,514.93,416.74z M526.45,416.58
			c-1.9,0.16-3.09,0.03-3.14-2.56c-0.06-2.96,1.55-2.74,3.52-2.59c2-0.29,3.25-0.07,3.24,2.71
			C530.07,417.3,528.1,416.43,526.45,416.58z M561.15,416.53c-1.99,0.26-3.39,0.21-3.34-2.64c0.05-2.62,1.35-2.59,3.17-2.51
			c1.75,0.07,3.54-0.51,3.54,2.52C564.52,416.72,563.14,416.77,561.15,416.53z M1168.56,416.51c-2.18,0.31-3.52,0.17-3.48-2.68
			c0.04-2.8,1.6-2.4,3.32-2.46c2.01-0.07,3.45-0.08,3.37,2.79C1171.7,416.93,1170.22,416.7,1168.56,416.51z M1202.51,416.74
			c-1.44,0.08-2.96,0.27-3-2.47c-0.04-2.84,1.44-2.73,3.44-2.79c2.19-0.07,3.33,0.24,3.31,2.91
			C1206.24,417.28,1204.48,416.7,1202.51,416.74z M1215.58,416.76c-2.69-0.06-4.54,0.43-4.58-2.6c-0.04-2.99,1.68-2.59,3.54-2.65
			c2.04-0.07,3.49-0.01,3.48,2.8C1218.02,417.1,1216.42,416.8,1215.58,416.76z M1226.31,416.74c-1.68-0.14-3.68,0.66-3.73-2.46
			c-0.04-2.79,1.31-3,3.28-2.71c2.02-0.15,3.65-0.28,3.65,2.62C1229.51,416.82,1228.17,416.88,1226.31,416.74z M1238.25,416.72
			c-1.91,0.06-3.69,0.48-3.66-2.53c0.03-2.86,1.62-2.72,3.54-2.68c1.8,0.04,3.62-0.44,3.59,2.57
			C1241.7,416.96,1240.06,416.82,1238.25,416.72z M1250.01,416.74c-2.1,0.07-3.65,0.46-3.72-2.36c-0.07-3.22,1.78-2.71,3.74-2.82
			c2.06-0.12,2.99,0.25,3.08,2.7C1253.21,417.34,1251.43,416.86,1250.01,416.74z M1261.65,416.76c-1.96-0.01-3.75,0.55-3.76-2.49
			c-0.01-2.85,1.43-2.75,3.37-2.69c1.8,0.06,3.54-0.37,3.59,2.57C1264.89,417.04,1263.33,416.91,1261.65,416.76z M1272.7,416.75
			c-2.07,0.25-3.39,0.1-3.37-2.72c0.02-3.19,1.99-2.3,3.65-2.44c2.06-0.16,3.4,0.05,3.41,2.81
			C1276.39,417.63,1274.28,416.58,1272.7,416.75z M1284.56,416.76c-1.61-0.1-3.77,0.88-3.76-2.34c0.01-2.59,0.95-3.32,2.95-2.79
			c2.33-0.11,4.21-0.45,4.17,2.74C1287.89,417.18,1286.25,416.87,1284.56,416.76z M1296.47,416.72c-1.61-0.13-4.12,1.24-4.05-2.35
			c0.05-2.8,1.68-2.79,3.6-2.77c2.01-0.02,3.87-0.2,3.88,2.87C1299.91,417.41,1298.01,416.84,1296.47,416.72z M1307.95,416.77
			c-1.83,0.08-3.61,0.44-3.54-2.59c0.08-2.94,1.78-2.66,3.7-2.57c1.97-0.19,3.4-0.08,3.46,2.72
			C1311.63,417.53,1309.62,416.71,1307.95,416.77z M1319.49,416.77c-1.49-0.16-3.55,0.8-3.52-2.39c0.02-2.73,1.32-2.84,3.37-2.82
			c2.11,0.03,3.67-0.04,3.62,2.96C1322.92,417.45,1321.16,416.69,1319.49,416.77z M1222.11,409.75c-0.49,0-0.98,0.02-1.47,0.01
			c-6.35-0.21-6.82-0.68-6.82-6.88v-33.71c0-5.57,0.54-6.11,6.33-6.11c12.35-0.01,24.71,0,37.06,0h22.38c19.57,0,39.13-0.01,58.7,0
			c6.27,0,6.68,0.43,6.68,6.54c0,11.73-0.09,23.46,0.06,35.18c0.03,3.08-0.92,4.6-4.09,4.59c-1.45-0.01-2.91,0.36-4.36,0.36
			C1298.43,409.76,1260.27,409.75,1222.11,409.75z M1343.23,417c-1.74-0.3-3.9,0.81-3.93-2.39c-0.03-2.97,1.63-3.01,3.72-2.99
			c2.04,0.02,3.79-0.04,3.8,2.94C1346.83,417.78,1344.6,416.62,1343.23,417z M1342.9,361.94c-1.84-0.06-3.58,0.22-3.61-2.73
			c-0.04-3.71,2.47-2.47,4.28-2.64c1.84-0.18,3.26-0.07,3.26,2.58C1346.82,362.33,1344.83,361.9,1342.9,361.94z"/>
		<path class="st3" d="M570.72,354.97c-126.79,0.01-253.57,0.02-380.36,0.02c-23.5,0-46.99,0-70.49,0
			c-0.21-0.16-0.27-0.32-0.21-0.49c0.07-0.16,0.13-0.24,0.2-0.24c150.29,0,300.57,0,450.86,0c0.2,0.16,0.27,0.32,0.2,0.47
			C570.86,354.89,570.79,354.97,570.72,354.97z"/>
		<path class="st4" d="M1356.42,354.26c-1.21,1.26-2.78,0.71-4.18,0.71c-114.87,0.03-229.74,0.02-344.61,0.02
			c-0.25-0.16-0.34-0.32-0.25-0.49c0.08-0.16,0.17-0.24,0.25-0.24C1123.89,354.26,1240.15,354.26,1356.42,354.26z"/>
		<path class="st3" d="M703.63,417.36c107.45,0,214.9,0,322.35,0c0.23,0.16,0.31,0.31,0.23,0.47c-0.08,0.16-0.15,0.24-0.23,0.24
			c-107.45,0-214.9,0-322.35,0c-0.23-0.16-0.31-0.32-0.23-0.47C703.48,417.44,703.56,417.36,703.63,417.36z"/>
		<path class="st4" d="M17.8,418.07c1.21-1.26,2.77-0.71,4.18-0.71c81.58-0.03,163.16-0.02,244.75-0.02
			c0.25,0.16,0.34,0.32,0.25,0.49c-0.08,0.16-0.17,0.24-0.25,0.24C183.75,418.07,100.78,418.07,17.8,418.07z"/>
		<path class="st5" d="M703.63,417.36c0,0.24,0,0.47,0,0.71c-46.75,0-93.5,0-140.25,0c0.96-1.11,2.27-0.72,3.44-0.72
			C612.43,417.34,658.03,417.35,703.63,417.36z"/>
		<path class="st5" d="M570.72,354.97c0-0.24,0-0.47,0-0.71c46.51,0,93.01,0,139.52,0c0.25,0.16,0.33,0.33,0.25,0.49
			c-0.08,0.16-0.17,0.24-0.25,0.24C663.73,354.99,617.23,354.98,570.72,354.97z"/>
		<path class="st5" d="M1025.99,418.07c0-0.24,0-0.47,0-0.71c42.83-0.01,85.67-0.01,128.5-0.02c0.25,0.16,0.34,0.32,0.25,0.48
			c-0.08,0.16-0.17,0.24-0.25,0.24C1111.65,418.07,1068.82,418.07,1025.99,418.07z"/>
		<path class="st6" d="M17.07,355.73c1.11,0.95,0.72,2.26,0.72,3.42c0.02,18.01,0.02,36.02,0,54.03c0,1.17,0.39,2.47-0.72,3.42
			C17.07,396.31,17.07,376.02,17.07,355.73z"/>
		<path class="st6" d="M1357.15,410.73c-1.02-0.83-0.72-2-0.72-3.05c-0.02-13.85-0.02-27.71,0-41.56c0-1.06-0.3-2.22,0.72-3.05
			C1357.15,378.95,1357.15,394.84,1357.15,410.73z"/>
		<path class="st7" d="M459.41,417.65c0.03,0.14-0.07,0.28-0.3,0.42h-7.34c-0.24-0.15-0.33-0.3-0.28-0.45c0-0.02,0-0.03,0.01-0.05
			c0.09-0.16,0.18-0.25,0.27-0.25c0.01-0.26,0.02-0.52,0.02-0.78c0.21,0.06,0.43,0.11,0.64,0.15c2.01,0.43,4.02,0.4,6.03,0.01
			c0.21-0.04,0.43-0.08,0.64-0.13c0.01,0.24,0.02,0.48,0.01,0.72C459.3,417.41,459.4,417.52,459.41,417.65z"/>
		<path class="st8" d="M1334.69,417.64c0.03,0.15-0.07,0.29-0.3,0.43h-6.61c-0.24-0.15-0.34-0.3-0.31-0.45
			c0.02-0.12,0.13-0.24,0.31-0.35c0-0.24,0.01-0.48,0.02-0.72c0.22,0.04,0.43,0.08,0.65,0.11c1.76,0.25,3.52,0.19,5.29,0.02
			c0.22-0.02,0.43-0.05,0.65-0.07c0,0.23,0,0.45-0.01,0.68C1334.58,417.41,1334.68,417.52,1334.69,417.64z"/>
		<path class="st9" d="M446.93,417.62c0.05,0.15-0.05,0.3-0.3,0.45h-6.61c-0.24-0.15-0.33-0.3-0.29-0.45h0.01
			c0-0.02,0.01-0.03,0.02-0.05c0.09-0.17,0.17-0.25,0.26-0.25c0.03-0.29,0.05-0.58,0.07-0.88c0.21,0.07,0.41,0.12,0.62,0.17
			c1.83,0.41,3.7,0.15,5.56,0.13c0,0.08,0.01,0.17,0.01,0.25c0.08,0.2,0.19,0.36,0.35,0.47v-0.16
			C446.8,417.41,446.9,417.52,446.93,417.62z"/>
		<path class="st8" d="M424.17,417.64c0.03,0.14-0.08,0.29-0.3,0.43h-6.61c-0.24-0.15-0.34-0.3-0.31-0.45
			c0.03-0.11,0.13-0.22,0.31-0.33c0-0.22-0.01-0.44-0.01-0.67c0.22,0.02,0.44,0.05,0.67,0.06c1.76,0.17,3.52,0.22,5.28-0.02
			c0.22-0.02,0.44-0.05,0.66-0.09c0,0.23,0.01,0.46,0,0.69C424.06,417.39,424.16,417.51,424.17,417.64z"/>
		<path class="st10" d="M809.67,354.71c-0.02,0.11-0.12,0.21-0.31,0.32c-0.01,0.27-0.02,0.53-0.03,0.79
			c-0.21-0.05-0.43-0.09-0.64-0.12c-1.75-0.3-3.51-0.23-5.27-0.05c-0.22,0.03-0.44,0.05-0.66,0.08c0-0.22,0-0.44,0.01-0.65
			c-0.01,0-0.02-0.01-0.02-0.01c0-0.01-0.01-0.01-0.01-0.01c-0.19-0.12-0.28-0.24-0.29-0.37c-0.01-0.14,0.09-0.28,0.31-0.43h6.61
			C809.61,354.41,809.71,354.56,809.67,354.71z"/>
		<path class="st8" d="M400.65,417.69v0.01c0,0.04-0.01,0.08-0.03,0.12c-0.08,0.17-0.17,0.25-0.25,0.25h-6.61
			c-0.24-0.15-0.34-0.29-0.3-0.44c0.02-0.11,0.12-0.22,0.31-0.33c-0.01-0.21-0.02-0.42-0.03-0.64c0.22,0,0.45,0.01,0.67,0.01
			c1.63,0.04,3.26,0.08,4.89,0.11c0.11,0.01,0.23,0.01,0.34,0.01c0.24,0.18,0.48,0.36,0.73,0.54
			C400.55,417.46,400.64,417.57,400.65,417.69z"/>
		<path class="st4" d="M271.87,417.34c2.2,0,4.4,0,6.6,0c0.25,0.16,0.34,0.32,0.25,0.48c-0.08,0.16-0.17,0.24-0.25,0.24
			c-2.2,0-4.41,0-6.61,0c-0.25-0.16-0.33-0.33-0.25-0.49C271.7,417.42,271.79,417.34,271.87,417.34z"/>
		<path class="st4" d="M733.73,354.99c-2.2,0-4.4,0-6.6,0c-0.25-0.16-0.34-0.32-0.25-0.48c0.08-0.16,0.17-0.24,0.25-0.24
			c2.2,0,4.41,0,6.61,0c0.25,0.16,0.33,0.33,0.25,0.49C733.9,354.91,733.82,354.99,733.73,354.99z"/>
		<path class="st4" d="M721.99,354.99c-2.2,0-4.4,0-6.6,0c-0.25-0.16-0.34-0.32-0.26-0.48c0.08-0.16,0.17-0.24,0.25-0.24
			c2.2,0,4.41,0,6.61,0c0.25,0.16,0.33,0.33,0.25,0.49C722.15,354.91,722.07,354.99,721.99,354.99z"/>
		<path class="st4" d="M552.37,417.34c2.19,0.31,4.54-0.73,6.61,0.73c-2.2,0-4.41,0-6.61,0c-0.25-0.16-0.33-0.33-0.25-0.49
			C552.2,417.42,552.29,417.34,552.37,417.34z"/>
		<path class="st4" d="M979.72,354.99c-2.2,0-4.4,0-6.6,0c-0.25-0.16-0.33-0.32-0.25-0.49c0.08-0.16,0.17-0.24,0.25-0.24
			c2.2,0,4.41,0,6.61,0c0.25,0.16,0.33,0.33,0.25,0.49C979.89,354.91,979.8,354.99,979.72,354.99z"/>
		<path class="st4" d="M114.73,354.99c-2.19-0.31-4.54,0.73-6.61-0.73c2.2,0,4.41,0,6.61,0c0.25,0.16,0.33,0.33,0.25,0.49
			C114.89,354.91,114.81,354.99,114.73,354.99z"/>
		<path class="st4" d="M540.62,417.34c2.2,0,4.4,0,6.6,0c0.25,0.16,0.34,0.32,0.25,0.48c-0.08,0.16-0.17,0.24-0.25,0.24
			c-2.2,0-4.41,0-6.61,0c-0.25-0.16-0.33-0.33-0.25-0.49C540.46,417.42,540.54,417.34,540.62,417.34z"/>
		<path class="st4" d="M528.87,418.07c2.07-1.46,4.41-0.42,6.61-0.73c0.25,0.16,0.34,0.32,0.25,0.49c-0.08,0.16-0.17,0.24-0.25,0.24
			C533.28,418.07,531.07,418.07,528.87,418.07z"/>
		<path class="st4" d="M1170.64,418.07c2.07-1.46,4.41-0.42,6.61-0.73c0.25,0.16,0.33,0.32,0.25,0.49
			c-0.08,0.16-0.17,0.24-0.25,0.24C1175.05,418.07,1172.84,418.07,1170.64,418.07z"/>
		<path class="st4" d="M91.96,354.99c-2.2,0-4.4,0-6.6,0c-0.25-0.16-0.34-0.32-0.25-0.48c0.08-0.16,0.17-0.24,0.25-0.24
			c2.2,0,4.41,0,6.61,0c0.25,0.16,0.33,0.33,0.25,0.49C92.13,354.91,92.05,354.99,91.96,354.99z"/>
		<path class="st4" d="M1159.63,417.34c2.19,0.31,4.54-0.73,6.61,0.73c-2.2,0-4.41,0-6.61,0c-0.25-0.16-0.33-0.33-0.25-0.49
			C1159.46,417.42,1159.55,417.34,1159.63,417.34z"/>
		<path class="st4" d="M517.86,418.07c2.2-1.17,4.41-1.17,6.61,0C522.26,418.07,520.06,418.07,517.86,418.07z"/>
		<path class="st4" d="M80.21,354.99c-2.21,0-4.43,0-6.64,0.01c-0.23-0.18-0.3-0.34-0.21-0.5c0.08-0.16,0.17-0.23,0.25-0.23
			c2.2,0,4.41,0,6.61,0c0.25,0.16,0.33,0.33,0.25,0.49C80.38,354.91,80.3,354.99,80.21,354.99z"/>
		<path class="st4" d="M1182.39,417.34c2.2,0,4.4,0,6.6,0c0.25,0.16,0.34,0.32,0.26,0.48c-0.08,0.16-0.17,0.24-0.25,0.24
			c-2.2,0-4.41,0-6.61,0c-0.25-0.16-0.33-0.33-0.25-0.49C1182.23,417.42,1182.31,417.34,1182.39,417.34z"/>
		<path class="st4" d="M967.97,354.99c-2.19-0.31-4.54,0.73-6.6-0.73c2.2,0,4.41,0,6.61,0c0.25,0.16,0.33,0.33,0.25,0.49
			C968.14,354.91,968.06,354.99,967.97,354.99z"/>
		<path class="st4" d="M103.71,354.26c-2.07,1.46-4.41,0.42-6.61,0.73c-0.25-0.16-0.34-0.32-0.25-0.49
			c0.08-0.16,0.17-0.24,0.25-0.24C99.31,354.26,101.51,354.26,103.71,354.26z"/>
		<path class="st2" d="M879.06,355.01c-2.16,0-4.32,0-6.48,0c-0.28-0.14-0.38-0.3-0.31-0.47c0.08-0.18,0.16-0.27,0.25-0.27
			c2.2,0,4.41,0,6.61,0c0.25,0.19,0.32,0.36,0.22,0.52C879.25,354.93,879.15,355.01,879.06,355.01z"/>
		<path class="st4" d="M283.62,417.34c2.19,0.31,4.54-0.73,6.61,0.73c-2.2,0-4.41,0-6.61,0c-0.25-0.16-0.33-0.33-0.25-0.49
			C283.45,417.42,283.53,417.34,283.62,417.34z"/>
		<path class="st4" d="M1002.48,354.99c-2.2,0-4.4,0-6.6,0c-0.25-0.16-0.34-0.32-0.26-0.48c0.08-0.16,0.17-0.24,0.25-0.24
			c2.2,0,4.41,0,6.61,0c0.25,0.16,0.33,0.33,0.25,0.49C1002.65,354.91,1002.57,354.99,1002.48,354.99z"/>
		<path class="st4" d="M294.63,418.07c2.07-1.46,4.41-0.42,6.6-0.73c0.25,0.16,0.34,0.32,0.25,0.48c-0.08,0.16-0.17,0.24-0.25,0.24
			C299.04,418.07,296.83,418.07,294.63,418.07z"/>
		<path class="st3" d="M768.25,354.26c-1.96,1.13-3.92,1.13-5.87,0C764.33,354.26,766.29,354.26,768.25,354.26z"/>
		<path class="st3" d="M990.74,354.99c-1.96,0-3.91,0-5.87,0c-0.25-0.16-0.33-0.32-0.25-0.49c0.08-0.16,0.17-0.24,0.25-0.24
			c1.96,0,3.92,0,5.87,0c0.25,0.16,0.33,0.33,0.25,0.49C990.9,354.91,990.82,354.99,990.74,354.99z"/>
		<path class="st4" d="M744.75,354.99c-1.96,0-3.91,0-5.87,0c-0.25-0.16-0.33-0.32-0.25-0.49c0.08-0.16,0.17-0.24,0.25-0.24
			c1.96,0,3.92,0,5.87,0c0.25,0.16,0.33,0.33,0.25,0.49C744.92,354.91,744.83,354.99,744.75,354.99z"/>
		<path class="st4" d="M755.77,354.26c-1.8,1.46-3.92,0.42-5.87,0.73c-0.25-0.16-0.34-0.32-0.26-0.48c0.08-0.16,0.17-0.24,0.25-0.24
			C751.85,354.26,753.81,354.26,755.77,354.26z"/>
		<path class="st4" d="M1194.14,417.34c1.95,0.31,4.07-0.72,5.87,0.73c-1.96,0-3.92,0-5.87,0c-0.25-0.16-0.33-0.33-0.25-0.49
			C1193.97,417.42,1194.06,417.34,1194.14,417.34z"/>
		<path class="st4" d="M1205.89,418.07c1.96-1.13,3.92-1.13,5.87,0C1209.8,418.07,1207.85,418.07,1205.89,418.07z"/>
		<path class="st4" d="M1217.64,418.07c1.96-1.13,3.92-1.13,5.87,0C1221.55,418.07,1219.59,418.07,1217.64,418.07z"/>
		<path class="st4" d="M1229.39,418.07c1.96-1.14,3.92-1.12,5.87,0C1233.3,418.07,1231.34,418.07,1229.39,418.07z"/>
		<path class="st4" d="M329.88,418.07c1.96-1.13,3.92-1.14,5.87,0C333.79,418.07,331.83,418.07,329.88,418.07z"/>
		<path class="st4" d="M68.5,355c-1.96-0.33-4.09,0.73-5.91-0.74c1.96,0,3.92,0,5.87,0c0.25,0.15,0.33,0.31,0.26,0.48
			C68.65,354.91,68.58,355,68.5,355z"/>
		<path class="st4" d="M56.72,354.26c-1.96,1.13-3.92,1.14-5.87,0C52.8,354.26,54.76,354.26,56.72,354.26z"/>
		<path class="st4" d="M44.97,354.26c-1.96,1.13-3.92,1.13-5.87,0C41.06,354.26,43.01,354.26,44.97,354.26z"/>
		<path class="st4" d="M955.49,354.26c-1.96,1.14-3.92,1.13-5.87,0C951.58,354.26,953.54,354.26,955.49,354.26z"/>
		<path class="st3" d="M932.73,354.26c-1.96,1.13-3.92,1.13-5.87,0C928.81,354.26,930.77,354.26,932.73,354.26z"/>
		<path class="st4" d="M908.5,354.26c-1.96,1.14-3.92,1.12-5.87,0C904.58,354.26,906.54,354.26,908.5,354.26z"/>
		<path class="st4" d="M802.76,354.26c0,0.27,0,0.54,0,0.81c-1.93-0.47-4.09,0.68-5.88-0.81
			C798.85,354.26,800.8,354.26,802.76,354.26z"/>
		<path class="st4" d="M791.01,354.26c-1.96,1.14-3.92,1.12-5.87,0C787.1,354.26,789.05,354.26,791.01,354.26z"/>
		<path class="st4" d="M494.36,418.07c1.96-1.13,3.92-1.14,5.87,0C498.27,418.07,496.32,418.07,494.36,418.07z"/>
		<path class="st4" d="M306.38,417.34c1.95,0.31,4.06-0.73,5.87,0.73c-1.96,0-3.92,0-5.87,0c-0.25-0.16-0.33-0.33-0.25-0.49
			C306.22,417.42,306.3,417.34,306.38,417.34z"/>
		<path class="st4" d="M318.13,418.07c1.96-1.12,3.92-1.14,5.87,0C322.04,418.07,320.09,418.07,318.13,418.07z"/>
		<path class="st3" d="M341.63,418.07c1.96-1.13,3.92-1.13,5.87,0C345.54,418.07,343.58,418.07,341.63,418.07z"/>
		<path class="st4" d="M353.37,418.07c1.96-1.14,3.92-1.13,5.87,0C357.29,418.07,355.33,418.07,353.37,418.07z"/>
		<path class="st3" d="M459.11,418.07c0-0.26,0-0.52,0-0.78c1.94,0.41,4.08-0.7,5.88,0.78
			C463.03,418.07,461.07,418.07,459.11,418.07z"/>
		<path class="st4" d="M482.61,418.07c1.96-1.12,3.92-1.14,5.87,0C486.53,418.07,484.57,418.07,482.61,418.07z"/>
		<path class="st3" d="M506.11,418.07c1.96-1.13,3.92-1.13,5.87,0C510.02,418.07,508.07,418.07,506.11,418.07z"/>
		<path class="st11" d="M749.89,354.26c0,0.24,0,0.48,0.01,0.73c-1.72,0-3.43,0-5.15,0c0-0.24,0-0.49,0-0.73
			C746.47,354.26,748.18,354.26,749.89,354.26z"/>
		<path class="st12" d="M738.88,354.26c0,0.24,0,0.49,0,0.73c-1.72,0-3.43,0-5.15,0c0-0.24,0.01-0.49,0-0.73
			C735.45,354.26,737.16,354.26,738.88,354.26z"/>
		<path class="st12" d="M984.87,354.26c0,0.24,0,0.49,0,0.73c-1.72,0-3.43,0-5.15,0c0-0.24,0.01-0.49,0.01-0.73
			C981.44,354.26,983.15,354.26,984.87,354.26z"/>
		<path class="st12" d="M721.99,354.99c0-0.24,0-0.49,0-0.73c1.71,0,3.43,0,5.14,0c0,0.24,0,0.49,0,0.73
			C725.42,354.99,723.7,354.99,721.99,354.99z"/>
		<path class="st12" d="M715.38,354.26c0,0.24,0,0.48,0.01,0.73c-1.72,0-3.43,0-5.15,0c0-0.24,0-0.49,0-0.73
			C711.95,354.26,713.67,354.26,715.38,354.26z"/>
		<path class="st13" d="M114.73,354.99c0-0.24,0-0.49,0-0.73c1.71,0,3.43,0,5.14,0c0,0.24,0,0.49,0,0.73
			C118.16,354.99,116.44,354.99,114.73,354.99z"/>
		<path class="st4" d="M809.36,355.03c0-0.26,0-0.51,0.01-0.77c1.71,0,3.43,0,5.14,0C812.97,355.67,811.07,354.69,809.36,355.03z"/>
		<path class="st4" d="M849.02,354.26c-1.71,1.15-3.43,1.15-5.14,0C845.6,354.26,847.31,354.26,849.02,354.26z"/>
		<path class="st4" d="M1264.63,418.07c1.71-1.16,3.43-1.15,5.14,0C1268.06,418.07,1266.34,418.07,1264.63,418.07z"/>
		<path class="st4" d="M837.27,354.26c-1.71,1.15-3.43,1.15-5.14,0C833.85,354.26,835.56,354.26,837.27,354.26z"/>
		<path class="st4" d="M1287.39,418.07c1.71-1.15,3.43-1.15,5.14,0C1290.82,418.07,1289.11,418.07,1287.39,418.07z"/>
		<path class="st4" d="M376.87,418.07c1.71-1.15,3.43-1.15,5.14,0C380.3,418.07,378.58,418.07,376.87,418.07z"/>
		<path class="st4" d="M393.77,417.3c0,0.26,0,0.51-0.01,0.77c-1.71,0-3.43,0-5.14,0C390.16,416.65,392.06,417.65,393.77,417.3z"/>
		<path class="st4" d="M1299.88,418.07c1.71-1.16,3.43-1.15,5.14,0C1303.3,418.07,1301.59,418.07,1299.88,418.07z"/>
		<path class="st3" d="M417.26,417.29c0,0.26,0,0.52-0.01,0.77c-1.71,0-3.43,0-5.14,0C413.66,416.65,415.56,417.65,417.26,417.29z"
			/>
		<path class="st4" d="M423.87,418.07c0-0.27,0-0.54,0-0.8c1.69,0.41,3.61-0.61,5.14,0.8C427.29,418.07,425.58,418.07,423.87,418.07
			z"/>
		<path class="st4" d="M1327.78,417.27c0,0.27,0,0.53,0,0.8c-1.71,0-3.43,0-5.14,0C1324.18,416.65,1326.09,417.66,1327.78,417.27z"
			/>
		<path class="st4" d="M451.77,417.32v0.75h-5.14v-0.77C448.34,417.31,450.06,417.32,451.77,417.32z"/>
		<path class="st3" d="M779.26,354.26c-1.71,1.15-3.43,1.15-5.14,0C775.84,354.26,777.55,354.26,779.26,354.26z"/>
		<path class="st3" d="M471.6,418.07c1.71-1.15,3.43-1.15,5.14,0C475.02,418.07,473.31,418.07,471.6,418.07z"/>
		<path class="st12" d="M1002.48,354.99c0-0.24,0.01-0.49,0.01-0.73c1.71,0,3.43,0,5.14,0c0,0.24,0,0.49,0,0.73
			C1005.92,354.99,1004.2,354.99,1002.48,354.99z"/>
		<path class="st4" d="M1334.39,418.07c0-0.26,0-0.52-0.01-0.77c1.7,0.35,3.61-0.63,5.15,0.77
			C1337.82,418.07,1336.1,418.07,1334.39,418.07z"/>
		<path class="st12" d="M271.87,417.34c0,0.24,0,0.49,0,0.73c-1.71,0-3.43,0-5.14,0c0-0.24,0-0.49,0-0.73
			C268.44,417.34,270.16,417.34,271.87,417.34z"/>
		<path class="st4" d="M920.25,354.26c-1.71,1.15-3.43,1.15-5.14,0C916.82,354.26,918.53,354.26,920.25,354.26z"/>
		<path class="st3" d="M943.75,354.26c-1.71,1.15-3.43,1.15-5.14,0C940.32,354.26,942.03,354.26,943.75,354.26z"/>
		<path class="st12" d="M535.48,418.07c0-0.24,0-0.49,0-0.73c1.72,0,3.43,0,5.15,0c0,0.24-0.01,0.49-0.01,0.73
			C538.91,418.07,537.19,418.07,535.48,418.07z"/>
		<path class="st12" d="M1159.63,417.34c0,0.24,0,0.49,0,0.73c-1.71,0-3.43,0-5.14,0c0-0.24,0-0.49,0-0.73
			C1156.2,417.34,1157.91,417.34,1159.63,417.34z"/>
		<path class="st12" d="M547.23,418.07c0-0.24,0-0.49,0-0.73c1.72,0,3.43,0,5.15,0c0,0.24,0,0.49,0,0.73
			C550.65,418.07,548.94,418.07,547.23,418.07z"/>
		<path class="st4" d="M33.22,354.26c-1.71,1.15-3.43,1.16-5.14,0C29.8,354.26,31.51,354.26,33.22,354.26z"/>
		<path class="st4" d="M860.77,354.26c-1.71,1.16-3.43,1.15-5.14,0C857.34,354.26,859.06,354.26,860.77,354.26z"/>
		<path class="st12" d="M283.62,417.34c0,0.24,0,0.49,0,0.73c-1.71,0-3.43,0-5.14,0c0-0.24,0-0.49,0-0.73
			C280.19,417.34,281.9,417.34,283.62,417.34z"/>
		<path class="st2" d="M68.5,355c-0.01-0.25-0.02-0.49-0.03-0.74c1.71,0,3.43,0,5.14,0c-0.01,0.25-0.02,0.49-0.03,0.74
			C71.88,355,70.19,355,68.5,355z"/>
		<path class="st11" d="M80.21,354.99c0-0.24,0-0.49,0-0.73c1.71,0,3.43,0,5.14,0c0,0.24,0,0.49,0,0.73
			C83.65,354.99,81.93,354.99,80.21,354.99z"/>
		<path class="st12" d="M97.11,354.26c0,0.24,0,0.49,0,0.73c-1.72,0-3.43,0-5.15,0c0-0.24,0.01-0.49,0-0.73
			C93.68,354.26,95.39,354.26,97.11,354.26z"/>
		<path class="st12" d="M1182.39,417.34c0,0.24,0,0.49,0,0.73c-1.71,0-3.43,0-5.14,0c0-0.24,0-0.49,0-0.73
			C1178.96,417.34,1180.68,417.34,1182.39,417.34z"/>
		<path class="st12" d="M990.74,354.99c0-0.24,0.01-0.49,0-0.73c1.71,0,3.43,0,5.14,0c0,0.24,0,0.49,0.01,0.73
			C994.17,354.99,992.45,354.99,990.74,354.99z"/>
		<path class="st12" d="M1194.14,417.34c0,0.24,0,0.49,0,0.73c-1.71,0-3.43,0-5.14,0c0-0.24,0-0.49-0.01-0.73
			C1190.71,417.34,1192.43,417.34,1194.14,417.34z"/>
		<path class="st4" d="M872.52,354.26c0.02,0.25,0.04,0.5,0.06,0.74c-1.73-0.3-3.63,0.66-5.2-0.74
			C869.09,354.26,870.81,354.26,872.52,354.26z"/>
		<path class="st4" d="M879.06,355.01c0.02-0.25,0.05-0.5,0.07-0.74c1.71,0,3.43,0,5.14,0C882.7,355.67,880.79,354.71,879.06,355.01
			z"/>
		<path class="st12" d="M306.38,417.34c0,0.24-0.01,0.49,0,0.73c-1.71,0-3.43,0-5.14,0c0-0.24,0-0.49,0-0.73
			C302.95,417.34,304.67,417.34,306.38,417.34z"/>
		<path class="st11" d="M967.97,354.99c0-0.24,0-0.49,0-0.73c1.71,0,3.43,0,5.14,0c0,0.24,0,0.49,0,0.73
			C971.4,354.99,969.69,354.99,967.97,354.99z"/>
		<path class="st3" d="M1241.13,418.07c1.71-1.15,3.43-1.15,5.14,0C1244.56,418.07,1242.85,418.07,1241.13,418.07z"/>
		<path class="st4" d="M1252.88,418.07c1.71-1.15,3.43-1.15,5.14,0C1256.31,418.07,1254.6,418.07,1252.88,418.07z"/>
		<path class="st3" d="M825.52,354.26c-1.47,1.11-2.94,1.11-4.41,0C822.59,354.26,824.06,354.26,825.52,354.26z"/>
		<path class="st3" d="M365.86,418.07c1.47-1.11,2.94-1.11,4.41,0C368.79,418.07,367.33,418.07,365.86,418.07z"/>
		<path class="st5" d="M400.37,418.07c0-0.24,0-0.49,0-0.73c1.47,0.23,3.12-0.59,4.41,0.73
			C403.31,418.07,401.84,418.07,400.37,418.07z"/>
		<path class="st3" d="M440.02,417.32c0,0.25,0,0.5,0,0.75c-1.47,0-2.94,0-4.41,0C436.9,416.74,438.56,417.58,440.02,417.32z"/>
		<path class="st3" d="M895.28,354.26c-1.47,1.11-2.94,1.11-4.41,0C892.34,354.26,893.81,354.26,895.28,354.26z"/>
		<path class="st3" d="M1311.63,418.07c1.47-1.11,2.94-1.11,4.41,0C1314.56,418.07,1313.09,418.07,1311.63,418.07z"/>
		<path class="st3" d="M1276.38,418.07c1.47-1.11,2.94-1.11,4.41,0C1279.32,418.07,1277.85,418.07,1276.38,418.07z"/>
		<path class="st3" d="M1346.87,418.07c1.47-1.11,2.94-1.11,4.41,0C1349.81,418.07,1348.34,418.07,1346.87,418.07z"/>
		<path class="st4" d="M21.47,354.26c-1.22,1.07-2.45,1.09-3.67,0C19.03,354.26,20.25,354.26,21.47,354.26z"/>
	</g>
</g>
</svg>
