<?xml version="1.0" encoding="utf-8"?>
<!-- Generator: Adobe Illustrator 16.0.0, SVG Export Plug-In . SVG Version: 6.00 Build 0)  -->
<!DOCTYPE svg PUBLIC "-//W3C//DTD SVG 1.1//EN" "http://www.w3.org/Graphics/SVG/1.1/DTD/svg11.dtd">
<svg version="1.1" xmlns="http://www.w3.org/2000/svg" xmlns:xlink="http://www.w3.org/1999/xlink" x="0px" y="0px"
	 width="134.75px" height="134.75px" viewBox="0 0 134.75 134.75" enable-background="new 0 0 134.75 134.75" xml:space="preserve">
<g id="Layer_12" display="none">
	<polygon display="inline" fill="none" stroke="#000000" stroke-miterlimit="10" points="68.242,18.402 86.083,18.259 
		93.917,26.425 101.583,25.426 104.583,16.593 91.417,6.426 40.75,7.759 42.917,17.258 76.932,43.093 67.417,48.258 34.592,33.197 
		38.667,28.667 36.25,18.924 28.083,17.924 9.083,32.254 17.083,43.253 55.333,63.59 56.634,82.24 16.083,56.921 5.917,58.753 
		3.25,76.254 29.583,118.587 69.25,131.734 75.417,122.589 75.083,99.255 106.38,85.421 98.583,111.922 104.917,117.589 
		110.25,114.255 121.75,77.755 132.25,73.089 131.25,67.088 126.396,65.087 129.417,55.422 123.75,30.088 115.417,30.088 
		100.75,37.259 	"/>
</g>
<g id="Layer_13" display="none">
	<polyline display="inline" fill="none" stroke="#000000" stroke-miterlimit="10" points="68.242,18.402 53.917,10.093 87.25,9.593 
		96.417,17.093 104.583,16.593 	"/>
	<line display="inline" fill="none" stroke="#000000" stroke-miterlimit="10" x1="86.083" y1="18.259" x2="87.25" y2="9.593"/>
	<line display="inline" fill="none" stroke="#000000" stroke-miterlimit="10" x1="93.917" y1="26.425" x2="96.417" y2="17.093"/>
	<polyline display="inline" fill="none" stroke="#000000" stroke-miterlimit="10" points="111.083,49.983 114.25,58.255 
		111.083,68.742 80.583,78.422 	"/>
	<line display="inline" fill="none" stroke="#000000" stroke-miterlimit="10" x1="120.25" y1="71.088" x2="111.083" y2="68.742"/>
	<line display="inline" fill="none" stroke="#000000" stroke-miterlimit="10" x1="123.917" y1="59.087" x2="114.25" y2="58.255"/>
	<polygon display="inline" fill="none" stroke="#000000" stroke-miterlimit="10" points="58.282,104.791 10.75,69.921 9.083,79.088 
		30.083,113.088 59.25,119.754 	"/>
	<line display="inline" fill="none" stroke="#000000" stroke-miterlimit="10" x1="9.083" y1="79.088" x2="18.242" y2="75.417"/>
	<line display="inline" fill="none" stroke="#000000" stroke-miterlimit="10" x1="18.242" y1="75.417" x2="37.083" y2="107.422"/>
	<line display="inline" fill="none" stroke="#000000" stroke-miterlimit="10" x1="37.083" y1="107.422" x2="58.636" y2="110.255"/>
	<line display="inline" fill="none" stroke="#000000" stroke-miterlimit="10" x1="37.083" y1="107.422" x2="30.083" y2="113.088"/>
	<polygon display="inline" fill="none" stroke="#000000" stroke-miterlimit="10" points="119.083,44.754 80.583,69.921 
		80.583,85.421 119.989,71.183 123.917,59.087 	"/>
	<polyline display="inline" fill="none" stroke="#000000" stroke-miterlimit="10" points="69.25,131.734 67.417,61.418 
		123.75,30.088 	"/>
	<line display="inline" fill="none" stroke="#000000" stroke-miterlimit="10" x1="9.083" y1="32.254" x2="67.417" y2="61.418"/>
	<line display="inline" fill="none" stroke="#000000" stroke-miterlimit="10" x1="100.75" y1="37.259" x2="105.615" y2="40.174"/>
	<polyline display="inline" fill="none" stroke="#000000" stroke-miterlimit="10" points="76.932,43.093 85.134,38.443 40.75,7.759 
			"/>
	<polyline display="inline" fill="none" stroke="#000000" stroke-miterlimit="10" points="5.917,58.753 57.542,95.259 56.634,82.24 
			"/>
	<polyline display="inline" fill="none" stroke="#000000" stroke-miterlimit="10" points="36.25,18.924 24.917,28.758 
		34.592,33.197 	"/>
	<line display="inline" fill="none" stroke="#000000" stroke-miterlimit="10" x1="75.083" y1="99.255" x2="68.479" y2="102.174"/>
	<polyline display="inline" fill="none" stroke="#000000" stroke-miterlimit="10" points="131.25,67.088 125.25,69.26 
		126.396,65.087 	"/>
	<path display="inline" fill="none" stroke="#000000" stroke-miterlimit="10" d="M131.25,67.088"/>
	<path display="inline" fill="none" stroke="#000000" stroke-miterlimit="10" d="M80.583,85.421"/>
	<polyline display="inline" fill="none" stroke="#000000" stroke-miterlimit="10" points="106.38,85.421 117.102,80.073 
		104.917,117.589 	"/>
</g>
<g id="Layer_4">
	<g id="XMLID_1_">
		<g>
			<path fill="#31A3DA" d="M120.04,71.04l3.88-11.95l-4.84-14.34l-8,5.23l-30.5,19.94v8.5v7l39.41-14.24L120.04,71.04z
				 M131.25,67.09l1,6l-10.5,4.66l-11.5,36.5l-5.33,3.34l12.18-37.52l-10.72,5.35l-31.3,13.83l-6.6,2.92L67.42,61.42l38.2-21.25
				l18.13-10.08l5.67,25.33l-3.02,9.67l-1.15,4.17L131.25,67.09z"/>
			<polygon fill="#ED5553" points="119.08,44.75 123.92,59.09 114.25,58.26 111.08,49.98 			"/>
			<polygon fill="#ED5553" points="123.92,59.09 120.04,71.04 111.08,68.74 114.25,58.26 			"/>
			<polygon fill="#ED5553" points="117.1,80.07 104.92,117.59 98.58,111.92 106.38,85.42 			"/>
			<polygon fill="#31A3DA" points="104.58,16.59 101.58,25.43 93.92,26.43 96.42,17.09 			"/>
			<polygon fill="#ED5553" points="96.42,17.09 93.92,26.43 86.08,18.26 87.25,9.59 			"/>
			<polygon fill="#31A3DA" points="87.25,9.59 86.08,18.26 68.24,18.4 53.92,10.09 			"/>
			<polygon fill="#ED5553" points="85.13,38.44 76.93,43.09 42.92,17.26 40.75,7.76 			"/>
			<polygon fill="#31A3DA" points="75.08,99.25 75.42,122.59 69.25,131.73 68.48,102.17 			"/>
			<path fill="#ED5553" d="M58.63,110.25l-0.35-5.46L18.24,75.42l-7.49-5.5l-1.67,9.17l21,34l29.17,6.66L58.63,110.25z
				 M68.48,102.17l0.77,29.561L29.58,118.59L3.25,76.25l2.67-17.5l51.62,36.51l-0.91-13.02l-1.3-18.65L17.08,43.25l-8-11
				l58.34,29.17L68.48,102.17z"/>
			<polygon fill="#31A3DA" points="36.25,18.92 38.67,28.67 34.59,33.2 24.92,28.76 			"/>
			<polygon fill="#31A3DA" points="18.24,75.42 37.08,107.42 30.08,113.09 9.08,79.09 			"/>
			<polygon fill="#31A3DA" points="10.75,69.92 18.24,75.42 9.08,79.09 			"/>
		</g>
		<g>
		</g>
	</g>
</g>
</svg>
